<?xml version="1.0" encoding="utf-8"?>
<!-- Generator: Adobe Illustrator 22.1.0, SVG Export Plug-In . SVG Version: 6.00 Build 0)  -->
<svg version="1.1" id="a313686a-a05f-4f8e-9807-e924eb5557fd"
	 xmlns="http://www.w3.org/2000/svg" xmlns:xlink="http://www.w3.org/1999/xlink" x="0px" y="0px" viewBox="0 0 947 635"
	 style="enable-background:new 0 0 947 635;" xml:space="preserve">
<style type="text/css">
	.st0{fill:#F0F6FC;}
	.st1{fill:none;}
	.st2{fill:#45E6AD;}
	.st3{fill:none;stroke:#AB2B3E;stroke-miterlimit:10;}
	.st4{fill:#AB2B3E;}
	.st5{font-family:'TitilliumWeb-SemiBold';}
	.st6{font-size:14px;}
	.st7{fill:none;stroke:#455B71;stroke-miterlimit:10;}
	.st8{fill:#455B71;}
	.st9{fill:#050066;}
	.st10{fill:none;stroke:#FF667D;stroke-width:2;stroke-miterlimit:10;stroke-dasharray:12.03,12.03;}
	.st11{fill:none;stroke:#0B00D9;stroke-width:2.22;stroke-miterlimit:10;}
	.st12{fill:#0B00D9;}
	.st13{font-size:17px;}
	.st14{fill:none;stroke:#FF667D;stroke-miterlimit:10;}
	.st15{fill:none;stroke:#45E6AD;stroke-miterlimit:10;}
	.st16{fill:#FFFFFF;}
	.st17{fill:#6262D3;}
	.st18{fill:#3399FF;}
	.st19{fill:#17428A;}
</style>
<title>7.2_figura</title>
<rect class="st0" width="947" height="635"/>
<rect x="298" y="190" class="st1" width="19" height="71"/>
<path class="st2" d="M475.9,490.9c-95.4,0-173.1-77.6-173.1-173.1s77.6-173.1,173.1-173.1S649,222.4,649,317.8
	S571.4,490.9,475.9,490.9z M475.9,164.8c-84.4,0-153.1,68.7-153.1,153.1s68.7,153.1,153.1,153.1S629,402.2,629,317.8
	S560.3,164.8,475.9,164.8z"/>
<line class="st3" x1="475.5" y1="176.6" x2="475.5" y2="254"/>
<polygon class="st4" points="475.5,169.5 471.4,179.4 475.5,177.1 479.6,179.4 "/>
<rect x="443" y="209" class="st0" width="65" height="28"/>
<text transform="matrix(1 0 0 1 454.96 226.8)" class="st4 st5 st6">Regole</text>
<line class="st3" x1="475.5" y1="456.9" x2="475.5" y2="379.5"/>
<polygon class="st4" points="475.5,464 479.6,454 475.5,456.4 471.4,454 "/>
<line class="st7" x1="622.8" y1="232.3" x2="508.9" y2="300.1"/>
<polygon class="st8" points="628.8,228.7 618.2,230.3 622.3,232.6 622.4,237.2 "/>
<line class="st7" x1="327.2" y1="407.7" x2="442.2" y2="339.7"/>
<polygon class="st8" points="321.2,411.3 331.8,409.8 327.7,407.5 327.7,402.8 "/>
<line class="st7" x1="622" y1="409.6" x2="508.4" y2="339.6"/>
<polygon class="st8" points="628,413.3 621.7,404.6 621.5,409.3 617.4,411.5 "/>
<line class="st7" x1="331" y1="229.4" x2="442.5" y2="298.8"/>
<polygon class="st8" points="325,225.7 331.3,234.4 331.4,229.7 335.6,227.5 "/>
<line class="st3" x1="591.9" y1="320.5" x2="514.5" y2="320.5"/>
<polygon class="st4" points="599,320.5 589,316.4 591.4,320.5 589,324.6 "/>
<line class="st3" x1="360.1" y1="319.5" x2="437.5" y2="319.5"/>
<polygon class="st4" points="353,319.5 363,323.6 360.6,319.5 363,315.4 "/>
<rect x="443" y="401" class="st0" width="65" height="28"/>
<text transform="matrix(1 0 0 1 454.96 418.8)" class="st4 st5 st6">Regole</text>
<rect x="166" y="141" class="st0" width="120" height="28"/>
<text transform="matrix(1 0 0 1 174.94 158.8)" class="st9 st5 st6">Musei non statali</text>
<rect x="163" y="197" class="st0" width="73" height="28"/>
<text transform="matrix(1 0 0 1 175.09 214.8)" class="st9 st5 st6">Regioni</text>
<rect x="223.5" y="90.5" class="st0" width="120" height="28"/>
<text transform="matrix(1 0 0 1 237.72 108.3)" class="st9 st5 st6">Aziende private</text>
<circle class="st10" cx="475" cy="319" r="180"/>
<circle class="st11" cx="475" cy="319" r="200"/>
<polygon class="st12" points="476.4,105 468.9,118.1 484,118.1 "/>
<path class="st12" d="M324.4,145.4l-13.7-5.3c-0.4-0.2-0.9-0.2-1.3,0l-13.7,5.3c-0.4,0.1-0.6,0.5-0.6,0.9v2.2c0,0.5,0.4,0.9,0.9,0.9
	l0,0h28.1c0.5,0,0.9-0.4,0.9-0.9l0,0v-2.2C325,145.9,324.8,145.5,324.4,145.4z M298.8,151.2v9.4h-0.9c-0.5,0-0.9,0.4-0.9,0.9
	c0,0,0,0,0,0v2.8h26.2v-2.8c0-0.5-0.4-0.9-0.9-0.9c0,0,0,0,0,0h-0.9v-9.4h-3.8v9.4h-5.6v-9.4h-3.8v9.4h-5.6v-9.4H298.8z
	 M324.1,166.2h-28.1c-0.5,0-0.9,0.4-0.9,0.9l0,0v1.9c0,0.5,0.4,0.9,0.9,0.9l0,0h28.1c0.5,0,0.9-0.4,0.9-0.9l0,0v-1.9
	C325,166.7,324.6,166.2,324.1,166.2L324.1,166.2z"/>
<rect x="662" y="146" class="st0" width="120" height="28"/>
<text transform="matrix(1 0 0 1 670.94 163.8)" class="st9 st5 st6">Musei non statali</text>
<rect x="577" y="79" class="st0" width="120" height="28"/>
<text transform="matrix(1 0 0 1 599.5 96.8)" class="st9 st5 st13">Framework di</text>
<text transform="matrix(1 0 0 1 593.5 117.2)" class="st9 st5 st13">interoperabilità</text>
<rect x="596" y="496" class="st0" width="120" height="28"/>
<text transform="matrix(1 0 0 1 594.44 509.8)" class="st9 st5 st13">Piattaforme nazionali</text>
<text transform="matrix(1 0 0 1 594.66 530.2)" class="st9 st5 st13">e servizi centralizzati</text>
<rect x="730" y="204" class="st0" width="120" height="28"/>
<text transform="matrix(1 0 0 1 740.8 221.8)" class="st9 st5 st6">Altri stakeholder</text>
<rect x="736" y="297" class="st0" width="60" height="28"/>
<text transform="matrix(1 0 0 1 745.8 314.8)" class="st9 st5 st6">Turisti</text>
<path class="st12" d="M664.4,150.4l-13.7-5.3c-0.4-0.2-0.9-0.2-1.3,0l-13.7,5.3c-0.4,0.1-0.6,0.5-0.6,0.9v2.2c0,0.5,0.4,0.9,0.9,0.9
	l0,0h28.1c0.5,0,0.9-0.4,0.9-0.9l0,0v-2.2C665,150.9,664.8,150.5,664.4,150.4z M638.8,156.2v9.4h-0.9c-0.5,0-0.9,0.4-0.9,0.9
	c0,0,0,0,0,0v2.8h26.2v-2.8c0-0.5-0.4-0.9-0.9-0.9c0,0,0,0,0,0h-0.9v-9.4h-3.8v9.4h-5.6v-9.4h-3.8v9.4h-5.6v-9.4H638.8z
	 M664.1,171.2h-28.1c-0.5,0-0.9,0.4-0.9,0.9l0,0v1.9c0,0.5,0.4,0.9,0.9,0.9l0,0h28.1c0.5,0,0.9-0.4,0.9-0.9l0,0v-1.9
	C665,171.7,664.6,171.2,664.1,171.2L664.1,171.2z"/>
<path class="st12" d="M379.5,99.8v-5.7h1.1v-2.3h-20.6v2.3h1.1v5.7h-8.9v22.9h14.6v-6.9h6.9v6.9h14V99.8H379.5z M358.6,120.4h-3.4
	V117h3.4V120.4z M358.6,113.5h-3.4v-3.4h3.4V113.5z M358.6,106.6h-3.4v-3.4h3.4V106.6z M368.6,113.5h-3.4v-3.4h3.4V113.5z
	 M368.6,106.6h-3.4v-3.4h3.4V106.6z M368.6,99.8h-3.4v-3.4h3.4V99.8z M375.5,113.5h-3.4v-3.4h3.4V113.5z M375.5,106.6h-3.4v-3.4h3.4
	V106.6z M375.5,99.8h-3.4v-3.4h3.4V99.8z M385,120.4h-3.4V117h3.4V120.4z M385,113.5h-3.4v-3.4h3.4V113.5z M385,106.6h-3.4v-3.4h3.4
	V106.6z"/>
<path class="st12" d="M699.2,206.1h-5.8c-0.5,0-1.1,0.2-1.5,0.6l-6.6,6l0,0c-1.1,1-1.1,2.7-0.1,3.8c0,0,0,0,0,0c1,1,2.7,1.1,3.8,0.2
	l0,0l5.4-4.9c0.5-0.4,1.2-0.3,1.5,0.2c0.3,0.4,0.3,1-0.1,1.4l-1.8,1.6l9.8,8c0.2,0.2,0.4,0.3,0.5,0.5v-13l-3.7-3.7
	C700.3,206.3,699.8,206,699.2,206.1L699.2,206.1z M706.6,210.4v15c0,1.2,1,2.1,2.2,2.1l0,0h4.3v-17.2L706.6,210.4z M709.8,225.4
	c-0.6,0-1.1-0.5-1.1-1.1c0-0.6,0.5-1.1,1.1-1.1c0.6,0,1.1,0.5,1.1,1.1C710.9,224.9,710.4,225.4,709.8,225.4
	C709.8,225.4,709.8,225.4,709.8,225.4L709.8,225.4z M670,227.6h4.3c1.2,0,2.2-1,2.2-2.1v0v-15H670V227.6z M673.2,223.3
	c0.6,0,1.1,0.5,1.1,1.1s-0.5,1.1-1.1,1.1s-1.1-0.5-1.1-1.1c0,0,0,0,0,0C672.1,223.7,672.6,223.3,673.2,223.3L673.2,223.3
	L673.2,223.3z M702.5,224.5l-10-8.1l-2,1.8c-1.9,1.9-5,1.8-6.8-0.1c-1.9-1.9-1.8-5,0.1-6.8c0.1-0.1,0.1-0.1,0.2-0.2l5.5-5h-5.6
	c-0.6,0-1.1,0.2-1.5,0.6l-3.7,3.7v15h1.2l6.1,5.5c1.8,1.5,4.6,1.2,6-0.6c0,0,0,0,0,0l0,0l1.2,1c1.1,0.9,2.6,0.7,3.5-0.4l2.1-2.6
	l0.4,0.3c0.9,0.7,2.3,0.6,3-0.3l0.6-0.8C703.6,226.6,703.4,225.3,702.5,224.5L702.5,224.5z"/>
<rect x="735" y="364" class="st0" width="120" height="28"/>
<text transform="matrix(1 0 0 1 745.8 381.8)" class="st9 st5 st6">Altri stakeholder</text>
<rect x="701" y="427" class="st0" width="120" height="28"/>
<text transform="matrix(1 0 0 1 709.19 444.8)" class="st9 st5 st6">Media companies</text>
<path class="st12" d="M710.2,365h-5.8c-0.5,0-1.1,0.2-1.5,0.6l-6.6,6l0,0c-1.1,1-1.1,2.7-0.1,3.8c0,0,0,0,0,0c1,1,2.7,1.1,3.8,0.2
	l0,0l5.4-4.9c0.5-0.4,1.2-0.3,1.5,0.2c0.3,0.4,0.3,1-0.1,1.4l-1.8,1.6l9.8,8c0.2,0.2,0.4,0.3,0.5,0.5v-13l-3.7-3.7
	C711.3,365.2,710.8,365,710.2,365L710.2,365z M717.6,369.4v15c0,1.2,1,2.1,2.2,2.1l0,0h4.3v-17.1H717.6z M720.8,384.4
	c-0.6,0-1.1-0.5-1.1-1.1c0-0.6,0.5-1.1,1.1-1.1c0.6,0,1.1,0.5,1.1,1.1C721.9,383.9,721.4,384.4,720.8,384.4
	C720.8,384.4,720.8,384.4,720.8,384.4L720.8,384.4z M681,386.5h4.3c1.2,0,2.2-1,2.2-2.1c0,0,0,0,0,0v-15H681V386.5z M684.2,382.3
	c0.6,0,1.1,0.5,1.1,1.1s-0.5,1.1-1.1,1.1s-1.1-0.5-1.1-1.1c0,0,0,0,0,0C683.1,382.7,683.6,382.3,684.2,382.3L684.2,382.3z
	 M713.5,383.5l-10-8.1l-2,1.8c-1.9,1.9-5,1.8-6.8-0.1s-1.8-5,0.1-6.8c0.1-0.1,0.1-0.1,0.2-0.2l5.5-5h-5.6c-0.6,0-1.1,0.2-1.5,0.6
	l-3.7,3.7v15h1.2l6.1,5.5c1.8,1.5,4.6,1.2,6-0.6c0,0,0,0,0,0l0,0l1.2,1c1.1,0.9,2.6,0.7,3.5-0.4l2.1-2.6l0.4,0.3
	c0.9,0.7,2.3,0.6,3-0.3l0.6-0.8C714.6,385.6,714.4,384.2,713.5,383.5L713.5,383.5z"/>
<path class="st12" d="M721.7,313.9v-4.8c0-2.5-2-4.5-4.5-4.5h-1.7c0.2-0.3,0.3-0.6,0.5-1c1.8-0.2,3.1-1.8,3.1-3.5
	c0-0.6-0.2-1.3-0.5-1.8h4.8c1.5-0.1,2.6-1.4,2.5-2.9c-0.1-1.4-1.2-2.4-2.5-2.5h-6.2c-0.5-4.1-3.9-7.2-8-7.2h-3.7
	c-4.5,0-8.1,3.6-8.1,8.1l0,0v3.2c-1.7,1-2.3,3.2-1.3,4.9c0.6,1,1.5,1.6,2.6,1.8c0.1,0.3,0.3,0.6,0.5,1h-1.7c-2.5,0-4.5,2-4.5,4.5
	v4.8c-1.2,1-2.1,2.4-2.3,4l-1.5,8.3h36.4l-1.5-8.3C723.7,316.3,722.9,314.9,721.7,313.9z M716.3,301.5v-2.8c0.8,0.6,1,1.6,0.5,2.4
	C716.6,301.3,716.4,301.5,716.3,301.5L716.3,301.5z M697.3,300.2c0-0.6,0.3-1.2,0.9-1.5v2.9c0,0.1,0,0.1,0,0.2
	C697.6,301.4,697.3,300.8,697.3,300.2L697.3,300.2z M704.4,294.8h5.4v1.8h-5.4V294.8z M700,298.4h14.4v3.2c0,1.2-0.5,2.3-1.3,3.2
	l-3.9,3.5h-3.9c-0.2,0-0.5-0.1-0.6-0.3l-3.3-3.3c-0.8-0.8-1.3-2-1.3-3.2L700,298.4z M700.9,324.4h-1.8v-10.9l1.8-0.5V324.4z
	 M715.4,324.4h-1.8V313l1.7,0.5v10.9L715.4,324.4L715.4,324.4z M719.9,312.8l-0.5-0.2l-5.8-1.6V310h-1.9v1.7
	c-0.4,2.1-2.3,3.6-4.4,3.7H707c-2.1-0.1-3.9-1.6-4.3-3.7V310h-1.8v1.1l-5.8,1.6l-0.5,0.2v-3.8c0-1.5,1.2-2.7,2.7-2.7l0,0h3.2
	l2.8,2.8c0.5,0.5,1.2,0.8,1.9,0.8h4c0.7,0,1.4-0.3,1.9-0.8l2.8-2.8h3.1c1.5,0,2.7,1.2,2.7,2.7v1.8h0.2L719.9,312.8z"/>
<circle class="st0" cx="475" cy="319" r="68"/>
<text transform="matrix(1 0 0 1 423.62 303.03)" class="st9 st5 st13">Valorizzazione</text>
<text transform="matrix(1 0 0 1 441.02 323.43)" class="st9 st5 st13">dei musei</text>
<text transform="matrix(1 0 0 1 445.34 343.83)" class="st9 st5 st13">del SMN</text>
<rect x="538" y="364" class="st0" width="65" height="28"/>
<text transform="matrix(1 0 0 1 539.15 381.8)" class="st8 st5 st6">Dati aperti</text>
<rect x="351" y="247" class="st0" width="65" height="28"/>
<text transform="matrix(1 0 0 1 352.15 264.8)" class="st8 st5 st6">Dati aperti</text>
<text transform="matrix(1 0 0 1 412.17 54.03)" class="st12 st5 st13">Federazione degli</text>
<text transform="matrix(1 0 0 1 400.39 74.43)" class="st12 st5 st13">stakeholder del SMN</text>
<line class="st14" x1="562" y1="153.5" x2="587.5" y2="121.5"/>
<line class="st15" x1="590.8" y1="491.2" x2="558.8" y2="465.8"/>
<path class="st12" d="M672.5,425.7c-9.7,0-17.5,6.8-17.5,15.1c0,3.1,1.1,6.1,3,8.5c-0.5,3.7-5.3,6-5.3,6l9.1-2.5
	c3.2,2.1,6.9,3.2,10.7,3.2c9.7,0,17.5-6.8,17.5-15.1S682.2,425.7,672.5,425.7z"/>
<path class="st16" d="M677.6,443.4c-0.9,0-1.7,0.3-2.4,0.8l-4.1-2.5c0.1-0.5,0.1-1.1,0-1.7l4.1-2.5c1.6,1.3,4,1,5.4-0.6
	c1.3-1.6,1-4-0.6-5.4c-1.6-1.3-4-1-5.4,0.6c-0.7,0.9-1,2.1-0.7,3.2l-4.1,2.5c-1.7-1.3-4.1-1-5.4,0.6c-1.3,1.7-1,4.1,0.6,5.4
	c1.4,1.1,3.3,1.1,4.7,0l4.1,2.5c-0.5,2.1,0.9,4.1,2.9,4.6c2.1,0.5,4.1-0.9,4.6-2.9c0.5-2.1-0.9-4.1-2.9-4.6
	C678.2,443.4,677.9,443.4,677.6,443.4L677.6,443.4z"/>
<rect x="166" y="487" class="st0" width="120" height="28"/>
<text transform="matrix(1 0 0 1 176.8 504.8)" class="st9 st5 st6">Altri stakeholder</text>
<rect x="74" y="421" class="st0" width="175" height="28"/>
<text transform="matrix(1 0 0 1 86.13 438.8)" class="st9 st5 st6">Istituti di ricerca, studiosi</text>
<rect x="125" y="293" class="st0" width="80" height="28"/>
<text transform="matrix(1 0 0 1 138.47 310.8)" class="st9 st5 st6">Cittadini</text>
<rect x="76" y="349" class="st0" width="149" height="44"/>
<text transform="matrix(1 0 0 1 123.65 366.8)" class="st9 st5 st6">Province e</text>
<text transform="matrix(1 0 0 1 86.31 383.6)" class="st9 st5 st6">Città metropolitane</text>
<path class="st12" d="M325.2,488h-5.8c-0.5,0-1.1,0.2-1.5,0.6l-6.6,6l0,0c-1.1,1-1.1,2.7-0.1,3.8c0,0,0,0,0,0c1,1,2.7,1.1,3.8,0.2
	l0,0l5.4-4.9c0.4-0.4,1.1-0.5,1.5-0.1s0.5,1.1,0.1,1.5c0,0-0.1,0.1-0.1,0.1l-1.8,1.6l9.8,8c0.2,0.2,0.4,0.3,0.5,0.5v-13l-3.7-3.7
	C326.3,488.2,325.8,488,325.2,488L325.2,488z M332.5,492.4v15c0,1.2,1,2.1,2.1,2.1h4.3v-17.1H332.5z M335.8,507.4
	c-0.6,0-1.1-0.5-1.1-1.1s0.5-1.1,1.1-1.1s1.1,0.5,1.1,1.1v0C336.9,506.9,336.4,507.4,335.8,507.4
	C335.8,507.4,335.8,507.4,335.8,507.4L335.8,507.4z M296,509.5h4.3c1.2,0,2.1-1,2.1-2.1v-15H296V509.5z M299.2,505.3
	c0.6,0,1.1,0.5,1.1,1.1s-0.5,1.1-1.1,1.1s-1.1-0.5-1.1-1.1c0,0,0,0,0,0C298.1,505.7,298.6,505.3,299.2,505.3L299.2,505.3z
	 M328.5,506.5l-10-8.1l-2,1.8c-1.9,1.9-5,1.8-6.8-0.1c-1.9-1.9-1.8-5,0.1-6.8c0.1-0.1,0.1-0.1,0.2-0.2l5.5-5h-5.6
	c-0.6,0-1.1,0.2-1.5,0.6l-3.7,3.7v15h1.2l6.1,5.5c1.8,1.5,4.5,1.2,6-0.6l0,0l1.2,1c1.1,0.9,2.6,0.7,3.5-0.4l2.1-2.6l0.4,0.3
	c0.9,0.7,2.3,0.6,3-0.3l0.6-0.8C329.5,508.6,329.4,507.2,328.5,506.5L328.5,506.5z"/>
<path class="st12" d="M293.9,428.6l-17.4-5.4c-1-0.3-2-0.3-2.9,0l-17.4,5.4c-0.8,0.2-1.3,1-1.1,1.8c0.1,0.5,0.5,0.9,1.1,1.1l3,0.9
	c-0.7,0.8-1.1,1.9-1.1,2.9c-0.9,0.5-1.3,1.7-0.8,2.6c0.2,0.3,0.4,0.5,0.7,0.7l-1.6,7.2c-0.1,0.5,0.2,1.1,0.8,1.2c0.1,0,0.2,0,0.2,0
	h3.5c0.6,0,1-0.4,1-1c0-0.1,0-0.2,0-0.2l-1.6-7.2c0.9-0.6,1.1-1.8,0.5-2.7c-0.2-0.2-0.4-0.5-0.6-0.6c0-0.9,0.5-1.8,1.3-2.3l12.2,3.8
	c1,0.3,2,0.3,2.9,0l17.4-5.4c0.8-0.2,1.3-1,1.1-1.8C294.9,429.1,294.4,428.7,293.9,428.6L293.9,428.6z M277,438.7
	c-1.3,0.4-2.8,0.4-4.1,0l-9.1-2.8L263,443c0,2.2,5.4,4,12,4s12-1.8,12-4l-0.9-7.1L277,438.7z"/>
<path class="st12" d="M265.7,365.5h-7.4v-9.2c0-0.7-0.6-1.3-1.3-1.3h-7.9c-0.7,0-1.3,0.6-1.3,1.3v3.9h-3.5v-4.4
	c0-0.5-0.4-0.9-0.9-0.9c0,0,0,0,0,0h-0.9c-0.5,0-0.9,0.4-0.9,0.9l0,0v4.4h-3.5v-4.4c0-0.5-0.4-0.9-0.9-0.9c0,0,0,0,0,0h-0.9
	c-0.5,0-0.9,0.4-0.9,0.9c0,0,0,0,0,0v4.4h-2.2c-0.7,0-1.3,0.6-1.3,1.3v19.7c0,1,0.8,1.8,1.8,1.8h31.5c1,0,1.8-0.8,1.8-1.8v-14.4
	C267,366.1,266.4,365.5,265.7,365.5z M239,377.1c0,0.4-0.3,0.7-0.6,0.7c0,0,0,0,0,0h-2.2c-0.4,0-0.7-0.3-0.7-0.6c0,0,0,0,0,0v-2.2
	c0-0.4,0.3-0.7,0.6-0.7c0,0,0,0,0,0h2.2c0.4,0,0.7,0.3,0.7,0.6c0,0,0,0,0,0V377.1z M239,371.8c0,0.4-0.3,0.7-0.6,0.7c0,0,0,0,0,0
	h-2.2c-0.4,0-0.7-0.3-0.7-0.6c0,0,0,0,0,0v-2.2c0-0.4,0.3-0.7,0.6-0.7c0,0,0,0,0,0h2.2c0.4,0,0.7,0.3,0.7,0.6c0,0,0,0,0,0V371.8z
	 M239,366.6c0,0.4-0.3,0.7-0.6,0.7c0,0,0,0,0,0h-2.2c-0.4,0-0.7-0.3-0.7-0.6c0,0,0,0,0,0v-2.2c0-0.4,0.3-0.7,0.6-0.7c0,0,0,0,0,0
	h2.2c0.4,0,0.7,0.3,0.7,0.6c0,0,0,0,0,0V366.6z M246,377.1c0,0.4-0.3,0.7-0.6,0.7c0,0,0,0,0,0h-2.2c-0.4,0-0.7-0.3-0.7-0.6
	c0,0,0,0,0,0v-2.2c0-0.4,0.3-0.7,0.6-0.7c0,0,0,0,0,0h2.2c0.4,0,0.7,0.3,0.7,0.6c0,0,0,0,0,0V377.1z M246,371.8
	c0,0.4-0.3,0.7-0.6,0.7c0,0,0,0,0,0h-2.2c-0.4,0-0.7-0.3-0.7-0.6c0,0,0,0,0,0v-2.2c0-0.4,0.3-0.7,0.6-0.7c0,0,0,0,0,0h2.2
	c0.4,0,0.7,0.3,0.7,0.6c0,0,0,0,0,0V371.8z M246,366.6c0,0.4-0.3,0.7-0.6,0.7c0,0,0,0,0,0h-2.2c-0.4,0-0.7-0.3-0.7-0.6c0,0,0,0,0,0
	v-2.2c0-0.4,0.3-0.7,0.6-0.7c0,0,0,0,0,0h2.2c0.4,0,0.7,0.3,0.7,0.6c0,0,0,0,0,0V366.6z M254.8,371.8c0,0.4-0.3,0.7-0.6,0.7
	c0,0,0,0,0,0h-2.2c-0.4,0-0.7-0.3-0.7-0.6c0,0,0,0,0,0v-2.2c0-0.4,0.3-0.7,0.6-0.7c0,0,0,0,0,0h2.2c0.4,0,0.7,0.3,0.7,0.6
	c0,0,0,0,0,0V371.8z M254.8,366.6c0,0.4-0.3,0.7-0.6,0.7c0,0,0,0,0,0h-2.2c-0.4,0-0.7-0.3-0.7-0.6c0,0,0,0,0,0v-2.2
	c0-0.4,0.3-0.7,0.6-0.7c0,0,0,0,0,0h2.2c0.4,0,0.7,0.3,0.7,0.6c0,0,0,0,0,0V366.6z M254.8,361.3c0,0.4-0.3,0.7-0.6,0.7c0,0,0,0,0,0
	h-2.2c-0.4,0-0.7-0.3-0.7-0.6c0,0,0,0,0,0v-2.2c0-0.4,0.3-0.7,0.6-0.7c0,0,0,0,0,0h2.2c0.4,0,0.7,0.3,0.7,0.6c0,0,0,0,0,0V361.3z
	 M263.5,377.1c0,0.4-0.3,0.7-0.6,0.7c0,0,0,0,0,0h-2.2c-0.4,0-0.7-0.3-0.7-0.6c0,0,0,0,0,0v-2.2c0-0.4,0.3-0.7,0.6-0.7c0,0,0,0,0,0
	h2.2c0.4,0,0.7,0.3,0.7,0.6c0,0,0,0,0,0V377.1z M263.5,371.8c0,0.4-0.3,0.7-0.6,0.7c0,0,0,0,0,0h-2.2c-0.4,0-0.7-0.3-0.7-0.6
	c0,0,0,0,0,0v-2.2c0-0.4,0.3-0.7,0.6-0.7c0,0,0,0,0,0h2.2c0.4,0,0.7,0.3,0.7,0.6c0,0,0,0,0,0V371.8z"/>
<path class="st12" d="M212,301.1c3.2,0,5.7-2.6,5.7-5.7c0-3.2-2.6-5.7-5.7-5.7c-3.2,0-5.7,2.6-5.7,5.7c0,0,0,0,0,0
	C206.3,298.6,208.8,301.1,212,301.1z M252,301.1c3.2,0,5.7-2.6,5.7-5.7c0-3.2-2.6-5.7-5.7-5.7c-3.2,0-5.7,2.6-5.7,5.7c0,0,0,0,0,0
	C246.3,298.6,248.8,301.1,252,301.1z M254.9,304h-5.7c-1.5,0-2.9,0.6-4,1.7c3.7,2,6.2,5.6,6.7,9.8h5.9c1.6,0,2.9-1.3,2.9-2.9v-2.9
	C260.6,306.6,258,304,254.9,304C254.9,304,254.9,304,254.9,304z M232,304c5.5,0,10-4.5,10-10s-4.5-10-10-10s-10,4.5-10,10
	S226.5,304,232,304z M238.9,306.9h-0.7c-3.9,1.9-8.4,1.9-12.2,0h-0.7c-5.7,0-10.3,4.6-10.3,10.3v2.6c0,2.4,1.9,4.3,4.3,4.3h25.7
	c2.4,0,4.3-1.9,4.3-4.3v-2.6C249.1,311.5,244.5,306.9,238.9,306.9z M218.9,305.7c-1.1-1.1-2.5-1.7-4-1.7h-5.7
	c-3.2,0-5.7,2.6-5.7,5.7v2.9c0,1.6,1.3,2.9,2.9,2.9h5.9C212.7,311.3,215.2,307.7,218.9,305.7L218.9,305.7z"/>
<path id="a012bc2f-7555-469a-81b2-9547e6d53434" class="st12" d="M276.3,227.9v-0.1v-0.4v-0.1v-0.1h0l-0.1-0.1v-0.1v-0.2V226v-0.1
	l-0.2-0.4l0-0.1v-0.1v-0.1v-0.1V225l-0.2-0.1l-0.1-0.1l-0.1-0.2l-0.9-0.8l-0.3-0.1h-0.2l-0.3-0.1l-0.2-0.1l-0.3-0.2l-0.2-0.1h-0.1
	H273l0,0.1h-0.1h-0.1h-0.2l-0.1-0.1l-0.1-0.1l0-0.1V223l-0.1-0.1l-0.1-0.3l0-0.1l-0.1-0.1l-0.1-0.1l-1-0.3h-0.1h-0.1h-0.1l-0.1,0.1
	l-0.3,0.3l-0.3,0.2l-0.3,0.2h-0.3H269h-0.1h-0.1h-0.1l0,0l0-0.1v-0.1v-0.1v-0.1l-0.1-0.1l-0.1-0.1l-1.6-0.8h-0.1h-0.2l-0.2,0.1h-0.2
	h-0.1h-0.1v-0.1v-0.3v-0.6v-0.1v-0.1l0.1-0.3v-0.1V220v-0.1l-0.1-0.1l-0.2-0.1l-0.2-0.1l-0.2-0.1L265,219l-0.1-0.1l-0.1-0.1h-0.2
	h-0.2l-3-1.7h-0.1h-0.1h-0.1H261l-0.4-0.1l-0.2-0.1l-0.1-0.1v-0.1v-0.1l-0.1-0.3v-0.1l-0.1-1v-0.1v-0.1l0.6-0.4l0.4-0.3l0.1-0.1
	v-0.1v-0.1l0.1-0.2l0.1-0.2l0.1-0.1h0.1l0.7,0.3l0.5,0.1l0.3,0.1l0.3,0.2l0.1,0.1h0.1l0.2,0.1h0.1h0.1l0.1-0.1l0.1-0.1h0.1l0.2,0.1
	h0.2h0.1h0.1h0l0-0.1l0-0.1v-0.1v-0.1v-0.1l-0.1-0.1v-0.1V214l0.1-0.1l0.2,0.1l0.6-0.1l0.1-0.1l0.1-0.1v-0.1h-0.1h-0.1h-0.4h-0.2
	h-0.1l0-0.1v-0.1v-0.1v-0.2v-0.1v-0.1l0,0l0,0l0,0l-0.3-0.1h-0.1h-0.1V213h0l-0.2-0.4v-0.1v-0.1l-0.3-0.3v-0.1l-0.1-0.1v-0.1v-0.1
	l0-0.3v-0.1v-0.1l-0.1-0.1l-0.1-0.1l-0.2-0.1l-0.4-0.2l-0.1-0.1v-0.1v-0.1v-0.3l0-0.1l0.3-0.4l0-0.2V209v-0.1h-0.1l-0.3-0.1
	l-0.1-0.1h0l-0.1-0.1l-0.1-0.1v-0.1v-0.1V208v-0.1v-0.1v-0.1l0.2-0.2l0.1-0.1l0.1-0.1l0.1-0.2v-0.1V207v-0.1v-0.3v-0.1v-0.1v-0.1
	h-0.1l-0.2-0.1l-0.1-0.1v-0.1V206v-0.1v-0.1l0.1-0.1h0.1h0.3h0.1l0.1-0.1v-0.2v-0.3l0-0.1l0.1-0.1h0.1H263h0.2l0.2,0.1h0.2h0.5h0.1
	l0.1,0.1h0.1h0.1h0.1h0.2h0.4h0.1h0.1l0.5-0.2l0.3-1v-0.3l0-0.1l-0.1-0.1h-0.1h-0.1h-0.2h-0.1h-0.1l-0.1-0.1l-0.1-0.1l-0.1-0.1v-0.1
	V203v-0.2l-0.4-0.7l-0.1-0.1l-0.4-0.3l-0.1-0.1h-0.1h-0.1l0,0l-0.2,0.1h-0.1h-0.1H263l-0.1,0.2v0.1v0.1v0.1v0.1l0,0.1v0.2v0.1v0.1
	l-0.2,0.2l-0.1,0.1l-0.1,0.1l-0.1,0.2v0.1l0,0.1v0.1h-0.1h-0.1l-0.3-0.1h-0.1h-0.1l-0.3,0.3h-0.1L261,204h-0.1h-0.2h-0.1l-0.1-0.1
	h-0.1h-0.1l-0.1,0.1v0.1l-0.1,0.2v0.1v0.1l0,0h-0.2h-1.4l-0.4,0.4v0.2v0.1v0.1v0.2v0.1l-0.2,0.1l-1.5,0.7l0,0.1l-0.2,0.4v0.1
	l-0.1,0.1l0,0l0,0l-0.6,0.1l-0.1,0.1v0.1v0.1v0.1l0.1,0.3v0.1v0.1v0.1v0.1v0.1l-0.1,0.1l-0.2,0.1l-0.5,0.1h-0.2h-0.1l-0.2-0.4h-0.1
	h-0.1H254l-0.1,0.1l-0.1,0.1v0.1v0.1v0.1v0.1v0.2l-0.1,0.2l-0.1,0.1l-0.2,0.3l-0.1,0.1l-0.2,0.1l-0.4,0.2l-0.2,0.2h-0.1h-0.1
	l-0.1-0.1l-0.1-0.3h-0.1h-0.1l-0.6,0.1l-0.1-0.1h-0.1H251l-0.1-0.1l0.2-0.3l0.1-0.1l0.1-0.1v-0.1h-0.1l-0.2-0.1l-0.1-0.1l0,0h-0.1
	l0,0l0,0v-0.2V208l-0.4-0.5l-0.8-0.6l-0.4-0.1l-0.3,0.2l-0.1-0.1l-0.2-0.2l-0.1-0.1l-0.1-0.2v-0.4v-0.3v-0.3v-0.1h-0.1h-0.1h-0.1
	l-0.2-0.4v-0.3V204l-0.1-0.4l-0.1-0.2l-0.2-0.1v-0.1h-0.2l-0.8-0.5H246h-0.1v0.1l-0.1,0.2l-0.1,0.1l0,0h-0.1h-0.2l-0.3-0.1H245
	l-0.5,0.1l-0.5,0.2H244h-0.1l-0.1-0.1l-0.4-0.5l-0.2-0.1l-0.4-0.2l-0.1-0.1l-0.1-0.1l-0.3-0.4v-0.1v0.1v-0.1l0.1-0.1l0.1-0.1
	l0.1-0.1l0.2-0.1l0.1-0.1l0.1-0.1v-0.1v-0.1v-0.1v-0.1V201l-0.1-0.1l-0.1-0.1l-0.2-0.1l-0.2-0.3l-0.7-1.3l-0.8,0.3l-0.1,0.1
	l-0.4,0.4h-0.1H240l-0.1-0.1l-0.1-0.1h-0.1h-0.1h-0.1l-0.2,0.2v0.1l-0.1,0.2l0.4,0.4l0.1,0.1l0.1,0.1l0.1,0.3l0.1,0.1l0.1,0.1
	l0.1,0.1l0.1,0.1v0.1v0.1l-0.1,0.1l-0.1,0.1l-0.1,0.1H240l-0.1,0.1v0.2l0.1,0.6v0.3v0.2h-0.1h-0.1h-0.2h-0.1l0,0l0,0v0.1v0.1
	l-0.1,0.3l-0.1,0.1v0.1l-0.1,0.1l-0.1,0.1l-0.3,0.1l-0.1,0.1l-0.1,0.1l-0.2,0.3h-0.1l-0.1,0.1h-0.1l-0.8,0.4h-0.1h-0.1l-0.1-0.2
	h-0.1h-0.1L237,205l-0.1,0.1v0.2v0.1v0.1v0.1v0.2l-0.2,0.2l-0.1,0.1v0.1v0.1l0.1,0.1l0.5,0.4l0.1,0.1v0.1v0.1v0.2v0.3v0.2l-0.1,0.1
	h-0.1H237H237l-1.5,0.2h-0.1l-0.1,0.1l-0.1,0.1l-0.1,0.1l-0.1,0.1l-0.3,1l0,0l0.6,0.3l0.8,0.2l1.9,1.5l0.4,0.6l0.9,1.8l0.1,0.4v0.4
	l0.1,0.2l0.4,0.5l0.1,0.3l0.2,0.2l0.3,0.4l0.2,0.4l0.1,0.3h0.2h1.3l0.3,0.1l0.3,0.2l0.3,0.2l0.2,0.3l0.2,0.1l0.5,0.1l0.1,0.1
	l0.1,0.3l0.1,0.2l0.2,0.1l1.6,1.2l0.4,0.5l0.4,0.7l0.2,0.4l0.1,0.4v0.4l0.1,0.4l0.1,0.4l0.2,0.3l0.1,0.1l0.5,0.1h0.1l0.2,0.2
	l0.4,0.1l0.3,0.2l1.7,1.6l1.6,1.9l1.2,1.9l0.3,0.2l0.1-0.2l0.2-0.2l0.4,0.2l1.1,0.8h0.2l1.3,0.1l0.3,0.1l0.5,0.3l0.5,0.4l0.9,1.1
	l0.2,0.3l0.3,0.6l0.2,0.3l0.2,0.4l0.1,0.4l0.1,0.3l0.4,0.1l0.4-0.1l0.4-0.5l0.6-0.2l0.6-0.4l0.3-0.1l1.3-0.3h0.6l2.5,1.2l0.3,0.4
	h0.1l0.1-0.2l0.1,0.1l0.1,0.2l0.1,0.2h0.2h0.5l-0.2-0.6l0.5-0.3l1-0.1l0.1,0.2h0.2l0.5-0.1l0.2,0.1l0.4,0.3l0.3-0.2l0.1-0.1l0.6-0.1
	l0.1-0.1v-0.1v-0.2l0.1-0.2l0.1-0.1l0.1-0.1l0.1-0.1h0.1l0.1-0.1l0.1-0.1l0-0.1v-0.1v-0.1v-0.1v-0.3l0.1-0.3l0-0.5l0.1-0.5v0.2
	l0-0.1l-0.2-0.4v-0.1v-0.1h0.1l0.4-0.1l0.1-0.1l0.2-0.1l0,0l0.4-0.4l0.1-0.1l0.1-0.1h0.1l0.3-0.4v-0.2v-0.1v-0.1l0,0l0.4-0.3
	l0.1-0.1L276.3,227.9L276.3,227.9z M250.9,219.9L250.9,219.9L250.9,219.9z"/>
<polygon id="a4a5efd7-3e2a-4e2b-a506-360078e1b5b5" class="st17" points="288.9,216.1 289,216 289,216 288.9,216 288.6,215.9 
	288.4,215.6 288.3,215.1 288.2,214.2 288.1,213.9 287.8,213.7 287.2,213.5 286.2,213.2 285.6,212.8 283.5,210.7 282.8,209.5 
	282.3,209.1 281.1,208.3 280.1,207.4 277.7,204.6 277.6,204.3 277.5,204 276.5,202.4 276.2,201.6 275.6,200.1 274.9,197.9 
	274.7,197.9 273.5,198.2 272.6,198.6 272.2,198.7 272,198.7 271.9,198.7 271.8,198.8 271.6,198.9 271.6,199 271.5,199.1 
	271.5,199.4 271.5,199.4 271.5,199.5 271.4,199.6 271.4,199.6 271.3,199.7 271,199.9 270.6,199.9 270.4,199.9 270.4,199.9 
	270.2,199.9 270.1,199.8 270,199.9 269.6,200 269.5,200.1 269.4,200.1 269.3,200 269.2,200 269.1,199.9 269.1,199.9 269,199.8 
	268.9,199.9 268.8,199.9 268.7,200.1 268.5,200.5 268.5,200.6 268.3,200.8 268.3,200.8 268.2,200.9 268.2,201 268.2,201.2 
	268.2,201.3 268.2,201.3 268.1,201.4 268,201.5 267.7,201.5 267.5,201.6 267.4,201.7 267.3,201.9 267.2,202 267.2,202.1 
	267.2,202.3 267,202.4 266.9,202.4 265.7,202.6 265.6,202.8 265.6,202.9 265.7,203 265.8,203.1 265.8,203.2 265.9,203.3 266,203.3 
	266,203.3 266.2,203.4 266.3,203.4 266.3,203.4 266.4,203.5 266.5,203.6 266.5,203.7 266.5,203.9 266.2,204.8 265.7,205.1 
	265.6,205.1 265.5,205.1 265.1,205.1 264.9,205.1 264.8,205.1 264.7,205.1 264.6,205.1 264.5,205 264.4,205 263.9,205 263.7,204.9 
	263.5,204.8 263.3,204.8 263.3,204.8 263.2,204.8 263.1,204.9 263.1,205 263,205.3 263,205.5 262.9,205.6 262.8,205.6 262.5,205.7 
	262.5,205.7 262.4,205.7 262.4,205.8 262.4,205.9 262.4,206 262.4,206.1 262.5,206.2 262.7,206.3 262.7,206.4 262.8,206.4 
	262.8,206.5 262.8,206.5 262.8,206.6 262.8,206.8 262.8,206.8 262.9,207 262.9,207.1 262.8,207.2 262.7,207.4 262.6,207.4 
	262.6,207.5 262.3,207.7 262.3,207.7 262.3,207.8 262.2,207.9 262.3,208.1 262.3,208.3 262.3,208.4 262.4,208.5 262.5,208.6 
	262.5,208.7 262.6,208.7 262.9,208.9 263,208.9 263.1,208.9 263.1,209.1 263,209.2 262.7,209.7 262.7,209.8 262.7,209.9 
	262.7,210.1 262.7,210.2 262.8,210.2 262.8,210.3 263.2,210.5 263.4,210.6 263.5,210.7 263.6,210.9 263.6,210.9 263.6,211 
	263.7,211.3 263.7,211.5 263.8,211.6 263.9,211.8 263.9,211.8 264.2,212.1 264.3,212.2 264.3,212.2 264.5,212.6 264.6,212.7 
	264.6,212.7 264.7,212.8 264.7,212.8 265,212.9 265.1,212.9 265.1,212.9 265.2,213 265.2,213 265.2,213.1 265.3,213.3 265.3,213.4 
	265.3,213.4 265.4,213.5 265.4,213.5 265.6,213.5 265.9,213.5 266,213.5 266.1,213.6 266.1,213.6 266.1,213.7 266.1,213.8 
	265.9,213.8 265.3,213.9 265.1,214.1 265.1,214.2 265.1,214.2 265.1,214.3 265.1,214.5 265.2,214.5 265.2,214.6 265.1,214.7 
	265.1,214.7 265,214.8 265,214.8 264.9,214.8 264.8,214.9 264.6,214.8 264.5,214.7 264.4,214.7 264.3,214.8 264.2,214.9 
	264.1,214.9 264,214.9 263.7,214.9 263.6,214.8 263.5,214.8 263.2,214.5 263,214.4 262.5,214.2 261.8,213.9 261.7,213.9 261.6,214 
	261.5,214.2 261.5,214.4 261.4,214.5 261.4,214.5 261.3,214.6 261,215 260.4,215.4 260.3,215.5 260.3,215.6 260.4,216.5 
	260.4,216.6 260.5,216.9 260.6,217 260.6,217 260.7,217.1 260.9,217.2 261.3,217.3 261.5,217.3 261.6,217.3 261.6,217.2 
	261.7,217.2 264.7,218.9 265,218.9 265.2,218.9 265.2,219 265.3,219 265.5,219.3 265.7,219.4 265.9,219.5 266.1,219.6 266.2,219.8 
	266.2,219.9 266.2,219.9 266.2,220 266.1,220.1 266,220.4 266,220.5 266,220.5 265.9,221.1 265.9,221.2 265.9,221.3 266,221.4 
	266,221.4 266,221.5 266.1,221.5 266.3,221.5 266.5,221.4 266.6,221.4 266.7,221.4 266.8,221.4 268.3,222.2 268.5,222.3 
	268.5,222.4 268.6,222.5 268.6,222.5 268.6,222.6 268.7,222.6 268.7,222.7 268.8,222.7 268.9,222.8 269.1,222.8 269.3,222.8 
	269.6,222.8 269.9,222.6 270.2,222.4 270.5,222 270.6,221.9 270.6,221.9 270.7,221.9 270.9,221.9 271.8,222.2 272,222.4 272,222.4 
	272.1,222.5 272.2,222.8 272.2,223 272.3,223 272.3,223.1 272.4,223.2 272.5,223.2 272.8,223.2 272.9,223.2 273,223.2 273.1,223.2 
	273.1,223.1 273.2,223.1 273.4,223.2 273.7,223.4 273.9,223.6 274.2,223.6 274.4,223.6 274.7,223.8 275.6,224.5 275.9,224.5 
	276.4,224.6 276.5,224.6 276.6,224.5 276.7,224.4 277,224.3 277.1,224.2 277.4,223.8 277.5,223.7 277.6,223.6 277.7,223.6 
	277.9,223.8 278,223.8 278.1,223.7 278.3,223.5 278.7,223.2 279,223.1 279.3,223 279.5,222.9 279.5,222.9 279.5,222.8 279.5,222.8 
	279.5,222.7 279.4,222.7 279.3,222.5 279.2,222.5 279.1,222.4 279.1,222.3 279,222.1 279,222 278.9,221.9 278.8,221.8 278.8,221.7 
	278.8,221.6 278.9,221.3 279,221.2 279.1,221.2 279.5,221.2 279.6,221.2 279.9,220.9 280,220.9 280,220.8 280.2,220.4 280.9,219.8 
	281,219.8 281.1,219.8 281.1,219.8 281.2,219.9 281.2,219.9 281.3,220 281.6,220.1 281.6,220.2 281.7,220.2 281.7,220.3 
	281.8,220.5 281.9,220.5 281.9,220.6 282,220.7 282.2,220.8 282.3,220.8 282.3,220.7 282.4,220.6 282.6,220.5 282.6,220.5 
	282.7,220.5 282.7,220.6 282.8,220.7 283.4,221.1 283.5,221.2 283.5,221.2 283.6,221.3 283.6,221.4 283.6,221.4 283.5,221.7 
	283.5,221.8 283.6,221.9 283.6,221.9 283.7,222.1 283.8,222.2 283.8,222.3 283.9,222.4 283.9,222.4 283.9,222.5 283.8,222.7 
	283.8,222.8 283.8,222.8 283.9,222.9 284,222.9 284.2,222.8 284.9,222.4 285,222.3 285.1,222.2 285.1,222.1 285.2,221.9 
	285.6,221.4 285.9,220.9 286.4,220.2 286.8,219.7 287,219.5 287.1,219.4 287.1,219.3 287,219.1 287,219 287.1,218.9 287.1,218.8 
	287.3,218.7 287.5,218.6 288.6,217.4 288.7,217.3 288.7,217.3 288.7,217.1 288.7,216.9 288.7,216.8 288.8,216.6 288.9,216.5 
	288.9,216.4 289,216.3 "/>
<circle class="st18" cx="621.5" cy="182.5" r="7.5"/>
<circle class="st18" cx="674.5" cy="319.5" r="7.5"/>
<circle class="st18" cx="646.5" cy="424.5" r="7.5"/>
<circle class="st18" cx="473.5" cy="518.5" r="7.5"/>
<circle class="st18" cx="302.5" cy="420.5" r="7.5"/>
<circle class="st18" cx="275.5" cy="317.5" r="7.5"/>
<circle class="st18" cx="336.5" cy="172.5" r="7.5"/>
<circle class="st18" cx="649" cy="222" r="5"/>
<circle class="st18" cx="667" cy="376" r="5"/>
<circle class="st18" cx="352" cy="478" r="5"/>
<circle class="st18" cx="283" cy="371" r="5"/>
<circle class="st18" cx="302" cy="218" r="5"/>
<path class="st19" d="M477.6,551.2c0-1.9,0.5-6.1,0.8-9h0.1c1.5,3,3.1,6,4.4,8.9h0.1c1.4-3.2,3-6,4.6-8.9h0.1c0.4,3,0.6,5.9,0.8,9
	c0.3-0.1,0.5-0.1,0.8-0.1c0.3,0,0.5,0.1,0.8,0.1c-0.6-4-0.9-7.8-1.4-12.2h-0.2c-1.7,3.2-4.4,8.2-5.2,9.6c-1.8-3.3-3.4-6.3-5-9.6H478
	c-0.4,3.7-1.1,8.4-1.7,12.2c0.2-0.1,0.4-0.1,0.6-0.1C477.2,551.1,477.4,551.2,477.6,551.2z M493.1,551.2c0.3-0.1,0.6-0.1,0.8-0.1
	c0.3,0,0.6,0.1,0.8,0.1c-0.1-1.5-0.1-3-0.1-4.5v-3c0-1.5,0.1-3,0.1-4.5c-0.3,0.1-0.6,0.1-0.8,0.1c-0.3,0-0.6-0.1-0.8-0.1
	c0.1,1.5,0.1,3,0.1,4.5v3C493.3,548.2,493.2,549.7,493.1,551.2z M499.2,551.1c0.2,0,0.4,0.1,0.6,0.1c-0.1-0.7-0.1-4.4-0.1-5.9
	c0-1.9,0.1-2.9,0.1-3.5c3,3.2,6.1,6.5,8.8,9.6h0.3c0-0.8-0.1-4.6-0.1-6.4c0-1.4,0.2-4.8,0.3-5.8c-0.2,0.1-0.4,0.1-0.6,0.1
	s-0.4-0.1-0.6-0.1c0.1,2.7,0.1,6.1,0.1,9.2c-2.1-2.1-6-6.3-8.8-9.4h-0.3c0.1,0.8,0.1,2.4,0.1,4.6c0,2.3-0.3,6.8-0.4,7.5
	C498.8,551.2,499,551.1,499.2,551.1z M512.6,551.2c0.3-0.1,0.6-0.1,0.8-0.1c0.3,0,0.6,0.1,0.8,0.1c-0.1-1.5-0.1-3-0.1-4.5v-3
	c0-1.5,0.1-3,0.1-4.5c-0.3,0.1-0.6,0.1-0.8,0.1c-0.3,0-0.6-0.1-0.8-0.1c0.1,1.5,0.1,3,0.1,4.5v3
	C512.8,548.2,512.8,549.7,512.6,551.2z M520.6,550.8c-1.5,0-2.4-1-2.8-1.8h-0.2c-0.1,0.6-0.1,1-0.3,1.5c0.6,0.5,1.4,1,2.9,1
	c2.7,0,4.3-1.8,4.3-3.9c0-3.9-5.5-2.5-5.5-5.7c0-1.3,1-2.1,2.3-2.1s1.8,1,2.1,1.6h0.2c0.1-0.6,0.3-1,0.5-1.5
	c-0.7-0.6-1.5-0.8-2.6-0.8c-2.3,0-3.8,1.4-3.8,3.3c0,4.1,5.5,2.7,5.5,5.9C523.1,549.6,522.1,550.8,520.6,550.8z M529.8,540.1
	c0.1,1.2,0.1,2.4,0.1,3.6v3c0,1.5-0.1,3-0.1,4.5c0.3-0.1,0.6-0.1,0.8-0.1s0.6,0.1,0.8,0.1c-0.1-1.5-0.1-3-0.1-4.5v-3
	c0-1.2,0-2.4,0.1-3.6c1.2,0,2.8,0.1,3.7,0.2c-0.1-0.2-0.1-0.4-0.1-0.5c0-0.2,0.1-0.4,0.1-0.6c-1.5,0.1-3,0.1-4.5,0.1
	c-1.5,0-3-0.1-4.5-0.1c0.1,0.2,0.1,0.4,0.1,0.5c0,0.2-0.1,0.4-0.1,0.6C527.1,540.2,528.7,540.1,529.8,540.1z M537.6,551.2
	c1.1-0.1,2.1-0.1,3.2-0.1c1,0,2.1,0.1,3.2,0.1c-0.1-0.1-0.1-0.3-0.1-0.5c0-0.1,0-0.4,0.1-0.5c-1.1,0.2-3.2,0.3-4.7,0.3
	c0-0.5-0.1-1.3-0.1-2.6c0-1.7,0-2.1,0-2.5c0.8,0,3,0.1,4.3,0.1c-0.1-0.2-0.1-0.3-0.1-0.5c0-0.2,0-0.4,0.1-0.5
	c-1,0.1-2.2,0.2-4.3,0.2c0-0.5,0-1.4,0-2.3c0-0.8,0.1-1.5,0.1-2.2c2.3,0,3.1,0.1,4.6,0.3c-0.1-0.2-0.1-0.4-0.1-0.6
	c0-0.2,0-0.3,0.1-0.5c-1,0.1-2.1,0.1-3.1,0.1c-1,0-2.1-0.1-3.1-0.1c0.1,1.5,0.1,3,0.1,4.5v3C537.8,548.2,537.7,549.7,537.6,551.2z
	 M546.9,551.2c0.3-0.1,0.6-0.1,0.8-0.1s0.6,0.1,0.8,0.1c-0.1-1.5-0.1-3-0.1-4.5v-1.3h0.6c1.5,1.5,3.8,4.7,4.5,5.8
	c0.3-0.1,0.7-0.1,1-0.1s0.7,0.1,1,0.1c-1-1.2-3.9-4.9-4.8-5.9c1.4-0.2,3.5-1.1,3.5-3.4c0-2.1-1.7-2.8-3.6-2.8c-0.6,0-1.4,0.1-2,0.1
	c-0.6,0-1.3-0.1-2-0.1c0.1,1.5,0.1,3,0.1,4.5v3C547,548.2,547,549.7,546.9,551.2z M548.5,543.7c0-1.2,0.1-2.5,0.1-3.8
	c0.4-0.1,0.9-0.1,1.7-0.1c1.2,0,2.7,0.5,2.7,2.3c0,2.1-1.9,2.6-3.4,2.6c-0.5,0-0.8,0-1.2-0.1V543.7L548.5,543.7z M563.8,551.5
	c3.9,0,6.5-2.3,6.5-6.2c0-3.9-2.7-6.2-6.5-6.2s-6.5,2.3-6.5,6.2S559.9,551.5,563.8,551.5z M563.8,539.7c2.7,0,4.8,1.7,4.8,5.6
	c0,3.9-2.1,5.6-4.8,5.6c-2.7,0-4.8-1.7-4.8-5.6C559,541.3,561,539.7,563.8,539.7z M484.7,562.9c0-2.9-2.8-3-3.8-3
	c-0.5,0-1.6,0.1-2.1,0.1c-0.6,0-1.2-0.1-1.7-0.1c0.1,1.5,0.1,3,0.1,4.5v3c0,1.5-0.1,3-0.1,4.5c0.3-0.1,0.6-0.1,0.8-0.1
	c0.3,0,0.6,0.1,0.8,0.1c-0.1-1.5-0.1-3-0.1-4.5v-1c0.5,0,0.9,0.1,1.4,0.1C481.7,566.5,484.7,566,484.7,562.9z M479.9,565.9
	c-0.4,0-0.9-0.1-1.2-0.1v-5.2h1.5c1.8,0,2.9,0.4,2.9,2.4C483.1,565.4,481.3,565.9,479.9,565.9z M489.9,560c-1,0-2.1-0.1-3.1-0.1
	c0.1,1.5,0.1,3,0.1,4.5v3c0,1.5-0.1,3-0.1,4.5c1-0.1,2.1-0.1,3.2-0.1c1,0,2.1,0.1,3.2,0.1c-0.1-0.1-0.1-0.3-0.1-0.5
	c0-0.1,0-0.4,0.1-0.5c-1.1,0.2-3.2,0.3-4.7,0.3c0-0.5-0.1-1.3-0.1-2.6c0-1.7,0-2.1,0-2.5c0.8,0,3,0.1,4.3,0.1
	c-0.1-0.2-0.1-0.3-0.1-0.5c0-0.2,0-0.4,0.1-0.5c-1,0.1-2.2,0.2-4.3,0.2c0-0.5,0-1.4,0-2.3c0-0.8,0.1-1.5,0.1-2.2
	c2.3,0,3.1,0.1,4.6,0.3c-0.1-0.2-0.1-0.3-0.1-0.5c0-0.2,0-0.3,0.1-0.5C492,560,490.9,560,489.9,560z M495.5,572
	c0.3-0.1,0.6-0.1,0.8-0.1c0.3,0,0.6,0.1,0.8,0.1c-0.1-1.5-0.1-3-0.1-4.5v-1.3h0.6c1.5,1.5,3.8,4.7,4.5,5.8c0.3-0.1,0.7-0.1,1-0.1
	c0.3,0,0.7,0.1,1,0.1c-1-1.2-3.9-4.9-4.8-5.9c1.4-0.2,3.5-1.1,3.5-3.4c0-2.1-1.7-2.8-3.6-2.8c-0.6,0-1.4,0.1-2,0.1s-1.3-0.1-2-0.1
	c0.1,1.5,0.1,3,0.1,4.5v3C495.6,569,495.6,570.5,495.5,572z M497,564.5c0-1.2,0.1-2.5,0.1-3.8c0.4-0.1,0.9-0.1,1.7-0.1
	c1.2,0,2.7,0.5,2.7,2.3c0,2.1-1.9,2.6-3.4,2.6c-0.5,0-0.8,0-1.2-0.1V564.5z M511,572c0.3-0.1,0.6-0.1,0.8-0.1s0.6,0.1,0.8,0.1
	c-0.1-1.5-0.1-3-0.1-4.5v-3c0-1.5,0.1-3,0.1-4.5c-0.3,0.1-0.6,0.1-0.8,0.1c-0.3,0-0.6-0.1-0.8-0.1c0.1,1.5,0.1,3,0.1,4.5v3
	C511.1,569,511,570.5,511,572z M528.4,568.5c0-2-1.3-2.8-3.4-2.9v-0.1c1.7-0.4,2.9-1.4,2.9-3c0-2-1.7-2.5-3.7-2.5
	c-0.6,0-1.2,0.1-1.9,0.1c-0.6,0-1.2-0.1-1.9-0.1c0.1,1.5,0.1,3,0.1,4.5v3c0,1.5-0.1,3-0.1,4.5c0.6-0.1,1.2-0.1,1.7-0.1
	c0.6,0,1.2,0.1,1.7,0.1C526,572,528.4,571,528.4,568.5z M522.2,564c0-1.1,0.1-2.2,0.1-3.3c0.3-0.1,0.7-0.1,1.4-0.1
	c1.4,0,2.8,0.3,2.8,2.2c0,1.9-1.7,2.5-3.4,2.5h-1V564z M524,571.3c-0.6,0-1.3-0.1-1.7-0.1c-0.1-1.2-0.1-2.3-0.1-3.5v-1.8h0.8
	c2.3,0,3.8,0.5,3.8,2.4C526.8,570.3,525.5,571.3,524,571.3z M534.3,560c-1,0-2.1-0.1-3.1-0.1c0.1,1.5,0.1,3,0.1,4.5v3
	c0,1.5-0.1,3-0.1,4.5c1-0.1,2.1-0.1,3.2-0.1c1,0,2.1,0.1,3.2,0.1c-0.1-0.1-0.1-0.3-0.1-0.5c0-0.1,0-0.4,0.1-0.5
	c-1.1,0.2-3.2,0.3-4.7,0.3c0-0.5-0.1-1.3-0.1-2.6c0-1.7,0-2.1,0-2.5c0.8,0,3,0.1,4.3,0.1c-0.1-0.2-0.1-0.3-0.1-0.5
	c0-0.2,0-0.4,0.1-0.5c-1,0.1-2.2,0.2-4.3,0.2c0-0.5,0-1.4,0-2.3c0-0.8,0.1-1.5,0.1-2.2c2.3,0,3.1,0.1,4.6,0.3
	c-0.1-0.2-0.1-0.3-0.1-0.5c0-0.2,0-0.3,0.1-0.5C536.4,560,535.4,560,534.3,560z M550.1,572.2c0-0.8-0.1-4.6-0.1-6.4
	c0-1.4,0.2-4.8,0.3-5.8c-0.2,0.1-0.4,0.1-0.6,0.1c-0.2,0-0.4-0.1-0.6-0.1c0.1,2.7,0.1,6.1,0.1,9.2c-2.1-2.1-6-6.3-8.8-9.4h-0.3
	c0.1,0.8,0.1,2.4,0.1,4.6c0,2.3-0.3,6.8-0.4,7.5c0.3-0.1,0.5-0.1,0.6-0.1c0.2,0,0.4,0.1,0.6,0.1c-0.1-0.7-0.1-4.4-0.1-5.9
	c0-1.9,0.1-2.9,0.1-3.5c3,3.2,6.1,6.5,8.8,9.6H550.1z M553.5,572c0.3-0.1,0.6-0.1,0.8-0.1c0.3,0,0.6,0.1,0.8,0.1
	c-0.1-1.5-0.1-3-0.1-4.5v-3c0-1.5,0.1-3,0.1-4.5c-0.3,0.1-0.6,0.1-0.8,0.1c-0.3,0-0.6-0.1-0.8-0.1c0.1,1.5,0.1,3,0.1,4.5v3
	C553.6,569,553.5,570.5,553.5,572z M564.8,571.2c0-0.5-0.1-1.3-0.1-2.6c0-1.7,0-2.1,0-2.5c0.8,0,3,0.1,4.3,0.1
	c-0.1-0.2-0.1-0.3-0.1-0.5c0-0.2,0-0.4,0.1-0.5c-1,0.1-2.2,0.2-4.3,0.2c0-0.5,0-1.4,0-2.3c0-0.8,0.1-1.5,0.1-2.2
	c2.3,0,3.1,0.1,4.6,0.3c-0.1-0.2-0.1-0.3-0.1-0.5c0-0.2,0-0.3,0.1-0.5c-1,0.1-2.1,0.1-3.1,0.1c-1,0-2.1-0.1-3.1-0.1
	c0.1,1.5,0.1,3,0.1,4.5v3c0,1.5-0.1,3-0.1,4.5c1-0.1,2.1-0.1,3.2-0.1s2.1,0.1,3.2,0.1c-0.1-0.1-0.1-0.3-0.1-0.5c0-0.1,0-0.4,0.1-0.5
	C568.4,571.1,566.3,571.2,564.8,571.2z M478.7,591.9c0-1.7-0.1-3.7-0.1-6.7c0-1.5,0.1-3,0.1-4.5c-0.3,0.1-0.6,0.1-0.8,0.1
	c-0.3,0-0.6-0.1-0.8-0.1c0.1,1.5,0.1,3,0.1,4.5v3c0,1.5-0.1,3-0.1,4.5c1.1-0.1,2.1-0.1,3.2-0.1c1,0,2.1,0.1,3.2,0.1
	c-0.1-0.2-0.1-0.3-0.1-0.5c0-0.2,0.1-0.3,0.1-0.5C481.8,591.9,480.4,591.9,478.7,591.9z M492.2,592.2c0-0.1,0-0.4,0.1-0.5
	c-1.1,0.2-3.2,0.3-4.7,0.3c0-0.5-0.1-1.3-0.1-2.6c0-1.7,0-2.1,0-2.5c0.8,0,3,0.1,4.3,0.1c-0.1-0.2-0.1-0.3-0.1-0.5
	c0-0.2,0-0.4,0.1-0.5c-1,0.1-2.2,0.2-4.3,0.2c0-0.5,0-1.4,0-2.3c0-0.8,0.1-1.5,0.1-2.2c2.3,0,3.1,0.1,4.6,0.3
	c-0.1-0.2-0.1-0.3-0.1-0.5c0-0.2,0-0.3,0.1-0.5c-1,0.1-2.1,0.1-3.1,0.1c-1,0-2.1-0.1-3.1-0.1c0.1,1.5,0.1,3,0.1,4.5v3
	c0,1.5-0.1,3-0.1,4.5c1.1-0.1,2.1-0.1,3.2-0.1c1,0,2.1,0.1,3.2,0.1C492.2,592.6,492.2,592.4,492.2,592.2z M507.1,592.7
	c0.3-0.1,0.6-0.1,0.9-0.1c0.3,0,0.6,0.1,0.9,0.1c-0.9-1.9-3.5-8.2-5.2-12.2h-0.3c-1.8,4.1-3.6,8.2-5.5,12.2c0.3-0.1,0.5-0.1,0.6-0.1
	s0.4,0.1,0.6,0.1c0.3-1.1,1-2.9,1.7-4.6c0.7,0,1.4-0.1,2.1-0.1c0.8,0,1.5,0,2.3,0.1C505.9,589.6,506.8,591.5,507.1,592.7z
	 M503.1,587.3c-0.6,0-1.3-0.1-1.9-0.1l1.9-4.4l1.9,4.4C504.5,587.3,503.7,587.3,503.1,587.3z M513,580.8c-1.5,0-3-0.1-4.5-0.1
	c0.1,0.2,0.1,0.4,0.1,0.5c0,0.2-0.1,0.4-0.1,0.6c1-0.1,2.5-0.2,3.7-0.2c0.1,1.2,0.1,2.4,0.1,3.6v3c0,1.5-0.1,3-0.1,4.5
	c0.3-0.1,0.6-0.1,0.8-0.1s0.6,0.1,0.8,0.1c-0.1-1.5-0.1-3-0.1-4.5v-3c0-1.2,0-2.4,0.1-3.6c1.2,0,2.8,0.1,3.7,0.2
	c-0.1-0.2-0.1-0.4-0.1-0.5c0-0.2,0.1-0.4,0.1-0.6C516,580.8,514.5,580.8,513,580.8z M522.8,580.8c-1.5,0-3-0.1-4.5-0.1
	c0.1,0.2,0.1,0.4,0.1,0.5c0,0.2-0.1,0.4-0.1,0.6c1-0.1,2.5-0.2,3.7-0.2c0.1,1.2,0.1,2.4,0.1,3.6v3c0,1.5-0.1,3-0.1,4.5
	c0.3-0.1,0.6-0.1,0.8-0.1c0.3,0,0.6,0.1,0.8,0.1c-0.1-1.5-0.1-3-0.1-4.5v-3c0-1.2,0-2.4,0.1-3.6c1.2,0,2.8,0.1,3.7,0.2
	c-0.1-0.2-0.1-0.4-0.1-0.5c0-0.2,0.1-0.4,0.1-0.6C525.8,580.8,524.3,580.8,522.8,580.8z M531.1,580.7c-0.3,0.1-0.6,0.1-0.8,0.1
	c-0.3,0-0.6-0.1-0.8-0.1c0.1,1.5,0.1,3,0.1,4.5v3c0,1.5-0.1,3-0.1,4.5c0.3-0.1,0.6-0.1,0.8-0.1c0.3,0,0.6,0.1,0.8,0.1
	c-0.1-1.5-0.1-3-0.1-4.5v-3C531,583.7,531.1,582.2,531.1,580.7z M538.6,592.6c0.2,0,0.4,0.1,0.6,0.1c1.5-4,3.2-8,5-12
	c-0.2,0.1-0.5,0.1-0.6,0.1c-0.2,0-0.5-0.1-0.6-0.1c-0.7,2.3-2.7,7.5-3.9,10.3c-1.5-3.5-3-7.2-4-10.3c-0.3,0.1-0.6,0.1-0.9,0.1
	c-0.3,0-0.6-0.1-0.9-0.1c1.7,4,3.8,9.1,4.8,12C538.2,592.6,538.4,592.6,538.6,592.6z M547.9,580.7c-0.3,0.1-0.6,0.1-0.8,0.1
	s-0.6-0.1-0.8-0.1c0.1,1.5,0.1,3,0.1,4.5v3c0,1.5-0.1,3-0.1,4.5c0.3-0.1,0.6-0.1,0.8-0.1s0.6,0.1,0.8,0.1c-0.1-1.5-0.1-3-0.1-4.5v-3
	C547.8,583.7,547.8,582.2,547.9,580.7z M554.5,580.8c-1.5,0-3-0.1-4.5-0.1c0.1,0.2,0.1,0.4,0.1,0.5c0,0.2-0.1,0.4-0.1,0.6
	c1-0.1,2.5-0.2,3.7-0.2c0.1,1.2,0.1,2.4,0.1,3.6v3c0,1.5-0.1,3-0.1,4.5c0.3-0.1,0.6-0.1,0.8-0.1s0.6,0.1,0.8,0.1
	c-0.1-1.5-0.1-3-0.1-4.5v-3c0-1.2,0-2.4,0.1-3.6c1.2,0,2.8,0.1,3.7,0.2c-0.1-0.2-0.1-0.4-0.1-0.5c0-0.2,0.1-0.4,0.1-0.6
	C557.5,580.8,556,580.8,554.5,580.8z M563.1,576.9c-0.3,0-0.6,0.2-0.6,0.6s0.3,0.6,0.6,0.8l2.6,1.6h0.7l-2.6-2.6
	C563.7,577,563.4,576.9,563.1,576.9z M565.6,580.5h-0.3c-1.8,4.1-3.6,8.2-5.5,12.2c0.2-0.1,0.5-0.1,0.6-0.1c0.2,0,0.4,0.1,0.6,0.1
	c0.3-1.1,1-2.9,1.7-4.6c0.7,0,1.4-0.1,2.1-0.1c0.8,0,1.5,0,2.3,0.1c0.6,1.5,1.5,3.5,1.8,4.6c0.3-0.1,0.6-0.1,0.9-0.1
	c0.3,0,0.6,0.1,0.9,0.1C569.9,590.8,567.3,584.5,565.6,580.5z M565,587.3c-0.6,0-1.3-0.1-1.9-0.1l1.9-4.4l1.9,4.4
	C566.3,587.3,565.7,587.3,565,587.3z M482.8,601.8c1.6,0,2.8,1,3.3,1.5l0.1-0.1c0.1-0.4,0.2-1,0.4-1.4c-1-0.5-2.3-0.8-3.8-0.8
	c-3.9,0-6.5,2.3-6.5,6.2c0,3.9,2.7,6.2,6.4,6.2c1.7,0,3.2-0.6,3.6-1l0.1-1l-0.1-0.1c-0.6,0.5-1.9,1.4-3.5,1.4
	c-2.7,0-4.8-1.7-4.8-5.6S480,601.8,482.8,601.8z M498.4,601.5c0.1,0.7,0.1,2.3,0.1,5.7c0,2.2,0,5.7-3.8,5.7c-3.9,0-3.9-3.1-3.9-5.5
	c0-2.6,0.1-5,0.2-6c-0.3,0.1-0.5,0.1-0.8,0.1c-0.3,0-0.6-0.1-0.9-0.1c0.1,1,0.1,2.6,0.1,4.5c0,0.9-0.1,1.7-0.1,2.8c0,3.4,1.5,5,5,5
	c3.2,0,4.9-1.9,5-5c0.1-2.5,0.2-5.6,0.3-7.2c-0.1,0.1-0.3,0.1-0.5,0.1C498.9,601.5,498.6,601.5,498.4,601.5z M505,612.6
	c0-1.7-0.1-3.7-0.1-6.7c0-1.5,0.1-3,0.1-4.5c-0.3,0.1-0.6,0.1-0.8,0.1s-0.6-0.1-0.8-0.1c0.1,1.5,0.1,3,0.1,4.5v3
	c0,1.5-0.1,3-0.1,4.5c1.1-0.1,2.1-0.1,3.2-0.1c1,0,2.1,0.1,3.2,0.1c-0.1-0.2-0.1-0.3-0.1-0.5c0-0.2,0.1-0.3,0.1-0.5
	C508.1,612.6,506.6,612.6,505,612.6z M514.3,601.5c-1.5,0-3-0.1-4.5-0.1c0.1,0.2,0.1,0.4,0.1,0.5c0,0.2-0.1,0.4-0.1,0.6
	c1-0.1,2.5-0.2,3.7-0.2c0.1,1.2,0.1,2.4,0.1,3.6v3c0,1.5-0.1,3-0.1,4.5c0.3-0.1,0.6-0.1,0.8-0.1c0.3,0,0.6,0.1,0.8,0.1
	c-0.1-1.5-0.1-3-0.1-4.5v-3c0-1.2,0-2.4,0.1-3.6c1.2,0,2.8,0.1,3.7,0.2c-0.1-0.2-0.1-0.4-0.1-0.5c0-0.2,0.1-0.4,0.1-0.6
	C517.3,601.5,515.9,601.5,514.3,601.5z M530.4,601.5c0.1,0.7,0.1,2.3,0.1,5.7c0,2.2,0,5.7-3.8,5.7c-3.9,0-3.9-3.1-3.9-5.5
	c0-2.6,0.1-5,0.2-6c-0.3,0.1-0.5,0.1-0.8,0.1s-0.6-0.1-0.9-0.1c0.1,1,0.1,2.6,0.1,4.5c0,0.9-0.1,1.7-0.1,2.8c0,3.4,1.5,5,5,5
	c3.2,0,4.9-1.9,5-5c0-2.5,0.2-5.6,0.3-7.2c-0.1,0.1-0.3,0.1-0.5,0.1C530.9,601.5,530.7,601.5,530.4,601.5z M543,604.2
	c0-2.1-1.7-2.8-3.6-2.8c-0.6,0-1.3,0.1-2,0.1c-0.6,0-1.4-0.1-2-0.1c0.1,1.5,0.1,3,0.1,4.5v3c0,1.5-0.1,3-0.1,4.5
	c0.3-0.1,0.6-0.1,0.8-0.1s0.6,0.1,0.8,0.1c-0.1-1.5-0.1-3-0.1-4.5v-1.3h0.6c1.5,1.5,3.8,4.7,4.5,5.8c0.3-0.1,0.7-0.1,1-0.1
	c0.3,0,0.7,0.1,1,0.1c-1-1.1-3.9-4.9-4.8-5.9C540.8,607.3,543,606.4,543,604.2z M537,606.9v-1c0-1.2,0.1-2.5,0.1-3.8
	c0.4-0.1,0.9-0.1,1.7-0.1c1.2,0,2.7,0.5,2.7,2.3c0,2.1-1.9,2.6-3.4,2.6C537.7,607,537.3,607,537,606.9z M550.8,601.2
	c-1.8,4.1-3.6,8.2-5.5,12.2c0.2-0.1,0.5-0.1,0.6-0.1c0.2,0,0.4,0.1,0.6,0.1c0.3-1.1,1-2.8,1.7-4.6c0.7,0,1.4-0.1,2.1-0.1
	c0.8,0,1.5,0,2.3,0.1c0.6,1.5,1.5,3.5,1.8,4.6c0.3-0.1,0.6-0.1,0.9-0.1c0.3,0,0.6,0.1,0.9,0.1c-0.9-1.9-3.5-8.2-5.2-12.2H550.8z
	 M550.6,608c-0.6,0-1.3-0.1-1.9-0.1l1.9-4.4l1.9,4.4C551.9,608,551.2,608,550.6,608z M560.4,612.6c0-1.7-0.1-3.7-0.1-6.7
	c0-1.5,0.1-3,0.1-4.5c-0.3,0.1-0.6,0.1-0.8,0.1s-0.6-0.1-0.8-0.1c0.1,1.5,0.1,3,0.1,4.5v3c0,1.5-0.1,3-0.1,4.5
	c1.1-0.1,2.1-0.1,3.2-0.1c1,0,2.1,0.1,3.2,0.1c-0.1-0.2-0.1-0.3-0.1-0.5c0-0.2,0.1-0.3,0.1-0.5C563.5,612.6,562.1,612.6,560.4,612.6
	z M569.8,601.5c-0.3,0.1-0.6,0.1-0.8,0.1s-0.6-0.1-0.8-0.1c0.1,1.5,0.1,3,0.1,4.5v3c0,1.5-0.1,3-0.1,4.5c0.3-0.1,0.6-0.1,0.8-0.1
	s0.6,0.1,0.8,0.1c-0.1-1.5-0.1-3-0.1-4.5v-3C569.7,604.4,569.7,602.9,569.8,601.5z M440.8,547.7c-0.3,0-0.5,0.3-0.5,0.6
	c0,0.3,0,0.6,0.5,0.6s0.6-0.5,0.6-0.8C441.3,547.9,441.1,547.7,440.8,547.7z M447.2,550.8c-0.3,0.6-0.5,1-0.6,1.1s-0.6,1,0.2,1
	s1.1-1.5,1.2-1.9C448,550.6,447.7,549.6,447.2,550.8z M453.6,577c0.8-0.3,1.5-1.1,2.3-1.7c0.7-0.7,1.4-1.9-0.2-3.7
	c-0.5-0.6-2.8-0.9-4.8,0.1c-2,1-4.7,3.5-5.6,4.3s-1.2,0.7-1.9,0.7c-0.6,0-1-0.2-1-0.8s0.3-2.3-0.4-2.5c-0.6-0.2-1,0.2-1.3,0.2
	c-0.3,0-0.5-0.4-1.4-0.5c-0.8,0-0.6,0.6-0.4,1.2c0.3,0.6,2,2.6,2.2,3c0.3,0.4,0.8,0.9,1.2,0.9c0.3,0,0.4-0.3,0.6-0.5s0.7-0.3,0.7,0
	c0,0.3-0.1,1-0.3,1.3c-0.1,0.3,0,0.8,0.6,1c0.7,0.2,0.4,0.3,1.9,0.3c1.5-0.1,1.6-0.4,2.3-0.3c0.6,0.1,0.6,0.3,1.2,0.4
	c0.5,0.1,0.8,0,1.2-0.1c0.4-0.1,0.3-0.1,0.8-0.4c0.5-0.3,0.8-0.3,1.3-0.8c0.5-0.5,0.3-1.3,0.3-1.6
	C452.7,577.3,452.8,577.2,453.6,577z M446.4,576.8c-0.4,0.1-0.8-0.1-0.6-0.5c0.2-0.4,1.8-1.8,2.3-2.1c0.5-0.4,1-0.5,1.2-0.1
	c0.2,0.3-0.1,0.6-0.1,0.6S446.9,576.7,446.4,576.8z M450.5,575.8c0,0-0.3,0.4-0.6,0.7c-0.3,0.3-0.8,0.6-1.1,0.5
	c-0.3-0.2,0-0.6,0-0.6l1.2-1.2c0,0,0.4-0.2,0.6-0.1C450.7,575.2,450.5,575.8,450.5,575.8z M422.2,565.7c0.1-0.5-0.3-0.7-0.9-0.8
	c-0.5-0.1-1.2-0.3-2.3-1.3c-1.2-1-1-3.5-1-3.5c-0.3-0.3-0.5,0.2-0.8,1.2c-0.3,1-1,1.4-1,1.8s0.5,0.7,1.2,1.3s2.1,1.9,3.2,2.1
	C421.9,566.7,422.2,566.2,422.2,565.7z M423.3,563.9c0-0.5-0.2-1-1-1.9c-0.7-0.9-1-1-1.4-1c-0.4,0-0.5,0.3-0.5,0.5
	c0,0,1,0.6,1.5,1.1c0.5,0.5,1.1,1.6,1.1,1.6S423.3,564.3,423.3,563.9z M416.6,566.5c0,0.3,0.1,0.8,0.6,0.8c0.5,0,0.8-0.3,0.8-0.8
	c0-0.5-0.4-0.6-0.8-0.6C416.8,565.9,416.6,566.2,416.6,566.5z M442.8,560.8c-0.4,0.2-0.8,0.6-0.9,0.7c-0.1,0.1-0.1,0.3,0,0.4
	s0.2,0.1,0.2,0.1s0.9-0.6,1-0.8C443.3,560.9,443.3,560.7,442.8,560.8z M433.5,563.6c-0.6,0.4-1,1-0.9,1.2c0.1,0.3,0.4,0.2,0.6,0.1
	c0.3-0.1,1.8-1.4,1.9-1.5C435.2,562.5,434,563.2,433.5,563.6z M376.2,600.9v9l12.9-4.5L376.2,600.9z M391.4,577.4c0-0.6,0-1-0.1-1.5
	c0-0.4-0.1-0.8-0.1-1c-0.1-0.5-0.3-0.8-0.4-1.1c-0.1-0.3-0.3-0.5-0.5-0.7c-0.2-0.2-0.4-0.3-0.6-0.4c-0.3-0.1-0.5-0.1-0.8-0.1
	c-0.5,0-0.9,0.1-1.2,0.4c-0.3,0.3-0.6,0.7-0.8,1.2c-0.1,0.3-0.1,0.6-0.2,0.9c-0.1,0.4-0.1,0.8-0.1,1.4v3h4.8V577.4z M383.6,576.6
	c0-0.9-0.1-1.5-0.3-1.9c-0.2-0.5-0.5-0.8-0.8-1c-0.3-0.2-0.7-0.3-1.2-0.3s-0.8,0.1-1.2,0.3c-0.3,0.3-0.6,0.6-0.8,1.2
	c-0.1,0.3-0.1,0.5-0.1,0.8c0,0.3-0.1,0.7-0.1,1.2v2.6h4.4V576.6z M380.9,560.1l5.9,2.1v-4.3L380.9,560.1z M380.8,546.2
	c0.5,0.5,1.2,1,2,1.2c0.8,0.3,1.7,0.5,2.8,0.5c1,0,1.9-0.1,2.7-0.4c0.8-0.3,1.4-0.6,1.9-1.2c0.5-0.5,0.9-1.1,1.2-1.9
	c0.2-0.7,0.3-1.5,0.3-2.5c0-0.6-0.1-1.4-0.1-2.1c-0.1-0.7-0.3-1.4-0.5-1.9h-11.4c-0.3,0.7-0.4,1.5-0.5,2.1c-0.1,0.6-0.1,1.2-0.1,1.8
	c0,0.9,0.1,1.7,0.5,2.4C379.9,545.1,380.2,545.7,380.8,546.2z M394.5,540c0.1,0.7,0.1,1.5,0.1,2.3c0,1.5-0.2,2.9-0.6,4.1
	c-0.5,1.2-1,2.1-1.8,2.9c-0.8,0.7-1.7,1.4-2.8,1.7c-1.1,0.4-2.3,0.6-3.6,0.6c-1.4,0-2.6-0.2-3.7-0.6c-1.2-0.4-2.2-1-3-1.8
	c-0.8-0.8-1.5-1.8-2-3c-0.4-0.9-0.6-1.9-0.7-3v15.4l18-7.2v3.7l-4.6,1.8v6.6l4.6,1.7v3.7l-18.1-7.2v14.4c0-1.1,0.1-2.1,0.4-2.8
	c0.2-0.6,0.5-1.2,0.8-1.6c0.3-0.5,0.7-0.8,1.1-1.1c0.4-0.3,0.8-0.5,1.3-0.6c0.5-0.1,0.9-0.2,1.4-0.2c0.8,0,1.5,0.2,2.2,0.5
	c0.6,0.3,1.2,0.9,1.5,1.6c0.1-0.4,0.3-0.8,0.5-1.1c0.3-0.4,0.5-0.7,0.8-1c0.3-0.3,0.7-0.5,1.2-0.6c0.5-0.1,0.9-0.3,1.4-0.3
	c0.5,0,0.9,0.1,1.4,0.2c0.5,0.1,1,0.4,1.5,0.8c0.5,0.3,0.9,0.8,1.3,1.4c0.4,0.6,0.7,1.4,1,2.2c0.1,0.3,0.1,0.5,0.1,0.7
	c0.1,0.3,0.1,0.6,0.1,0.9c0,0.3,0.1,0.7,0.1,1.1s0,0.8,0,1.4v5.3l-18,0.1v4.1c0.2-1,1.2-1.7,2.3-1.7c1.2,0,2.3,0.9,2.3,2.1
	c0,1.2-1,2.1-2.3,2.1c-1.1,0-2-0.7-2.2-1.7v8.4h18.1v3.4H381l13.4,4.7v2.3l-13.4,4.7h13.4v3.4h61.1c0.3,0,1-2,1.2-3.7
	c0.2-1.7-0.1-2.7-0.1-4.4s3.4-2.4,5.3-3.9c1.9-1.5,2.6-3.7,2.6-4.3c0.1-0.6,0.1-1.5-0.4-1.5c-0.5,0-0.3,0.7-0.8,1.7
	s-1.6,2.1-4.2,2.1c-2.5,0-2.8-2.2-2.8-2.9s-0.1-2.8,0.9-3.2c1-0.4,1.9,0.1,2,0.6c0.2,0.4,0.5,1.5,1.2,1.5s1.5-0.6,2.2-0.8
	c0.6-0.3,1.2,0.6,1.3,0.1c0.2-0.5-0.8-0.3-0.8-1.5s0.7-0.4,0.7-1.8c0-1.5-1.1-1.2-1.1-2.3c0-1,0.9-0.9,0.9-1.9s-0.6-1-0.5-1.8
	c0.2-0.8,0.8-0.8,1.5-0.8c0.7-0.1,1.5-0.6,1.5-1.7c0-1-0.5-0.3-1.2-0.1c-0.6,0.2-2.5,0.5-3.3,0.9c-0.8,0.5-1.9,1.2-2.4,1.2
	c-0.5,0-0.8-0.1-1.1-0.5c-0.3-0.5-1-1-1.4-0.3c-0.3,0.7,0.1,1,0.5,1.2c0.3,0.1,0.5,0.3,0.8,0.5c0.3,0.2,0.6,0.5,1,0.8s1,0.2,1.5,0.3
	s0.8,0.3,0.8,0.8c-0.1,0.6-0.6,1.2-1.6,2c-1,0.8-1.9,0.7-2.3,0.7c-0.5,0-1.5,1-2.4,1c-0.9,0-1.2-0.6-1.6-1c-0.3-0.4-1.1-0.3-2.2-0.7
	c-1.2-0.4-5.9-1.8-8.2-2.8c-2.2-0.9-3.6-1.6-4.1-3c-0.5-1.4-0.4-3.2-0.4-3.4c0-0.2-0.1-1.1,0.5-1.1c0.6,0,0.6,0.5,1,0.5
	c0.4,0,0.6-0.2,0.8-0.3c0.3-0.1,0.4,0,0.9,0s1,0,1,0l-0.1-0.4c0,0-1.5-1.7-1.9-2.1c-0.4-0.5-0.6-0.3-1.1-0.2
	c-0.5,0.1-1.2-0.2-1.9-0.3c-0.8-0.1-0.6-0.3-0.6-0.5c0.1-0.2,0.5-0.2,0.8-0.3c0.3-0.1,0.6-0.2,0.6-1.3c-0.1-1-0.8-2.2-1.2-2.8
	c-0.3-0.6-0.1-0.8,0.6-0.8c0.7,0,0.7,0.2,0.7,0.2l1.2,0.1c0,0,0.1,0.1,0.3-0.2c0.1-0.2,0.8-0.5,3.9-2.9c3.1-2.4,4.2-4.1,4.6-4.6
	c0.4-0.5,0.3-0.8,0.6-1.4c0.3-0.6,1.1-1.5,1.6-2c0.5-0.5,0.6-0.7,0.7-1.4c0-0.7,0-1.9-0.8-1.9c-0.8,0-1.2,0.9-1.4,1.4
	s-0.3,0.8-0.8,1.2c-0.5,0.5-2.1,1.7-2.4,1.9c-0.3,0.1-0.5,0.4-0.3,0.6c0.2,0.3,0.9,0.5,0.4,0.8c-0.5,0.4-1.3,0.1-1.8-0.2
	c-0.6-0.3-1,0.1-1.2,0.2c-0.2,0.2-0.5,0.5-0.8,0.5c-0.2,0-0.1,0-0.6,0.2c-0.4,0.2-1.1,0-1.1,0.2s0.4,0.6,0.2,0.8
	c-0.2,0.2-2.4,0.1-2.9,0.1c-0.6,0.1-1.2,0.7-1.7,0.7c-0.6,0-0.6-0.4-0.9-1c-0.3-0.6-1-0.5-1.4,0.4c-0.5,0.9,0.3,1,0.6,1
	c0.3,0.1,0.5,0.3,0.9,0.5c0.4,0.3,0.9,0.5,1.5,0.6c0.6,0.1,0.8,0.7-0.1,0.7c-0.8,0-1.4-0.4-1.8-0.7c-0.4-0.3-0.6-0.2-1.2-0.1
	c-0.5,0.2-0.8,0.2-1.7,0.3c-0.8,0-0.7,0.8-0.5,1.2c0.3,0.4,1.1,0.5,1.1,1c0,0.6-0.1,1-0.6,1.5c-0.6,0.4-0.2,1.2,0.5,1.2
	s1.3-0.8,2.8-0.8c1.4,0,2.2,1.7,2.1,2.6c-0.1,0.5-0.8,1-1.5,1.7s-0.7,1.1-1.4,1.1c-0.7,0.1-1,0.3-1.3,0.7c-0.2,0.4,0.8,0.3,0.5,1.2
	c-0.2,0.7-2,1.4-3.7,1.4c-1.7,0-3.9-1.4-4-1.8c0-0.4,0.1-0.8,0.6-0.5c0.5,0.3,1.5,0.5,2.9,0.5s1.4-0.7,1.5-1.2
	c0.1-0.5,0.5-0.5,0.9-1.8c0.4-1.4-0.8-1.1-1.9-0.8c-1.2,0.3-3.9,0.5-5.4-0.3c-1.5-0.7-2.1-2.5-2.6-3.4c-0.5-0.8-1.7-1.2-2.6-1.4
	c-0.8-0.2-0.5-0.2-1.4-1c-0.8-0.8-0.9-1.1-1.1-1.7c-0.2-0.6-0.6-0.3-0.8,0.4c-0.1,0.7,0.2,1.2,0.5,1.4c0.3,0.2,0.3,0.6,0.3,1
	c0,0.3-0.2,0.5-0.5,0.8c-0.2,0.3-0.7,1.4-1.1,1.4c-0.4,0-0.6,0-1-0.4c-0.5-0.3-0.5-0.1-1.2-0.1s-0.8-2.4-0.8-2.9
	c0-0.5,0-2.1,0.5-2.8s1.3-1,1.7-1.2c0.4-0.3,0-0.8-0.1-1.6c-0.1-0.8,0.1-1,0.6-1.5c0.5-0.5,0.1-1.3,0.3-1.9c0.2-0.6,0.9-1,1.5-1
	c0.6-0.1,0.6-0.5,0.9-0.8c0.3-0.3,0.6-0.8,1.4-0.8c0.7,0,1,0.4,1.5,0.3c0.5-0.1,0.6-0.8,0.6-1.5c0.1-0.7,0.1-1,0.3-1.2
	c0.2-0.2,0.6-0.3,1-0.4c0.5-0.1,0.7,0.1,1.4,0.1s0.6-0.3,1.2-0.3c0.5,0,0.6,0.3,0.6,0.8c0.1,0.5,0.1,0.6,0.2,1.3
	c0.2,0.7,0.1,0.3,0.5,0.8c0.4,0.6,0.1,2.6,0.1,3c0,0.3-0.1,0.3,0.3,0.6c0.4,0.4,0.5,0.3,0.9,0.6c0.5,0.3,0.5,0.3,0.8,0.6
	c0.4,0.3,0.8,0.7,1.6,0.7s0.7-0.1,1.7-0.8c1-0.6,1.3-0.3,2.3-0.4c1-0.2,1.8-0.9,2.5-1.2c0.8-0.3,2.2-1.1,2.4-1.5
	c0.3-0.4,0.9-1.1,1.6-1.4c0.7-0.3,2.4-1.7,2.4-2.5s-1.3-0.7-1.3-1.1c0-0.4,0.5-0.3,1.3-0.5c0.8-0.2,0.3-1.3,0.3-2
	c0.1-0.6,1-1.5,1.3-2.4c0.3-0.9,0.1-1.5-0.5-1.5c-0.5,0-0.5,0.6-0.6,1c-0.2,0.4-0.6,1.8-1.2,1.8s-0.8-0.3-1.2-0.3
	c-0.4-0.1-1.1,0.4-1.7,0.2c-0.7-0.2-1.8-1.4-2.2-1.9c-0.4-0.5-0.9-0.8-2.5-0.8c-1.5,0-1.9,0.1-2.9,0.6c-1,0.6-2.4,1.2-2.6,0.4
	c-0.2-0.8-0.5-2.6,2-3.6c2.5-1,5-0.3,5.7-0.3c0.8,0,0.8-0.6,1.4-1.2c0.5-0.6,1.2-1,2.8-1.2c1.5-0.2,1.6-0.5,2.8-0.5s1.4,0.3,1.7,0.4
	c0.3,0.1,1.6,0.1,2.1,0c0.6-0.1,0.6-0.3,1.5,0c0.9,0.3,1.9,1.2,1.1,2.5c-0.8,1.4-2.6,0.6-2.6,1.6c0,1,1.2,0.8,1.8,0.9
	s1.4,0.4,1.4,1.1s-0.6,1.1-1,1.4c-0.3,0.3-0.1,0.7,0.1,1c0.2,0.3,0.3,1.2,0.3,1.6c0,0.3,0.1,0.6,0.9,0.8c0.8,0.3,2.4,1.3,3.2,1.9
	c0.8,0.6,1.2,1,0.9,1.3c-0.3,0.3-0.6,0.2-0.9,0.1c-0.3-0.1-1.1-0.9-1.8-0.4c-0.6,0.5-0.3,1-0.2,1.2c0.1,0.3,0.3,0.7,0.4,1.5
	c0.1,0.8,0.9,1.7,1.5,2.6c0.6,0.9,2.6,4.1,3,5.4c0.3,1.4,0.3,4.1,0.6,5.7c0.2,1.4,1,2.3,1.4,2.6c0.3,0.4,2,2.3,2.2,2.5
	s0.5,0.3,0.6,0.2c0.1-0.2-0.2-0.4-0.5-0.7c-0.3-0.3-0.6-0.7-0.3-1c0.3-0.3,1.9-0.2,2.7,0.3c0.8,0.4,3.7,1.5,4.4,1.9
	c0.6,0.3,2,0.8,2,0.8h0.3V538h-77.1C394.2,538.6,394.4,539.2,394.5,540z M394.2,592c-0.4,1-1.3,1.6-3,1.2c-1.7-0.5-8.2-2.6-8.2-2.6
	v1.6h-0.4c0,0,0-3-0.1-3.6c-0.1-0.6-0.5-1.7-0.5-1.7s9.4,3,10.1,3.2c0.6,0.1,1.2,0.3,1.4-0.1c0.2-0.3,0.2-0.8-0.4-1.2
	c-0.5-0.5-1.8-1.4-1.8-1.4l0.3-0.4c0,0,1.5,1,2.2,1.7C394.4,589.4,394.5,591,394.2,592z M462.6,592.4c0.1-0.1,0.4-0.1,0.4,0.2
	s-0.1,0.2-0.3,0.2C462.6,592.8,462.5,592.4,462.6,592.4z M459.6,592.8c0.2-0.2,1.1-1,1.5-0.5c0.5,0.5,0.3,0.9-0.4,1.4
	c-0.6,0.5-1.7,0.7-1.7-0.1C459,593.3,459.4,593,459.6,592.8z M431.3,552c0.5-0.5,1.1-0.4,1.9-0.5c0.8-0.1,1-0.5,1.4-0.5
	c0.5,0,0.6,0.1,0.6,0.6c0,0.4-0.1,0.5-0.6,0.6c-0.5,0.1-0.3,0.1-1.2,0.1c-0.9,0.1-1.3,0.6-1.3,0.6s-0.1,0.3-0.7,0.3
	C431,553.1,430.8,552.5,431.3,552z M430.9,556.7c0.5-0.1,1.7-0.8,2.4-0.8c0.6-0.1,1.2-0.3,2-0.5c0.8-0.3,1.4-0.8,1.7-0.8
	c0.4,0,1.3,0.1,1.4,0.8c0.1,0.6-0.5,0.5-0.8,0.6c-0.3,0.1,0.3,0.2-0.8,0.5c-1,0.3-1,0-1.5,0.4c-0.5,0.4-0.8,0.8-1.4,0.7
	c-0.5,0-0.8-0.5-1.4-0.5c-0.5,0.1-0.1,0-0.6,0.3c-0.5,0.2-0.9,0.5-1.5,0.6c-0.6,0.1-0.8-0.1-0.8-0.5
	C429.6,556.9,430.5,556.9,430.9,556.7z M455.2,558.7c-0.5,0-0.6-0.4-0.5-0.5s-0.1-0.3,0.5-0.3c0.5-0.1,0.7,0.1,0.7,0.3
	C455.8,558.5,455.6,558.7,455.2,558.7z M421.7,553.8c0.4-0.1,1.1-0.1,1.1-0.5c0-0.4-0.6-0.3-0.5-0.8c0.2-0.6,1.2-1,1.7-1
	c0.5-0.1,1.2-0.5,1.3-0.6c0,0,1.4,0.1,1.8,0c0.5-0.1,1-0.2,1.2-0.3c0.3-0.1,0.5,0.5,0.2,0.8c-0.3,0.3-0.7,0.5-0.8,1s0.3,0.8,0.5,1
	c0.2,0.1,0.6,0.6,0.5,1.2c-0.1,0.6-1.2,0.5-1.5-0.1c-0.3-0.5-0.2-1.4-0.5-1.5c-0.3-0.1-0.3-0.2-0.6-0.1c-0.3,0.2-0.5,0.1-0.8,0.1
	c-0.3-0.1-0.8-0.2-1.2-0.1c-0.4,0-0.8,0.1-0.8,0.4s0.1,0.8-1.1,1.5c-1.2,0.6-1.2,0.5-1.3,0C420.8,554.2,421.3,553.9,421.7,553.8z
	 M408.6,591.7c-0.8,0.5-0.8,0.1-0.7-0.1c0-0.2,0.3-0.3,0.5-0.8c0.2-0.5,0.5-0.5,0.5-0.5s0.3-0.1,0.3,0.1
	C409.1,590.6,409.4,591.2,408.6,591.7z M418.6,587.8c-0.8-0.1-1.2-0.6-1.4-0.7c-0.1-0.1-0.6-0.5-1.1-0.6c-0.5-0.1-1-0.2-1-0.7
	c0.1-0.2,0.5-0.1,0.8-0.1c0.5,0,0.7,0,1.5,0.2c0.8,0.2,1.7,0.9,1.7,1.1C419.4,587.2,419.4,587.9,418.6,587.8z M429.9,596.4
	c0,0-0.2,0.1-0.3,0.2c-0.1,0.1-0.2,0.2-0.6,0.3c-0.4,0.1-0.7,0.1-1.1,0.3c-0.4,0.2-0.6,0.3-1.4,0.4c-0.8,0.1-1.4,0.1-1.9-0.1
	s-0.5-0.1-0.8-0.1c-0.3,0-0.8,0.8-1.8,0.8c-0.6,0-1.5,0-2.1-0.6c-0.5-0.5-0.4-1.1-0.1-1.2c0.3-0.1,1.1-0.2,1.6-0.2
	c0.5,0,0.1-0.1,0.3-0.2c0.2-0.1,1.3,0.1,2.1,0c0.8-0.1,0.3-0.1,0.6-0.2c0.3-0.1,0.8,0,1.1-0.1c0.3,0,0.3-0.2,1-0.2
	c0.7,0,0.7,0.5,1.8,0.5c1.1,0,1-0.3,1.4-0.3C430.2,595.9,429.9,596.4,429.9,596.4z M426.6,590.2c0.6-0.5,1.4-0.8,1.9-0.9
	c0.4,0,1,0,1.5-0.1s0.6-0.5,1.4-0.5c0.8,0,0.9,0.3,1,0.8c0.1,0.5-0.4,1.2-1.1,1.2c-0.6,0-0.8-0.6-1.3-0.7c-0.5,0-0.9-0.1-1.5,0.3
	c-0.5,0.3-1.7,1.2-2.1,1C426.1,591.1,426,590.7,426.6,590.2z M421.6,573.9c0.2,0,0.5,0.1,0.5,0.4c0.1,0.3,0,0.5-0.4,0.5
	c-0.3,0-0.5-0.3-0.5-0.6C421.2,574,421.4,573.9,421.6,573.9z M420.4,577.4c0.5,0,0.7,0.3,0.7,0.5s-0.1,0.5-0.5,0.5s-0.6-0.6-0.6-0.6
	S419.9,577.4,420.4,577.4z M419.7,575.5c0,0.3,0,0.5-0.6,0.5c-0.3,0-0.5-0.3-0.6-0.5c0-0.1-0.2-0.4,0.5-0.4S419.7,575.2,419.7,575.5
	z M417.4,573.4c0-0.3,0-0.6,1-0.6s1,0.4,1,0.6c0,0.2-0.3,0.7-1.2,0.7C417.2,574,417.4,573.6,417.4,573.4z M409.5,571.2
	c0.3-0.3,0.8-1,1.4-1.4c0.5-0.5,1,0.1,1,0.3s0,1.4,0.1,1.8c0.1,0.4,0.1,0.6,0.6,1.2c0.4,0.6-0.2,0.8-0.3,0.8c-0.2,0-0.5-0.4-0.9-0.3
	s-0.3,0.8-0.2,1.4s1,1.6,1.4,1.9c0.3,0.3,1,1.4,0.1,1.7c-0.2,0.1-0.5,0.2-1.4,0c-0.9-0.2-1.9-2-2-2.4c-0.1-0.4-0.2-0.9-0.3-1.2
	c-0.1-0.2,0.1-0.7,0.3-0.9s0.1-0.5,0-0.7c0-0.2-0.5-0.3-0.5-1C408.8,571.8,409.3,571.4,409.5,571.2z M403.9,585
	c0.1-0.3,0.2-1,0.8-1.9s2-1.5,3-1.7c1-0.1,1.6-0.6,2.8-1.2c1.3-0.6,3-0.3,3.5-0.3c0.5,0,0.6-0.8,0.7-1.6c0.2-0.8,0-1,0.6-1.1
	c0.6-0.1,0.8,0.5,0.8,0.8c0,0.3-0.6,0.4-0.6,0.4v0.3c0,0,0.4,0.3,0.6,0.3s1,0,1.4-0.1c0.4-0.1,0.8-0.1,1.4-0.1s0.8,0.1,1.4,0.1
	s0.6-0.2,1.3-0.2c0.6,0,0.6,0.4,1.2,0.8c0.6,0.5,1.4,0.5,2.4,0.6c1,0.1,0.8,0.7,0.5,1s-1.5,0.8-2.5,0.8c-1,0-1-0.1-2.3-0.8
	c-1.3-0.8-1.5-0.6-2.6-0.6c-1.2,0.1-2.2,0.6-2.6,0.6c-0.4,0-0.7-0.3-1.2-0.2c-0.5,0.1-1.7,0.6-1.6,2.3c0.1,1.7,1.4,3.3,1.4,3.3
	s0.2,0.5-0.3,0.5s-0.6-0.2-2.2-1c-1.5-0.8-2.7-2.4-3.2-2.9c-0.5-0.5-2.3-0.8-2.7,0c-0.5,0.8,1.2,1,1.2,1.5c0,0.3-0.1,0.7-0.6,0.7
	c-0.5,0-1.4-0.3-2.1-0.1c-0.7,0.2-0.3,1.1-0.6,1.2c-0.2,0-0.5,0.2-0.6-0.3C403.3,585.7,403.8,585.2,403.9,585z M405.2,589.1
	c-0.6,0.3-0.7-0.3-0.6-0.5c0.1-0.6,0.8-0.7,0.9-0.3C405.7,588.6,405.8,588.8,405.2,589.1z M403.4,589.9c0.8-0.3,1.2-0.1,1.6-0.3
	c0.4-0.2,0.7-0.8,1-0.8c0.3-0.1,0.6,0.3,0.9,0.5c0.3,0.3,0.6,0.9,0.5,1.2c-0.1,0.3-0.3,0.4-0.6,0.3c-0.3,0-0.3-0.2-0.9-0.2
	c-0.5,0-0.9,0-1.4,0.1c-0.4,0.1-0.8,0.1-0.8,0.1s-0.2,0.3-0.5,0.3C403.1,590.8,402.5,590.1,403.4,589.9z M401.5,595
	c0.2-1,0.8-0.7,0.9-0.7c0.8,0,0.7,1.1,0.6,1.7c-0.1,0.6,0.1,0.8,0.2,1.1s0.3,0.6,0.3,1.2s0.5,0.9,0.7,1.3c0.2,0.3,0,0.8-0.6,0.6
	c-0.6-0.1-1.4-0.6-1.9-1.5C401.3,597.7,401.3,595.9,401.5,595z M376.8,538h-0.5v2.9c0-0.3,0.1-0.6,0.1-1
	C376.4,539.3,376.6,538.6,376.8,538z"/>
</svg>
