<?xml version="1.0" encoding="utf-8"?>
<!-- Generator: Adobe Illustrator 21.1.0, SVG Export Plug-In . SVG Version: 6.00 Build 0)  -->
<svg version="1.1" id="Livello_1" xmlns="http://www.w3.org/2000/svg" xmlns:xlink="http://www.w3.org/1999/xlink" x="0px" y="0px"
	 viewBox="0 0 479.8 500.6" style="enable-background:new 0 0 479.8 500.6;" xml:space="preserve">
<style type="text/css">
	.st0{fill:#C4C5C6;}
	.st1{fill:#FFFFFF;}
	.st2{fill:#00264D;}
	.st3{fill:#00AAC9;}
	.st4{fill:#03737C;}
	.st5{fill:#E8B56B;}
	.st6{fill:#0066CC;}
	.st7{enable-background:new    ;}
	.st8{fill:#1BBC9B;}
	.st9{fill:#8877A9;}
	.st10{fill:#7A848B;}
</style>
<g>
	<rect class="st0" width="479.8" height="500.6"/>
</g>
<g transform="matrix(1, 0, 0, 1, 243, -20)">
	<g id="Rectangle_40-2">
		<rect x="-165" y="52" class="st1" width="324.2" height="436.5"/>
	</g>
</g>
<g transform="matrix(1, 0, 0, 1, 243, -20)">
	<g id="Rectangle_43-2">
		<rect x="-119.9" y="322.4" class="st2" width="234" height="52.7"/>
	</g>
</g>
<g transform="matrix(1, 0, 0, 1, 243, -20)">
	<g id="Rectangle_44-2">
		<rect x="-119.9" y="260.1" class="st3" width="234" height="52.7"/>
	</g>
</g>
<g transform="matrix(1, 0, 0, 1, 243, -20)">
	<g id="Rectangle_45-2">
		<rect x="-119.9" y="197.8" class="st4" width="234" height="52.7"/>
	</g>
</g>
<g transform="matrix(1, 0, 0, 1, 243, -20)">
	<g id="Rectangle_46-2">
		<rect x="-119.9" y="135.5" class="st5" width="234" height="52.7"/>
	</g>
</g>
<g transform="matrix(1, 0, 0, 1, 243, -20)">
	<g id="Rectangle_47-2">
		<rect x="-119.9" y="73.2" class="st6" width="234" height="52.7"/>
	</g>
</g>
<g class="st7">
	<path class="st1" d="M188.5,145.9l0.4,0l0,1.1c-1.1,0.2-2,0.3-2.8,0.3c-1,0-1.8-0.3-2.2-0.9c-0.5-0.6-0.7-1.5-0.7-2.7
		c0-2.5,1-3.7,3-3.7c2,0,2.9,1.1,2.9,3.2l-0.1,1.1h-4.3c0,0.6,0.1,1,0.4,1.3c0.2,0.3,0.7,0.4,1.4,0.4
		C187.1,146,187.8,145.9,188.5,145.9z M187.7,143.1c0-0.7-0.1-1.2-0.3-1.4c-0.2-0.3-0.6-0.4-1.1-0.4s-0.9,0.1-1.1,0.4
		c-0.2,0.3-0.4,0.8-0.4,1.4H187.7z"/>
	<path class="st1" d="M193.3,140c0.5,0,1.1,0.1,1.8,0.2l0.3,0.1l-0.1,1.2c-0.7-0.1-1.3-0.1-1.6-0.1c-0.7,0-1.2,0.2-1.4,0.5
		c-0.2,0.3-0.4,0.9-0.4,1.8s0.1,1.5,0.3,1.8s0.7,0.5,1.5,0.5l1.6-0.1l0,1.2c-0.9,0.2-1.7,0.3-2.1,0.3c-1.1,0-1.8-0.3-2.2-0.9
		c-0.4-0.6-0.7-1.5-0.7-2.8s0.2-2.2,0.7-2.8S192.2,140,193.3,140z"/>
	<path class="st1" d="M197.1,140.9c0.5-0.6,1.3-0.9,2.4-0.9s1.9,0.3,2.4,0.9c0.5,0.6,0.7,1.5,0.7,2.7c0,1.2-0.2,2.1-0.7,2.7
		s-1.3,0.9-2.4,0.9s-2-0.3-2.4-0.9s-0.7-1.5-0.7-2.7C196.4,142.4,196.7,141.5,197.1,140.9z M198.3,145.5c0.2,0.4,0.6,0.6,1.3,0.6
		s1-0.2,1.3-0.6c0.2-0.4,0.3-1,0.3-1.8s-0.1-1.5-0.3-1.8c-0.2-0.4-0.6-0.5-1.2-0.5s-1,0.2-1.2,0.5c-0.2,0.4-0.3,1-0.3,1.8
		S198.1,145.1,198.3,145.5z"/>
	<path class="st1" d="M209,141.6c-1.1-0.1-1.9-0.2-2.4-0.2c-0.5,0-0.8,0.1-1,0.2c-0.2,0.1-0.3,0.3-0.3,0.6c0,0.3,0.1,0.4,0.3,0.5
		c0.2,0.1,0.7,0.2,1.5,0.4s1.3,0.3,1.7,0.6c0.3,0.3,0.5,0.8,0.5,1.5s-0.2,1.3-0.7,1.6c-0.5,0.3-1.2,0.5-2.1,0.5
		c-0.6,0-1.3-0.1-2.2-0.2l-0.4-0.1l0.1-1.3c1.1,0.1,1.9,0.2,2.4,0.2c0.5,0,0.8-0.1,1.1-0.2c0.2-0.1,0.3-0.3,0.3-0.6
		c0-0.3-0.1-0.5-0.3-0.6c-0.2-0.1-0.7-0.2-1.4-0.4s-1.3-0.3-1.7-0.6c-0.4-0.3-0.5-0.8-0.5-1.5s0.2-1.3,0.7-1.6s1.1-0.5,1.9-0.5
		c0.6,0,1.3,0.1,2.2,0.2l0.4,0.1L209,141.6z"/>
	<path class="st1" d="M210.7,139v-1.6h1.5v1.6H210.7z M210.7,147.1v-7h1.5v7H210.7z"/>
	<path class="st1" d="M219,141.6c-1.1-0.1-1.9-0.2-2.4-0.2c-0.5,0-0.8,0.1-1,0.2c-0.2,0.1-0.3,0.3-0.3,0.6c0,0.3,0.1,0.4,0.3,0.5
		c0.2,0.1,0.7,0.2,1.5,0.4s1.3,0.3,1.7,0.6c0.3,0.3,0.5,0.8,0.5,1.5s-0.2,1.3-0.7,1.6c-0.5,0.3-1.2,0.5-2.1,0.5
		c-0.6,0-1.3-0.1-2.2-0.2l-0.4-0.1l0.1-1.3c1.1,0.1,1.9,0.2,2.4,0.2c0.5,0,0.8-0.1,1.1-0.2c0.2-0.1,0.3-0.3,0.3-0.6
		c0-0.3-0.1-0.5-0.3-0.6c-0.2-0.1-0.7-0.2-1.4-0.4s-1.3-0.3-1.7-0.6c-0.4-0.3-0.5-0.8-0.5-1.5s0.2-1.3,0.7-1.6s1.1-0.5,1.9-0.5
		c0.6,0,1.3,0.1,2.2,0.2l0.4,0.1L219,141.6z"/>
	<path class="st1" d="M224.5,141.4h-1.9v3.1c0,0.6,0,0.9,0.1,1.1s0.3,0.3,0.6,0.3l1.1,0l0.1,1.2c-0.6,0.1-1.1,0.2-1.4,0.2
		c-0.8,0-1.3-0.2-1.6-0.5c-0.3-0.4-0.4-1-0.4-2.1v-3.2h-0.9v-1.3h0.9v-2h1.5v2h1.9V141.4z"/>
	<path class="st1" d="M230.7,145.9l0.4,0l0,1.1c-1.1,0.2-2,0.3-2.8,0.3c-1,0-1.8-0.3-2.2-0.9c-0.5-0.6-0.7-1.5-0.7-2.7
		c0-2.5,1-3.7,3-3.7c2,0,2.9,1.1,2.9,3.2l-0.1,1.1h-4.3c0,0.6,0.1,1,0.4,1.3c0.2,0.3,0.7,0.4,1.4,0.4
		C229.3,146,230,145.9,230.7,145.9z M229.8,143.1c0-0.7-0.1-1.2-0.3-1.4c-0.2-0.3-0.6-0.4-1.1-0.4s-0.9,0.1-1.1,0.4
		c-0.2,0.3-0.4,0.8-0.4,1.4H229.8z"/>
	<path class="st1" d="M234.3,147.1h-1.5v-7h1.5v0.4c0.7-0.4,1.3-0.6,1.8-0.6c0.8,0,1.4,0.2,1.8,0.7c0.8-0.5,1.7-0.7,2.5-0.7
		c0.8,0,1.4,0.3,1.8,0.8c0.3,0.5,0.5,1.4,0.5,2.6v3.8h-1.5v-3.7c0-0.8-0.1-1.3-0.2-1.6s-0.5-0.5-1-0.5c-0.4,0-0.9,0.1-1.4,0.3
		l-0.2,0.1c0.1,0.2,0.1,0.8,0.1,1.8v3.6h-1.5v-3.6c0-0.8-0.1-1.4-0.2-1.7c-0.1-0.3-0.5-0.5-1-0.5c-0.5,0-0.9,0.1-1.3,0.3l-0.2,0.1
		V147.1z"/>
	<path class="st1" d="M244.5,139v-1.6h1.5v1.6H244.5z M244.5,147.1v-7h1.5v7H244.5z"/>
	<path class="st1" d="M250.3,140.1h1.6l1.3,5.7h0.4l1.4-5.7h1.6l-1.8,7h-2.7L250.3,140.1z"/>
	<path class="st1" d="M262.7,145.9l0.4,0l0,1.1c-1.1,0.2-2,0.3-2.8,0.3c-1,0-1.8-0.3-2.2-0.9c-0.5-0.6-0.7-1.5-0.7-2.7
		c0-2.5,1-3.7,3-3.7c2,0,2.9,1.1,2.9,3.2l-0.1,1.1H259c0,0.6,0.1,1,0.4,1.3c0.2,0.3,0.7,0.4,1.4,0.4
		C261.4,146,262,145.9,262.7,145.9z M261.9,143.1c0-0.7-0.1-1.2-0.3-1.4c-0.2-0.3-0.6-0.4-1.1-0.4s-0.9,0.1-1.1,0.4
		c-0.2,0.3-0.4,0.8-0.4,1.4H261.9z"/>
	<path class="st1" d="M264.9,147.1v-7h1.5v0.8c0.8-0.5,1.6-0.8,2.4-1v1.5c-0.8,0.2-1.5,0.4-2.1,0.6l-0.3,0.1v4.9H264.9z"/>
	<path class="st1" d="M273.7,141.4h-1.9v3.1c0,0.6,0,0.9,0.1,1.1s0.3,0.3,0.6,0.3l1.1,0l0.1,1.2c-0.6,0.1-1.1,0.2-1.4,0.2
		c-0.8,0-1.3-0.2-1.6-0.5c-0.3-0.4-0.4-1-0.4-2.1v-3.2h-0.9v-1.3h0.9v-2h1.5v2h1.9V141.4z"/>
	<path class="st1" d="M274.9,139v-1.6h1.5v1.6H274.9z M274.9,147.1v-7h1.5v7H274.9z"/>
	<path class="st1" d="M280.9,140c0.5,0,1.1,0.1,1.8,0.2l0.3,0.1l-0.1,1.2c-0.7-0.1-1.3-0.1-1.6-0.1c-0.7,0-1.2,0.2-1.4,0.5
		c-0.2,0.3-0.4,0.9-0.4,1.8s0.1,1.5,0.3,1.8s0.7,0.5,1.5,0.5l1.6-0.1l0,1.2c-0.9,0.2-1.7,0.3-2.1,0.3c-1.1,0-1.8-0.3-2.2-0.9
		c-0.4-0.6-0.7-1.5-0.7-2.8s0.2-2.2,0.7-2.8S279.9,140,280.9,140z"/>
	<path class="st1" d="M289.7,142.3v3.2c0,0.2,0.1,0.4,0.2,0.5c0.1,0.1,0.2,0.2,0.5,0.2l0,1.2c-0.8,0-1.4-0.2-1.9-0.5
		c-0.7,0.3-1.5,0.5-2.3,0.5c-1.4,0-2.1-0.7-2.1-2.2c0-0.7,0.2-1.2,0.6-1.5s1-0.5,1.7-0.6l1.8-0.2v-0.5c0-0.4-0.1-0.6-0.2-0.8
		s-0.4-0.2-0.7-0.2c-0.6,0-1.3,0-2.2,0.1l-0.4,0l-0.1-1.1c1-0.2,2-0.4,2.8-0.4c0.9,0,1.5,0.2,1.8,0.6S289.7,141.5,289.7,142.3z
		 M286.5,144c-0.6,0.1-1,0.4-1,1s0.3,1,0.9,1c0.5,0,1-0.1,1.5-0.2l0.3-0.1v-1.9L286.5,144z"/>
	<path class="st1" d="M291.7,147.1v-9.9h1.5v9.9H291.7z"/>
	<path class="st1" d="M295.1,139v-1.6h1.5v1.6H295.1z M295.1,147.1v-7h1.5v7H295.1z"/>
</g>
<g class="st7">
	<path class="st1" d="M163.7,208.5h-1.5v-7h1.5v0.4c0.7-0.4,1.3-0.6,1.8-0.6c0.8,0,1.4,0.2,1.8,0.7c0.8-0.5,1.7-0.7,2.5-0.7
		c0.8,0,1.4,0.3,1.8,0.8c0.3,0.5,0.5,1.4,0.5,2.6v3.8h-1.5v-3.7c0-0.8-0.1-1.3-0.2-1.6s-0.5-0.5-1-0.5c-0.4,0-0.9,0.1-1.4,0.3
		l-0.2,0.1c0.1,0.2,0.1,0.8,0.1,1.8v3.6h-1.5v-3.6c0-0.8-0.1-1.4-0.2-1.7c-0.1-0.3-0.5-0.5-1-0.5c-0.5,0-0.9,0.1-1.3,0.3l-0.2,0.1
		V208.5z"/>
	<path class="st1" d="M174.3,202.2c0.5-0.6,1.3-0.9,2.4-0.9s1.9,0.3,2.4,0.9c0.5,0.6,0.7,1.5,0.7,2.7c0,1.2-0.2,2.1-0.7,2.7
		s-1.3,0.9-2.4,0.9s-2-0.3-2.4-0.9s-0.7-1.5-0.7-2.7C173.6,203.7,173.8,202.8,174.3,202.2z M175.4,206.8c0.2,0.4,0.6,0.6,1.3,0.6
		s1-0.2,1.3-0.6c0.2-0.4,0.3-1,0.3-1.8s-0.1-1.5-0.3-1.8c-0.2-0.4-0.6-0.5-1.2-0.5s-1,0.2-1.2,0.5c-0.2,0.4-0.3,1-0.3,1.8
		S175.2,206.4,175.4,206.8z"/>
	<path class="st1" d="M187.1,198.6v9.9h-1.5v-0.4c-0.7,0.3-1.3,0.5-1.9,0.5c-0.9,0-1.6-0.3-2-0.8s-0.6-1.5-0.6-2.8s0.2-2.2,0.7-2.8
		c0.5-0.6,1.2-0.9,2.2-0.9c0.3,0,0.9,0.1,1.6,0.2v-2.9H187.1z M185.3,207l0.2-0.1v-4.1c-0.6-0.1-1.1-0.1-1.6-0.1
		c-0.9,0-1.4,0.8-1.4,2.4c0,0.9,0.1,1.5,0.3,1.8c0.2,0.3,0.6,0.5,1,0.5C184.4,207.3,184.9,207.2,185.3,207z"/>
	<path class="st1" d="M193.9,207.2l0.4,0l0,1.1c-1.1,0.2-2,0.3-2.8,0.3c-1,0-1.8-0.3-2.2-0.9c-0.5-0.6-0.7-1.5-0.7-2.7
		c0-2.5,1-3.7,3-3.7c2,0,2.9,1.1,2.9,3.2l-0.1,1.1h-4.3c0,0.6,0.1,1,0.4,1.3c0.2,0.3,0.7,0.4,1.4,0.4
		C192.5,207.3,193.2,207.3,193.9,207.2z M193,204.4c0-0.7-0.1-1.2-0.3-1.4c-0.2-0.3-0.6-0.4-1.1-0.4s-0.9,0.1-1.1,0.4
		c-0.2,0.3-0.4,0.8-0.4,1.4H193z"/>
	<path class="st1" d="M196.1,208.5v-9.9h1.5v9.9H196.1z"/>
	<path class="st1" d="M199.6,208.5v-9.9h1.5v9.9H199.6z"/>
	<path class="st1" d="M203.5,202.2c0.5-0.6,1.3-0.9,2.4-0.9s1.9,0.3,2.4,0.9c0.5,0.6,0.7,1.5,0.7,2.7c0,1.2-0.2,2.1-0.7,2.7
		s-1.3,0.9-2.4,0.9s-2-0.3-2.4-0.9s-0.7-1.5-0.7-2.7C202.8,203.7,203,202.8,203.5,202.2z M204.6,206.8c0.2,0.4,0.6,0.6,1.3,0.6
		s1-0.2,1.3-0.6c0.2-0.4,0.3-1,0.3-1.8s-0.1-1.5-0.3-1.8c-0.2-0.4-0.6-0.5-1.2-0.5s-1,0.2-1.2,0.5c-0.2,0.4-0.3,1-0.3,1.8
		S204.4,206.4,204.6,206.8z"/>
	<path class="st1" d="M219.3,198.6v9.9h-1.5v-0.4c-0.7,0.3-1.3,0.5-1.9,0.5c-0.9,0-1.6-0.3-2-0.8s-0.6-1.5-0.6-2.8s0.2-2.2,0.7-2.8
		c0.5-0.6,1.2-0.9,2.2-0.9c0.3,0,0.9,0.1,1.6,0.2v-2.9H219.3z M217.5,207l0.2-0.1v-4.1c-0.6-0.1-1.1-0.1-1.6-0.1
		c-0.9,0-1.4,0.8-1.4,2.4c0,0.9,0.1,1.5,0.3,1.8c0.2,0.3,0.6,0.5,1,0.5C216.7,207.3,217.1,207.2,217.5,207z"/>
	<path class="st1" d="M221.2,200.3v-1.6h1.5v1.6H221.2z M221.2,208.5v-7h1.5v7H221.2z"/>
	<path class="st1" d="M227.6,200.3v-1.6h1.5v1.6H227.6z M227.6,208.5v-7h1.5v7H227.6z"/>
	<path class="st1" d="M232.5,208.5H231v-7h1.5v0.4c0.7-0.4,1.3-0.6,1.9-0.6c0.9,0,1.6,0.3,1.9,0.8c0.3,0.5,0.5,1.4,0.5,2.6v3.8h-1.5
		v-3.7c0-0.8-0.1-1.3-0.2-1.6c-0.2-0.3-0.5-0.5-1-0.5c-0.5,0-0.9,0.1-1.4,0.3l-0.2,0.1V208.5z"/>
	<path class="st1" d="M242.4,202.8h-1.9v3.1c0,0.6,0,0.9,0.1,1.1s0.3,0.3,0.6,0.3l1.1,0l0.1,1.2c-0.6,0.1-1.1,0.2-1.4,0.2
		c-0.8,0-1.3-0.2-1.6-0.5c-0.3-0.4-0.4-1-0.4-2.1v-3.2h-0.9v-1.3h0.9v-2h1.5v2h1.9V202.8z"/>
	<path class="st1" d="M248.6,207.2l0.4,0l0,1.1c-1.1,0.2-2,0.3-2.8,0.3c-1,0-1.8-0.3-2.2-0.9c-0.5-0.6-0.7-1.5-0.7-2.7
		c0-2.5,1-3.7,3-3.7c2,0,2.9,1.1,2.9,3.2l-0.1,1.1h-4.3c0,0.6,0.1,1,0.4,1.3c0.2,0.3,0.7,0.4,1.4,0.4
		C247.2,207.3,247.9,207.3,248.6,207.2z M247.8,204.4c0-0.7-0.1-1.2-0.3-1.4c-0.2-0.3-0.6-0.4-1.1-0.4s-0.9,0.1-1.1,0.4
		c-0.2,0.3-0.4,0.8-0.4,1.4H247.8z"/>
	<path class="st1" d="M250.8,208.5v-7h1.5v0.8c0.8-0.5,1.6-0.8,2.4-1v1.5c-0.8,0.2-1.5,0.4-2.1,0.6l-0.3,0.1v4.9H250.8z"/>
	<path class="st1" d="M256.1,202.2c0.5-0.6,1.3-0.9,2.4-0.9s1.9,0.3,2.4,0.9c0.5,0.6,0.7,1.5,0.7,2.7c0,1.2-0.2,2.1-0.7,2.7
		s-1.3,0.9-2.4,0.9s-2-0.3-2.4-0.9s-0.7-1.5-0.7-2.7C255.4,203.7,255.7,202.8,256.1,202.2z M257.3,206.8c0.2,0.4,0.6,0.6,1.3,0.6
		s1-0.2,1.3-0.6c0.2-0.4,0.3-1,0.3-1.8s-0.1-1.5-0.3-1.8c-0.2-0.4-0.6-0.5-1.2-0.5s-1,0.2-1.2,0.5c-0.2,0.4-0.3,1-0.3,1.8
		S257.1,206.4,257.3,206.8z"/>
	<path class="st1" d="M263.2,211.5v-10h1.5v0.4c0.6-0.4,1.2-0.6,1.8-0.6c0.9,0,1.6,0.3,2,0.8c0.4,0.6,0.6,1.5,0.6,2.8
		s-0.2,2.3-0.7,2.8c-0.5,0.5-1.3,0.8-2.4,0.8c-0.4,0-0.8,0-1.3-0.1v3H263.2z M266.2,202.7c-0.4,0-0.9,0.1-1.3,0.3l-0.2,0.1v4.1
		c0.4,0.1,0.8,0.1,1.2,0.1c0.6,0,1.1-0.2,1.3-0.5c0.2-0.4,0.4-1,0.4-1.9C267.6,203.4,267.1,202.7,266.2,202.7z"/>
	<path class="st1" d="M275.7,207.2l0.4,0l0,1.1c-1.1,0.2-2,0.3-2.8,0.3c-1,0-1.8-0.3-2.2-0.9c-0.5-0.6-0.7-1.5-0.7-2.7
		c0-2.5,1-3.7,3-3.7c2,0,2.9,1.1,2.9,3.2l-0.1,1.1h-4.3c0,0.6,0.1,1,0.4,1.3c0.2,0.3,0.7,0.4,1.4,0.4
		C274.3,207.3,275,207.3,275.7,207.2z M274.8,204.4c0-0.7-0.1-1.2-0.3-1.4c-0.2-0.3-0.6-0.4-1.1-0.4s-0.9,0.1-1.1,0.4
		c-0.2,0.3-0.4,0.8-0.4,1.4H274.8z"/>
	<path class="st1" d="M277.8,208.5v-7h1.5v0.8c0.8-0.5,1.6-0.8,2.4-1v1.5c-0.8,0.2-1.5,0.4-2.1,0.6l-0.3,0.1v4.9H277.8z"/>
	<path class="st1" d="M288,203.6v3.2c0,0.2,0.1,0.4,0.2,0.5c0.1,0.1,0.2,0.2,0.5,0.2l0,1.2c-0.8,0-1.4-0.2-1.9-0.5
		c-0.7,0.3-1.5,0.5-2.3,0.5c-1.4,0-2.1-0.7-2.1-2.2c0-0.7,0.2-1.2,0.6-1.5s1-0.5,1.7-0.6l1.8-0.2v-0.5c0-0.4-0.1-0.6-0.2-0.8
		s-0.4-0.2-0.7-0.2c-0.6,0-1.3,0-2.2,0.1l-0.4,0l-0.1-1.1c1-0.2,2-0.4,2.8-0.4c0.9,0,1.5,0.2,1.8,0.6S288,202.8,288,203.6z
		 M284.9,205.4c-0.6,0.1-1,0.4-1,1s0.3,1,0.9,1c0.5,0,1-0.1,1.5-0.2l0.3-0.1v-1.9L284.9,205.4z"/>
	<path class="st1" d="M293.2,201.3c1,0,1.7,0.3,2.1,0.8c0.4,0.5,0.6,1.5,0.6,2.8s-0.3,2.3-0.8,2.8c-0.5,0.5-1.4,0.8-2.7,0.8
		c-0.4,0-1.1,0-2.1-0.1l-0.5,0v-9.9h1.5v3.2C292.1,201.5,292.7,201.3,293.2,201.3z M292.5,207.3c0.7,0,1.2-0.2,1.5-0.5
		c0.2-0.4,0.4-0.9,0.4-1.8c0-0.8-0.1-1.4-0.3-1.8c-0.2-0.3-0.6-0.5-1-0.5c-0.4,0-0.9,0.1-1.3,0.2l-0.2,0.1v4.3
		C292,207.3,292.3,207.3,292.5,207.3z"/>
	<path class="st1" d="M297.5,200.3v-1.6h1.5v1.6H297.5z M297.5,208.5v-7h1.5v7H297.5z"/>
	<path class="st1" d="M300.9,208.5v-9.9h1.5v9.9H300.9z"/>
	<path class="st1" d="M304.4,200.3v-1.6h1.5v1.6H304.4z M304.4,208.5v-7h1.5v7H304.4z"/>
	<path class="st1" d="M311.5,202.8h-1.9v3.1c0,0.6,0,0.9,0.1,1.1s0.3,0.3,0.6,0.3l1.1,0l0.1,1.2c-0.6,0.1-1.1,0.2-1.4,0.2
		c-0.8,0-1.3-0.2-1.6-0.5c-0.3-0.4-0.4-1-0.4-2.1v-3.2h-0.9v-1.3h0.9v-2h1.5v2h1.9V202.8z"/>
	<path class="st1" d="M317.9,203.6v3.2c0,0.2,0.1,0.4,0.2,0.5c0.1,0.1,0.2,0.2,0.5,0.2l0,1.2c-0.8,0-1.4-0.2-1.9-0.5
		c-0.7,0.3-1.5,0.5-2.3,0.5c-1.4,0-2.1-0.7-2.1-2.2c0-0.7,0.2-1.2,0.6-1.5s1-0.5,1.7-0.6l1.8-0.2v-0.5c0-0.4-0.1-0.6-0.2-0.8
		s-0.4-0.2-0.7-0.2c-0.6,0-1.3,0-2.2,0.1l-0.4,0l-0.1-1.1c1-0.2,2-0.4,2.8-0.4c0.9,0,1.5,0.2,1.8,0.6S317.9,202.8,317.9,203.6z
		 M313.9,198l3.3,1.4l-0.4,1l-3.4-1.1L313.9,198z M314.8,205.4c-0.6,0.1-1,0.4-1,1s0.3,1,0.9,1c0.5,0,1-0.1,1.5-0.2l0.3-0.1v-1.9
		L314.8,205.4z"/>
</g>
<g class="st7">
	<path class="st1" d="M164.2,262.6V261h1.5v1.6H164.2z M164.2,270.8v-7h1.5v7H164.2z"/>
	<path class="st1" d="M169.1,270.8h-1.5v-7h1.5v0.4c0.7-0.4,1.3-0.6,1.9-0.6c0.9,0,1.6,0.3,1.9,0.8c0.3,0.5,0.5,1.4,0.5,2.6v3.8H172
		v-3.7c0-0.8-0.1-1.3-0.2-1.6c-0.2-0.3-0.5-0.5-1-0.5c-0.5,0-0.9,0.1-1.4,0.3l-0.2,0.1V270.8z"/>
	<path class="st1" d="M177.1,265.1v5.7h-1.5v-5.7h-0.8v-1.3h0.8v-0.4c0-1,0.1-1.7,0.4-2.1c0.3-0.4,0.8-0.6,1.5-0.6l1.5,0.1l0,1.2
		c-0.5,0-0.8,0-1.1,0c-0.3,0-0.5,0.1-0.6,0.3c-0.1,0.2-0.2,0.5-0.2,1v0.4h1.8v1.3H177.1z"/>
	<path class="st1" d="M180.1,270.8v-7h1.5v0.8c0.8-0.5,1.6-0.8,2.4-1v1.5c-0.8,0.2-1.5,0.4-2.1,0.6l-0.3,0.1v4.9H180.1z"/>
	<path class="st1" d="M190.3,266v3.2c0,0.2,0.1,0.4,0.2,0.5c0.1,0.1,0.2,0.2,0.5,0.2l0,1.2c-0.8,0-1.4-0.2-1.9-0.5
		c-0.7,0.3-1.5,0.5-2.3,0.5c-1.4,0-2.1-0.7-2.1-2.2c0-0.7,0.2-1.2,0.6-1.5s1-0.5,1.7-0.6l1.8-0.2V266c0-0.4-0.1-0.6-0.2-0.8
		s-0.4-0.2-0.7-0.2c-0.6,0-1.3,0-2.2,0.1l-0.4,0l-0.1-1.1c1-0.2,2-0.4,2.8-0.4c0.9,0,1.5,0.2,1.8,0.6
		C190.1,264.6,190.3,265.2,190.3,266z M187.2,267.7c-0.6,0.1-1,0.4-1,1c0,0.6,0.3,1,0.9,1c0.5,0,1-0.1,1.5-0.2l0.3-0.1v-1.9
		L187.2,267.7z"/>
	<path class="st1" d="M197.1,265.2c-1.1-0.1-1.9-0.2-2.4-0.2c-0.5,0-0.8,0.1-1,0.2c-0.2,0.1-0.3,0.3-0.3,0.6c0,0.3,0.1,0.4,0.3,0.5
		c0.2,0.1,0.7,0.2,1.5,0.4c0.8,0.1,1.3,0.3,1.7,0.6c0.3,0.3,0.5,0.8,0.5,1.5s-0.2,1.3-0.7,1.6c-0.5,0.3-1.2,0.5-2.1,0.5
		c-0.6,0-1.3-0.1-2.2-0.2l-0.4-0.1l0.1-1.3c1.1,0.1,1.9,0.2,2.4,0.2c0.5,0,0.8-0.1,1.1-0.2c0.2-0.1,0.3-0.3,0.3-0.6
		s-0.1-0.5-0.3-0.6c-0.2-0.1-0.7-0.2-1.4-0.3s-1.3-0.3-1.7-0.6c-0.4-0.3-0.5-0.8-0.5-1.5s0.2-1.3,0.7-1.6s1.1-0.5,1.9-0.5
		c0.6,0,1.3,0.1,2.2,0.2l0.4,0.1L197.1,265.2z"/>
	<path class="st1" d="M202.6,265.1h-1.9v3.1c0,0.6,0,0.9,0.1,1.1s0.3,0.3,0.6,0.3l1.1,0l0.1,1.2c-0.6,0.1-1.1,0.2-1.4,0.2
		c-0.8,0-1.3-0.2-1.6-0.5c-0.3-0.4-0.4-1-0.4-2.1v-3.2h-0.9v-1.3h0.9v-2h1.5v2h1.9V265.1z"/>
	<path class="st1" d="M203.8,270.8v-7h1.5v0.8c0.8-0.5,1.6-0.8,2.4-1v1.5c-0.8,0.2-1.5,0.4-2.1,0.6l-0.3,0.1v4.9H203.8z"/>
	<path class="st1" d="M213.1,263.8h1.5v7h-1.5v-0.4c-0.7,0.4-1.3,0.6-1.9,0.6c-1,0-1.6-0.3-1.9-0.8c-0.3-0.5-0.5-1.4-0.5-2.7v-3.7
		h1.5v3.7c0,0.8,0.1,1.4,0.2,1.7c0.1,0.3,0.5,0.4,1,0.4c0.5,0,1-0.1,1.4-0.3l0.2-0.1V263.8z"/>
	<path class="st1" d="M220.3,265.1h-1.9v3.1c0,0.6,0,0.9,0.1,1.1s0.3,0.3,0.6,0.3l1.1,0l0.1,1.2c-0.6,0.1-1.1,0.2-1.4,0.2
		c-0.8,0-1.3-0.2-1.6-0.5c-0.3-0.4-0.4-1-0.4-2.1v-3.2h-0.9v-1.3h0.9v-2h1.5v2h1.9V265.1z"/>
	<path class="st1" d="M225.3,265.1h-1.9v3.1c0,0.6,0,0.9,0.1,1.1s0.3,0.3,0.6,0.3l1.1,0l0.1,1.2c-0.6,0.1-1.1,0.2-1.4,0.2
		c-0.8,0-1.3-0.2-1.6-0.5c-0.3-0.4-0.4-1-0.4-2.1v-3.2h-0.9v-1.3h0.9v-2h1.5v2h1.9V265.1z"/>
	<path class="st1" d="M230.8,263.8h1.5v7h-1.5v-0.4c-0.7,0.4-1.3,0.6-1.9,0.6c-1,0-1.6-0.3-1.9-0.8c-0.3-0.5-0.5-1.4-0.5-2.7v-3.7
		h1.5v3.7c0,0.8,0.1,1.4,0.2,1.7c0.1,0.3,0.5,0.4,1,0.4c0.5,0,1-0.1,1.4-0.3l0.2-0.1V263.8z"/>
	<path class="st1" d="M234.1,270.8v-7h1.5v0.8c0.8-0.5,1.6-0.8,2.4-1v1.5c-0.8,0.2-1.5,0.4-2.1,0.6l-0.3,0.1v4.9H234.1z"/>
	<path class="st1" d="M244.1,269.5l0.4,0l0,1.1c-1.1,0.2-2,0.3-2.8,0.3c-1,0-1.8-0.3-2.2-0.9c-0.5-0.6-0.7-1.5-0.7-2.7
		c0-2.5,1-3.7,3-3.7c2,0,2.9,1.1,2.9,3.2l-0.1,1.1h-4.3c0,0.6,0.1,1,0.4,1.3c0.2,0.3,0.7,0.4,1.4,0.4
		C242.7,269.6,243.4,269.6,244.1,269.5z M243.3,266.8c0-0.7-0.1-1.2-0.3-1.4c-0.2-0.3-0.6-0.4-1.1-0.4s-0.9,0.1-1.1,0.4
		c-0.2,0.3-0.4,0.8-0.4,1.4H243.3z"/>
	<path class="st1" d="M249.3,262.6V261h1.5v1.6H249.3z M249.3,270.8v-7h1.5v7H249.3z"/>
	<path class="st1" d="M254.2,270.8h-1.5v-7h1.5v0.4c0.7-0.4,1.3-0.6,1.8-0.6c0.8,0,1.4,0.2,1.8,0.7c0.8-0.5,1.7-0.7,2.5-0.7
		c0.8,0,1.4,0.3,1.8,0.8c0.3,0.5,0.5,1.4,0.5,2.6v3.8h-1.5v-3.7c0-0.8-0.1-1.3-0.2-1.6s-0.5-0.5-1-0.5c-0.4,0-0.9,0.1-1.4,0.3
		l-0.2,0.1c0.1,0.2,0.1,0.8,0.1,1.8v3.6h-1.5v-3.6c0-0.8-0.1-1.4-0.2-1.7c-0.1-0.3-0.5-0.5-1-0.5c-0.5,0-0.9,0.1-1.3,0.3l-0.2,0.1
		V270.8z"/>
	<path class="st1" d="M265.9,270.8h-1.5v-7h1.5v0.4c0.7-0.4,1.3-0.6,1.8-0.6c0.8,0,1.4,0.2,1.8,0.7c0.8-0.5,1.7-0.7,2.5-0.7
		c0.8,0,1.4,0.3,1.8,0.8c0.3,0.5,0.5,1.4,0.5,2.6v3.8h-1.5v-3.7c0-0.8-0.1-1.3-0.2-1.6s-0.5-0.5-1-0.5c-0.4,0-0.9,0.1-1.4,0.3
		l-0.2,0.1c0.1,0.2,0.1,0.8,0.1,1.8v3.6h-1.5v-3.6c0-0.8-0.1-1.4-0.2-1.7c-0.1-0.3-0.5-0.5-1-0.5c-0.5,0-0.9,0.1-1.3,0.3l-0.2,0.1
		V270.8z"/>
	<path class="st1" d="M281.3,266v3.2c0,0.2,0.1,0.4,0.2,0.5c0.1,0.1,0.2,0.2,0.5,0.2l0,1.2c-0.8,0-1.4-0.2-1.9-0.5
		c-0.7,0.3-1.5,0.5-2.3,0.5c-1.4,0-2.1-0.7-2.1-2.2c0-0.7,0.2-1.2,0.6-1.5s1-0.5,1.7-0.6l1.8-0.2V266c0-0.4-0.1-0.6-0.2-0.8
		s-0.4-0.2-0.7-0.2c-0.6,0-1.3,0-2.2,0.1l-0.4,0l-0.1-1.1c1-0.2,2-0.4,2.8-0.4c0.9,0,1.5,0.2,1.8,0.6
		C281.1,264.6,281.3,265.2,281.3,266z M278.2,267.7c-0.6,0.1-1,0.4-1,1c0,0.6,0.3,1,0.9,1c0.5,0,1-0.1,1.5-0.2l0.3-0.1v-1.9
		L278.2,267.7z"/>
	<path class="st1" d="M287,265.1h-1.9v3.1c0,0.6,0,0.9,0.1,1.1s0.3,0.3,0.6,0.3l1.1,0l0.1,1.2c-0.6,0.1-1.1,0.2-1.4,0.2
		c-0.8,0-1.3-0.2-1.6-0.5c-0.3-0.4-0.4-1-0.4-2.1v-3.2h-0.9v-1.3h0.9v-2h1.5v2h1.9V265.1z"/>
	<path class="st1" d="M293.2,269.5l0.4,0l0,1.1c-1.1,0.2-2,0.3-2.8,0.3c-1,0-1.8-0.3-2.2-0.9c-0.5-0.6-0.7-1.5-0.7-2.7
		c0-2.5,1-3.7,3-3.7c2,0,2.9,1.1,2.9,3.2l-0.1,1.1h-4.3c0,0.6,0.1,1,0.4,1.3c0.2,0.3,0.7,0.4,1.4,0.4
		C291.9,269.6,292.5,269.6,293.2,269.5z M292.4,266.8c0-0.7-0.1-1.2-0.3-1.4c-0.2-0.3-0.6-0.4-1.1-0.4s-0.9,0.1-1.1,0.4
		c-0.2,0.3-0.4,0.8-0.4,1.4H292.4z"/>
	<path class="st1" d="M295.4,270.8v-7h1.5v0.8c0.8-0.5,1.6-0.8,2.4-1v1.5c-0.8,0.2-1.5,0.4-2.1,0.6l-0.3,0.1v4.9H295.4z"/>
	<path class="st1" d="M300.4,262.6V261h1.5v1.6H300.4z M300.4,270.8v-7h1.5v7H300.4z"/>
	<path class="st1" d="M309,266v3.2c0,0.2,0.1,0.4,0.2,0.5c0.1,0.1,0.2,0.2,0.5,0.2l0,1.2c-0.8,0-1.4-0.2-1.9-0.5
		c-0.7,0.3-1.5,0.5-2.3,0.5c-1.4,0-2.1-0.7-2.1-2.2c0-0.7,0.2-1.2,0.6-1.5s1-0.5,1.7-0.6l1.8-0.2V266c0-0.4-0.1-0.6-0.2-0.8
		s-0.4-0.2-0.7-0.2c-0.6,0-1.3,0-2.2,0.1l-0.4,0l-0.1-1.1c1-0.2,2-0.4,2.8-0.4c0.9,0,1.5,0.2,1.8,0.6C308.8,264.6,309,265.2,309,266
		z M305.8,267.7c-0.6,0.1-1,0.4-1,1c0,0.6,0.3,1,0.9,1c0.5,0,1-0.1,1.5-0.2l0.3-0.1v-1.9L305.8,267.7z"/>
	<path class="st1" d="M311,270.8v-9.9h1.5v9.9H311z"/>
	<path class="st1" d="M314.4,262.6V261h1.5v1.6H314.4z M314.4,270.8v-7h1.5v7H314.4z"/>
</g>
<g class="st7">
	<path class="st1" d="M178.9,325.8v-1.6h1.5v1.6H178.9z M178.9,334v-7h1.5v7H178.9z"/>
	<path class="st1" d="M183.8,334h-1.5v-7h1.5v0.4c0.7-0.4,1.3-0.6,1.9-0.6c0.9,0,1.6,0.3,1.9,0.8c0.3,0.5,0.5,1.4,0.5,2.6v3.8h-1.5
		v-3.7c0-0.8-0.1-1.3-0.2-1.6c-0.2-0.3-0.5-0.5-1-0.5c-0.5,0-0.9,0.1-1.4,0.3l-0.2,0.1V334z"/>
	<path class="st1" d="M191.8,328.3v5.7h-1.5v-5.7h-0.8V327h0.8v-0.4c0-1,0.1-1.7,0.4-2.1c0.3-0.4,0.8-0.6,1.5-0.6l1.5,0.1l0,1.2
		c-0.5,0-0.8,0-1.1,0c-0.3,0-0.5,0.1-0.6,0.3c-0.1,0.2-0.2,0.5-0.2,1v0.4h1.8v1.3H191.8z"/>
	<path class="st1" d="M194.8,334v-7h1.5v0.8c0.8-0.5,1.6-0.8,2.4-1v1.5c-0.8,0.2-1.5,0.4-2.1,0.6l-0.3,0.1v4.9H194.8z"/>
	<path class="st1" d="M205,329.2v3.2c0,0.2,0.1,0.4,0.2,0.5c0.1,0.1,0.2,0.2,0.5,0.2l0,1.2c-0.8,0-1.4-0.2-1.9-0.5
		c-0.7,0.3-1.5,0.5-2.3,0.5c-1.4,0-2.1-0.7-2.1-2.2c0-0.7,0.2-1.2,0.6-1.5s1-0.5,1.7-0.6l1.8-0.2v-0.5c0-0.4-0.1-0.6-0.2-0.8
		s-0.4-0.2-0.7-0.2c-0.6,0-1.3,0-2.2,0.1l-0.4,0l-0.1-1.1c1-0.2,2-0.4,2.8-0.4c0.9,0,1.5,0.2,1.8,0.6
		C204.8,327.8,205,328.4,205,329.2z M201.9,330.9c-0.6,0.1-1,0.4-1,1c0,0.6,0.3,1,0.9,1c0.5,0,1-0.1,1.5-0.2l0.3-0.1v-1.9
		L201.9,330.9z"/>
	<path class="st1" d="M211.8,328.5c-1.1-0.1-1.9-0.2-2.4-0.2c-0.5,0-0.8,0.1-1,0.2c-0.2,0.1-0.3,0.3-0.3,0.6c0,0.3,0.1,0.4,0.3,0.5
		c0.2,0.1,0.7,0.2,1.5,0.4c0.8,0.1,1.3,0.3,1.7,0.6c0.3,0.3,0.5,0.8,0.5,1.5s-0.2,1.3-0.7,1.6c-0.5,0.3-1.2,0.5-2.1,0.5
		c-0.6,0-1.3-0.1-2.2-0.2l-0.4-0.1l0.1-1.3c1.1,0.1,1.9,0.2,2.4,0.2c0.5,0,0.8-0.1,1.1-0.2c0.2-0.1,0.3-0.3,0.3-0.6
		s-0.1-0.5-0.3-0.6c-0.2-0.1-0.7-0.2-1.4-0.3s-1.3-0.3-1.7-0.6c-0.4-0.3-0.5-0.8-0.5-1.5s0.2-1.3,0.7-1.6s1.1-0.5,1.9-0.5
		c0.6,0,1.3,0.1,2.2,0.2l0.4,0.1L211.8,328.5z"/>
	<path class="st1" d="M217.3,328.3h-1.9v3.1c0,0.6,0,0.9,0.1,1.1s0.3,0.3,0.6,0.3l1.1,0l0.1,1.2c-0.6,0.1-1.1,0.2-1.4,0.2
		c-0.8,0-1.3-0.2-1.6-0.5c-0.3-0.4-0.4-1-0.4-2.1v-3.2h-0.9V327h0.9v-2h1.5v2h1.9V328.3z"/>
	<path class="st1" d="M218.5,334v-7h1.5v0.8c0.8-0.5,1.6-0.8,2.4-1v1.5c-0.8,0.2-1.5,0.4-2.1,0.6l-0.3,0.1v4.9H218.5z"/>
	<path class="st1" d="M227.8,327h1.5v7h-1.5v-0.4c-0.7,0.4-1.3,0.6-1.9,0.6c-1,0-1.6-0.3-1.9-0.8c-0.3-0.5-0.5-1.4-0.5-2.7V327h1.5
		v3.7c0,0.8,0.1,1.4,0.2,1.7c0.1,0.3,0.5,0.4,1,0.4c0.5,0,1-0.1,1.4-0.3l0.2-0.1V327z"/>
	<path class="st1" d="M235,328.3H233v3.1c0,0.6,0,0.9,0.1,1.1s0.3,0.3,0.6,0.3l1.1,0l0.1,1.2c-0.6,0.1-1.1,0.2-1.4,0.2
		c-0.8,0-1.3-0.2-1.6-0.5c-0.3-0.4-0.4-1-0.4-2.1v-3.2h-0.9V327h0.9v-2h1.5v2h1.9V328.3z"/>
	<path class="st1" d="M240,328.3H238v3.1c0,0.6,0,0.9,0.1,1.1s0.3,0.3,0.6,0.3l1.1,0l0.1,1.2c-0.6,0.1-1.1,0.2-1.4,0.2
		c-0.8,0-1.3-0.2-1.6-0.5c-0.3-0.4-0.4-1-0.4-2.1v-3.2h-0.9V327h0.9v-2h1.5v2h1.9V328.3z"/>
	<path class="st1" d="M245.5,327h1.5v7h-1.5v-0.4c-0.7,0.4-1.3,0.6-1.9,0.6c-1,0-1.6-0.3-1.9-0.8c-0.3-0.5-0.5-1.4-0.5-2.7V327h1.5
		v3.7c0,0.8,0.1,1.4,0.2,1.7c0.1,0.3,0.5,0.4,1,0.4c0.5,0,1-0.1,1.4-0.3l0.2-0.1V327z"/>
	<path class="st1" d="M248.8,334v-7h1.5v0.8c0.8-0.5,1.6-0.8,2.4-1v1.5c-0.8,0.2-1.5,0.4-2.1,0.6l-0.3,0.1v4.9H248.8z"/>
	<path class="st1" d="M258.8,332.8l0.4,0l0,1.1c-1.1,0.2-2,0.3-2.8,0.3c-1,0-1.8-0.3-2.2-0.9c-0.5-0.6-0.7-1.5-0.7-2.7
		c0-2.5,1-3.7,3-3.7c2,0,2.9,1.1,2.9,3.2l-0.1,1.1H255c0,0.6,0.1,1,0.4,1.3c0.2,0.3,0.7,0.4,1.4,0.4
		C257.4,332.8,258.1,332.8,258.8,332.8z M258,330c0-0.7-0.1-1.2-0.3-1.4c-0.2-0.3-0.6-0.4-1.1-0.4s-0.9,0.1-1.1,0.4
		c-0.2,0.3-0.4,0.8-0.4,1.4H258z"/>
	<path class="st1" d="M265.8,328.3v5.7h-1.5v-5.7h-0.8V327h0.8v-0.4c0-1,0.1-1.7,0.4-2.1c0.3-0.4,0.8-0.6,1.5-0.6l1.5,0.1l0,1.2
		c-0.5,0-0.8,0-1.1,0c-0.3,0-0.5,0.1-0.6,0.3c-0.1,0.2-0.2,0.5-0.2,1v0.4h1.8v1.3H265.8z"/>
	<path class="st1" d="M268.8,325.8v-1.6h1.5v1.6H268.8z M268.8,334v-7h1.5v7H268.8z"/>
	<path class="st1" d="M277.1,328.5c-1.1-0.1-1.9-0.2-2.4-0.2c-0.5,0-0.8,0.1-1,0.2c-0.2,0.1-0.3,0.3-0.3,0.6c0,0.3,0.1,0.4,0.3,0.5
		c0.2,0.1,0.7,0.2,1.5,0.4c0.8,0.1,1.3,0.3,1.7,0.6c0.3,0.3,0.5,0.8,0.5,1.5s-0.2,1.3-0.7,1.6c-0.5,0.3-1.2,0.5-2.1,0.5
		c-0.6,0-1.3-0.1-2.2-0.2l-0.4-0.1l0.1-1.3c1.1,0.1,1.9,0.2,2.4,0.2c0.5,0,0.8-0.1,1.1-0.2c0.2-0.1,0.3-0.3,0.3-0.6
		s-0.1-0.5-0.3-0.6c-0.2-0.1-0.7-0.2-1.4-0.3s-1.3-0.3-1.7-0.6c-0.4-0.3-0.5-0.8-0.5-1.5s0.2-1.3,0.7-1.6s1.1-0.5,1.9-0.5
		c0.6,0,1.3,0.1,2.2,0.2l0.4,0.1L277.1,328.5z"/>
	<path class="st1" d="M278.8,325.8v-1.6h1.5v1.6H278.8z M278.8,334v-7h1.5v7H278.8z"/>
	<path class="st1" d="M284.8,326.9c0.5,0,1.1,0.1,1.8,0.2l0.3,0.1l-0.1,1.2c-0.7-0.1-1.3-0.1-1.6-0.1c-0.7,0-1.2,0.2-1.4,0.5
		c-0.2,0.3-0.4,0.9-0.4,1.8c0,0.9,0.1,1.5,0.3,1.8s0.7,0.5,1.5,0.5l1.6-0.1l0,1.2c-0.9,0.2-1.7,0.3-2.1,0.3c-1.1,0-1.8-0.3-2.2-0.9
		c-0.4-0.6-0.7-1.5-0.7-2.8s0.2-2.2,0.7-2.8C283,327.1,283.7,326.9,284.8,326.9z"/>
	<path class="st1" d="M289.9,334h-1.5v-9.9h1.5v3.3c0.7-0.3,1.3-0.5,1.9-0.5c0.9,0,1.6,0.3,1.9,0.8c0.3,0.5,0.5,1.4,0.5,2.6v3.8
		h-1.5v-3.7c0-0.8-0.1-1.3-0.2-1.6c-0.2-0.3-0.5-0.5-1-0.5c-0.4,0-0.9,0.1-1.3,0.2l-0.2,0.1V334z"/>
	<path class="st1" d="M301,332.8l0.4,0l0,1.1c-1.1,0.2-2,0.3-2.8,0.3c-1,0-1.8-0.3-2.2-0.9c-0.5-0.6-0.7-1.5-0.7-2.7
		c0-2.5,1-3.7,3-3.7c2,0,2.9,1.1,2.9,3.2l-0.1,1.1h-4.3c0,0.6,0.1,1,0.4,1.3c0.2,0.3,0.7,0.4,1.4,0.4
		C299.6,332.8,300.3,332.8,301,332.8z M300.1,330c0-0.7-0.1-1.2-0.3-1.4c-0.2-0.3-0.6-0.4-1.1-0.4s-0.9,0.1-1.1,0.4
		c-0.2,0.3-0.4,0.8-0.4,1.4H300.1z"/>
</g>
<g id="Group_100" transform="translate(0.1 -50)">
	<g transform="matrix(1, 0, 0, 1, 241.9, 30)">
		<g id="Union_1-2">
			<path class="st8" d="M-133.1,428.6v-33.7h-0.1V72.4h8.8v312.4h87.9v43.9H-133.1z"/>
		</g>
	</g>
</g>
<g class="st7">
	<path class="st1" d="M140.1,385.5c-1.1-0.1-1.9-0.2-2.4-0.2c-0.5,0-0.8,0.1-1,0.2c-0.2,0.1-0.3,0.3-0.3,0.6s0.1,0.4,0.3,0.5
		c0.2,0.1,0.7,0.2,1.5,0.4c0.8,0.1,1.3,0.3,1.7,0.6c0.3,0.3,0.5,0.8,0.5,1.5s-0.2,1.3-0.7,1.6c-0.5,0.3-1.2,0.5-2.1,0.5
		c-0.6,0-1.3-0.1-2.2-0.2l-0.4-0.1l0.1-1.3c1.1,0.1,1.9,0.2,2.4,0.2c0.5,0,0.8-0.1,1.1-0.2s0.3-0.3,0.3-0.6c0-0.3-0.1-0.5-0.3-0.6
		c-0.2-0.1-0.7-0.2-1.4-0.3s-1.3-0.3-1.7-0.6s-0.5-0.8-0.5-1.5s0.2-1.3,0.7-1.6c0.5-0.4,1.1-0.5,1.9-0.5c0.6,0,1.3,0.1,2.2,0.2
		l0.4,0.1L140.1,385.5z"/>
	<path class="st1" d="M141.8,382.9v-1.6h1.5v1.6H141.8z M141.8,391.1v-7h1.5v7H141.8z"/>
	<path class="st1" d="M147.8,383.9c0.5,0,1.1,0.1,1.8,0.2l0.3,0.1l-0.1,1.2c-0.7-0.1-1.3-0.1-1.6-0.1c-0.7,0-1.2,0.2-1.4,0.5
		c-0.2,0.3-0.4,0.9-0.4,1.8c0,0.9,0.1,1.5,0.3,1.8s0.7,0.5,1.5,0.5l1.6-0.1l0,1.2c-0.9,0.2-1.7,0.3-2.1,0.3c-1.1,0-1.8-0.3-2.2-0.9
		c-0.4-0.6-0.7-1.5-0.7-2.8c0-1.3,0.2-2.2,0.7-2.8C146,384.2,146.7,383.9,147.8,383.9z"/>
	<path class="st1" d="M155.6,384.1h1.5v7h-1.5v-0.4c-0.7,0.4-1.3,0.6-1.9,0.6c-1,0-1.6-0.3-1.9-0.8c-0.3-0.5-0.5-1.4-0.5-2.7v-3.7
		h1.5v3.7c0,0.8,0.1,1.4,0.2,1.7c0.1,0.3,0.5,0.4,1,0.4c0.5,0,1-0.1,1.4-0.3l0.2-0.1V384.1z"/>
	<path class="st1" d="M158.9,391.1v-7h1.5v0.8c0.8-0.5,1.6-0.8,2.4-1v1.5c-0.8,0.2-1.5,0.4-2.1,0.6l-0.3,0.1v4.9H158.9z"/>
	<path class="st1" d="M168.9,389.8l0.4,0l0,1.1c-1.1,0.2-2,0.3-2.8,0.3c-1,0-1.8-0.3-2.2-0.9c-0.5-0.6-0.7-1.5-0.7-2.7
		c0-2.5,1-3.7,3-3.7c2,0,2.9,1.1,2.9,3.2l-0.1,1.1h-4.3c0,0.6,0.1,1,0.4,1.3c0.2,0.3,0.7,0.4,1.4,0.4
		C167.5,389.9,168.2,389.9,168.9,389.8z M168.1,387c0-0.7-0.1-1.2-0.3-1.4c-0.2-0.3-0.6-0.4-1.1-0.4s-0.9,0.1-1.1,0.4
		c-0.2,0.3-0.4,0.8-0.4,1.4H168.1z"/>
	<path class="st1" d="M170.7,385.4v-1.4h5.2v1.4l-3.4,4.3h3.4v1.4h-5.2v-1.4l3.4-4.3H170.7z"/>
	<path class="st1" d="M177.1,385.4v-1.4h5.2v1.4l-3.4,4.3h3.4v1.4h-5.2v-1.4l3.4-4.3H177.1z"/>
	<path class="st1" d="M188.9,386.2v3.2c0,0.2,0.1,0.4,0.2,0.5c0.1,0.1,0.2,0.2,0.5,0.2l0,1.2c-0.8,0-1.4-0.2-1.9-0.5
		c-0.7,0.3-1.5,0.5-2.3,0.5c-1.4,0-2.1-0.7-2.1-2.2c0-0.7,0.2-1.2,0.6-1.5c0.4-0.3,1-0.5,1.7-0.6l1.8-0.2v-0.5
		c0-0.4-0.1-0.6-0.2-0.8s-0.4-0.2-0.7-0.2c-0.6,0-1.3,0-2.2,0.1l-0.4,0l-0.1-1.1c1-0.2,2-0.4,2.8-0.4c0.9,0,1.5,0.2,1.8,0.6
		C188.8,384.8,188.9,385.4,188.9,386.2z M185.8,388c-0.6,0.1-1,0.4-1,1.1c0,0.6,0.3,1,0.9,1c0.5,0,1-0.1,1.5-0.2l0.3-0.1v-1.9
		L185.8,388z"/>
</g>
<g id="Group_99" transform="translate(0 -50)">
	<g transform="matrix(1, 0, 0, 1, 242, 30)">
		<g id="Union_2-2">
			<path class="st9" d="M31,426.9V383h87.8V72.4h8.8v354.5H31z"/>
		</g>
	</g>
</g>
<g class="st7">
	<path class="st1" d="M286.2,372.7v9.2h-1.4v-0.3c-0.6,0.3-1.2,0.5-1.7,0.5c-0.8,0-1.5-0.3-1.9-0.8s-0.6-1.4-0.6-2.6
		c0-1.2,0.2-2.1,0.7-2.6c0.4-0.5,1.1-0.8,2-0.8c0.3,0,0.8,0.1,1.5,0.2v-2.7H286.2z M284.5,380.6l0.2-0.1v-3.8
		c-0.5-0.1-1-0.1-1.4-0.1c-0.9,0-1.3,0.7-1.3,2.2c0,0.8,0.1,1.4,0.3,1.7c0.2,0.3,0.5,0.5,1,0.5C283.7,380.8,284.1,380.7,284.5,380.6
		z"/>
	<path class="st1" d="M292.7,377.4v3c0,0.2,0.1,0.3,0.1,0.4s0.2,0.1,0.4,0.2l0,1.1c-0.7,0-1.3-0.2-1.7-0.5c-0.7,0.3-1.4,0.5-2.1,0.5
		c-1.3,0-1.9-0.7-1.9-2.1c0-0.7,0.2-1.1,0.5-1.4c0.4-0.3,0.9-0.5,1.6-0.5l1.7-0.1v-0.5c0-0.3-0.1-0.6-0.2-0.7
		c-0.2-0.1-0.4-0.2-0.7-0.2c-0.6,0-1.2,0-2.1,0.1l-0.4,0l-0.1-1c0.9-0.2,1.8-0.3,2.6-0.3s1.4,0.2,1.7,0.5
		C292.5,376.1,292.7,376.7,292.7,377.4z M289.8,379c-0.6,0.1-0.9,0.4-0.9,1s0.3,0.9,0.8,0.9c0.4,0,0.9-0.1,1.4-0.2l0.2-0.1v-1.7
		L289.8,379z"/>
	<path class="st1" d="M298,376.6h-1.8v2.9c0,0.5,0,0.9,0.1,1.1c0.1,0.2,0.3,0.3,0.6,0.3l1.1,0l0.1,1.1c-0.6,0.1-1,0.2-1.3,0.2
		c-0.7,0-1.2-0.2-1.5-0.5c-0.3-0.3-0.4-1-0.4-1.9v-3h-0.8v-1.2h0.8v-1.9h1.4v1.9h1.8V376.6z"/>
	<path class="st1" d="M303.9,377.4v3c0,0.2,0.1,0.3,0.1,0.4s0.2,0.1,0.4,0.2l0,1.1c-0.7,0-1.3-0.2-1.7-0.5c-0.7,0.3-1.4,0.5-2.1,0.5
		c-1.3,0-1.9-0.7-1.9-2.1c0-0.7,0.2-1.1,0.5-1.4c0.4-0.3,0.9-0.5,1.6-0.5l1.7-0.1v-0.5c0-0.3-0.1-0.6-0.2-0.7
		c-0.2-0.1-0.4-0.2-0.7-0.2c-0.6,0-1.2,0-2.1,0.1l-0.4,0l-0.1-1c0.9-0.2,1.8-0.3,2.6-0.3s1.4,0.2,1.7,0.5
		C303.8,376.1,303.9,376.7,303.9,377.4z M301,379c-0.6,0.1-0.9,0.4-0.9,1s0.3,0.9,0.8,0.9c0.4,0,0.9-0.1,1.4-0.2l0.2-0.1v-1.7
		L301,379z"/>
	<path class="st1" d="M313.4,377.4v3c0,0.2,0.1,0.3,0.1,0.4s0.2,0.1,0.4,0.2l0,1.1c-0.7,0-1.3-0.2-1.7-0.5c-0.7,0.3-1.4,0.5-2.1,0.5
		c-1.3,0-1.9-0.7-1.9-2.1c0-0.7,0.2-1.1,0.5-1.4c0.4-0.3,0.9-0.5,1.6-0.5l1.7-0.1v-0.5c0-0.3-0.1-0.6-0.2-0.7
		c-0.2-0.1-0.4-0.2-0.7-0.2c-0.6,0-1.2,0-2.1,0.1l-0.4,0l-0.1-1c0.9-0.2,1.8-0.3,2.6-0.3s1.4,0.2,1.7,0.5
		C313.2,376.1,313.4,376.7,313.4,377.4z M310.5,379c-0.6,0.1-0.9,0.4-0.9,1s0.3,0.9,0.8,0.9c0.4,0,0.9-0.1,1.4-0.2l0.2-0.1v-1.7
		L310.5,379z"/>
	<path class="st1" d="M316.6,381.9h-1.4v-6.5h1.4v0.4c0.6-0.4,1.2-0.5,1.8-0.5c0.9,0,1.5,0.2,1.8,0.7c0.3,0.5,0.5,1.3,0.5,2.4v3.5
		h-1.4v-3.4c0-0.7-0.1-1.2-0.2-1.5c-0.2-0.3-0.5-0.4-0.9-0.4c-0.4,0-0.9,0.1-1.3,0.3l-0.2,0.1V381.9z"/>
	<path class="st1" d="M322.4,381.9v-9.2h1.4v9.2H322.4z"/>
	<path class="st1" d="M330.4,377.4v3c0,0.2,0.1,0.3,0.1,0.4s0.2,0.1,0.4,0.2l0,1.1c-0.7,0-1.3-0.2-1.7-0.5c-0.7,0.3-1.4,0.5-2.1,0.5
		c-1.3,0-1.9-0.7-1.9-2.1c0-0.7,0.2-1.1,0.5-1.4c0.4-0.3,0.9-0.5,1.6-0.5l1.7-0.1v-0.5c0-0.3-0.1-0.6-0.2-0.7
		c-0.2-0.1-0.4-0.2-0.7-0.2c-0.6,0-1.2,0-2.1,0.1l-0.4,0l-0.1-1c0.9-0.2,1.8-0.3,2.6-0.3s1.4,0.2,1.7,0.5
		C330.2,376.1,330.4,376.7,330.4,377.4z M327.5,379c-0.6,0.1-0.9,0.4-0.9,1s0.3,0.9,0.8,0.9c0.4,0,0.9-0.1,1.4-0.2l0.2-0.1v-1.7
		L327.5,379z"/>
	<path class="st1" d="M331.5,375.4h1.4l1.4,5.3h0.4l1.4-5.3h1.4l-2.5,9.3h-1.4l0.8-2.8h-1.1L331.5,375.4z"/>
	<path class="st1" d="M342,376.6h-1.8v2.9c0,0.5,0,0.9,0.1,1.1c0.1,0.2,0.3,0.3,0.6,0.3l1.1,0l0.1,1.1c-0.6,0.1-1,0.2-1.3,0.2
		c-0.7,0-1.2-0.2-1.5-0.5c-0.3-0.3-0.4-1-0.4-1.9v-3h-0.8v-1.2h0.8v-1.9h1.4v1.9h1.8V376.6z"/>
	<path class="st1" d="M343.1,374.3v-1.5h1.4v1.5H343.1z M343.1,381.9v-6.5h1.4v6.5H343.1z"/>
	<path class="st1" d="M348.7,375.3c0.5,0,1,0.1,1.6,0.2l0.3,0.1l-0.1,1.1c-0.7-0.1-1.2-0.1-1.5-0.1c-0.7,0-1.1,0.1-1.3,0.4
		c-0.2,0.3-0.3,0.8-0.3,1.7c0,0.8,0.1,1.4,0.3,1.7c0.2,0.3,0.7,0.5,1.4,0.5l1.5-0.1l0,1.1c-0.9,0.2-1.5,0.2-2,0.2
		c-1,0-1.7-0.3-2.1-0.8c-0.4-0.5-0.6-1.4-0.6-2.6c0-1.2,0.2-2.1,0.6-2.6S347.7,375.3,348.7,375.3z"/>
	<path class="st1" d="M356.5,376.8c-1-0.1-1.8-0.2-2.2-0.2c-0.5,0-0.8,0.1-1,0.2s-0.3,0.3-0.3,0.5c0,0.2,0.1,0.4,0.3,0.5
		c0.2,0.1,0.7,0.2,1.4,0.3c0.7,0.1,1.2,0.3,1.5,0.6c0.3,0.3,0.5,0.7,0.5,1.4s-0.2,1.2-0.7,1.5s-1.1,0.5-1.9,0.5
		c-0.5,0-1.2-0.1-2-0.2l-0.4-0.1l0.1-1.2c1,0.1,1.8,0.2,2.2,0.2c0.5,0,0.8-0.1,1-0.2c0.2-0.1,0.3-0.3,0.3-0.6c0-0.3-0.1-0.4-0.3-0.5
		s-0.6-0.2-1.3-0.3c-0.7-0.1-1.2-0.3-1.6-0.6c-0.3-0.3-0.5-0.7-0.5-1.4c0-0.7,0.2-1.2,0.7-1.5s1-0.5,1.7-0.5c0.6,0,1.2,0.1,2,0.2
		l0.4,0.1L356.5,376.8z"/>
</g>
<g class="st7">
	<path class="st1" d="M291.1,391.9v5.3h-1.4v-5.3H289v-1.2h0.8v-0.4c0-0.9,0.1-1.6,0.4-1.9s0.7-0.5,1.4-0.5l1.4,0.1l0,1.2
		c-0.4,0-0.8,0-1.1,0c-0.3,0-0.5,0.1-0.6,0.3c-0.1,0.2-0.2,0.5-0.2,0.9v0.4h1.7v1.2H291.1z"/>
	<path class="st1" d="M293.9,397.2v-6.5h1.4v0.8c0.7-0.5,1.5-0.8,2.2-0.9v1.4c-0.7,0.1-1.4,0.3-1.9,0.6l-0.3,0.1v4.5H293.9z"/>
	<path class="st1" d="M303.4,392.7v3c0,0.2,0.1,0.3,0.1,0.4s0.2,0.1,0.4,0.2l0,1.1c-0.7,0-1.3-0.2-1.7-0.5c-0.7,0.3-1.4,0.5-2.1,0.5
		c-1.3,0-1.9-0.7-1.9-2.1c0-0.7,0.2-1.1,0.5-1.4c0.4-0.3,0.9-0.5,1.6-0.5l1.7-0.1v-0.5c0-0.3-0.1-0.6-0.2-0.7
		c-0.2-0.1-0.4-0.2-0.7-0.2c-0.6,0-1.2,0-2.1,0.1l-0.4,0l-0.1-1c0.9-0.2,1.8-0.3,2.6-0.3s1.4,0.2,1.7,0.5
		C303.3,391.4,303.4,392,303.4,392.7z M300.5,394.3c-0.6,0.1-0.9,0.4-0.9,1s0.3,0.9,0.8,0.9c0.4,0,0.9-0.1,1.4-0.2l0.2-0.1v-1.7
		L300.5,394.3z"/>
	<path class="st1" d="M306.6,397.2h-1.4v-6.5h1.4v0.4c0.6-0.4,1.2-0.5,1.7-0.5c0.8,0,1.3,0.2,1.7,0.6c0.8-0.4,1.6-0.6,2.4-0.6
		s1.3,0.2,1.7,0.7c0.3,0.5,0.5,1.3,0.5,2.4v3.5H313v-3.4c0-0.7-0.1-1.2-0.2-1.5c-0.1-0.3-0.4-0.4-0.9-0.4c-0.4,0-0.8,0.1-1.3,0.3
		l-0.2,0.1c0.1,0.2,0.1,0.7,0.1,1.7v3.4h-1.4v-3.3c0-0.8-0.1-1.3-0.2-1.6c-0.1-0.3-0.4-0.4-0.9-0.4c-0.4,0-0.8,0.1-1.2,0.3l-0.2,0.1
		V397.2z"/>
	<path class="st1" d="M320.7,396.1l0.4,0l0,1.1c-1,0.2-1.9,0.3-2.6,0.3c-1,0-1.7-0.3-2.1-0.8c-0.4-0.5-0.6-1.4-0.6-2.5
		c0-2.3,0.9-3.5,2.8-3.5c1.8,0,2.7,1,2.7,3l-0.1,1h-4c0,0.5,0.1,0.9,0.4,1.2c0.2,0.3,0.6,0.4,1.3,0.4S320.1,396.1,320.7,396.1z
		 M320,393.5c0-0.6-0.1-1.1-0.3-1.3c-0.2-0.3-0.5-0.4-1-0.4s-0.8,0.1-1.1,0.4c-0.2,0.3-0.3,0.7-0.3,1.3H320z"/>
	<path class="st1" d="M322.2,390.7h1.4l1,5.3h0.3l1.2-5.2h1.5l1.2,5.2h0.3l1-5.3h1.4l-1.4,6.5h-2.2l-1-4.5l-1,4.5h-2.2L322.2,390.7z
		"/>
	<path class="st1" d="M333.1,391.4c0.4-0.6,1.2-0.8,2.2-0.8s1.8,0.3,2.2,0.8s0.7,1.4,0.7,2.5c0,1.1-0.2,2-0.6,2.5
		c-0.4,0.6-1.2,0.9-2.2,0.9c-1.1,0-1.8-0.3-2.2-0.9c-0.4-0.6-0.7-1.4-0.7-2.5C332.4,392.8,332.6,392,333.1,391.4z M334.1,395.6
		c0.2,0.3,0.6,0.5,1.2,0.5c0.6,0,1-0.2,1.2-0.5s0.3-0.9,0.3-1.7c0-0.8-0.1-1.3-0.3-1.7c-0.2-0.3-0.6-0.5-1.2-0.5s-0.9,0.2-1.2,0.5
		c-0.2,0.3-0.3,0.9-0.3,1.7C333.8,394.7,333.9,395.3,334.1,395.6z"/>
	<path class="st1" d="M339.6,397.2v-6.5h1.4v0.8c0.7-0.5,1.5-0.8,2.2-0.9v1.4c-0.7,0.1-1.4,0.3-1.9,0.6l-0.3,0.1v4.5H339.6z"/>
	<path class="st1" d="M345.7,397.2h-1.4V388h1.4v5.3l0.8-0.1l1.5-2.5h1.6l-1.9,3l2,3.5h-1.6l-1.6-2.7l-0.8,0.1V397.2z"/>
</g>
<g class="st7">
	<path class="st10" d="M163.1,449.8c0,1.6-1.2,2.5-3.6,2.5c-1.1,0-2-0.2-2.5-0.5c-0.5-0.3-0.8-0.9-0.8-1.7c0-0.4,0.1-0.7,0.3-1
		c0.2-0.3,0.5-0.6,0.9-0.9c-0.3-0.2-0.5-0.6-0.5-1.1c0-0.2,0.1-0.5,0.4-1l0.1-0.2c-0.7-0.4-1.1-1.2-1.1-2.2c0-0.9,0.3-1.6,0.8-2
		c0.5-0.4,1.3-0.6,2.2-0.6c0.4,0,0.9,0.1,1.3,0.2l0.2,0l2.3-0.1v1.3l-1.2-0.1c0.3,0.3,0.4,0.8,0.4,1.2c0,1-0.2,1.7-0.7,2
		s-1.3,0.6-2.3,0.6c-0.3,0-0.5,0-0.7-0.1c-0.1,0.3-0.2,0.6-0.2,0.8c0,0.2,0.1,0.3,0.3,0.4c0.2,0.1,0.6,0.1,1.3,0.1
		c1.2,0,2,0.2,2.4,0.5C162.8,448.3,163.1,448.9,163.1,449.8z M157.8,449.9c0,0.3,0.1,0.6,0.4,0.8c0.3,0.2,0.8,0.2,1.4,0.2
		c1.2,0,1.8-0.3,1.8-1c0-0.4-0.1-0.6-0.3-0.7c-0.2-0.1-0.6-0.2-1.3-0.2l-1.5-0.1c-0.2,0.2-0.4,0.3-0.5,0.5S157.8,449.7,157.8,449.9z
		 M158.2,444.7c0.2,0.2,0.6,0.3,1.1,0.3s0.8-0.1,1.1-0.3s0.3-0.6,0.3-1s-0.1-0.8-0.3-1c-0.2-0.2-0.6-0.3-1.1-0.3
		c-0.9,0-1.4,0.4-1.4,1.3C157.9,444.2,158,444.5,158.2,444.7z"/>
	<path class="st10" d="M169.7,447.4l0.4,0l0,1.2c-1.1,0.2-2.2,0.3-3,0.3c-1.1,0-1.9-0.3-2.4-0.9c-0.5-0.6-0.7-1.6-0.7-2.9
		c0-2.7,1.1-4,3.3-4c2.1,0,3.2,1.1,3.2,3.4l-0.1,1.2h-4.6c0,0.6,0.1,1.1,0.4,1.4c0.3,0.3,0.7,0.4,1.5,0.4S169,447.5,169.7,447.4z
		 M168.8,444.5c0-0.7-0.1-1.3-0.4-1.6c-0.2-0.3-0.6-0.4-1.2-0.4c-0.6,0-1,0.2-1.2,0.5c-0.3,0.3-0.4,0.8-0.4,1.5H168.8z"/>
	<path class="st10" d="M177.2,442.8c-1.2-0.2-2-0.2-2.6-0.2s-0.9,0.1-1.1,0.2s-0.3,0.3-0.3,0.6c0,0.3,0.1,0.5,0.3,0.6
		c0.2,0.1,0.8,0.2,1.6,0.4c0.8,0.1,1.4,0.4,1.8,0.7c0.4,0.3,0.5,0.9,0.5,1.7s-0.3,1.4-0.8,1.7s-1.2,0.6-2.2,0.6
		c-0.6,0-1.4-0.1-2.3-0.3l-0.5-0.1l0.1-1.4c1.2,0.2,2.1,0.2,2.6,0.2c0.5,0,0.9-0.1,1.1-0.2c0.2-0.1,0.3-0.3,0.3-0.6
		s-0.1-0.5-0.3-0.6c-0.2-0.1-0.7-0.2-1.5-0.4c-0.8-0.1-1.4-0.3-1.8-0.6s-0.6-0.8-0.6-1.6c0-0.8,0.3-1.3,0.8-1.7
		c0.5-0.4,1.2-0.6,2-0.6c0.6,0,1.4,0.1,2.4,0.2l0.5,0.1L177.2,442.8z"/>
	<path class="st10" d="M183.1,442.7H181v3.3c0,0.6,0,1,0.1,1.2s0.3,0.3,0.7,0.3l1.2,0l0.1,1.3c-0.7,0.1-1.2,0.2-1.5,0.2
		c-0.8,0-1.4-0.2-1.7-0.6c-0.3-0.4-0.5-1.1-0.5-2.2v-3.5h-1v-1.4h1v-2.2h1.6v2.2h2.1V442.7z"/>
	<path class="st10" d="M184.4,440v-1.7h1.6v1.7H184.4z M184.4,448.8v-7.5h1.6v7.5H184.4z"/>
	<path class="st10" d="M188.4,442.1c0.5-0.6,1.4-1,2.6-1c1.2,0,2.1,0.3,2.6,1c0.5,0.7,0.8,1.6,0.8,2.9s-0.2,2.3-0.8,2.9
		s-1.4,1-2.6,1c-1.2,0-2.1-0.3-2.6-1s-0.8-1.6-0.8-2.9S187.9,442.7,188.4,442.1z M189.7,447c0.2,0.4,0.7,0.6,1.3,0.6
		s1.1-0.2,1.4-0.6c0.2-0.4,0.3-1.1,0.3-2c0-0.9-0.1-1.6-0.4-1.9s-0.7-0.6-1.3-0.6c-0.6,0-1.1,0.2-1.3,0.6s-0.4,1-0.4,1.9
		C189.3,445.9,189.4,446.6,189.7,447z"/>
	<path class="st10" d="M197.6,448.8H196v-7.5h1.6v0.5c0.7-0.4,1.4-0.6,2.1-0.6c1,0,1.7,0.3,2,0.8s0.5,1.5,0.5,2.8v4h-1.6v-4
		c0-0.8-0.1-1.4-0.3-1.7s-0.5-0.5-1.1-0.5c-0.5,0-1,0.1-1.5,0.3l-0.2,0.1V448.8z"/>
	<path class="st10" d="M209.5,447.4l0.4,0l0,1.2c-1.1,0.2-2.2,0.3-3,0.3c-1.1,0-1.9-0.3-2.4-0.9c-0.5-0.6-0.7-1.6-0.7-2.9
		c0-2.7,1.1-4,3.3-4c2.1,0,3.2,1.1,3.2,3.4l-0.1,1.2h-4.6c0,0.6,0.1,1.1,0.4,1.4c0.3,0.3,0.7,0.4,1.5,0.4S208.8,447.5,209.5,447.4z
		 M208.6,444.5c0-0.7-0.1-1.3-0.4-1.6c-0.2-0.3-0.6-0.4-1.2-0.4c-0.6,0-1,0.2-1.2,0.5c-0.3,0.3-0.4,0.8-0.4,1.5H208.6z"/>
	<path class="st10" d="M221.2,438.2v10.6h-1.6v-0.4c-0.7,0.4-1.4,0.6-2,0.6c-1,0-1.7-0.3-2.2-0.9s-0.7-1.6-0.7-3
		c0-1.4,0.3-2.4,0.8-3s1.3-0.9,2.4-0.9c0.4,0,0.9,0.1,1.7,0.2v-3.2H221.2z M219.3,447.2l0.3-0.1v-4.4c-0.6-0.1-1.2-0.1-1.7-0.1
		c-1,0-1.5,0.8-1.5,2.5c0,0.9,0.1,1.6,0.4,1.9c0.2,0.4,0.6,0.5,1.1,0.5C218.4,447.5,218.9,447.4,219.3,447.2z"/>
	<path class="st10" d="M228.5,447.4l0.4,0l0,1.2c-1.1,0.2-2.2,0.3-3,0.3c-1.1,0-1.9-0.3-2.4-0.9c-0.5-0.6-0.7-1.6-0.7-2.9
		c0-2.7,1.1-4,3.3-4c2.1,0,3.2,1.1,3.2,3.4l-0.1,1.2h-4.6c0,0.6,0.1,1.1,0.4,1.4c0.3,0.3,0.7,0.4,1.5,0.4S227.8,447.5,228.5,447.4z
		 M227.6,444.5c0-0.7-0.1-1.3-0.4-1.6c-0.2-0.3-0.6-0.4-1.2-0.4c-0.6,0-1,0.2-1.2,0.5c-0.3,0.3-0.4,0.8-0.4,1.5H227.6z"/>
	<path class="st10" d="M230.9,448.8v-10.6h1.6v10.6H230.9z"/>
	<path class="st10" d="M240.7,441.1c0.5,0,1.2,0.1,1.9,0.2l0.4,0.1l-0.1,1.3c-0.8-0.1-1.4-0.1-1.8-0.1c-0.8,0-1.3,0.2-1.5,0.5
		c-0.3,0.3-0.4,1-0.4,1.9c0,0.9,0.1,1.6,0.4,2s0.8,0.5,1.6,0.5l1.8-0.1l0,1.3c-1,0.2-1.8,0.3-2.3,0.3c-1.1,0-1.9-0.3-2.4-0.9
		c-0.5-0.6-0.7-1.6-0.7-3c0-1.4,0.2-2.4,0.7-3C238.8,441.4,239.6,441.1,240.7,441.1z"/>
	<path class="st10" d="M250.1,443.6v3.4c0,0.2,0.1,0.4,0.2,0.5c0.1,0.1,0.3,0.2,0.5,0.2l0,1.2c-0.9,0-1.5-0.2-2-0.6
		c-0.8,0.4-1.6,0.6-2.4,0.6c-1.5,0-2.2-0.8-2.2-2.4c0-0.8,0.2-1.3,0.6-1.7s1-0.5,1.9-0.6l1.9-0.2v-0.5c0-0.4-0.1-0.7-0.3-0.8
		c-0.2-0.2-0.4-0.2-0.8-0.2c-0.6,0-1.4,0-2.4,0.1l-0.5,0l-0.1-1.2c1.1-0.3,2.1-0.4,3-0.4c0.9,0,1.6,0.2,2,0.6
		C249.9,442.1,250.1,442.7,250.1,443.6z M246.7,445.4c-0.7,0.1-1,0.4-1,1.1c0,0.7,0.3,1,0.9,1c0.5,0,1-0.1,1.6-0.2l0.3-0.1v-2
		L246.7,445.4z"/>
	<path class="st10" d="M253.8,448.8h-1.6v-7.5h1.6v0.5c0.7-0.4,1.4-0.6,1.9-0.6c0.9,0,1.5,0.2,1.9,0.7c0.9-0.5,1.8-0.7,2.7-0.7
		c0.9,0,1.5,0.3,1.9,0.8c0.4,0.6,0.6,1.5,0.6,2.8v4h-1.6v-4c0-0.8-0.1-1.4-0.2-1.7c-0.2-0.3-0.5-0.5-1-0.5c-0.5,0-0.9,0.1-1.5,0.3
		l-0.3,0.1c0.1,0.2,0.1,0.8,0.1,1.9v3.9h-1.6v-3.9c0-0.9-0.1-1.5-0.2-1.8s-0.5-0.5-1-0.5c-0.5,0-1,0.1-1.4,0.3l-0.2,0.1V448.8z"/>
	<path class="st10" d="M268.2,441.1c1,0,1.8,0.3,2.2,0.9c0.5,0.6,0.7,1.6,0.7,3.1s-0.3,2.5-0.8,3.1c-0.5,0.6-1.5,0.9-2.8,0.9
		c-0.5,0-1.2,0-2.2-0.1l-0.5,0v-10.6h1.6v3.4C267,441.3,267.6,441.1,268.2,441.1z M267.5,447.5c0.8,0,1.3-0.2,1.6-0.6
		c0.3-0.4,0.4-1,0.4-1.9c0-0.9-0.1-1.5-0.3-1.9s-0.6-0.5-1.1-0.5c-0.5,0-1,0.1-1.4,0.2l-0.2,0.1v4.6
		C266.9,447.5,267.3,447.5,267.5,447.5z"/>
	<path class="st10" d="M272.7,440v-1.7h1.6v1.7H272.7z M272.7,448.8v-7.5h1.6v7.5H272.7z"/>
	<path class="st10" d="M281.9,443.6v3.4c0,0.2,0.1,0.4,0.2,0.5c0.1,0.1,0.3,0.2,0.5,0.2l0,1.2c-0.9,0-1.5-0.2-2-0.6
		c-0.8,0.4-1.6,0.6-2.4,0.6c-1.5,0-2.2-0.8-2.2-2.4c0-0.8,0.2-1.3,0.6-1.7c0.4-0.3,1-0.5,1.9-0.6l1.9-0.2v-0.5
		c0-0.4-0.1-0.7-0.3-0.8c-0.2-0.2-0.4-0.2-0.8-0.2c-0.6,0-1.4,0-2.4,0.1l-0.5,0l-0.1-1.2c1.1-0.3,2.1-0.4,3-0.4c0.9,0,1.6,0.2,2,0.6
		C281.7,442.1,281.9,442.7,281.9,443.6z M278.5,445.4c-0.7,0.1-1,0.4-1,1.1c0,0.7,0.3,1,0.9,1c0.5,0,1-0.1,1.6-0.2l0.3-0.1v-2
		L278.5,445.4z"/>
	<path class="st10" d="M285.6,448.8H284v-7.5h1.6v0.5c0.7-0.4,1.4-0.6,1.9-0.6c0.9,0,1.5,0.2,1.9,0.7c0.9-0.5,1.8-0.7,2.7-0.7
		c0.9,0,1.5,0.3,1.9,0.8c0.4,0.6,0.6,1.5,0.6,2.8v4H293v-4c0-0.8-0.1-1.4-0.2-1.7c-0.2-0.3-0.5-0.5-1-0.5c-0.5,0-0.9,0.1-1.5,0.3
		L290,443c0.1,0.2,0.1,0.8,0.1,1.9v3.9h-1.6v-3.9c0-0.9-0.1-1.5-0.2-1.8s-0.5-0.5-1-0.5c-0.5,0-1,0.1-1.4,0.3l-0.2,0.1V448.8z"/>
	<path class="st10" d="M301.9,447.4l0.4,0l0,1.2c-1.1,0.2-2.2,0.3-3,0.3c-1.1,0-1.9-0.3-2.4-0.9c-0.5-0.6-0.7-1.6-0.7-2.9
		c0-2.7,1.1-4,3.3-4c2.1,0,3.2,1.1,3.2,3.4l-0.1,1.2h-4.7c0,0.6,0.1,1.1,0.4,1.4c0.3,0.3,0.7,0.4,1.5,0.4
		C300.4,447.5,301.1,447.5,301.9,447.4z M301,444.5c0-0.7-0.1-1.3-0.4-1.6c-0.2-0.3-0.6-0.4-1.2-0.4s-1,0.2-1.2,0.5
		c-0.3,0.3-0.4,0.8-0.4,1.5H301z"/>
	<path class="st10" d="M305.8,448.8h-1.6v-7.5h1.6v0.5c0.7-0.4,1.4-0.6,2.1-0.6c1,0,1.7,0.3,2,0.8s0.5,1.5,0.5,2.8v4h-1.6v-4
		c0-0.8-0.1-1.4-0.3-1.7c-0.2-0.3-0.5-0.5-1.1-0.5c-0.5,0-1,0.1-1.5,0.3l-0.2,0.1V448.8z"/>
	<path class="st10" d="M316.4,442.7h-2.1v3.3c0,0.6,0,1,0.1,1.2s0.3,0.3,0.7,0.3l1.2,0l0.1,1.3c-0.7,0.1-1.2,0.2-1.5,0.2
		c-0.8,0-1.4-0.2-1.7-0.6s-0.5-1.1-0.5-2.2v-3.5h-1v-1.4h1v-2.2h1.6v2.2h2.1V442.7z"/>
	<path class="st10" d="M318.1,442.1c0.5-0.6,1.4-1,2.6-1s2.1,0.3,2.6,1c0.5,0.7,0.8,1.6,0.8,2.9s-0.2,2.3-0.8,2.9s-1.4,1-2.6,1
		s-2.1-0.3-2.6-1s-0.8-1.6-0.8-2.9S317.6,442.7,318.1,442.1z M319.4,447c0.2,0.4,0.7,0.6,1.3,0.6s1.1-0.2,1.3-0.6
		c0.2-0.4,0.3-1.1,0.3-2c0-0.9-0.1-1.6-0.4-1.9c-0.2-0.4-0.7-0.6-1.3-0.6s-1.1,0.2-1.3,0.6c-0.2,0.4-0.4,1-0.4,1.9
		C319,445.9,319.1,446.6,319.4,447z"/>
</g>
<g class="st7">
	<path class="st1" d="M195,80v3.2c0,0.2,0.1,0.4,0.2,0.5c0.1,0.1,0.2,0.2,0.5,0.2l0,1.2c-0.8,0-1.4-0.2-1.9-0.5
		c-0.7,0.3-1.5,0.5-2.3,0.5c-1.4,0-2.1-0.7-2.1-2.2c0-0.7,0.2-1.2,0.6-1.5s1-0.5,1.7-0.6l1.8-0.2V80c0-0.4-0.1-0.6-0.2-0.8
		s-0.4-0.2-0.7-0.2c-0.6,0-1.3,0-2.2,0.1l-0.4,0l-0.1-1.1c1-0.2,2-0.4,2.8-0.4c0.9,0,1.5,0.2,1.8,0.6S195,79.2,195,80z M191.9,81.7
		c-0.6,0.1-1,0.4-1,1s0.3,1,0.9,1c0.5,0,1-0.1,1.5-0.2l0.3-0.1v-1.9L191.9,81.7z"/>
	<path class="st1" d="M199.6,77.7c0.5,0,1.1,0.1,1.8,0.2l0.3,0.1l-0.1,1.2c-0.7-0.1-1.3-0.1-1.6-0.1c-0.7,0-1.2,0.2-1.4,0.5
		c-0.2,0.3-0.4,0.9-0.4,1.8s0.1,1.5,0.3,1.8s0.7,0.5,1.5,0.5l1.6-0.1l0,1.2c-0.9,0.2-1.7,0.3-2.1,0.3c-1.1,0-1.8-0.3-2.2-0.9
		c-0.4-0.6-0.7-1.5-0.7-2.8s0.2-2.2,0.7-2.8S198.5,77.7,199.6,77.7z"/>
	<path class="st1" d="M205.7,77.7c0.5,0,1.1,0.1,1.8,0.2l0.3,0.1l-0.1,1.2c-0.7-0.1-1.3-0.1-1.6-0.1c-0.7,0-1.2,0.2-1.4,0.5
		c-0.2,0.3-0.4,0.9-0.4,1.8s0.1,1.5,0.3,1.8s0.7,0.5,1.5,0.5l1.6-0.1l0,1.2c-0.9,0.2-1.7,0.3-2.1,0.3c-1.1,0-1.8-0.3-2.2-0.9
		c-0.4-0.6-0.7-1.5-0.7-2.8s0.2-2.2,0.7-2.8S204.7,77.7,205.7,77.7z"/>
	<path class="st1" d="M214.2,83.6l0.4,0l0,1.1c-1.1,0.2-2,0.3-2.8,0.3c-1,0-1.8-0.3-2.2-0.9c-0.5-0.6-0.7-1.5-0.7-2.7
		c0-2.5,1-3.7,3-3.7c2,0,2.9,1.1,2.9,3.2l-0.1,1.1h-4.3c0,0.6,0.1,1,0.4,1.3c0.2,0.3,0.7,0.4,1.4,0.4
		C212.8,83.7,213.5,83.6,214.2,83.6z M213.3,80.8c0-0.7-0.1-1.2-0.3-1.4c-0.2-0.3-0.6-0.4-1.1-0.4s-0.9,0.1-1.1,0.4
		c-0.2,0.3-0.4,0.8-0.4,1.4H213.3z"/>
	<path class="st1" d="M221.2,79.3c-1.1-0.1-1.9-0.2-2.4-0.2c-0.5,0-0.8,0.1-1,0.2c-0.2,0.1-0.3,0.3-0.3,0.6c0,0.3,0.1,0.4,0.3,0.5
		c0.2,0.1,0.7,0.2,1.5,0.4s1.3,0.3,1.7,0.6c0.3,0.3,0.5,0.8,0.5,1.5s-0.2,1.3-0.7,1.6c-0.5,0.3-1.2,0.5-2.1,0.5
		c-0.6,0-1.3-0.1-2.2-0.2l-0.4-0.1l0.1-1.3c1.1,0.1,1.9,0.2,2.4,0.2c0.5,0,0.8-0.1,1.1-0.2c0.2-0.1,0.3-0.3,0.3-0.6
		c0-0.3-0.1-0.5-0.3-0.6c-0.2-0.1-0.7-0.2-1.4-0.4s-1.3-0.3-1.7-0.6c-0.4-0.3-0.5-0.8-0.5-1.5s0.2-1.3,0.7-1.6s1.1-0.5,1.9-0.5
		c0.6,0,1.3,0.1,2.2,0.2l0.4,0.1L221.2,79.3z"/>
	<path class="st1" d="M227.7,79.3c-1.1-0.1-1.9-0.2-2.4-0.2c-0.5,0-0.8,0.1-1,0.2c-0.2,0.1-0.3,0.3-0.3,0.6c0,0.3,0.1,0.4,0.3,0.5
		c0.2,0.1,0.7,0.2,1.5,0.4s1.3,0.3,1.7,0.6c0.3,0.3,0.5,0.8,0.5,1.5s-0.2,1.3-0.7,1.6c-0.5,0.3-1.2,0.5-2.1,0.5
		c-0.6,0-1.3-0.1-2.2-0.2l-0.4-0.1l0.1-1.3c1.1,0.1,1.9,0.2,2.4,0.2c0.5,0,0.8-0.1,1.1-0.2c0.2-0.1,0.3-0.3,0.3-0.6
		c0-0.3-0.1-0.5-0.3-0.6c-0.2-0.1-0.7-0.2-1.4-0.4s-1.3-0.3-1.7-0.6c-0.4-0.3-0.5-0.8-0.5-1.5s0.2-1.3,0.7-1.6s1.1-0.5,1.9-0.5
		c0.6,0,1.3,0.1,2.2,0.2l0.4,0.1L227.7,79.3z"/>
	<path class="st1" d="M229.8,78.6c0.5-0.6,1.3-0.9,2.4-0.9s1.9,0.3,2.4,0.9c0.5,0.6,0.7,1.5,0.7,2.7c0,1.2-0.2,2.1-0.7,2.7
		s-1.3,0.9-2.4,0.9s-2-0.3-2.4-0.9s-0.7-1.5-0.7-2.7C229.1,80.1,229.3,79.2,229.8,78.6z M231,83.1c0.2,0.4,0.6,0.6,1.3,0.6
		s1-0.2,1.3-0.6c0.2-0.4,0.3-1,0.3-1.8s-0.1-1.5-0.3-1.8c-0.2-0.4-0.6-0.5-1.2-0.5s-1,0.2-1.2,0.5c-0.2,0.4-0.3,1-0.3,1.8
		S230.7,82.8,231,83.1z"/>
	<path class="st1" d="M245.1,80v3.2c0,0.2,0.1,0.4,0.2,0.5c0.1,0.1,0.2,0.2,0.5,0.2l0,1.2c-0.8,0-1.4-0.2-1.9-0.5
		c-0.7,0.3-1.5,0.5-2.3,0.5c-1.4,0-2.1-0.7-2.1-2.2c0-0.7,0.2-1.2,0.6-1.5s1-0.5,1.7-0.6l1.8-0.2V80c0-0.4-0.1-0.6-0.2-0.8
		s-0.4-0.2-0.7-0.2c-0.6,0-1.3,0-2.2,0.1l-0.4,0l-0.1-1.1c1-0.2,2-0.4,2.8-0.4c0.9,0,1.5,0.2,1.8,0.6S245.1,79.2,245.1,80z
		 M242,81.7c-0.6,0.1-1,0.4-1,1s0.3,1,0.9,1c0.5,0,1-0.1,1.5-0.2l0.3-0.1v-1.9L242,81.7z"/>
	<path class="st1" d="M247,76.6V75h1.5v1.6H247z M247,84.8v-7h1.5v7H247z"/>
	<path class="st1" d="M258.3,79.3c-1.1-0.1-1.9-0.2-2.4-0.2c-0.5,0-0.8,0.1-1,0.2c-0.2,0.1-0.3,0.3-0.3,0.6c0,0.3,0.1,0.4,0.3,0.5
		c0.2,0.1,0.7,0.2,1.5,0.4s1.3,0.3,1.7,0.6c0.3,0.3,0.5,0.8,0.5,1.5s-0.2,1.3-0.7,1.6c-0.5,0.3-1.2,0.5-2.1,0.5
		c-0.6,0-1.3-0.1-2.2-0.2l-0.4-0.1l0.1-1.3c1.1,0.1,1.9,0.2,2.4,0.2c0.5,0,0.8-0.1,1.1-0.2c0.2-0.1,0.3-0.3,0.3-0.6
		c0-0.3-0.1-0.5-0.3-0.6c-0.2-0.1-0.7-0.2-1.4-0.4s-1.3-0.3-1.7-0.6c-0.4-0.3-0.5-0.8-0.5-1.5s0.2-1.3,0.7-1.6s1.1-0.5,1.9-0.5
		c0.6,0,1.3,0.1,2.2,0.2l0.4,0.1L258.3,79.3z"/>
	<path class="st1" d="M265,83.6l0.4,0l0,1.1c-1.1,0.2-2,0.3-2.8,0.3c-1,0-1.8-0.3-2.2-0.9c-0.5-0.6-0.7-1.5-0.7-2.7
		c0-2.5,1-3.7,3-3.7c2,0,2.9,1.1,2.9,3.2l-0.1,1.1h-4.3c0,0.6,0.1,1,0.4,1.3c0.2,0.3,0.7,0.4,1.4,0.4
		C263.7,83.7,264.3,83.6,265,83.6z M264.2,80.8c0-0.7-0.1-1.2-0.3-1.4c-0.2-0.3-0.6-0.4-1.1-0.4s-0.9,0.1-1.1,0.4
		c-0.2,0.3-0.4,0.8-0.4,1.4H264.2z"/>
	<path class="st1" d="M267.2,84.8v-7h1.5v0.8c0.8-0.5,1.6-0.8,2.4-1v1.5c-0.8,0.2-1.5,0.4-2.1,0.6l-0.3,0.1v4.9H267.2z"/>
	<path class="st1" d="M271.6,77.8h1.6l1.3,5.7h0.4l1.4-5.7h1.6l-1.8,7h-2.7L271.6,77.8z"/>
	<path class="st1" d="M279.1,76.6V75h1.5v1.6H279.1z M279.1,84.8v-7h1.5v7H279.1z"/>
	<path class="st1" d="M282.1,79.2v-1.4h5.2v1.4l-3.4,4.3h3.4v1.4h-5.2v-1.4l3.4-4.3H282.1z"/>
	<path class="st1" d="M288.8,76.6V75h1.5v1.6H288.8z M288.8,84.8v-7h1.5v7H288.8z"/>
</g>
</svg>
