<?xml version="1.0" encoding="utf-8"?>
<!-- Generator: Adobe Illustrator 21.1.0, SVG Export Plug-In . SVG Version: 6.00 Build 0)  -->
<svg version="1.1" id="Livello_1" xmlns="http://www.w3.org/2000/svg" xmlns:xlink="http://www.w3.org/1999/xlink" x="0px" y="0px"
	 viewBox="0 0 486.2 305.2" style="enable-background:new 0 0 486.2 305.2;" xml:space="preserve">
<style type="text/css">
	.st0{fill:#E8B56B;}
	.st1{fill:#FFFFFF;}
	.st2{fill:#EFD8B9;}
	.st3{fill:#281501;}
</style>
<g transform="matrix(1, 0, 0, 1, 243, -20)">
	<g id="Rectangle_47-2_10_">
		<rect x="-243" y="20" class="st0" width="485.1" height="305.2"/>
	</g>
</g>
<g>
	<path class="st1" d="M199.6,31.3V19h7.7v1.7h-5.7v3.5h4.7V26h-4.7v3.6h5.7v1.8H199.6z"/>
	<path class="st1" d="M213.5,31.5c-1.8,0-3-0.5-3.6-1.5s-1-2.6-1-4.9s0.3-3.9,1-4.8c0.6-1,1.9-1.4,3.6-1.4c1.1,0,2.2,0.1,3.5,0.4
		l-0.1,1.6c-1.1-0.2-2.1-0.3-3.2-0.3c-1.1,0-1.8,0.3-2.2,1c-0.4,0.6-0.6,1.8-0.6,3.6c0,1.8,0.2,3,0.6,3.6c0.4,0.6,1.1,1,2.2,1
		c1.1,0,2.2-0.1,3.3-0.3l0.1,1.6C215.8,31.4,214.6,31.5,213.5,31.5z"/>
	<path class="st1" d="M227.3,30c-0.7,1-2,1.5-3.9,1.5c-1.9,0-3.1-0.5-3.9-1.5c-0.7-1-1.1-2.6-1.1-4.8s0.4-3.8,1.1-4.8
		c0.7-1.1,2-1.6,3.9-1.6s3.1,0.5,3.9,1.6c0.7,1,1.1,2.7,1.1,4.8S228.1,29,227.3,30z M221.1,28.7c0.4,0.7,1.2,1.1,2.3,1.1
		s1.9-0.3,2.3-1s0.6-1.9,0.6-3.5s-0.2-2.8-0.6-3.6s-1.2-1.1-2.3-1.1c-1.1,0-1.9,0.4-2.3,1.1s-0.6,1.9-0.6,3.5
		C220.5,26.9,220.7,28,221.1,28.7z"/>
	<path class="st1" d="M234.3,20.6c-1.5,0-2.3,0.5-2.3,1.6c0,0.5,0.2,0.9,0.5,1.2c0.4,0.2,1.1,0.5,2.4,0.9c1.2,0.3,2.1,0.7,2.6,1.2
		c0.5,0.5,0.8,1.2,0.8,2.2c0,1.3-0.4,2.3-1.1,2.9c-0.7,0.6-1.7,1-3,1c-1,0-2.1-0.1-3.4-0.4l-0.6-0.1l0.2-1.6
		c1.6,0.2,2.8,0.3,3.7,0.3c1.5,0,2.2-0.7,2.2-2c0-0.5-0.2-0.9-0.5-1.1c-0.3-0.2-1.1-0.5-2.3-0.8c-1.2-0.3-2-0.7-2.6-1.2
		c-0.6-0.5-0.9-1.3-0.9-2.4c0-1.1,0.4-1.9,1.1-2.5c0.7-0.6,1.7-0.9,3-0.9c0.9,0,2,0.1,3.3,0.3l0.6,0.1l-0.2,1.6
		C236.2,20.7,235,20.6,234.3,20.6z"/>
	<path class="st1" d="M240.5,31.3V19h2v12.3H240.5z"/>
	<path class="st1" d="M248.9,20.6c-1.5,0-2.3,0.5-2.3,1.6c0,0.5,0.2,0.9,0.5,1.2c0.4,0.2,1.1,0.5,2.4,0.9c1.2,0.3,2.1,0.7,2.6,1.2
		c0.5,0.5,0.8,1.2,0.8,2.2c0,1.3-0.4,2.3-1.1,2.9c-0.7,0.6-1.7,1-3,1c-1,0-2.1-0.1-3.4-0.4l-0.6-0.1l0.2-1.6
		c1.6,0.2,2.8,0.3,3.7,0.3c1.5,0,2.2-0.7,2.2-2c0-0.5-0.2-0.9-0.5-1.1c-0.3-0.2-1.1-0.5-2.3-0.8c-1.2-0.3-2-0.7-2.6-1.2
		c-0.6-0.5-0.9-1.3-0.9-2.4c0-1.1,0.4-1.9,1.1-2.5c0.7-0.6,1.7-0.9,3-0.9c0.9,0,2,0.1,3.3,0.3l0.6,0.1l-0.2,1.6
		C250.7,20.7,249.6,20.6,248.9,20.6z"/>
	<path class="st1" d="M253.8,20.8V19h9v1.8h-3.5v10.5h-2V20.8H253.8z"/>
	<path class="st1" d="M264.4,31.3V19h7.7v1.7h-5.7v3.5h4.7V26h-4.7v3.6h5.7v1.8H264.4z"/>
	<path class="st1" d="M274.3,31.3V19h3.5l2.7,9.6l2.7-9.6h3.5v12.3h-2V21.2h-0.3l-2.9,9.6h-2.1l-2.9-9.6h-0.3v10.1H274.3z"/>
	<path class="st1" d="M289.6,31.3V19h2v12.3H289.6z"/>
</g>
<g>
	<g>
		<g>
			<rect x="14.4" y="52.4" class="st2" width="27.1" height="233.5"/>
		</g>
		<g>
			<rect x="50.1" y="52.4" class="st2" width="27" height="233.5"/>
		</g>
		<g>
			<rect x="85.8" y="52.4" class="st2" width="27" height="233.5"/>
		</g>
		<g>
			<rect x="121.5" y="52.4" class="st2" width="26.9" height="233.5"/>
		</g>
		<g>
			<rect x="157.2" y="52.4" class="st2" width="26.9" height="233.5"/>
		</g>
		<g>
			<rect x="192.9" y="52.4" class="st2" width="26.8" height="233.5"/>
		</g>
		<g>
			<rect x="228.6" y="52.4" class="st2" width="26.8" height="233.5"/>
		</g>
		<g>
			<rect x="264.3" y="52.4" class="st2" width="26.8" height="233.5"/>
		</g>
		<g>
			<rect x="300" y="52.4" class="st2" width="26.7" height="233.5"/>
		</g>
		<g>
			<rect x="335.6" y="52.4" class="st2" width="26.7" height="233.5"/>
		</g>
		<g>
			<rect x="371.3" y="52.4" class="st2" width="26.6" height="233.5"/>
		</g>
		<g>
			<rect x="407" y="52.4" class="st2" width="26.6" height="233.5"/>
		</g>
		<g>
			<rect x="442.7" y="52.4" class="st2" width="26.5" height="233.5"/>
		</g>
	</g>
	<g>
		<g>
			<path class="st3" d="M27.9,266.4c-0.1,1-0.2,1.7-0.2,2.2c0,0.4,0.1,0.8,0.2,0.9c0.1,0.2,0.3,0.3,0.5,0.3s0.4-0.1,0.5-0.3
				c0.1-0.2,0.2-0.6,0.3-1.3c0.1-0.7,0.3-1.2,0.6-1.5c0.3-0.3,0.7-0.4,1.4-0.4c0.7,0,1.2,0.2,1.5,0.6c0.3,0.4,0.5,1,0.5,1.9
				c0,0.5-0.1,1.2-0.2,1.9l-0.1,0.4l-1.1-0.1c0.1-1,0.2-1.7,0.2-2.2c0-0.4-0.1-0.8-0.2-1s-0.3-0.3-0.5-0.3c-0.3,0-0.4,0.1-0.5,0.3
				s-0.2,0.6-0.3,1.3c-0.1,0.7-0.3,1.2-0.5,1.5c-0.2,0.3-0.7,0.5-1.3,0.5s-1.1-0.2-1.5-0.7s-0.5-1-0.5-1.7c0-0.5,0.1-1.2,0.2-2
				l0.1-0.4L27.9,266.4z"/>
		</g>
		<g>
			<path class="st3" d="M28.6,260.1h2.9c0.2,0,0.3-0.1,0.4-0.1c0.1-0.1,0.1-0.2,0.2-0.4l1,0c0,0.7-0.2,1.3-0.5,1.7
				c0.3,0.7,0.5,1.3,0.5,2c0,1.3-0.7,1.9-2,1.9c-0.6,0-1.1-0.2-1.4-0.5s-0.5-0.9-0.5-1.6l-0.1-1.6h-0.5c-0.3,0-0.6,0.1-0.7,0.2
				c-0.1,0.1-0.2,0.4-0.2,0.6c0,0.5,0,1.2,0.1,2l0,0.4l-1,0c-0.2-0.9-0.3-1.8-0.3-2.5s0.2-1.3,0.5-1.7
				C27.3,260.3,27.8,260.1,28.6,260.1z M30.1,263c0.1,0.6,0.4,0.9,0.9,0.9s0.9-0.3,0.9-0.8c0-0.4-0.1-0.9-0.2-1.3l-0.1-0.2H30
				L30.1,263z"/>
		</g>
		<g>
			<path class="st3" d="M32.9,257v1.4h-6.3v-1.4H27c-0.4-0.6-0.5-1.2-0.5-1.7c0-0.8,0.2-1.4,0.7-1.7c0.5-0.3,1.3-0.5,2.4-0.5h3.4
				v1.4h-3.3c-0.7,0-1.2,0.1-1.5,0.2c-0.3,0.1-0.4,0.4-0.4,0.9c0,0.4,0.1,0.8,0.3,1.2L28,257H32.9z"/>
		</g>
		<g>
			<path class="st3" d="M25.5,251.5h-1.5v-1.4h1.5V251.5z M32.9,251.5h-6.3v-1.4h6.3V251.5z"/>
		</g>
		<g>
			<path class="st3" d="M27.8,245.1v1.7h2.8c0.5,0,0.9,0,1-0.1c0.2-0.1,0.3-0.3,0.3-0.6l0-1l1.1-0.1c0.1,0.6,0.2,1,0.2,1.3
				c0,0.7-0.2,1.2-0.5,1.5c-0.3,0.3-0.9,0.4-1.9,0.4h-2.9v0.8h-1.2v-0.8h-1.8v-1.4h1.8v-1.7H27.8z"/>
		</g>
		<g>
			<path class="st3" d="M23.5,243l1.3-3l0.9,0.3l-1,3.1L23.5,243z M28.6,239.3h2.9c0.2,0,0.3-0.1,0.4-0.1c0.1-0.1,0.1-0.2,0.2-0.4
				l1,0c0,0.7-0.2,1.3-0.5,1.7c0.3,0.7,0.5,1.3,0.5,2c0,1.3-0.7,1.9-2,1.9c-0.6,0-1.1-0.2-1.4-0.5s-0.5-0.9-0.5-1.6l-0.1-1.6h-0.5
				c-0.3,0-0.6,0.1-0.7,0.2c-0.1,0.1-0.2,0.4-0.2,0.6c0,0.5,0,1.2,0.1,2l0,0.4l-1,0c-0.2-0.9-0.3-1.8-0.3-2.5s0.2-1.3,0.5-1.7
				C27.3,239.5,27.8,239.3,28.6,239.3z M30.1,242.1c0.1,0.6,0.4,0.9,0.9,0.9s0.9-0.3,0.9-0.8c0-0.4-0.1-0.9-0.2-1.3l-0.1-0.2H30
				L30.1,242.1z"/>
		</g>
		<g>
			<path class="st3" d="M61,271.2v-1.3l5.1-1v-0.3l-5-1.2V266l5-1.2v-0.3l-5.1-1v-1.4l6.3,1.3v2.2l-4.3,1l4.3,1v2.2L61,271.2z"/>
		</g>
		<g>
			<path class="st3" d="M66.2,256.5l0-0.4l1,0c0.2,1,0.3,1.8,0.3,2.5c0,0.9-0.3,1.6-0.8,2s-1.3,0.6-2.5,0.6c-2.2,0-3.4-0.9-3.4-2.7
				c0-1.8,1-2.6,2.9-2.6l1,0.1v3.9c0.5,0,0.9-0.1,1.1-0.3s0.4-0.6,0.4-1.2C66.2,257.8,66.2,257.2,66.2,256.5z M63.7,257.3
				c-0.6,0-1.1,0.1-1.3,0.3s-0.4,0.5-0.4,1c0,0.5,0.1,0.8,0.4,1s0.7,0.3,1.3,0.3V257.3z"/>
		</g>
		<g>
			<path class="st3" d="M67.3,254.6h-8.9v-1.4h8.9V254.6z"/>
		</g>
		<g>
			<path class="st3" d="M62.2,249.8h5.1v1.4h-5.1v0.7H61v-0.7h-0.4c-0.9,0-1.5-0.1-1.9-0.4c-0.3-0.3-0.5-0.7-0.5-1.4l0.1-1.4l1.1,0
				c0,0.4,0,0.8,0,1s0.1,0.5,0.2,0.6s0.5,0.2,0.9,0.2H61v-1.7h1.2V249.8z"/>
		</g>
		<g>
			<path class="st3" d="M62.9,242.4h2.9c0.2,0,0.3-0.1,0.4-0.1c0.1-0.1,0.1-0.2,0.2-0.4l1,0c0,0.7-0.2,1.3-0.5,1.7
				c0.3,0.7,0.5,1.3,0.5,2c0,1.3-0.7,1.9-2,1.9c-0.6,0-1.1-0.2-1.4-0.5s-0.5-0.9-0.5-1.6l-0.1-1.6h-0.5c-0.3,0-0.6,0.1-0.7,0.2
				c-0.1,0.1-0.2,0.4-0.2,0.6c0,0.5,0,1.2,0.1,2l0,0.4l-1,0c-0.2-0.9-0.3-1.8-0.3-2.5s0.2-1.3,0.5-1.7
				C61.7,242.6,62.2,242.4,62.9,242.4z M64.5,245.2c0.1,0.6,0.4,0.9,0.9,0.9s0.9-0.3,0.9-0.8c0-0.4-0.1-0.9-0.2-1.3l-0.1-0.2h-1.7
				L64.5,245.2z"/>
		</g>
		<g>
			<path class="st3" d="M67.3,240.7H61v-1.4h0.8c-0.5-0.7-0.8-1.4-0.9-2.1h1.4c0.1,0.7,0.3,1.3,0.6,1.9l0.1,0.3h4.4V240.7z"/>
		</g>
		<g>
			<path class="st3" d="M66.2,231.7l0-0.4l1,0c0.2,1,0.3,1.8,0.3,2.5c0,0.9-0.3,1.6-0.8,2s-1.3,0.6-2.5,0.6c-2.2,0-3.4-0.9-3.4-2.7
				c0-1.8,1-2.6,2.9-2.6l1,0.1v3.9c0.5,0,0.9-0.1,1.1-0.3s0.4-0.6,0.4-1.2C66.2,232.9,66.2,232.3,66.2,231.7z M63.7,232.4
				c-0.6,0-1.1,0.1-1.3,0.3s-0.4,0.5-0.4,1c0,0.5,0.1,0.8,0.4,1s0.7,0.3,1.3,0.3V232.4z"/>
		</g>
		<g>
			<path class="st3" d="M96.5,269.1h5.1v1.4h-5.1v0.7h-1.2v-0.7H95c-0.9,0-1.5-0.1-1.9-0.4c-0.3-0.3-0.5-0.7-0.5-1.4l0.1-1.4l1.1,0
				c0,0.4,0,0.8,0,1s0.1,0.5,0.2,0.6s0.5,0.2,0.9,0.2h0.4v-1.7h1.2V269.1z"/>
		</g>
		<g>
			<path class="st3" d="M94.3,266.4h-1.5V265h1.5V266.4z M101.7,266.4h-6.3V265h6.3V266.4z"/>
		</g>
		<g>
			<path class="st3" d="M101.7,262v1.4h-6.3V262h0.4c-0.4-0.6-0.5-1.2-0.5-1.7c0-0.8,0.2-1.4,0.7-1.7c0.5-0.3,1.3-0.5,2.4-0.5h3.4
				v1.4h-3.3c-0.7,0-1.2,0.1-1.5,0.2c-0.3,0.1-0.4,0.4-0.4,0.9c0,0.4,0.1,0.8,0.3,1.2l0.1,0.2H101.7z"/>
		</g>
		<g>
			<path class="st3" d="M97.3,251.8h2.9c0.2,0,0.3-0.1,0.4-0.1c0.1-0.1,0.1-0.2,0.2-0.4l1,0c0,0.7-0.2,1.3-0.5,1.7
				c0.3,0.7,0.5,1.4,0.5,2c0,1.3-0.7,1.9-2,1.9c-0.6,0-1.1-0.2-1.4-0.5s-0.5-0.9-0.5-1.6l-0.1-1.6h-0.5c-0.3,0-0.6,0.1-0.7,0.2
				c-0.1,0.1-0.2,0.4-0.2,0.7c0,0.5,0,1.2,0.1,2l0,0.4l-1,0.1c-0.2-0.9-0.3-1.8-0.3-2.5c0-0.8,0.2-1.3,0.5-1.7
				C96.1,251.9,96.6,251.8,97.3,251.8z M98.9,254.6c0.1,0.6,0.4,0.9,0.9,0.9s0.9-0.3,0.9-0.8c0-0.4-0.1-0.9-0.2-1.3l-0.1-0.2h-1.7
				L98.9,254.6z"/>
		</g>
		<g>
			<path class="st3" d="M101.7,248.7v1.4h-6.3v-1.4h0.4c-0.4-0.6-0.5-1.2-0.5-1.7c0-0.8,0.2-1.4,0.7-1.7c0.5-0.3,1.3-0.5,2.4-0.5
				h3.4v1.4h-3.3c-0.7,0-1.2,0.1-1.5,0.2c-0.3,0.1-0.4,0.4-0.4,0.9c0,0.4,0.1,0.8,0.3,1.2l0.1,0.2H101.7z"/>
		</g>
		<g>
			<path class="st3" d="M96.6,243.5h-1.2v-4.7h1.2l3.9,3v-3h1.2v4.7h-1.2l-3.9-3V243.5z"/>
		</g>
		<g>
			<path class="st3" d="M97.3,232.8h2.9c0.2,0,0.3-0.1,0.4-0.1c0.1-0.1,0.1-0.2,0.2-0.4l1,0c0,0.7-0.2,1.3-0.5,1.7
				c0.3,0.7,0.5,1.3,0.5,2c0,1.3-0.7,1.9-2,1.9c-0.6,0-1.1-0.2-1.4-0.5s-0.5-0.9-0.5-1.6l-0.1-1.6h-0.5c-0.3,0-0.6,0.1-0.7,0.2
				c-0.1,0.1-0.2,0.4-0.2,0.6c0,0.5,0,1.2,0.1,2l0,0.4l-1,0c-0.2-0.9-0.3-1.8-0.3-2.5s0.2-1.3,0.5-1.7
				C96.1,232.9,96.6,232.8,97.3,232.8z M98.9,235.6c0.1,0.6,0.4,0.9,0.9,0.9s0.9-0.3,0.9-0.8c0-0.4-0.1-0.9-0.2-1.3l-0.1-0.2h-1.7
				L98.9,235.6z"/>
		</g>
		<g>
			<path class="st3" d="M104.4,228.3h-9v-1.4h0.4c-0.4-0.6-0.5-1.1-0.5-1.6c0-0.8,0.3-1.4,0.8-1.8s1.4-0.6,2.6-0.6
				c1.2,0,2,0.2,2.5,0.7c0.5,0.4,0.7,1.2,0.7,2.2c0,0.3,0,0.7-0.1,1.2h2.7V228.3z M96.4,225.5c0,0.4,0.1,0.8,0.3,1.2l0.1,0.2h3.7
				c0.1-0.3,0.1-0.7,0.1-1.1c0-0.6-0.2-1-0.5-1.2c-0.3-0.2-0.9-0.3-1.7-0.3C97.1,224.3,96.4,224.7,96.4,225.5z"/>
		</g>
		<g>
			<path class="st3" d="M95.4,217.7v-1.4h6.3v1.4h-0.4c0.4,0.6,0.5,1.2,0.5,1.7c0,0.9-0.2,1.4-0.7,1.7c-0.5,0.3-1.3,0.4-2.5,0.4
				h-3.3v-1.4h3.3c0.8,0,1.3-0.1,1.5-0.2c0.3-0.1,0.4-0.4,0.4-0.9c0-0.5-0.1-0.9-0.3-1.2l-0.1-0.2H95.4z"/>
		</g>
		<g>
			<path class="st3" d="M95.2,211.7c0-0.9,0.2-1.5,0.7-1.9s1.3-0.6,2.6-0.6c1.2,0,2.1,0.2,2.6,0.7c0.5,0.5,0.7,1.3,0.7,2.4
				c0,0.4,0,1-0.1,1.9l0,0.4h-8.9v-1.4h2.9C95.4,212.7,95.2,212.2,95.2,211.7z M100.6,212.3c0-0.7-0.2-1.1-0.5-1.3s-0.9-0.3-1.6-0.3
				s-1.3,0.1-1.6,0.3s-0.5,0.5-0.5,0.9c0,0.4,0.1,0.8,0.2,1.2l0.1,0.2h3.8C100.6,212.8,100.6,212.5,100.6,212.3z"/>
		</g>
		<g>
			<path class="st3" d="M95.2,204.9c0-0.9,0.2-1.5,0.7-1.9s1.3-0.6,2.6-0.6c1.2,0,2.1,0.2,2.6,0.7c0.5,0.5,0.7,1.3,0.7,2.4
				c0,0.4,0,1-0.1,1.9l0,0.4h-8.9v-1.4h2.9C95.4,205.9,95.2,205.4,95.2,204.9z M100.6,205.6c0-0.7-0.2-1.1-0.5-1.3
				c-0.3-0.2-0.9-0.3-1.6-0.3s-1.3,0.1-1.6,0.3c-0.3,0.2-0.5,0.5-0.5,0.9c0,0.4,0.1,0.8,0.2,1.2l0.1,0.2h3.8
				C100.6,206,100.6,205.7,100.6,205.6z"/>
		</g>
		<g>
			<path class="st3" d="M101.7,201h-8.9v-1.4h8.9V201z"/>
		</g>
		<g>
			<path class="st3" d="M94.3,197.9h-1.5v-1.4h1.5V197.9z M101.7,197.9h-6.3v-1.4h6.3V197.9z"/>
		</g>
		<g>
			<path class="st3" d="M95.2,192.5c0-0.4,0.1-1,0.2-1.6l0.1-0.3l1.1,0c-0.1,0.7-0.1,1.2-0.1,1.5c0,0.6,0.1,1.1,0.4,1.3
				c0.3,0.2,0.8,0.3,1.6,0.3c0.8,0,1.3-0.1,1.6-0.3c0.3-0.2,0.5-0.6,0.5-1.3l-0.1-1.5l1.1,0c0.2,0.8,0.2,1.5,0.2,1.9
				c0,1-0.3,1.6-0.8,2c-0.5,0.4-1.4,0.6-2.5,0.6s-2-0.2-2.5-0.6C95.5,194.1,95.2,193.4,95.2,192.5z"/>
		</g>
		<g>
			<path class="st3" d="M97.3,184.6h2.9c0.2,0,0.3-0.1,0.4-0.1c0.1-0.1,0.1-0.2,0.2-0.4l1,0c0,0.7-0.2,1.3-0.5,1.7
				c0.3,0.7,0.5,1.4,0.5,2c0,1.3-0.7,1.9-2,1.9c-0.6,0-1.1-0.2-1.4-0.5s-0.5-0.9-0.5-1.6l-0.1-1.6h-0.5c-0.3,0-0.6,0.1-0.7,0.2
				c-0.1,0.1-0.2,0.4-0.2,0.7c0,0.5,0,1.2,0.1,2l0,0.4l-1,0.1c-0.2-0.9-0.3-1.8-0.3-2.5c0-0.8,0.2-1.3,0.5-1.7
				C96.1,184.8,96.6,184.6,97.3,184.6z M98.9,187.4c0.1,0.6,0.4,0.9,0.9,0.9s0.9-0.3,0.9-0.8c0-0.4-0.1-0.9-0.2-1.3l-0.1-0.2h-1.7
				L98.9,187.4z"/>
		</g>
		<g>
			<path class="st3" d="M131,266.4c-0.1,1-0.2,1.7-0.2,2.2c0,0.4,0.1,0.8,0.2,0.9c0.1,0.2,0.3,0.3,0.5,0.3s0.4-0.1,0.5-0.3
				c0.1-0.2,0.2-0.6,0.3-1.3c0.1-0.7,0.3-1.2,0.6-1.5c0.3-0.3,0.7-0.4,1.4-0.4c0.7,0,1.2,0.2,1.5,0.6c0.3,0.4,0.5,1,0.5,1.9
				c0,0.5-0.1,1.2-0.2,1.9l-0.1,0.4l-1.1-0.1c0.1-1,0.2-1.7,0.2-2.2c0-0.4-0.1-0.8-0.2-1s-0.3-0.3-0.5-0.3c-0.3,0-0.4,0.1-0.5,0.3
				s-0.2,0.6-0.3,1.3c-0.1,0.7-0.3,1.2-0.5,1.5c-0.2,0.3-0.7,0.5-1.3,0.5s-1.1-0.2-1.5-0.7s-0.5-1-0.5-1.7c0-0.5,0.1-1.2,0.2-2
				l0.1-0.4L131,266.4z"/>
		</g>
		<g>
			<path class="st3" d="M129.6,262.5c0-0.4,0.1-1,0.2-1.6l0.1-0.3l1.1,0c-0.1,0.7-0.1,1.2-0.1,1.5c0,0.6,0.1,1.1,0.4,1.3
				c0.3,0.2,0.8,0.3,1.6,0.3c0.8,0,1.3-0.1,1.6-0.3c0.3-0.2,0.5-0.6,0.5-1.3l-0.1-1.5l1.1,0c0.2,0.8,0.2,1.5,0.2,1.9
				c0,1-0.3,1.6-0.8,2c-0.5,0.4-1.4,0.6-2.5,0.6s-2-0.2-2.5-0.6C129.8,264.1,129.6,263.4,129.6,262.5z"/>
		</g>
		<g>
			<path class="st3" d="M129.7,255.4v-1.4h6.3v1.4h-0.4c0.4,0.6,0.5,1.2,0.5,1.7c0,0.9-0.2,1.4-0.7,1.7c-0.5,0.3-1.3,0.4-2.5,0.4
				h-3.3v-1.4h3.3c0.8,0,1.3-0.1,1.5-0.2c0.3-0.1,0.4-0.4,0.4-0.9c0-0.5-0.1-0.9-0.3-1.2l-0.1-0.2H129.7z"/>
		</g>
		<g>
			<path class="st3" d="M130.4,252c-0.5-0.4-0.8-1.2-0.8-2.2c0-1,0.3-1.7,0.8-2.2s1.4-0.7,2.5-0.7c1.1,0,1.9,0.2,2.5,0.6
				c0.6,0.4,0.8,1.1,0.8,2.2c0,1-0.3,1.8-0.8,2.2c-0.6,0.4-1.4,0.6-2.5,0.6C131.8,252.7,131,252.5,130.4,252z M134.5,251
				c0.3-0.2,0.5-0.6,0.5-1.1s-0.2-0.9-0.5-1.1c-0.3-0.2-0.9-0.3-1.7-0.3c-0.8,0-1.3,0.1-1.6,0.3c-0.3,0.2-0.5,0.6-0.5,1.1
				c0,0.5,0.2,0.9,0.5,1.1c0.3,0.2,0.9,0.3,1.6,0.3C133.6,251.3,134.2,251.2,134.5,251z"/>
		</g>
		<g>
			<path class="st3" d="M136,245.6h-8.9v-1.4h8.9V245.6z"/>
		</g>
		<g>
			<path class="st3" d="M131.7,237.8h2.9c0.2,0,0.3-0.1,0.4-0.1c0.1-0.1,0.1-0.2,0.2-0.4l1,0c0,0.7-0.2,1.3-0.5,1.7
				c0.3,0.7,0.5,1.4,0.5,2c0,1.3-0.7,1.9-2,1.9c-0.6,0-1.1-0.2-1.4-0.5s-0.5-0.9-0.5-1.6l-0.1-1.6h-0.5c-0.3,0-0.6,0.1-0.7,0.2
				c-0.1,0.1-0.2,0.4-0.2,0.7c0,0.5,0,1.2,0.1,2l0,0.4l-1,0.1c-0.2-0.9-0.3-1.8-0.3-2.5c0-0.8,0.2-1.3,0.5-1.7
				C130.4,238,131,237.8,131.7,237.8z M133.2,240.7c0.1,0.6,0.4,0.9,0.9,0.9s0.9-0.3,0.9-0.8c0-0.4-0.1-0.9-0.2-1.3l-0.1-0.2h-1.7
				L133.2,240.7z"/>
		</g>
		<g>
			<path class="st3" d="M163,270.7h-1.5v-1.4h1.5V270.7z M170.4,270.7h-6.3v-1.4h6.3V270.7z"/>
		</g>
		<g>
			<path class="st3" d="M165.4,263.3c-0.1,1-0.2,1.7-0.2,2.2c0,0.4,0.1,0.8,0.2,0.9c0.1,0.2,0.3,0.3,0.5,0.3s0.4-0.1,0.5-0.3
				s0.2-0.6,0.3-1.3c0.1-0.7,0.3-1.2,0.6-1.5c0.3-0.3,0.7-0.4,1.4-0.4c0.7,0,1.2,0.2,1.5,0.6c0.3,0.4,0.5,1,0.5,1.9
				c0,0.5-0.1,1.2-0.2,1.9l-0.1,0.4l-1.1-0.1c0.1-1,0.2-1.7,0.2-2.2c0-0.4-0.1-0.8-0.2-1c-0.1-0.2-0.3-0.3-0.5-0.3
				c-0.3,0-0.4,0.1-0.5,0.3c-0.1,0.2-0.2,0.6-0.3,1.3c-0.1,0.7-0.3,1.2-0.5,1.5s-0.7,0.5-1.3,0.5s-1.1-0.2-1.5-0.7
				c-0.3-0.4-0.5-1-0.5-1.7c0-0.5,0.1-1.2,0.2-2l0.1-0.4L165.4,263.3z"/>
		</g>
		<g>
			<path class="st3" d="M165.3,258.4v1.7h2.8c0.5,0,0.9,0,1-0.1c0.2-0.1,0.3-0.3,0.3-0.6l0-1l1.1-0.1c0.1,0.6,0.2,1,0.2,1.3
				c0,0.7-0.2,1.2-0.5,1.5c-0.3,0.3-0.9,0.4-1.9,0.4h-2.9v0.8h-1.2v-0.8h-1.8v-1.4h1.8v-1.7H165.3z"/>
		</g>
		<g>
			<path class="st3" d="M170.4,257.3h-6.3v-1.4h0.8c-0.5-0.7-0.8-1.4-0.9-2.1h1.4c0.1,0.7,0.3,1.3,0.6,1.9l0.1,0.3h4.4V257.3z"/>
		</g>
		<g>
			<path class="st3" d="M164.1,248.9v-1.4h6.3v1.4H170c0.4,0.6,0.5,1.2,0.5,1.7c0,0.9-0.2,1.4-0.7,1.7c-0.5,0.3-1.3,0.4-2.5,0.4
				h-3.3v-1.4h3.3c0.8,0,1.3-0.1,1.5-0.2c0.3-0.1,0.4-0.4,0.4-0.9c0-0.5-0.1-0.9-0.3-1.2l-0.1-0.2H164.1z"/>
		</g>
		<g>
			<path class="st3" d="M165.3,246.2h-1.2v-4.7h1.2l3.9,3v-3h1.2v4.7h-1.2l-3.9-3V246.2z"/>
		</g>
		<g>
			<path class="st3" d="M163,240.1h-1.5v-1.4h1.5V240.1z M170.4,240.1h-6.3v-1.4h6.3V240.1z"/>
		</g>
		<g>
			<path class="st3" d="M164.8,236.7c-0.5-0.4-0.8-1.2-0.8-2.2c0-1,0.3-1.7,0.8-2.2s1.4-0.7,2.5-0.7c1.1,0,1.9,0.2,2.5,0.6
				c0.6,0.4,0.8,1.1,0.8,2.2c0,1-0.3,1.8-0.8,2.2c-0.6,0.4-1.4,0.6-2.5,0.6C166.2,237.4,165.3,237.2,164.8,236.7z M168.9,235.7
				c0.3-0.2,0.5-0.6,0.5-1.1s-0.2-0.9-0.5-1.1c-0.3-0.2-0.9-0.3-1.7-0.3c-0.8,0-1.3,0.1-1.6,0.3c-0.3,0.2-0.5,0.6-0.5,1.1
				c0,0.5,0.2,0.9,0.5,1.1c0.3,0.2,0.9,0.3,1.6,0.3C168,236,168.6,235.9,168.9,235.7z"/>
		</g>
		<g>
			<path class="st3" d="M170.4,229v1.4h-6.3V229h0.4c-0.4-0.6-0.5-1.2-0.5-1.7c0-0.8,0.2-1.4,0.7-1.7c0.5-0.3,1.3-0.5,2.4-0.5h3.4
				v1.4h-3.3c-0.7,0-1.2,0.1-1.5,0.2c-0.3,0.1-0.4,0.4-0.4,0.9c0,0.4,0.1,0.8,0.3,1.2l0.1,0.2H170.4z"/>
		</g>
		<g>
			<path class="st3" d="M169.3,219l0-0.4l1,0c0.2,1,0.3,1.8,0.3,2.5c0,0.9-0.3,1.6-0.8,2c-0.5,0.4-1.3,0.6-2.5,0.6
				c-2.2,0-3.4-0.9-3.4-2.7c0-1.8,1-2.7,2.9-2.7l1,0.1v3.9c0.5,0,0.9-0.1,1.1-0.3s0.4-0.6,0.4-1.2S169.3,219.6,169.3,219z
				 M166.8,219.8c-0.6,0-1.1,0.1-1.3,0.3c-0.2,0.2-0.4,0.5-0.4,1c0,0.5,0.1,0.8,0.4,1c0.3,0.2,0.7,0.3,1.3,0.3V219.8z"/>
		</g>
		<g>
			<path class="st3" d="M165.4,209.9c-0.1,1-0.2,1.7-0.2,2.2c0,0.4,0.1,0.8,0.2,0.9c0.1,0.2,0.3,0.3,0.5,0.3s0.4-0.1,0.5-0.3
				s0.2-0.6,0.3-1.3c0.1-0.7,0.3-1.2,0.6-1.5c0.3-0.3,0.7-0.4,1.4-0.4c0.7,0,1.2,0.2,1.5,0.6c0.3,0.4,0.5,1,0.5,1.9
				c0,0.5-0.1,1.2-0.2,1.9l-0.1,0.4l-1.1-0.1c0.1-1,0.2-1.7,0.2-2.2c0-0.4-0.1-0.8-0.2-1c-0.1-0.2-0.3-0.3-0.5-0.3
				c-0.3,0-0.4,0.1-0.5,0.3c-0.1,0.2-0.2,0.6-0.3,1.3c-0.1,0.7-0.3,1.2-0.5,1.5s-0.7,0.5-1.3,0.5s-1.1-0.2-1.5-0.7
				c-0.3-0.4-0.5-1-0.5-1.7c0-0.5,0.1-1.2,0.2-2l0.1-0.4L165.4,209.9z"/>
		</g>
		<g>
			<path class="st3" d="M164.1,204.6v-1.4h6.3v1.4H170c0.4,0.6,0.5,1.2,0.5,1.7c0,0.9-0.2,1.4-0.7,1.7c-0.5,0.3-1.3,0.4-2.5,0.4
				h-3.3v-1.4h3.3c0.8,0,1.3-0.1,1.5-0.2c0.3-0.1,0.4-0.4,0.4-0.9c0-0.5-0.1-0.9-0.3-1.2l-0.1-0.2H164.1z"/>
		</g>
		<g>
			<path class="st3" d="M173.1,201.6h-9v-1.4h0.4c-0.4-0.6-0.5-1.1-0.5-1.6c0-0.8,0.3-1.4,0.8-1.8c0.5-0.4,1.4-0.6,2.6-0.6
				c1.2,0,2,0.2,2.5,0.7c0.5,0.4,0.7,1.2,0.7,2.2c0,0.3,0,0.7-0.1,1.2h2.7V201.6z M165.2,198.8c0,0.4,0.1,0.8,0.3,1.2l0.1,0.2h3.7
				c0.1-0.3,0.1-0.7,0.1-1.1c0-0.6-0.2-1-0.5-1.2s-0.9-0.3-1.7-0.3C165.9,197.6,165.2,198,165.2,198.8z"/>
		</g>
		<g>
			<path class="st3" d="M169.3,190.3l0-0.4l1,0c0.2,1,0.3,1.8,0.3,2.5c0,0.9-0.3,1.6-0.8,2s-1.3,0.6-2.5,0.6c-2.2,0-3.4-0.9-3.4-2.7
				c0-1.8,1-2.6,2.9-2.6l1,0.1v3.9c0.5,0,0.9-0.1,1.1-0.3s0.4-0.6,0.4-1.2C169.4,191.5,169.3,190.9,169.3,190.3z M166.8,191
				c-0.6,0-1.1,0.1-1.3,0.3s-0.4,0.5-0.4,1c0,0.5,0.1,0.8,0.4,1s0.7,0.3,1.3,0.3V191z"/>
		</g>
		<g>
			<path class="st3" d="M170.4,188.4h-6.3V187h0.8c-0.5-0.7-0.8-1.4-0.9-2.1h1.4c0.1,0.7,0.3,1.3,0.6,1.9l0.1,0.3h4.4V188.4z"/>
		</g>
		<g>
			<path class="st3" d="M163,183.8h-1.5v-1.4h1.5V183.8z M170.4,183.8h-6.3v-1.4h6.3V183.8z"/>
		</g>
		<g>
			<path class="st3" d="M164.8,180.4c-0.5-0.4-0.8-1.2-0.8-2.2s0.3-1.7,0.8-2.2c0.5-0.4,1.4-0.6,2.5-0.6c1.1,0,1.9,0.2,2.5,0.6
				c0.6,0.4,0.8,1.1,0.8,2.2s-0.3,1.8-0.8,2.2c-0.6,0.4-1.4,0.6-2.5,0.6C166.2,181.1,165.3,180.9,164.8,180.4z M168.9,179.4
				c0.3-0.2,0.5-0.6,0.5-1.1s-0.2-0.9-0.5-1.1c-0.3-0.2-0.9-0.3-1.7-0.3c-0.8,0-1.3,0.1-1.6,0.3c-0.3,0.2-0.5,0.6-0.5,1.1
				s0.2,0.9,0.5,1.1c0.3,0.2,0.9,0.3,1.6,0.3C168,179.7,168.6,179.6,168.9,179.4z"/>
		</g>
		<g>
			<path class="st3" d="M170.4,174.1h-6.3v-1.4h0.8c-0.5-0.7-0.8-1.4-0.9-2.1h1.4c0.1,0.7,0.3,1.3,0.6,1.9l0.1,0.3h4.4V174.1z"/>
		</g>
		<g>
			<path class="st3" d="M169.3,165.1l0-0.4l1,0c0.2,1,0.3,1.8,0.3,2.5c0,0.9-0.3,1.6-0.8,2s-1.3,0.6-2.5,0.6c-2.2,0-3.4-0.9-3.4-2.7
				c0-1.8,1-2.6,2.9-2.6l1,0.1v3.9c0.5,0,0.9-0.1,1.1-0.3s0.4-0.6,0.4-1.2C169.4,166.3,169.3,165.7,169.3,165.1z M166.8,165.8
				c-0.6,0-1.1,0.1-1.3,0.3s-0.4,0.5-0.4,1c0,0.5,0.1,0.8,0.4,1s0.7,0.3,1.3,0.3V165.8z"/>
		</g>
		<g>
			<path class="st3" d="M169.3,155.9l0-0.4l1,0c0.2,1,0.3,1.8,0.3,2.5c0,0.9-0.3,1.6-0.8,2s-1.3,0.6-2.5,0.6c-2.2,0-3.4-0.9-3.4-2.7
				c0-1.8,1-2.6,2.9-2.6l1,0.1v3.9c0.5,0,0.9-0.1,1.1-0.3s0.4-0.6,0.4-1.2C169.4,157.2,169.3,156.5,169.3,155.9z M166.8,156.7
				c-0.6,0-1.1,0.1-1.3,0.3s-0.4,0.5-0.4,1c0,0.5,0.1,0.8,0.4,1s0.7,0.3,1.3,0.3V156.7z"/>
		</g>
		<g>
			<path class="st3" d="M170.4,151.2h-6.3v-1.4h0.8c-0.5-0.7-0.8-1.4-0.9-2.1h1.4c0.1,0.7,0.3,1.3,0.6,1.9l0.1,0.3h4.4V151.2z"/>
		</g>
		<g>
			<path class="st3" d="M163,146.7h-1.5v-1.4h1.5V146.7z M170.4,146.7h-6.3v-1.4h6.3V146.7z"/>
		</g>
		<g>
			<path class="st3" d="M164,141.3c0-0.4,0.1-1,0.2-1.6l0.1-0.3l1.1,0.1c-0.1,0.7-0.1,1.2-0.1,1.5c0,0.6,0.1,1.1,0.4,1.3
				c0.3,0.2,0.8,0.3,1.6,0.3c0.8,0,1.3-0.1,1.6-0.3s0.5-0.6,0.5-1.3l-0.1-1.5l1.1,0c0.2,0.8,0.2,1.5,0.2,1.9c0,1-0.3,1.6-0.8,2
				c-0.5,0.4-1.4,0.6-2.5,0.6s-2-0.2-2.5-0.6C164.2,142.9,164,142.2,164,141.3z"/>
		</g>
		<g>
			<path class="st3" d="M169.3,133.6l0-0.4l1,0c0.2,1,0.3,1.8,0.3,2.5c0,0.9-0.3,1.6-0.8,2c-0.5,0.4-1.3,0.6-2.5,0.6
				c-2.2,0-3.4-0.9-3.4-2.7c0-1.8,1-2.6,2.9-2.6l1,0.1v3.9c0.5,0,0.9-0.1,1.1-0.3s0.4-0.6,0.4-1.2
				C169.4,134.9,169.3,134.2,169.3,133.6z M166.8,134.4c-0.6,0-1.1,0.1-1.3,0.3c-0.2,0.2-0.4,0.5-0.4,1s0.1,0.8,0.4,1
				c0.3,0.2,0.7,0.3,1.3,0.3V134.4z"/>
		</g>
		<g>
			<path class="st3" d="M170.4,131.7h-6.3v-1.4h0.8c-0.5-0.7-0.8-1.4-0.9-2.1h1.4c0.1,0.7,0.3,1.3,0.6,1.9l0.1,0.3h4.4V131.7z"/>
		</g>
		<g>
			<path class="st3" d="M164,124.8c0-0.4,0.1-1,0.2-1.6l0.1-0.3l1.1,0.1c-0.1,0.7-0.1,1.2-0.1,1.5c0,0.6,0.1,1.1,0.4,1.3
				c0.3,0.2,0.8,0.3,1.6,0.3c0.8,0,1.3-0.1,1.6-0.3s0.5-0.6,0.5-1.3l-0.1-1.5l1.1,0c0.2,0.8,0.2,1.5,0.2,1.9c0,1-0.3,1.6-0.8,2
				c-0.5,0.4-1.4,0.6-2.5,0.6s-2-0.2-2.5-0.6C164.2,126.4,164,125.8,164,124.8z"/>
		</g>
		<g>
			<path class="st3" d="M166.1,116.9h2.9c0.2,0,0.3-0.1,0.4-0.1c0.1-0.1,0.1-0.2,0.2-0.4l1,0c0,0.7-0.2,1.3-0.5,1.7
				c0.3,0.7,0.5,1.4,0.5,2c0,1.3-0.7,1.9-2,1.9c-0.6,0-1.1-0.2-1.4-0.5s-0.5-0.9-0.5-1.6l-0.1-1.6h-0.5c-0.3,0-0.6,0.1-0.7,0.2
				c-0.1,0.1-0.2,0.4-0.2,0.6c0,0.5,0,1.2,0.1,2l0,0.4l-1,0.1c-0.2-0.9-0.3-1.8-0.3-2.5c0-0.8,0.2-1.3,0.5-1.7
				C164.8,117.1,165.3,116.9,166.1,116.9z M167.6,119.8c0.1,0.6,0.4,0.9,0.9,0.9s0.9-0.3,0.9-0.8c0-0.4-0.1-0.9-0.2-1.3l-0.1-0.2
				h-1.7L167.6,119.8z"/>
		</g>
		<g>
			<path class="st3" d="M198.9,265.6h8.9v1.4h-0.3c0.3,0.6,0.5,1.2,0.5,1.7c0,0.8-0.2,1.4-0.7,1.8s-1.3,0.6-2.5,0.6s-2-0.2-2.5-0.6
				s-0.8-1.1-0.8-2c0-0.3,0.1-0.8,0.2-1.4h-2.6V265.6z M206.6,267.2l-0.1-0.2h-3.7c-0.1,0.5-0.1,1-0.1,1.4c0,0.8,0.7,1.3,2.1,1.3
				c0.8,0,1.3-0.1,1.6-0.3c0.3-0.2,0.4-0.5,0.4-0.9C206.8,268,206.7,267.6,206.6,267.2z"/>
		</g>
		<g>
			<path class="st3" d="M200.5,263.9H199v-1.4h1.5V263.9z M207.9,263.9h-6.3v-1.4h6.3V263.9z"/>
		</g>
		<g>
			<path class="st3" d="M202.7,259.2h5.1v1.4h-5.1v0.7h-1.2v-0.7h-0.4c-0.9,0-1.5-0.1-1.9-0.4c-0.3-0.3-0.5-0.7-0.5-1.4l0.1-1.4
				l1.1,0c0,0.4,0,0.8,0,1s0.1,0.5,0.2,0.6s0.5,0.2,0.9,0.2h0.4v-1.7h1.2V259.2z"/>
		</g>
		<g>
			<path class="st3" d="M206.7,252.1l0-0.4l1,0c0.2,1,0.3,1.8,0.3,2.5c0,0.9-0.3,1.6-0.8,2c-0.5,0.4-1.3,0.6-2.5,0.6
				c-2.2,0-3.4-0.9-3.4-2.7c0-1.8,1-2.7,2.9-2.7l1,0.1v3.9c0.5,0,0.9-0.1,1.1-0.3s0.4-0.6,0.4-1.2S206.8,252.7,206.7,252.1z
				 M204.2,252.9c-0.6,0-1.1,0.1-1.3,0.3c-0.2,0.2-0.4,0.5-0.4,1c0,0.5,0.1,0.8,0.4,1c0.3,0.2,0.7,0.3,1.3,0.3V252.9z"/>
		</g>
		<g>
			<path class="st3" d="M202.9,245.8c-0.1,1-0.2,1.7-0.2,2.2c0,0.4,0.1,0.8,0.2,0.9c0.1,0.2,0.3,0.3,0.5,0.3s0.4-0.1,0.5-0.3
				c0.1-0.2,0.2-0.6,0.3-1.3c0.1-0.7,0.3-1.2,0.6-1.5c0.3-0.3,0.7-0.4,1.4-0.4c0.7,0,1.2,0.2,1.5,0.6c0.3,0.4,0.5,1,0.5,1.9
				c0,0.5-0.1,1.2-0.2,1.9l-0.1,0.4l-1.1-0.1c0.1-1,0.2-1.7,0.2-2.2c0-0.4-0.1-0.8-0.2-1s-0.3-0.3-0.5-0.3c-0.3,0-0.4,0.1-0.5,0.3
				s-0.2,0.6-0.3,1.3c-0.1,0.7-0.3,1.2-0.5,1.5c-0.2,0.3-0.7,0.5-1.3,0.5s-1.1-0.2-1.5-0.7s-0.5-1-0.5-1.7c0-0.5,0.1-1.2,0.2-2
				l0.1-0.4L202.9,245.8z"/>
		</g>
		<g>
			<path class="st3" d="M203.5,239.6h2.9c0.2,0,0.3-0.1,0.4-0.1c0.1-0.1,0.1-0.2,0.2-0.4l1,0c0,0.7-0.2,1.3-0.5,1.7
				c0.3,0.7,0.5,1.3,0.5,2c0,1.3-0.7,1.9-2,1.9c-0.6,0-1.1-0.2-1.4-0.5s-0.5-0.9-0.5-1.6L204,241h-0.5c-0.3,0-0.6,0.1-0.7,0.2
				c-0.1,0.1-0.2,0.4-0.2,0.6c0,0.5,0,1.2,0.1,2l0,0.4l-1,0c-0.2-0.9-0.3-1.8-0.3-2.5s0.2-1.3,0.5-1.7
				C202.3,239.8,202.8,239.6,203.5,239.6z M205.1,242.4c0.1,0.6,0.4,0.9,0.9,0.9s0.9-0.3,0.9-0.8c0-0.4-0.1-0.9-0.2-1.3l-0.1-0.2
				h-1.7L205.1,242.4z"/>
		</g>
		<g>
			<path class="st3" d="M209.4,238.4l-3.1-0.6v-1.5l3.1,1V238.4z"/>
		</g>
		<g>
			<path class="st3" d="M202.9,227.6c-0.1,1-0.2,1.7-0.2,2.2c0,0.4,0.1,0.8,0.2,0.9c0.1,0.2,0.3,0.3,0.5,0.3s0.4-0.1,0.5-0.3
				s0.2-0.6,0.3-1.3c0.1-0.7,0.3-1.2,0.6-1.5c0.3-0.3,0.7-0.4,1.4-0.4c0.7,0,1.2,0.2,1.5,0.6c0.3,0.4,0.5,1,0.5,1.9
				c0,0.5-0.1,1.2-0.2,1.9l-0.1,0.4l-1.1-0.1c0.1-1,0.2-1.7,0.2-2.2c0-0.4-0.1-0.8-0.2-1c-0.1-0.2-0.3-0.3-0.5-0.3
				c-0.3,0-0.4,0.1-0.5,0.3c-0.1,0.2-0.2,0.6-0.3,1.3c-0.1,0.7-0.3,1.2-0.5,1.5s-0.7,0.5-1.3,0.5s-1.1-0.2-1.5-0.7
				c-0.3-0.4-0.5-1-0.5-1.7c0-0.5,0.1-1.2,0.2-2l0.1-0.4L202.9,227.6z"/>
		</g>
		<g>
			<path class="st3" d="M200.5,226.1H199v-1.4h1.5V226.1z M207.9,226.1h-6.3v-1.4h6.3V226.1z"/>
		</g>
		<g>
			<path class="st3" d="M201.4,220.7c0-0.4,0.1-1,0.2-1.6l0.1-0.3l1.1,0c-0.1,0.7-0.1,1.2-0.1,1.5c0,0.6,0.1,1.1,0.4,1.3
				c0.3,0.2,0.8,0.3,1.6,0.3c0.8,0,1.3-0.1,1.6-0.3c0.3-0.2,0.5-0.6,0.5-1.3l-0.1-1.5l1.1,0c0.2,0.8,0.2,1.5,0.2,1.9
				c0,1-0.3,1.6-0.8,2c-0.5,0.4-1.4,0.6-2.5,0.6s-2-0.2-2.5-0.6C201.7,222.3,201.4,221.6,201.4,220.7z"/>
		</g>
		<g>
			<path class="st3" d="M201.6,213.6v-1.4h6.3v1.4h-0.4c0.4,0.6,0.5,1.2,0.5,1.7c0,0.9-0.2,1.4-0.7,1.7c-0.5,0.3-1.3,0.4-2.5,0.4
				h-3.3v-1.4h3.3c0.8,0,1.3-0.1,1.5-0.2c0.3-0.1,0.4-0.4,0.4-0.9c0-0.5-0.1-0.9-0.3-1.2l-0.1-0.2H201.6z"/>
		</g>
		<g>
			<path class="st3" d="M207.9,210.6h-6.3v-1.4h0.8c-0.5-0.7-0.8-1.4-0.9-2.1h1.4c0.1,0.7,0.3,1.3,0.6,1.9l0.1,0.3h4.4V210.6z"/>
		</g>
		<g>
			<path class="st3" d="M206.7,201.6l0-0.4l1,0c0.2,1,0.3,1.8,0.3,2.5c0,0.9-0.3,1.6-0.8,2s-1.3,0.6-2.5,0.6c-2.2,0-3.4-0.9-3.4-2.7
				c0-1.8,1-2.6,2.9-2.6l1,0.1v3.9c0.5,0,0.9-0.1,1.1-0.3s0.4-0.6,0.4-1.2C206.8,202.8,206.8,202.2,206.7,201.6z M204.2,202.4
				c-0.6,0-1.1,0.1-1.3,0.3s-0.4,0.5-0.4,1c0,0.5,0.1,0.8,0.4,1s0.7,0.3,1.3,0.3V202.4z"/>
		</g>
		<g>
			<path class="st3" d="M202.8,200h-1.2v-4.7h1.2l3.9,3v-3h1.2v4.7h-1.2l-3.9-3V200z"/>
		</g>
		<g>
			<path class="st3" d="M202.8,194.3h-1.2v-4.7h1.2l3.9,3v-3h1.2v4.7h-1.2l-3.9-3V194.3z"/>
		</g>
		<g>
			<path class="st3" d="M203.5,183.6h2.9c0.2,0,0.3-0.1,0.4-0.1c0.1-0.1,0.1-0.2,0.2-0.4l1,0c0,0.7-0.2,1.3-0.5,1.7
				c0.3,0.7,0.5,1.3,0.5,2c0,1.3-0.7,1.9-2,1.9c-0.6,0-1.1-0.2-1.4-0.5s-0.5-0.9-0.5-1.6l-0.1-1.6h-0.5c-0.3,0-0.6,0.1-0.7,0.2
				c-0.1,0.1-0.2,0.4-0.2,0.6c0,0.5,0,1.2,0.1,2l0,0.4l-1,0c-0.2-0.9-0.3-1.8-0.3-2.5s0.2-1.3,0.5-1.7
				C202.3,183.7,202.8,183.6,203.5,183.6z M205.1,186.4c0.1,0.6,0.4,0.9,0.9,0.9s0.9-0.3,0.9-0.8c0-0.4-0.1-0.9-0.2-1.3l-0.1-0.2
				h-1.7L205.1,186.4z"/>
		</g>
		<g>
			<path class="st3" d="M206.7,174.6l0-0.4l1,0c0.2,1,0.3,1.8,0.3,2.5c0,0.9-0.3,1.6-0.8,2s-1.3,0.6-2.5,0.6c-2.2,0-3.4-0.9-3.4-2.7
				c0-1.8,1-2.6,2.9-2.6l1,0.1v3.9c0.5,0,0.9-0.1,1.1-0.3s0.4-0.6,0.4-1.2C206.8,175.8,206.8,175.2,206.7,174.6z M204.2,175.3
				c-0.6,0-1.1,0.1-1.3,0.3s-0.4,0.5-0.4,1c0,0.5,0.1,0.8,0.4,1s0.7,0.3,1.3,0.3V175.3z"/>
		</g>
		<g>
			<path class="st3" d="M202.9,165.5c-0.1,1-0.2,1.7-0.2,2.2c0,0.4,0.1,0.8,0.2,0.9c0.1,0.2,0.3,0.3,0.5,0.3s0.4-0.1,0.5-0.3
				s0.2-0.6,0.3-1.3c0.1-0.7,0.3-1.2,0.6-1.5c0.3-0.3,0.7-0.4,1.4-0.4c0.7,0,1.2,0.2,1.5,0.6c0.3,0.4,0.5,1,0.5,1.9
				c0,0.5-0.1,1.2-0.2,1.9l-0.1,0.4l-1.1-0.1c0.1-1,0.2-1.7,0.2-2.2c0-0.4-0.1-0.8-0.2-1c-0.1-0.2-0.3-0.3-0.5-0.3
				c-0.3,0-0.4,0.1-0.5,0.3c-0.1,0.2-0.2,0.6-0.3,1.3c-0.1,0.7-0.3,1.2-0.5,1.5s-0.7,0.5-1.3,0.5s-1.1-0.2-1.5-0.7
				c-0.3-0.4-0.5-1-0.5-1.7c0-0.5,0.1-1.2,0.2-2l0.1-0.4L202.9,165.5z"/>
		</g>
		<g>
			<path class="st3" d="M202.2,163.6c-0.5-0.4-0.8-1.2-0.8-2.2s0.3-1.7,0.8-2.2c0.5-0.4,1.4-0.6,2.5-0.6c1.1,0,1.9,0.2,2.5,0.6
				c0.6,0.4,0.8,1.1,0.8,2.2s-0.3,1.8-0.8,2.2c-0.6,0.4-1.4,0.6-2.5,0.6C203.6,164.3,202.8,164,202.2,163.6z M206.3,162.6
				c0.3-0.2,0.5-0.6,0.5-1.1s-0.2-0.9-0.5-1.1c-0.3-0.2-0.9-0.3-1.7-0.3c-0.8,0-1.3,0.1-1.6,0.3c-0.3,0.2-0.5,0.6-0.5,1.1
				s0.2,0.9,0.5,1.1c0.3,0.2,0.9,0.3,1.6,0.3C205.5,162.9,206,162.8,206.3,162.6z"/>
		</g>
		<g>
			<path class="st3" d="M201.4,154.9c0-0.4,0.1-1,0.2-1.6l0.1-0.3l1.1,0c-0.1,0.7-0.1,1.2-0.1,1.5c0,0.6,0.1,1.1,0.4,1.3
				c0.3,0.2,0.8,0.3,1.6,0.3c0.8,0,1.3-0.1,1.6-0.3c0.3-0.2,0.5-0.6,0.5-1.3l-0.1-1.5l1.1,0c0.2,0.8,0.2,1.5,0.2,1.9
				c0,1-0.3,1.6-0.8,2c-0.5,0.4-1.4,0.6-2.5,0.6s-2-0.2-2.5-0.6C201.7,156.5,201.4,155.8,201.4,154.9z"/>
		</g>
		<g>
			<path class="st3" d="M201.4,149.4c0-0.4,0.1-1,0.2-1.6l0.1-0.3l1.1,0.1c-0.1,0.7-0.1,1.2-0.1,1.5c0,0.6,0.1,1.1,0.4,1.3
				c0.3,0.2,0.8,0.3,1.6,0.3c0.8,0,1.3-0.1,1.6-0.3s0.5-0.6,0.5-1.3l-0.1-1.5l1.1,0c0.2,0.8,0.2,1.5,0.2,1.9c0,1-0.3,1.6-0.8,2
				c-0.5,0.4-1.4,0.6-2.5,0.6s-2-0.2-2.5-0.6C201.7,151,201.4,150.3,201.4,149.4z"/>
		</g>
		<g>
			<path class="st3" d="M202.2,145.9c-0.5-0.4-0.8-1.2-0.8-2.2c0-1,0.3-1.7,0.8-2.2c0.5-0.4,1.4-0.6,2.5-0.6c1.1,0,1.9,0.2,2.5,0.6
				c0.6,0.4,0.8,1.1,0.8,2.2c0,1-0.3,1.8-0.8,2.2c-0.6,0.4-1.4,0.6-2.5,0.6C203.6,146.5,202.8,146.3,202.2,145.9z M206.3,144.9
				c0.3-0.2,0.5-0.6,0.5-1.1s-0.2-0.9-0.5-1.1c-0.3-0.2-0.9-0.3-1.7-0.3c-0.8,0-1.3,0.1-1.6,0.3c-0.3,0.2-0.5,0.6-0.5,1.1
				c0,0.5,0.2,0.9,0.5,1.1c0.3,0.2,0.9,0.3,1.6,0.3C205.5,145.2,206,145.1,206.3,144.9z"/>
		</g>
		<g>
			<path class="st3" d="M207.9,139.6h-6.3v-1.4h0.8c-0.5-0.7-0.8-1.4-0.9-2.1h1.4c0.1,0.7,0.3,1.3,0.6,1.9l0.1,0.3h4.4V139.6z"/>
		</g>
		<g>
			<path class="st3" d="M202.9,130.6c-0.1,1-0.2,1.7-0.2,2.2s0.1,0.8,0.2,0.9c0.1,0.2,0.3,0.3,0.5,0.3s0.4-0.1,0.5-0.3
				c0.1-0.2,0.2-0.6,0.3-1.3c0.1-0.7,0.3-1.2,0.6-1.5s0.7-0.4,1.4-0.4c0.7,0,1.2,0.2,1.5,0.6c0.3,0.4,0.5,1,0.5,1.9
				c0,0.5-0.1,1.2-0.2,1.9l-0.1,0.4l-1.1-0.1c0.1-1,0.2-1.7,0.2-2.2s-0.1-0.8-0.2-1c-0.1-0.2-0.3-0.3-0.5-0.3
				c-0.3,0-0.4,0.1-0.5,0.3c-0.1,0.2-0.2,0.6-0.3,1.3c-0.1,0.7-0.3,1.2-0.5,1.5c-0.2,0.3-0.7,0.5-1.3,0.5s-1.1-0.2-1.5-0.7
				c-0.3-0.4-0.5-1-0.5-1.7c0-0.5,0.1-1.2,0.2-2l0.1-0.4L202.9,130.6z"/>
		</g>
		<g>
			<path class="st3" d="M202.2,128.7c-0.5-0.4-0.8-1.2-0.8-2.2c0-1,0.3-1.7,0.8-2.2c0.5-0.4,1.4-0.6,2.5-0.6c1.1,0,1.9,0.2,2.5,0.6
				c0.6,0.4,0.8,1.1,0.8,2.2c0,1-0.3,1.8-0.8,2.2c-0.6,0.4-1.4,0.6-2.5,0.6C203.6,129.4,202.8,129.2,202.2,128.7z M206.3,127.7
				c0.3-0.2,0.5-0.6,0.5-1.1s-0.2-0.9-0.5-1.1c-0.3-0.2-0.9-0.3-1.7-0.3c-0.8,0-1.3,0.1-1.6,0.3c-0.3,0.2-0.5,0.6-0.5,1.1
				c0,0.5,0.2,0.9,0.5,1.1c0.3,0.2,0.9,0.3,1.6,0.3C205.5,128,206,127.9,206.3,127.7z"/>
		</g>
		<g>
			<path class="st3" d="M207.9,119.5h-8.9v-1.4h8.9V119.5z"/>
		</g>
		<g>
			<path class="st3" d="M206.7,111.9l0-0.4l1,0c0.2,1,0.3,1.8,0.3,2.5c0,0.9-0.3,1.6-0.8,2c-0.5,0.4-1.3,0.6-2.5,0.6
				c-2.2,0-3.4-0.9-3.4-2.7c0-1.8,1-2.6,2.9-2.6l1,0.1v3.9c0.5,0,0.9-0.1,1.1-0.3s0.4-0.6,0.4-1.2
				C206.8,113.2,206.8,112.6,206.7,111.9z M204.2,112.7c-0.6,0-1.1,0.1-1.3,0.3c-0.2,0.2-0.4,0.5-0.4,1s0.1,0.8,0.4,1
				c0.3,0.2,0.7,0.3,1.3,0.3V112.7z"/>
		</g>
		<g>
			<path class="st3" d="M208.7,104.5c1.4,0,2.1,1,2.1,3c0,1-0.1,1.7-0.4,2.1c-0.3,0.5-0.7,0.7-1.4,0.7c-0.3,0-0.6-0.1-0.8-0.2
				c-0.2-0.2-0.5-0.4-0.7-0.7c-0.2,0.3-0.5,0.4-0.9,0.4c-0.2,0-0.4-0.1-0.8-0.3l-0.2-0.1c-0.4,0.6-1,0.9-1.9,0.9
				c-0.8,0-1.3-0.2-1.7-0.7c-0.4-0.5-0.5-1.1-0.5-1.8c0-0.4,0-0.7,0.1-1.1l0-0.2l-0.1-2h1.1l-0.1,1c0.3-0.2,0.6-0.3,1-0.3
				c0.8,0,1.4,0.2,1.7,0.6c0.3,0.4,0.5,1.1,0.5,1.9c0,0.2,0,0.4-0.1,0.6c0.3,0.1,0.5,0.2,0.7,0.2c0.2,0,0.3-0.1,0.3-0.2
				c0.1-0.2,0.1-0.5,0.1-1.1c0-1,0.1-1.7,0.4-2.1S208,104.5,208.7,104.5z M204.5,108.6c0.2-0.2,0.3-0.5,0.3-0.9s-0.1-0.7-0.3-0.9
				c-0.2-0.2-0.5-0.3-0.9-0.3s-0.7,0.1-0.9,0.3c-0.2,0.2-0.3,0.5-0.3,0.9c0,0.8,0.4,1.2,1.1,1.2C204,108.9,204.3,108.8,204.5,108.6z
				 M208.9,109c0.3,0,0.5-0.1,0.6-0.4c0.1-0.2,0.2-0.6,0.2-1.2c0-1-0.3-1.5-0.9-1.5c-0.3,0-0.5,0.1-0.6,0.3
				c-0.1,0.2-0.1,0.5-0.1,1.1l-0.1,1.2c0.2,0.2,0.3,0.3,0.4,0.4C208.5,108.9,208.7,109,208.9,109z"/>
		</g>
		<g>
			<path class="st3" d="M203.5,98.7h2.9c0.2,0,0.3-0.1,0.4-0.1c0.1-0.1,0.1-0.2,0.2-0.4l1,0c0,0.7-0.2,1.3-0.5,1.7
				c0.3,0.7,0.5,1.4,0.5,2c0,1.3-0.7,1.9-2,1.9c-0.6,0-1.1-0.2-1.4-0.5s-0.5-0.9-0.5-1.6l-0.1-1.6h-0.5c-0.3,0-0.6,0.1-0.7,0.2
				c-0.1,0.1-0.2,0.4-0.2,0.6c0,0.5,0,1.2,0.1,2l0,0.4l-1,0.1c-0.2-0.9-0.3-1.8-0.3-2.5c0-0.8,0.2-1.3,0.5-1.7
				C202.3,98.9,202.8,98.7,203.5,98.7z M205.1,101.6c0.1,0.6,0.4,0.9,0.9,0.9s0.9-0.3,0.9-0.8c0-0.4-0.1-0.9-0.2-1.3l-0.1-0.2h-1.7
				L205.1,101.6z"/>
		</g>
		<g>
			<path class="st3" d="M207.9,96.9h-8.9v-1.4h8.9V96.9z"/>
		</g>
		<g>
			<path class="st3" d="M200.5,93.8H199v-1.4h1.5V93.8z M207.9,93.8h-6.3v-1.4h6.3V93.8z"/>
		</g>
		<g>
			<path class="st3" d="M202.7,87.4v1.7h2.8c0.5,0,0.9,0,1-0.1c0.2-0.1,0.3-0.3,0.3-0.6l0-1l1.1-0.1c0.1,0.6,0.2,1,0.2,1.3
				c0,0.7-0.2,1.2-0.5,1.5c-0.3,0.3-0.9,0.4-1.9,0.4h-2.9v0.8h-1.2v-0.8h-1.8v-1.4h1.8v-1.7H202.7z"/>
		</g>
		<g>
			<path class="st3" d="M198.4,85.3l1.3-3l0.9,0.3l-1,3.1L198.4,85.3z M203.5,81.6h2.9c0.2,0,0.3-0.1,0.4-0.1
				c0.1-0.1,0.1-0.2,0.2-0.4l1,0c0,0.7-0.2,1.3-0.5,1.7c0.3,0.7,0.5,1.4,0.5,2c0,1.3-0.7,1.9-2,1.9c-0.6,0-1.1-0.2-1.4-0.5
				s-0.5-0.9-0.5-1.6l-0.1-1.6h-0.5c-0.3,0-0.6,0.1-0.7,0.2c-0.1,0.1-0.2,0.4-0.2,0.6c0,0.5,0,1.2,0.1,2l0,0.4l-1,0.1
				c-0.2-0.9-0.3-1.8-0.3-2.5c0-0.8,0.2-1.3,0.5-1.7C202.3,81.8,202.8,81.6,203.5,81.6z M205.1,84.4c0.1,0.6,0.4,0.9,0.9,0.9
				s0.9-0.3,0.9-0.8c0-0.4-0.1-0.9-0.2-1.3l-0.1-0.2h-1.7L205.1,84.4z"/>
		</g>
		<g>
			<path class="st3" d="M243.1,265.2c1.4,0,2.1,1,2.1,3c0,1-0.1,1.7-0.4,2.1s-0.7,0.7-1.4,0.7c-0.3,0-0.6-0.1-0.8-0.2
				c-0.2-0.2-0.5-0.4-0.7-0.7c-0.2,0.3-0.5,0.4-0.9,0.4c-0.2,0-0.4-0.1-0.8-0.3l-0.2-0.1c-0.4,0.6-1,0.9-1.9,0.9
				c-0.8,0-1.3-0.2-1.7-0.7c-0.4-0.5-0.5-1.1-0.5-1.8c0-0.4,0-0.7,0.1-1.1l0-0.2l-0.1-2h1.1l-0.1,1c0.3-0.2,0.6-0.3,1-0.3
				c0.8,0,1.4,0.2,1.7,0.6s0.5,1.1,0.5,1.9c0,0.2,0,0.4-0.1,0.6c0.3,0.1,0.5,0.2,0.7,0.2c0.2,0,0.3-0.1,0.3-0.2
				c0.1-0.2,0.1-0.5,0.1-1.1c0-1,0.1-1.7,0.4-2.1S242.4,265.2,243.1,265.2z M238.9,269.3c0.2-0.2,0.3-0.5,0.3-0.9s-0.1-0.7-0.3-0.9
				c-0.2-0.2-0.5-0.3-0.9-0.3s-0.7,0.1-0.9,0.3c-0.2,0.2-0.3,0.5-0.3,0.9c0,0.8,0.4,1.2,1.1,1.2
				C238.4,269.6,238.7,269.5,238.9,269.3z M243.2,269.7c0.3,0,0.5-0.1,0.6-0.4c0.1-0.2,0.2-0.6,0.2-1.2c0-1-0.3-1.5-0.9-1.5
				c-0.3,0-0.5,0.1-0.6,0.3c-0.1,0.2-0.1,0.5-0.1,1.1l-0.1,1.2c0.2,0.2,0.3,0.3,0.4,0.4C242.9,269.6,243,269.7,243.2,269.7z"/>
		</g>
		<g>
			<path class="st3" d="M234.9,264.1h-1.5v-1.4h1.5V264.1z M242.2,264.1h-6.3v-1.4h6.3V264.1z"/>
		</g>
		<g>
			<path class="st3" d="M235.9,257.2v-1.4h6.3v1.4h-0.4c0.4,0.6,0.5,1.2,0.5,1.7c0,0.9-0.2,1.4-0.7,1.7c-0.5,0.3-1.3,0.4-2.5,0.4
				h-3.3v-1.4h3.3c0.8,0,1.3-0.1,1.5-0.2c0.3-0.1,0.4-0.4,0.4-0.9c0-0.5-0.1-0.9-0.3-1.2l-0.1-0.2H235.9z"/>
		</g>
		<g>
			<path class="st3" d="M237.2,249.8c-0.1,1-0.2,1.7-0.2,2.2c0,0.4,0.1,0.8,0.2,0.9c0.1,0.2,0.3,0.3,0.5,0.3s0.4-0.1,0.5-0.3
				s0.2-0.6,0.3-1.3c0.1-0.7,0.3-1.2,0.6-1.5c0.3-0.3,0.7-0.4,1.4-0.4c0.7,0,1.2,0.2,1.5,0.6c0.3,0.4,0.5,1,0.5,1.9
				c0,0.5-0.1,1.2-0.2,1.9l-0.1,0.4l-1.1-0.1c0.1-1,0.2-1.7,0.2-2.2c0-0.4-0.1-0.8-0.2-1c-0.1-0.2-0.3-0.3-0.5-0.3
				c-0.3,0-0.4,0.1-0.5,0.3c-0.1,0.2-0.2,0.6-0.3,1.3c-0.1,0.7-0.3,1.2-0.5,1.5s-0.7,0.5-1.3,0.5s-1.1-0.2-1.5-0.7
				c-0.3-0.4-0.5-1-0.5-1.7c0-0.5,0.1-1.2,0.2-2l0.1-0.4L237.2,249.8z"/>
		</g>
		<g>
			<path class="st3" d="M237.1,244.9v1.7h2.8c0.5,0,0.9,0,1-0.1c0.2-0.1,0.3-0.3,0.3-0.6l0-1l1.1-0.1c0.1,0.6,0.2,1,0.2,1.3
				c0,0.7-0.2,1.2-0.5,1.5c-0.3,0.3-0.9,0.4-1.9,0.4h-2.9v0.8h-1.2V248h-1.8v-1.4h1.8v-1.7H237.1z"/>
		</g>
		<g>
			<path class="st3" d="M234.9,243.8h-1.5v-1.4h1.5V243.8z M242.2,243.8h-6.3v-1.4h6.3V243.8z"/>
		</g>
		<g>
			<path class="st3" d="M237.2,241.1h-1.2v-4.7h1.2l3.9,3v-3h1.2v4.7H241l-3.9-3V241.1z"/>
		</g>
		<g>
			<path class="st3" d="M234.9,235h-1.5v-1.4h1.5V235z M242.2,235h-6.3v-1.4h6.3V235z"/>
		</g>
		<g>
			<path class="st3" d="M237.9,227.3h2.9c0.2,0,0.3-0.1,0.4-0.1c0.1-0.1,0.1-0.2,0.2-0.4l1,0c0,0.7-0.2,1.3-0.5,1.7
				c0.3,0.7,0.5,1.4,0.5,2c0,1.3-0.7,1.9-2,1.9c-0.6,0-1.1-0.2-1.4-0.5s-0.5-0.9-0.5-1.6l-0.1-1.6h-0.5c-0.3,0-0.6,0.1-0.7,0.2
				c-0.1,0.1-0.2,0.4-0.2,0.7c0,0.5,0,1.2,0.1,2l0,0.4l-1,0.1c-0.2-0.9-0.3-1.8-0.3-2.5c0-0.8,0.2-1.3,0.5-1.7
				C236.6,227.5,237.2,227.3,237.9,227.3z M239.4,230.1c0.1,0.6,0.4,0.9,0.9,0.9s0.9-0.3,0.9-0.8c0-0.4-0.1-0.9-0.2-1.3l-0.1-0.2
				h-1.7L239.4,230.1z"/>
		</g>
		<g>
			<path class="st3" d="M272.3,270.7h-1.5v-1.4h1.5V270.7z M279.7,270.7h-6.3v-1.4h6.3V270.7z"/>
		</g>
		<g>
			<path class="st3" d="M279.7,266.3v1.4h-6.3v-1.4h0.4c-0.4-0.6-0.5-1.2-0.5-1.7c0-0.8,0.2-1.4,0.7-1.7c0.5-0.3,1.3-0.5,2.4-0.5
				h3.4v1.4h-3.3c-0.7,0-1.2,0.1-1.4,0.2c-0.3,0.1-0.4,0.4-0.4,0.9c0,0.4,0.1,0.8,0.3,1.2l0.1,0.2H279.7z"/>
		</g>
		<g>
			<path class="st3" d="M274.6,259.1h5.1v1.4h-5.1v0.7h-1.2v-0.7H273c-0.9,0-1.5-0.1-1.9-0.4c-0.3-0.3-0.5-0.7-0.5-1.4l0.1-1.4
				l1.1,0c0,0.4,0,0.8,0,1s0.1,0.5,0.2,0.6s0.5,0.2,0.9,0.2h0.4v-1.7h1.2V259.1z"/>
		</g>
		<g>
			<path class="st3" d="M279.7,256.4h-6.3v-1.4h0.8c-0.5-0.7-0.8-1.4-0.9-2.1h1.4c0.1,0.7,0.3,1.3,0.6,1.9l0.1,0.3h4.4V256.4z"/>
		</g>
		<g>
			<path class="st3" d="M275.3,247.2h2.9c0.2,0,0.3-0.1,0.4-0.1c0.1-0.1,0.1-0.2,0.2-0.4l1,0c0,0.7-0.2,1.3-0.5,1.7
				c0.3,0.7,0.5,1.4,0.5,2c0,1.3-0.7,1.9-2,1.9c-0.6,0-1.1-0.2-1.4-0.5c-0.3-0.3-0.5-0.9-0.5-1.6l-0.1-1.6h-0.5
				c-0.3,0-0.6,0.1-0.7,0.2c-0.1,0.1-0.2,0.4-0.2,0.7c0,0.5,0,1.2,0.1,2l0,0.4l-1,0.1c-0.2-0.9-0.3-1.8-0.3-2.5
				c0-0.8,0.2-1.3,0.5-1.7C274.1,247.4,274.6,247.2,275.3,247.2z M276.9,250c0.1,0.6,0.4,0.9,0.9,0.9s0.9-0.3,0.9-0.8
				c0-0.4-0.1-0.9-0.2-1.3l-0.1-0.2h-1.7L276.9,250z"/>
		</g>
		<g>
			<path class="st3" d="M274.7,241.1c-0.1,1-0.2,1.7-0.2,2.2c0,0.4,0.1,0.8,0.2,0.9c0.1,0.2,0.3,0.3,0.5,0.3c0.2,0,0.4-0.1,0.5-0.3
				c0.1-0.2,0.2-0.6,0.3-1.3c0.1-0.7,0.3-1.2,0.6-1.5c0.3-0.3,0.7-0.4,1.4-0.4s1.2,0.2,1.5,0.6c0.3,0.4,0.5,1,0.5,1.9
				c0,0.5-0.1,1.2-0.2,1.9l-0.1,0.4l-1.1-0.1c0.1-1,0.2-1.7,0.2-2.2c0-0.4-0.1-0.8-0.2-1c-0.1-0.2-0.3-0.3-0.5-0.3s-0.4,0.1-0.5,0.3
				c-0.1,0.2-0.2,0.6-0.3,1.3c-0.1,0.7-0.3,1.2-0.5,1.5s-0.7,0.5-1.3,0.5c-0.6,0-1.1-0.2-1.5-0.7c-0.3-0.4-0.5-1-0.5-1.7
				c0-0.5,0.1-1.2,0.2-2l0.1-0.4L274.7,241.1z"/>
		</g>
		<g>
			<path class="st3" d="M274.6,236.2v1.7h2.8c0.5,0,0.9,0,1-0.1c0.2-0.1,0.3-0.3,0.3-0.6l0-1l1.1-0.1c0.1,0.6,0.2,1,0.2,1.3
				c0,0.7-0.2,1.2-0.5,1.5c-0.3,0.3-0.9,0.4-1.9,0.4h-2.9v0.8h-1.2v-0.8h-1.8v-1.4h1.8v-1.7H274.6z"/>
		</g>
		<g>
			<path class="st3" d="M279.7,235.1h-6.3v-1.4h0.8c-0.5-0.7-0.8-1.4-0.9-2.1h1.4c0.1,0.7,0.3,1.3,0.6,1.9l0.1,0.3h4.4V235.1z"/>
		</g>
		<g>
			<path class="st3" d="M273.4,226.7v-1.4h6.3v1.4h-0.4c0.4,0.6,0.5,1.2,0.5,1.7c0,0.9-0.2,1.4-0.7,1.7c-0.5,0.3-1.3,0.4-2.5,0.4
				h-3.3v-1.4h3.3c0.8,0,1.3-0.1,1.5-0.2c0.3-0.1,0.4-0.4,0.4-0.9c0-0.5-0.1-0.9-0.3-1.2l-0.1-0.2H273.4z"/>
		</g>
		<g>
			<path class="st3" d="M274.6,220.3v1.7h2.8c0.5,0,0.9,0,1-0.1c0.2-0.1,0.3-0.3,0.3-0.6l0-1l1.1-0.1c0.1,0.6,0.2,1,0.2,1.3
				c0,0.7-0.2,1.2-0.5,1.5c-0.3,0.3-0.9,0.4-1.9,0.4h-2.9v0.8h-1.2v-0.8h-1.8V222h1.8v-1.7H274.6z"/>
		</g>
		<g>
			<path class="st3" d="M274.6,215.7v1.7h2.8c0.5,0,0.9,0,1-0.1c0.2-0.1,0.3-0.3,0.3-0.6l0-1l1.1-0.1c0.1,0.6,0.2,1,0.2,1.3
				c0,0.7-0.2,1.2-0.5,1.5c-0.3,0.3-0.9,0.4-1.9,0.4h-2.9v0.8h-1.2v-0.8h-1.8v-1.4h1.8v-1.7H274.6z"/>
		</g>
		<g>
			<path class="st3" d="M273.4,210.8v-1.4h6.3v1.4h-0.4c0.4,0.6,0.5,1.2,0.5,1.7c0,0.9-0.2,1.4-0.7,1.7c-0.5,0.3-1.3,0.4-2.5,0.4
				h-3.3v-1.4h3.3c0.8,0,1.3-0.1,1.5-0.2c0.3-0.1,0.4-0.4,0.4-0.9c0-0.5-0.1-0.9-0.3-1.2l-0.1-0.2H273.4z"/>
		</g>
		<g>
			<path class="st3" d="M279.7,207.8h-6.3v-1.4h0.8c-0.5-0.7-0.8-1.4-0.9-2.1h1.4c0.1,0.7,0.3,1.3,0.6,1.9l0.1,0.3h4.4V207.8z"/>
		</g>
		<g>
			<path class="st3" d="M278.6,198.8l0-0.4l1,0c0.2,1,0.3,1.8,0.3,2.5c0,0.9-0.3,1.6-0.8,2c-0.5,0.4-1.3,0.6-2.5,0.6
				c-2.2,0-3.4-0.9-3.4-2.7c0-1.8,1-2.7,2.9-2.7l1,0.1v3.9c0.5,0,0.9-0.1,1.1-0.3s0.4-0.6,0.4-1.2S278.6,199.4,278.6,198.8z
				 M276.1,199.5c-0.6,0-1.1,0.1-1.3,0.3c-0.2,0.2-0.4,0.5-0.4,1c0,0.5,0.1,0.8,0.4,1c0.3,0.2,0.7,0.3,1.3,0.3V199.5z"/>
		</g>
		<g>
			<path class="st3" d="M278.6,189.6l0-0.4l1,0c0.2,1,0.3,1.8,0.3,2.5c0,0.9-0.3,1.6-0.8,2c-0.5,0.4-1.3,0.6-2.5,0.6
				c-2.2,0-3.4-0.9-3.4-2.7c0-1.8,1-2.6,2.9-2.6l1,0.1v3.9c0.5,0,0.9-0.1,1.1-0.3s0.4-0.6,0.4-1.2
				C278.6,190.8,278.6,190.2,278.6,189.6z M276.1,190.3c-0.6,0-1.1,0.1-1.3,0.3s-0.4,0.5-0.4,1c0,0.5,0.1,0.8,0.4,1
				c0.3,0.2,0.7,0.3,1.3,0.3V190.3z"/>
		</g>
		<g>
			<path class="st3" d="M279.7,184.8h-8.9v-1.4h8.9V184.8z"/>
		</g>
		<g>
			<path class="st3" d="M274.1,181.3c-0.5-0.4-0.8-1.2-0.8-2.2s0.3-1.7,0.8-2.2c0.5-0.4,1.4-0.6,2.5-0.6s1.9,0.2,2.5,0.6
				s0.8,1.1,0.8,2.2s-0.3,1.8-0.8,2.2c-0.6,0.4-1.4,0.6-2.5,0.6S274.6,181.8,274.1,181.3z M278.2,180.3c0.3-0.2,0.5-0.6,0.5-1.1
				s-0.2-0.9-0.5-1.1c-0.3-0.2-0.9-0.3-1.7-0.3c-0.8,0-1.3,0.1-1.6,0.3s-0.5,0.6-0.5,1.1s0.2,0.9,0.5,1.1c0.3,0.2,0.9,0.3,1.6,0.3
				C277.3,180.6,277.8,180.5,278.2,180.3z"/>
		</g>
		<g>
			<path class="st3" d="M280.6,169.5c1.4,0,2.1,1,2.1,3c0,1-0.1,1.7-0.4,2.1c-0.3,0.5-0.7,0.7-1.4,0.7c-0.3,0-0.6-0.1-0.8-0.2
				c-0.2-0.2-0.5-0.4-0.7-0.7c-0.2,0.3-0.5,0.4-0.9,0.4c-0.2,0-0.4-0.1-0.8-0.3l-0.2-0.1c-0.4,0.6-1,0.9-1.9,0.9
				c-0.8,0-1.3-0.2-1.7-0.7c-0.4-0.5-0.5-1.1-0.5-1.8c0-0.4,0-0.7,0.1-1.1l0-0.2l-0.1-2h1.1l-0.1,1c0.3-0.2,0.6-0.3,1-0.3
				c0.8,0,1.4,0.2,1.7,0.6c0.3,0.4,0.5,1.1,0.5,1.9c0,0.2,0,0.4-0.1,0.6c0.3,0.1,0.5,0.2,0.7,0.2c0.2,0,0.3-0.1,0.3-0.2
				c0.1-0.2,0.1-0.5,0.1-1.1c0-1,0.1-1.7,0.4-2.1C279.3,169.7,279.8,169.5,280.6,169.5z M276.3,173.6c0.2-0.2,0.3-0.5,0.3-0.9
				s-0.1-0.7-0.3-0.9c-0.2-0.2-0.5-0.3-0.9-0.3s-0.7,0.1-0.9,0.3c-0.2,0.2-0.3,0.5-0.3,0.9c0,0.8,0.4,1.2,1.1,1.2
				C275.8,173.9,276.1,173.8,276.3,173.6z M280.7,174c0.3,0,0.5-0.1,0.6-0.4c0.1-0.2,0.2-0.6,0.2-1.2c0-1-0.3-1.5-0.9-1.5
				c-0.3,0-0.5,0.1-0.6,0.3c-0.1,0.2-0.1,0.5-0.1,1.1l-0.1,1.2c0.2,0.2,0.3,0.3,0.4,0.4C280.3,173.9,280.5,174,280.7,174z"/>
		</g>
		<g>
			<path class="st3" d="M272.3,168.4h-1.5V167h1.5V168.4z M279.7,168.4h-6.3V167h6.3V168.4z"/>
		</g>
		<g>
			<path class="st3" d="M274.7,161c-0.1,1-0.2,1.7-0.2,2.2c0,0.4,0.1,0.8,0.2,0.9c0.1,0.2,0.3,0.3,0.5,0.3c0.2,0,0.4-0.1,0.5-0.3
				c0.1-0.2,0.2-0.6,0.3-1.3c0.1-0.7,0.3-1.2,0.6-1.5c0.3-0.3,0.7-0.4,1.4-0.4s1.2,0.2,1.5,0.6c0.3,0.4,0.5,1,0.5,1.9
				c0,0.5-0.1,1.2-0.2,1.9l-0.1,0.4l-1.1-0.1c0.1-1,0.2-1.7,0.2-2.2c0-0.4-0.1-0.8-0.2-1c-0.1-0.2-0.3-0.3-0.5-0.3s-0.4,0.1-0.5,0.3
				c-0.1,0.2-0.2,0.6-0.3,1.3c-0.1,0.7-0.3,1.2-0.5,1.5s-0.7,0.5-1.3,0.5c-0.6,0-1.1-0.2-1.5-0.7c-0.3-0.4-0.5-1-0.5-1.7
				c0-0.5,0.1-1.2,0.2-2l0.1-0.4L274.7,161z"/>
		</g>
		<g>
			<path class="st3" d="M274.6,156v1.7h2.8c0.5,0,0.9,0,1-0.1c0.2-0.1,0.3-0.3,0.3-0.6l0-1l1.1-0.1c0.1,0.6,0.2,1,0.2,1.3
				c0,0.7-0.2,1.2-0.5,1.5s-0.9,0.4-1.9,0.4h-2.9v0.8h-1.2v-0.8h-1.8v-1.4h1.8V156H274.6z"/>
		</g>
		<g>
			<path class="st3" d="M272.3,154.9h-1.5v-1.4h1.5V154.9z M279.7,154.9h-6.3v-1.4h6.3V154.9z"/>
		</g>
		<g>
			<path class="st3" d="M273.3,149.5c0-0.4,0.1-1,0.2-1.6l0.1-0.3l1.1,0.1c-0.1,0.7-0.1,1.2-0.1,1.5c0,0.6,0.1,1.1,0.4,1.3
				c0.3,0.2,0.8,0.3,1.6,0.3c0.8,0,1.3-0.1,1.6-0.3s0.5-0.6,0.5-1.3l-0.1-1.5l1.1,0c0.2,0.8,0.2,1.5,0.2,1.9c0,1-0.3,1.6-0.8,2
				s-1.4,0.6-2.5,0.6s-2-0.2-2.5-0.6C273.5,151.1,273.3,150.4,273.3,149.5z"/>
		</g>
		<g>
			<path class="st3" d="M275.3,141.6h2.9c0.2,0,0.3-0.1,0.4-0.1s0.1-0.2,0.2-0.4l1,0c0,0.7-0.2,1.3-0.5,1.7c0.3,0.7,0.5,1.4,0.5,2
				c0,1.3-0.7,1.9-2,1.9c-0.6,0-1.1-0.2-1.4-0.5c-0.3-0.3-0.5-0.9-0.5-1.6l-0.1-1.6h-0.5c-0.3,0-0.6,0.1-0.7,0.2
				c-0.1,0.1-0.2,0.4-0.2,0.6c0,0.5,0,1.2,0.1,2l0,0.4l-1,0.1c-0.2-0.9-0.3-1.8-0.3-2.5c0-0.8,0.2-1.3,0.5-1.7
				C274.1,141.8,274.6,141.6,275.3,141.6z M276.9,144.5c0.1,0.6,0.4,0.9,0.9,0.9s0.9-0.3,0.9-0.8c0-0.4-0.1-0.9-0.2-1.3l-0.1-0.2
				h-1.7L276.9,144.5z"/>
		</g>
		<g>
			<path class="st3" d="M276.9,137.2h-1.2v-3.8h1.2V137.2z"/>
		</g>
		<g>
			<path class="st3" d="M279.7,127.7v1.4h-6.3v-1.4h0.4c-0.4-0.6-0.5-1.1-0.5-1.6c0-0.7,0.2-1.3,0.6-1.6c-0.4-0.8-0.6-1.5-0.6-2.3
				c0-0.8,0.2-1.3,0.7-1.6s1.3-0.5,2.4-0.5h3.4v1.4h-3.3c-0.7,0-1.2,0.1-1.4,0.2c-0.3,0.1-0.4,0.4-0.4,0.9c0,0.4,0.1,0.8,0.3,1.2
				l0.1,0.2c0.2-0.1,0.7-0.1,1.6-0.1h3.3v1.4h-3.2c-0.7,0-1.3,0.1-1.6,0.2c-0.3,0.1-0.4,0.4-0.4,0.9c0,0.4,0.1,0.8,0.3,1.2l0.1,0.2
				H279.7z"/>
		</g>
		<g>
			<path class="st3" d="M274.1,118.1c-0.5-0.4-0.8-1.2-0.8-2.2c0-1,0.3-1.7,0.8-2.2c0.5-0.4,1.4-0.6,2.5-0.6s1.9,0.2,2.5,0.6
				c0.6,0.4,0.8,1.1,0.8,2.2c0,1-0.3,1.8-0.8,2.2s-1.4,0.6-2.5,0.6S274.6,118.5,274.1,118.1z M278.2,117.1c0.3-0.2,0.5-0.6,0.5-1.1
				s-0.2-0.9-0.5-1.1c-0.3-0.2-0.9-0.3-1.7-0.3c-0.8,0-1.3,0.1-1.6,0.3s-0.5,0.6-0.5,1.1c0,0.5,0.2,0.9,0.5,1.1
				c0.3,0.2,0.9,0.3,1.6,0.3C277.3,117.4,277.8,117.3,278.2,117.1z"/>
		</g>
		<g>
			<path class="st3" d="M273.3,108.8c0-0.9,0.2-1.5,0.7-1.9c0.5-0.4,1.3-0.6,2.6-0.6c1.2,0,2.1,0.2,2.6,0.7c0.5,0.5,0.7,1.3,0.7,2.4
				c0,0.4,0,1-0.1,1.9l0,0.4h-8.9v-1.4h2.9C273.4,109.8,273.3,109.3,273.3,108.8z M278.6,109.5c0-0.7-0.2-1.1-0.5-1.3
				c-0.3-0.2-0.9-0.3-1.6-0.3c-0.8,0-1.3,0.1-1.6,0.3c-0.3,0.2-0.5,0.5-0.5,0.9c0,0.4,0.1,0.8,0.2,1.2l0.1,0.2h3.8
				C278.6,110,278.6,109.6,278.6,109.5z"/>
		</g>
		<g>
			<path class="st3" d="M272.3,105h-1.5v-1.4h1.5V105z M279.7,105h-6.3v-1.4h6.3V105z"/>
		</g>
		<g>
			<path class="st3" d="M279.7,101.9h-8.9v-1.4h8.9V101.9z"/>
		</g>
		<g>
			<path class="st3" d="M272.3,98.8h-1.5v-1.4h1.5V98.8z M279.7,98.8h-6.3v-1.4h6.3V98.8z"/>
		</g>
		<g>
			<path class="st3" d="M274.6,92.3v1.7h2.8c0.5,0,0.9,0,1-0.1c0.2-0.1,0.3-0.3,0.3-0.6l0-1l1.1-0.1c0.1,0.6,0.2,1,0.2,1.3
				c0,0.7-0.2,1.2-0.5,1.5c-0.3,0.3-0.9,0.4-1.9,0.4h-2.9v0.8h-1.2v-0.8h-1.8v-1.4h1.8v-1.7H274.6z"/>
		</g>
		<g>
			<path class="st3" d="M270.3,90.2l1.3-3l0.9,0.3l-1,3.1L270.3,90.2z M275.3,86.6h2.9c0.2,0,0.3-0.1,0.4-0.1s0.1-0.2,0.2-0.4l1,0
				c0,0.7-0.2,1.3-0.5,1.7c0.3,0.7,0.5,1.4,0.5,2c0,1.3-0.7,1.9-2,1.9c-0.6,0-1.1-0.2-1.4-0.5c-0.3-0.3-0.5-0.9-0.5-1.6l-0.1-1.6
				h-0.5c-0.3,0-0.6,0.1-0.7,0.2c-0.1,0.1-0.2,0.4-0.2,0.6c0,0.5,0,1.2,0.1,2l0,0.4l-1,0.1c-0.2-0.9-0.3-1.8-0.3-2.5
				c0-0.8,0.2-1.3,0.5-1.7C274.1,86.7,274.6,86.6,275.3,86.6z M276.9,89.4c0.1,0.6,0.4,0.9,0.9,0.9s0.9-0.3,0.9-0.8
				c0-0.4-0.1-0.9-0.2-1.3l-0.1-0.2h-1.7L276.9,89.4z"/>
		</g>
		<g>
			<path class="st3" d="M312.3,266.4c-0.1,1-0.2,1.7-0.2,2.2c0,0.4,0.1,0.8,0.2,0.9c0.1,0.2,0.3,0.3,0.5,0.3c0.2,0,0.4-0.1,0.5-0.3
				c0.1-0.2,0.2-0.6,0.3-1.3s0.3-1.2,0.6-1.5c0.3-0.3,0.7-0.4,1.4-0.4c0.7,0,1.2,0.2,1.5,0.6s0.5,1,0.5,1.9c0,0.5-0.1,1.2-0.2,1.9
				l-0.1,0.4l-1.1-0.1c0.1-1,0.2-1.7,0.2-2.2c0-0.4-0.1-0.8-0.2-1s-0.3-0.3-0.5-0.3c-0.3,0-0.4,0.1-0.5,0.3
				c-0.1,0.2-0.2,0.6-0.3,1.3s-0.3,1.2-0.5,1.5c-0.2,0.3-0.7,0.5-1.3,0.5c-0.6,0-1.1-0.2-1.5-0.7c-0.3-0.4-0.5-1-0.5-1.7
				c0-0.5,0.1-1.2,0.2-2l0.1-0.4L312.3,266.4z"/>
		</g>
		<g>
			<path class="st3" d="M311,265.5V264l5.1-1.2v-0.4l-5.1-1.3v-1.4l6.3,1.6v2.4L311,265.5z"/>
		</g>
		<g>
			<path class="st3" d="M309.9,258.7h-1.5v-1.4h1.5V258.7z M317.3,258.7H311v-1.4h6.3V258.7z"/>
		</g>
		<g>
			<path class="st3" d="M317.3,255.6h-8.9v-1.4h8.9V255.6z"/>
		</g>
		<g>
			<path class="st3" d="M311,248.6v-1.4h6.3v1.4h-0.4c0.4,0.6,0.5,1.2,0.5,1.7c0,0.9-0.2,1.4-0.7,1.7c-0.5,0.3-1.3,0.4-2.5,0.4H311
				v-1.4h3.3c0.8,0,1.3-0.1,1.5-0.2c0.3-0.1,0.4-0.4,0.4-0.9c0-0.5-0.1-0.9-0.3-1.2l-0.1-0.2H311z"/>
		</g>
		<g>
			<path class="st3" d="M320,245.6h-9v-1.4h0.4c-0.4-0.6-0.5-1.1-0.5-1.6c0-0.8,0.3-1.4,0.8-1.8c0.5-0.4,1.4-0.6,2.6-0.6
				s2,0.2,2.5,0.7s0.7,1.2,0.7,2.2c0,0.3,0,0.7-0.1,1.2h2.7V245.6z M312.1,242.9c0,0.4,0.1,0.8,0.3,1.2l0.1,0.2h3.7
				c0.1-0.3,0.1-0.7,0.1-1.1c0-0.6-0.2-1-0.5-1.2c-0.3-0.2-0.9-0.3-1.7-0.3C312.7,241.6,312.1,242,312.1,242.9z"/>
		</g>
		<g>
			<path class="st3" d="M320,238.8h-9v-1.4h0.4c-0.4-0.6-0.5-1.1-0.5-1.6c0-0.8,0.3-1.4,0.8-1.8c0.5-0.4,1.4-0.6,2.6-0.6
				s2,0.2,2.5,0.7s0.7,1.2,0.7,2.2c0,0.3,0,0.7-0.1,1.2h2.7V238.8z M312.1,236.1c0,0.4,0.1,0.8,0.3,1.2l0.1,0.2h3.7
				c0.1-0.3,0.1-0.7,0.1-1.1c0-0.6-0.2-1-0.5-1.2c-0.3-0.2-0.9-0.3-1.7-0.3C312.7,234.8,312.1,235.3,312.1,236.1z"/>
		</g>
		<g>
			<path class="st3" d="M311.7,231.7c-0.5-0.4-0.8-1.2-0.8-2.2c0-1,0.3-1.7,0.8-2.2s1.4-0.7,2.5-0.7c1.1,0,1.9,0.2,2.5,0.6
				c0.6,0.4,0.8,1.1,0.8,2.2c0,1-0.3,1.8-0.8,2.2c-0.6,0.4-1.4,0.6-2.5,0.6C313,232.4,312.2,232.1,311.7,231.7z M315.8,230.7
				c0.3-0.2,0.5-0.6,0.5-1.1s-0.2-0.9-0.5-1.1s-0.9-0.3-1.7-0.3s-1.3,0.1-1.6,0.3c-0.3,0.2-0.5,0.6-0.5,1.1c0,0.5,0.2,0.9,0.5,1.1
				c0.3,0.2,0.9,0.3,1.6,0.3S315.4,230.9,315.8,230.7z"/>
		</g>
		<g>
			<path class="st3" d="M316.1,218.1l0-0.4l1,0c0.2,1,0.3,1.8,0.3,2.5c0,0.9-0.3,1.6-0.8,2c-0.5,0.4-1.3,0.6-2.5,0.6
				c-2.2,0-3.4-0.9-3.4-2.7c0-1.8,1-2.7,2.9-2.7l1,0.1v3.9c0.5,0,0.9-0.1,1.1-0.3s0.4-0.6,0.4-1.2S316.2,218.7,316.1,218.1z
				 M313.6,218.9c-0.6,0-1.1,0.1-1.3,0.3c-0.2,0.2-0.4,0.5-0.4,1c0,0.5,0.1,0.8,0.4,1c0.3,0.2,0.7,0.3,1.3,0.3V218.9z"/>
		</g>
		<g>
			<path class="st3" d="M312.3,209c-0.1,1-0.2,1.7-0.2,2.2c0,0.4,0.1,0.8,0.2,0.9c0.1,0.2,0.3,0.3,0.5,0.3c0.2,0,0.4-0.1,0.5-0.3
				c0.1-0.2,0.2-0.6,0.3-1.3c0.1-0.7,0.3-1.2,0.6-1.5c0.3-0.3,0.7-0.4,1.4-0.4c0.7,0,1.2,0.2,1.5,0.6s0.5,1,0.5,1.9
				c0,0.5-0.1,1.2-0.2,1.9l-0.1,0.4l-1.1-0.1c0.1-1,0.2-1.7,0.2-2.2c0-0.4-0.1-0.8-0.2-1c-0.1-0.2-0.3-0.3-0.5-0.3
				c-0.3,0-0.4,0.1-0.5,0.3c-0.1,0.2-0.2,0.6-0.3,1.3s-0.3,1.2-0.5,1.5s-0.7,0.5-1.3,0.5c-0.6,0-1.1-0.2-1.5-0.7
				c-0.3-0.4-0.5-1-0.5-1.7c0-0.5,0.1-1.2,0.2-2l0.1-0.4L312.3,209z"/>
		</g>
		<g>
			<path class="st3" d="M311.7,207.1c-0.5-0.4-0.8-1.2-0.8-2.2c0-1,0.3-1.7,0.8-2.2s1.4-0.7,2.5-0.7c1.1,0,1.9,0.2,2.5,0.6
				c0.6,0.4,0.8,1.1,0.8,2.2c0,1-0.3,1.8-0.8,2.2c-0.6,0.4-1.4,0.6-2.5,0.6C313,207.8,312.2,207.6,311.7,207.1z M315.8,206.1
				c0.3-0.2,0.5-0.6,0.5-1.1s-0.2-0.9-0.5-1.1s-0.9-0.3-1.7-0.3s-1.3,0.1-1.6,0.3c-0.3,0.2-0.5,0.6-0.5,1.1c0,0.5,0.2,0.9,0.5,1.1
				c0.3,0.2,0.9,0.3,1.6,0.3S315.4,206.3,315.8,206.1z"/>
		</g>
		<g>
			<path class="st3" d="M312.3,196.4c-0.1,1-0.2,1.7-0.2,2.2c0,0.4,0.1,0.8,0.2,0.9c0.1,0.2,0.3,0.3,0.5,0.3c0.2,0,0.4-0.1,0.5-0.3
				c0.1-0.2,0.2-0.6,0.3-1.3c0.1-0.7,0.3-1.2,0.6-1.5c0.3-0.3,0.7-0.4,1.4-0.4c0.7,0,1.2,0.2,1.5,0.6s0.5,1,0.5,1.9
				c0,0.5-0.1,1.2-0.2,1.9l-0.1,0.4L316,201c0.1-1,0.2-1.7,0.2-2.2c0-0.4-0.1-0.8-0.2-1c-0.1-0.2-0.3-0.3-0.5-0.3
				c-0.3,0-0.4,0.1-0.5,0.3c-0.1,0.2-0.2,0.6-0.3,1.3s-0.3,1.2-0.5,1.5s-0.7,0.5-1.3,0.5c-0.6,0-1.1-0.2-1.5-0.7
				c-0.3-0.4-0.5-1-0.5-1.7c0-0.5,0.1-1.2,0.2-2l0.1-0.4L312.3,196.4z"/>
		</g>
		<g>
			<path class="st3" d="M312.1,191.5v1.7h2.8c0.5,0,0.9,0,1-0.1c0.2-0.1,0.3-0.3,0.3-0.6l0-1l1.1-0.1c0.1,0.6,0.2,1,0.2,1.3
				c0,0.7-0.2,1.2-0.5,1.5s-0.9,0.4-1.9,0.4h-2.9v0.8H311v-0.8h-1.8v-1.4h1.8v-1.7H312.1z"/>
		</g>
		<g>
			<path class="st3" d="M316.1,185.9l0-0.4l1,0c0.2,1,0.3,1.8,0.3,2.5c0,0.9-0.3,1.6-0.8,2c-0.5,0.4-1.3,0.6-2.5,0.6
				c-2.2,0-3.4-0.9-3.4-2.7c0-1.8,1-2.7,2.9-2.7l1,0.1v3.9c0.5,0,0.9-0.1,1.1-0.3s0.4-0.6,0.4-1.2S316.2,186.5,316.1,185.9z
				 M313.6,186.6c-0.6,0-1.1,0.1-1.3,0.3c-0.2,0.2-0.4,0.5-0.4,1c0,0.5,0.1,0.8,0.4,1c0.3,0.2,0.7,0.3,1.3,0.3V186.6z"/>
		</g>
		<g>
			<path class="st3" d="M317.3,182.6v1.4H311v-1.4h0.4c-0.4-0.6-0.5-1.2-0.5-1.7c0-0.8,0.2-1.4,0.7-1.7c0.5-0.3,1.3-0.5,2.4-0.5h3.4
				v1.4h-3.3c-0.7,0-1.2,0.1-1.5,0.2c-0.3,0.1-0.4,0.4-0.4,0.9c0,0.4,0.1,0.8,0.3,1.2l0.1,0.2H317.3z"/>
		</g>
		<g>
			<path class="st3" d="M309.9,177.1h-1.5v-1.4h1.5V177.1z M317.3,177.1H311v-1.4h6.3V177.1z"/>
		</g>
		<g>
			<path class="st3" d="M310.8,171.1c0-0.9,0.2-1.5,0.7-1.9c0.5-0.4,1.3-0.6,2.6-0.6s2.1,0.2,2.6,0.7c0.5,0.5,0.7,1.3,0.7,2.4
				c0,0.4,0,1-0.1,1.9l0,0.4h-8.9v-1.4h2.9C311,172.1,310.8,171.6,310.8,171.1z M316.2,171.7c0-0.7-0.2-1.1-0.5-1.3
				c-0.3-0.2-0.9-0.3-1.6-0.3c-0.8,0-1.3,0.1-1.6,0.3c-0.3,0.2-0.5,0.5-0.5,0.9c0,0.4,0.1,0.8,0.2,1.2l0.1,0.2h3.8
				C316.2,172.2,316.2,171.9,316.2,171.7z"/>
		</g>
		<g>
			<path class="st3" d="M309.9,167.3h-1.5v-1.4h1.5V167.3z M317.3,167.3H311v-1.4h6.3V167.3z"/>
		</g>
		<g>
			<path class="st3" d="M317.3,164.2h-8.9v-1.4h8.9V164.2z"/>
		</g>
		<g>
			<path class="st3" d="M309.9,161h-1.5v-1.4h1.5V161z M317.3,161H311v-1.4h6.3V161z"/>
		</g>
		<g>
			<path class="st3" d="M312.1,154.6v1.7h2.8c0.5,0,0.9,0,1-0.1c0.2-0.1,0.3-0.3,0.3-0.6l0-1l1.1-0.1c0.1,0.6,0.2,1,0.2,1.3
				c0,0.7-0.2,1.2-0.5,1.5s-0.9,0.4-1.9,0.4h-2.9v0.8H311v-0.8h-1.8v-1.4h1.8v-1.7H312.1z"/>
		</g>
		<g>
			<path class="st3" d="M307.8,152.5l1.3-3l0.9,0.3l-1,3.1L307.8,152.5z M312.9,148.8h2.9c0.2,0,0.3-0.1,0.4-0.1
				c0.1-0.1,0.1-0.2,0.2-0.4l1,0c0,0.7-0.2,1.3-0.5,1.7c0.3,0.7,0.5,1.4,0.5,2c0,1.3-0.7,1.9-2,1.9c-0.6,0-1.1-0.2-1.4-0.5
				c-0.3-0.3-0.5-0.9-0.5-1.6l-0.1-1.6h-0.5c-0.3,0-0.6,0.1-0.7,0.2c-0.1,0.1-0.2,0.4-0.2,0.6c0,0.5,0,1.2,0.1,2l0,0.4l-1,0.1
				c-0.2-0.9-0.3-1.8-0.3-2.5c0-0.8,0.2-1.3,0.5-1.7C311.7,149,312.2,148.8,312.9,148.8z M314.5,151.6c0.1,0.6,0.4,0.9,0.9,0.9
				s0.9-0.3,0.9-0.8c0-0.4-0.1-0.9-0.2-1.3l-0.1-0.2h-1.7L314.5,151.6z"/>
		</g>
		<g>
			<path class="st3" d="M348.4,267.8c0-0.9,0.2-1.5,0.7-1.9c0.5-0.4,1.3-0.6,2.6-0.6c1.2,0,2.1,0.2,2.6,0.7c0.5,0.5,0.7,1.3,0.7,2.4
				c0,0.4,0,1-0.1,1.9l0,0.4h-8.9v-1.4h2.9C348.5,268.8,348.4,268.3,348.4,267.8z M353.8,268.4c0-0.7-0.2-1.1-0.5-1.3
				c-0.3-0.2-0.9-0.3-1.6-0.3c-0.8,0-1.3,0.1-1.6,0.3c-0.3,0.2-0.5,0.5-0.5,0.9c0,0.4,0.1,0.8,0.2,1.2l0.1,0.2h3.8
				C353.8,268.9,353.8,268.6,353.8,268.4z"/>
		</g>
		<g>
			<path class="st3" d="M353.7,259.5l0-0.4l1,0c0.2,1,0.3,1.8,0.3,2.5c0,0.9-0.3,1.6-0.8,2c-0.5,0.4-1.3,0.6-2.5,0.6
				c-2.2,0-3.4-0.9-3.4-2.7c0-1.8,1-2.6,2.9-2.6l1,0.1v3.9c0.5,0,0.9-0.1,1.1-0.3s0.4-0.6,0.4-1.2
				C353.8,260.7,353.8,260.1,353.7,259.5z M351.2,260.2c-0.6,0-1.1,0.1-1.3,0.3s-0.4,0.5-0.4,1c0,0.5,0.1,0.8,0.4,1
				c0.3,0.2,0.7,0.3,1.3,0.3V260.2z"/>
		</g>
		<g>
			<path class="st3" d="M354.9,256.2v1.4h-6.3v-1.4h0.4c-0.4-0.6-0.5-1.2-0.5-1.7c0-0.8,0.2-1.4,0.7-1.7c0.5-0.3,1.3-0.5,2.4-0.5
				h3.4v1.4h-3.3c-0.7,0-1.2,0.1-1.4,0.2c-0.3,0.1-0.4,0.4-0.4,0.9c0,0.4,0.1,0.8,0.3,1.2l0.1,0.2H354.9z"/>
		</g>
		<g>
			<path class="st3" d="M347.5,250.7H346v-1.4h1.5V250.7z M354.9,250.7h-6.3v-1.4h6.3V250.7z"/>
		</g>
		<g>
			<path class="st3" d="M348.4,245.3c0-0.4,0.1-1,0.2-1.6l0.1-0.3l1.1,0.1c-0.1,0.7-0.1,1.2-0.1,1.5c0,0.6,0.1,1.1,0.4,1.3
				c0.3,0.2,0.8,0.3,1.6,0.3c0.8,0,1.3-0.1,1.6-0.3c0.3-0.2,0.5-0.6,0.5-1.3l-0.1-1.5l1.1,0c0.2,0.8,0.2,1.5,0.2,1.9
				c0,1-0.3,1.6-0.8,2c-0.5,0.4-1.4,0.6-2.5,0.6s-2-0.2-2.5-0.6C348.7,246.9,348.4,246.2,348.4,245.3z"/>
		</g>
		<g>
			<path class="st3" d="M348.5,238.2v-1.4h6.3v1.4h-0.4c0.4,0.6,0.5,1.2,0.5,1.7c0,0.9-0.2,1.4-0.7,1.7c-0.5,0.3-1.3,0.4-2.5,0.4
				h-3.3v-1.4h3.3c0.8,0,1.3-0.1,1.5-0.2c0.3-0.1,0.4-0.4,0.4-0.9c0-0.5-0.1-0.9-0.3-1.2l-0.1-0.2H348.5z"/>
		</g>
		<g>
			<path class="st3" d="M354.9,235.1h-8.9v-1.4h8.9V235.1z"/>
		</g>
		<g>
			<path class="st3" d="M349.7,228.6v1.7h2.8c0.5,0,0.9,0,1-0.1c0.2-0.1,0.3-0.3,0.3-0.6l0-1l1.1-0.1c0.1,0.6,0.2,1,0.2,1.3
				c0,0.7-0.2,1.2-0.5,1.5s-0.9,0.4-1.9,0.4h-2.9v0.8h-1.2v-0.8h-1.8v-1.4h1.8v-1.7H349.7z"/>
		</g>
		<g>
			<path class="st3" d="M348.5,223.7v-1.4h6.3v1.4h-0.4c0.4,0.6,0.5,1.2,0.5,1.7c0,0.9-0.2,1.4-0.7,1.7c-0.5,0.3-1.3,0.4-2.5,0.4
				h-3.3v-1.4h3.3c0.8,0,1.3-0.1,1.5-0.2c0.3-0.1,0.4-0.4,0.4-0.9c0-0.5-0.1-0.9-0.3-1.2l-0.1-0.2H348.5z"/>
		</g>
		<g>
			<path class="st3" d="M354.9,220.6h-6.3v-1.4h0.8c-0.5-0.7-0.8-1.4-0.9-2.1h1.4c0.1,0.7,0.3,1.3,0.6,1.9l0.1,0.3h4.4V220.6z"/>
		</g>
		<g>
			<path class="st3" d="M350.5,211.4h2.9c0.2,0,0.3-0.1,0.4-0.1c0.1-0.1,0.1-0.2,0.2-0.4l1,0c0,0.7-0.2,1.3-0.5,1.7
				c0.3,0.7,0.5,1.3,0.5,2c0,1.3-0.7,1.9-2,1.9c-0.6,0-1.1-0.2-1.4-0.5c-0.3-0.3-0.5-0.9-0.5-1.6l-0.1-1.6h-0.5
				c-0.3,0-0.6,0.1-0.7,0.2c-0.1,0.1-0.2,0.4-0.2,0.6c0,0.5,0,1.2,0.1,2l0,0.4l-1,0c-0.2-0.9-0.3-1.8-0.3-2.5s0.2-1.3,0.5-1.7
				C349.2,211.6,349.8,211.4,350.5,211.4z M352.1,214.2c0.1,0.6,0.4,0.9,0.9,0.9s0.9-0.3,0.9-0.8c0-0.4-0.1-0.9-0.2-1.3l-0.1-0.2
				h-1.7L352.1,214.2z"/>
		</g>
		<g>
			<path class="st3" d="M354.9,209.6h-8.9v-1.4h8.9V209.6z"/>
		</g>
		<g>
			<path class="st3" d="M347.5,206.5H346v-1.4h1.5V206.5z M354.9,206.5h-6.3v-1.4h6.3V206.5z"/>
		</g>
		<g>
			<path class="st3" d="M353.7,196.2l0-0.4l1,0c0.2,1,0.3,1.8,0.3,2.5c0,0.9-0.3,1.6-0.8,2c-0.5,0.4-1.3,0.6-2.5,0.6
				c-2.2,0-3.4-0.9-3.4-2.7c0-1.8,1-2.6,2.9-2.6l1,0.1v3.9c0.5,0,0.9-0.1,1.1-0.3s0.4-0.6,0.4-1.2
				C353.8,197.4,353.8,196.8,353.7,196.2z M351.2,196.9c-0.6,0-1.1,0.1-1.3,0.3s-0.4,0.5-0.4,1c0,0.5,0.1,0.8,0.4,1
				c0.3,0.2,0.7,0.3,1.3,0.3V196.9z"/>
		</g>
		<g>
			<path class="st3" d="M349.7,188.1v1.7h2.8c0.5,0,0.9,0,1-0.1c0.2-0.1,0.3-0.3,0.3-0.6l0-1l1.1-0.1c0.1,0.6,0.2,1,0.2,1.3
				c0,0.7-0.2,1.2-0.5,1.5s-0.9,0.4-1.9,0.4h-2.9v0.8h-1.2v-0.8h-1.8v-1.4h1.8v-1.7H349.7z"/>
		</g>
		<g>
			<path class="st3" d="M348.5,183.2v-1.4h6.3v1.4h-0.4c0.4,0.6,0.5,1.2,0.5,1.7c0,0.9-0.2,1.4-0.7,1.7c-0.5,0.3-1.3,0.4-2.5,0.4
				h-3.3v-1.4h3.3c0.8,0,1.3-0.1,1.5-0.2c0.3-0.1,0.4-0.4,0.4-0.9c0-0.5-0.1-0.9-0.3-1.2l-0.1-0.2H348.5z"/>
		</g>
		<g>
			<path class="st3" d="M354.9,180.1h-6.3v-1.4h0.8c-0.5-0.7-0.8-1.4-0.9-2.1h1.4c0.1,0.7,0.3,1.3,0.6,1.9l0.1,0.3h4.4V180.1z"/>
		</g>
		<g>
			<path class="st3" d="M347.5,175.6H346v-1.4h1.5V175.6z M354.9,175.6h-6.3v-1.4h6.3V175.6z"/>
		</g>
		<g>
			<path class="st3" d="M349.8,168.2c-0.1,1-0.2,1.7-0.2,2.2c0,0.4,0.1,0.8,0.2,0.9c0.1,0.2,0.3,0.3,0.5,0.3c0.2,0,0.4-0.1,0.5-0.3
				c0.1-0.2,0.2-0.6,0.3-1.3c0.1-0.7,0.3-1.2,0.6-1.5c0.3-0.3,0.7-0.4,1.4-0.4s1.2,0.2,1.5,0.6c0.3,0.4,0.5,1,0.5,1.9
				c0,0.5-0.1,1.2-0.2,1.9l-0.1,0.4l-1.1-0.1c0.1-1,0.2-1.7,0.2-2.2c0-0.4-0.1-0.8-0.2-1s-0.3-0.3-0.5-0.3s-0.4,0.1-0.5,0.3
				c-0.1,0.2-0.2,0.6-0.3,1.3c-0.1,0.7-0.3,1.2-0.5,1.5c-0.2,0.3-0.7,0.5-1.3,0.5c-0.6,0-1.1-0.2-1.5-0.7c-0.3-0.4-0.5-1-0.5-1.7
				c0-0.5,0.1-1.2,0.2-2l0.1-0.4L349.8,168.2z"/>
		</g>
		<g>
			<path class="st3" d="M354.9,165.2v1.4h-6.3v-1.4h0.4c-0.4-0.6-0.5-1.1-0.5-1.6c0-0.7,0.2-1.3,0.6-1.6c-0.4-0.8-0.6-1.5-0.6-2.3
				s0.2-1.3,0.7-1.6c0.5-0.3,1.3-0.5,2.4-0.5h3.4v1.4h-3.3c-0.7,0-1.2,0.1-1.4,0.2c-0.3,0.1-0.4,0.4-0.4,0.9c0,0.4,0.1,0.8,0.3,1.2
				l0.1,0.2c0.2-0.1,0.7-0.1,1.6-0.1h3.3v1.4h-3.2c-0.7,0-1.3,0.1-1.6,0.2c-0.3,0.1-0.4,0.4-0.4,0.9c0,0.4,0.1,0.8,0.3,1.2l0.1,0.2
				H354.9z"/>
		</g>
		<g>
			<path class="st3" d="M349.2,155.7c-0.5-0.4-0.8-1.2-0.8-2.2c0-1,0.3-1.7,0.8-2.2c0.5-0.4,1.4-0.6,2.5-0.6s1.9,0.2,2.5,0.6
				c0.6,0.4,0.8,1.1,0.8,2.2c0,1-0.3,1.8-0.8,2.2c-0.6,0.4-1.4,0.6-2.5,0.6S349.8,156.1,349.2,155.7z M353.3,154.7
				c0.3-0.2,0.5-0.6,0.5-1.1s-0.2-0.9-0.5-1.1c-0.3-0.2-0.9-0.3-1.7-0.3c-0.8,0-1.3,0.1-1.6,0.3s-0.5,0.6-0.5,1.1
				c0,0.5,0.2,0.9,0.5,1.1s0.9,0.3,1.6,0.3C352.4,155,353,154.9,353.3,154.7z"/>
		</g>
		<g>
			<path class="st3" d="M386,268.4c0-0.4,0.1-1,0.2-1.6l0.1-0.3l1.1,0c-0.1,0.7-0.1,1.2-0.1,1.5c0,0.6,0.1,1.1,0.4,1.3
				s0.8,0.3,1.6,0.3s1.3-0.1,1.6-0.3c0.3-0.2,0.5-0.6,0.5-1.3l-0.1-1.5l1.1,0c0.2,0.8,0.2,1.5,0.2,1.9c0,1-0.3,1.6-0.8,2
				c-0.5,0.4-1.4,0.6-2.5,0.6s-2-0.2-2.5-0.6S386,269.3,386,268.4z"/>
		</g>
		<g>
			<path class="st3" d="M386.8,264.9c-0.5-0.4-0.8-1.2-0.8-2.2c0-1,0.3-1.7,0.8-2.2s1.4-0.7,2.5-0.7c1.1,0,1.9,0.2,2.5,0.6
				c0.6,0.4,0.8,1.1,0.8,2.2c0,1-0.3,1.8-0.8,2.2c-0.6,0.4-1.4,0.6-2.5,0.6C388.2,265.5,387.4,265.3,386.8,264.9z M390.9,263.8
				c0.3-0.2,0.5-0.6,0.5-1.1s-0.2-0.9-0.5-1.1s-0.9-0.3-1.7-0.3s-1.3,0.1-1.6,0.3c-0.3,0.2-0.5,0.6-0.5,1.1c0,0.5,0.2,0.9,0.5,1.1
				c0.3,0.2,0.9,0.3,1.6,0.3S390.6,264,390.9,263.8z"/>
		</g>
		<g>
			<path class="st3" d="M392.4,257.2v1.4h-6.3v-1.4h0.4c-0.4-0.6-0.5-1.1-0.5-1.6c0-0.7,0.2-1.3,0.6-1.6c-0.4-0.8-0.6-1.5-0.6-2.3
				c0-0.8,0.2-1.3,0.7-1.6c0.5-0.3,1.3-0.5,2.4-0.5h3.4v1.4h-3.3c-0.7,0-1.2,0.1-1.5,0.2s-0.4,0.4-0.4,0.9c0,0.4,0.1,0.8,0.3,1.2
				l0.1,0.2c0.2-0.1,0.7-0.1,1.6-0.1h3.3v1.4h-3.2c-0.8,0-1.3,0.1-1.6,0.2s-0.4,0.4-0.4,0.9c0,0.4,0.1,0.8,0.3,1.2l0.1,0.2H392.4z"
				/>
		</g>
		<g>
			<path class="st3" d="M386.1,244.1v-1.4h6.3v1.4H392c0.4,0.6,0.5,1.2,0.5,1.7c0,0.9-0.2,1.4-0.7,1.7c-0.5,0.3-1.3,0.4-2.5,0.4
				h-3.3v-1.4h3.3c0.8,0,1.3-0.1,1.5-0.2s0.4-0.4,0.4-0.9c0-0.5-0.1-0.9-0.3-1.2l-0.1-0.2H386.1z"/>
		</g>
		<g>
			<path class="st3" d="M392.4,239.7v1.4h-6.3v-1.4h0.4c-0.4-0.6-0.5-1.2-0.5-1.7c0-0.8,0.2-1.4,0.7-1.7c0.5-0.3,1.3-0.5,2.4-0.5
				h3.4v1.4h-3.3c-0.7,0-1.2,0.1-1.5,0.2c-0.3,0.1-0.4,0.4-0.4,0.9c0,0.4,0.1,0.8,0.3,1.2l0.1,0.2H392.4z"/>
		</g>
		<g>
			<path class="st3" d="M385.1,234.2h-1.5v-1.4h1.5V234.2z M392.4,234.2h-6.3v-1.4h6.3V234.2z"/>
		</g>
		<g>
			<path class="st3" d="M386,228.8c0-0.4,0.1-1,0.2-1.6l0.1-0.3l1.1,0.1c-0.1,0.7-0.1,1.2-0.1,1.5c0,0.6,0.1,1.1,0.4,1.3
				s0.8,0.3,1.6,0.3s1.3-0.1,1.6-0.3c0.3-0.2,0.5-0.6,0.5-1.3l-0.1-1.5l1.1,0c0.2,0.8,0.2,1.5,0.2,1.9c0,1-0.3,1.6-0.8,2
				c-0.5,0.4-1.4,0.6-2.5,0.6s-2-0.2-2.5-0.6S386,229.8,386,228.8z"/>
		</g>
		<g>
			<path class="st3" d="M388.1,220.9h2.9c0.2,0,0.3-0.1,0.4-0.1c0.1-0.1,0.1-0.2,0.2-0.4l1,0c0,0.7-0.2,1.3-0.5,1.7
				c0.3,0.7,0.5,1.3,0.5,2c0,1.3-0.7,1.9-2,1.9c-0.6,0-1.1-0.2-1.4-0.5c-0.3-0.3-0.5-0.9-0.5-1.6l-0.1-1.6h-0.5
				c-0.3,0-0.6,0.1-0.7,0.2s-0.2,0.4-0.2,0.6c0,0.5,0,1.2,0.1,2l0,0.4l-1,0c-0.2-0.9-0.3-1.8-0.3-2.5s0.2-1.3,0.5-1.7
				C386.8,221.1,387.3,220.9,388.1,220.9z M389.6,223.8c0.1,0.6,0.4,0.9,0.9,0.9s0.9-0.3,0.9-0.8c0-0.4-0.1-0.9-0.2-1.3l-0.1-0.2
				h-1.7L389.6,223.8z"/>
		</g>
		<g>
			<path class="st3" d="M387.3,219.5h-1.2v-4.7h1.2l3.9,3v-3h1.2v4.7h-1.2l-3.9-3V219.5z"/>
		</g>
		<g>
			<path class="st3" d="M385.1,213.5h-1.5v-1.4h1.5V213.5z M392.4,213.5h-6.3v-1.4h6.3V213.5z"/>
		</g>
		<g>
			<path class="st3" d="M386.8,210.1c-0.5-0.4-0.8-1.2-0.8-2.2c0-1,0.3-1.7,0.8-2.2s1.4-0.7,2.5-0.7c1.1,0,1.9,0.2,2.5,0.6
				c0.6,0.4,0.8,1.1,0.8,2.2c0,1-0.3,1.8-0.8,2.2c-0.6,0.4-1.4,0.6-2.5,0.6C388.2,210.7,387.4,210.5,386.8,210.1z M390.9,209.1
				c0.3-0.2,0.5-0.6,0.5-1.1s-0.2-0.9-0.5-1.1s-0.9-0.3-1.7-0.3s-1.3,0.1-1.6,0.3c-0.3,0.2-0.5,0.6-0.5,1.1c0,0.5,0.2,0.9,0.5,1.1
				c0.3,0.2,0.9,0.3,1.6,0.3S390.6,209.3,390.9,209.1z"/>
		</g>
		<g>
			<path class="st3" d="M392.4,202.4v1.4h-6.3v-1.4h0.4c-0.4-0.6-0.5-1.2-0.5-1.7c0-0.8,0.2-1.4,0.7-1.7c0.5-0.3,1.3-0.5,2.4-0.5
				h3.4v1.4h-3.3c-0.7,0-1.2,0.1-1.5,0.2c-0.3,0.1-0.4,0.4-0.4,0.9c0,0.4,0.1,0.8,0.3,1.2l0.1,0.2H392.4z"/>
		</g>
		<g>
			<path class="st3" d="M385.1,196.9h-1.5v-1.4h1.5V196.9z M392.4,196.9h-6.3v-1.4h6.3V196.9z"/>
		</g>
		<g>
			<path class="st3" d="M421.7,266.1h2.9c0.2,0,0.3-0.1,0.4-0.1c0.1-0.1,0.1-0.2,0.2-0.4l1,0c0,0.7-0.2,1.3-0.5,1.7
				c0.3,0.7,0.5,1.3,0.5,2c0,1.3-0.7,1.9-2,1.9c-0.6,0-1.1-0.2-1.4-0.5c-0.3-0.3-0.5-0.9-0.5-1.6l-0.1-1.6h-0.5
				c-0.3,0-0.6,0.1-0.7,0.2s-0.2,0.4-0.2,0.6c0,0.5,0,1.2,0.1,2l0,0.4l-1,0c-0.2-0.9-0.3-1.8-0.3-2.5s0.2-1.3,0.5-1.7
				C420.5,266.2,421,266.1,421.7,266.1z M423.3,268.9c0.1,0.6,0.4,0.9,0.9,0.9s0.9-0.3,0.9-0.8c0-0.4-0.1-0.9-0.2-1.3l-0.1-0.2h-1.7
				L423.3,268.9z"/>
		</g>
		<g>
			<path class="st3" d="M426.9,258.8c1.4,0,2.1,1,2.1,3c0,1-0.1,1.7-0.4,2.1c-0.3,0.5-0.7,0.7-1.4,0.7c-0.3,0-0.6-0.1-0.8-0.2
				s-0.5-0.4-0.7-0.7c-0.2,0.3-0.5,0.4-0.9,0.4c-0.2,0-0.4-0.1-0.8-0.3l-0.2-0.1c-0.4,0.6-1,0.9-1.9,0.9c-0.8,0-1.3-0.2-1.7-0.7
				c-0.4-0.5-0.5-1.1-0.5-1.8c0-0.4,0-0.7,0.1-1.1l0-0.2l-0.1-2h1.1l-0.1,1c0.3-0.2,0.6-0.3,1-0.3c0.8,0,1.4,0.2,1.7,0.6
				c0.3,0.4,0.5,1.1,0.5,1.9c0,0.2,0,0.4-0.1,0.6c0.3,0.1,0.5,0.2,0.7,0.2s0.3-0.1,0.3-0.2c0.1-0.2,0.1-0.5,0.1-1.1
				c0-1,0.1-1.7,0.4-2.1C425.7,259,426.2,258.8,426.9,258.8z M422.7,262.9c0.2-0.2,0.3-0.5,0.3-0.9s-0.1-0.7-0.3-0.9
				c-0.2-0.2-0.5-0.3-0.9-0.3s-0.7,0.1-0.9,0.3c-0.2,0.2-0.3,0.5-0.3,0.9c0,0.8,0.4,1.2,1.1,1.2
				C422.2,263.2,422.5,263.1,422.7,262.9z M427.1,263.3c0.3,0,0.5-0.1,0.6-0.4c0.1-0.2,0.2-0.6,0.2-1.2c0-1-0.3-1.5-0.9-1.5
				c-0.3,0-0.5,0.1-0.6,0.3s-0.1,0.5-0.1,1.1l-0.1,1.2c0.2,0.2,0.3,0.3,0.4,0.4C426.7,263.2,426.9,263.3,427.1,263.3z"/>
		</g>
		<g>
			<path class="st3" d="M426.1,257.7h-6.3v-1.4h0.8c-0.5-0.7-0.8-1.4-0.9-2.1h1.4c0.1,0.7,0.3,1.3,0.6,1.9l0.1,0.3h4.4V257.7z"/>
		</g>
		<g>
			<path class="st3" d="M418.7,253.2h-1.5v-1.4h1.5V253.2z M426.1,253.2h-6.3v-1.4h6.3V253.2z"/>
		</g>
		<g>
			<path class="st3" d="M419.6,247.8c0-0.4,0.1-1,0.2-1.6l0.1-0.3l1.1,0.1c-0.1,0.7-0.1,1.2-0.1,1.5c0,0.6,0.1,1.1,0.4,1.3
				s0.8,0.3,1.6,0.3s1.3-0.1,1.6-0.3c0.3-0.2,0.5-0.6,0.5-1.3l-0.1-1.5l1.1,0c0.2,0.8,0.2,1.5,0.2,1.9c0,1-0.3,1.6-0.8,2
				c-0.5,0.4-1.4,0.6-2.5,0.6s-2-0.2-2.5-0.6S419.6,248.7,419.6,247.8z"/>
		</g>
		<g>
			<path class="st3" d="M420.5,244.3c-0.5-0.4-0.8-1.2-0.8-2.2c0-1,0.3-1.7,0.8-2.2s1.4-0.7,2.5-0.7c1.1,0,1.9,0.2,2.5,0.6
				c0.6,0.4,0.8,1.1,0.8,2.2c0,1-0.3,1.8-0.8,2.2c-0.6,0.4-1.4,0.6-2.5,0.6C421.8,244.9,421,244.7,420.5,244.3z M424.6,243.2
				c0.3-0.2,0.5-0.6,0.5-1.1s-0.2-0.9-0.5-1.1s-0.9-0.3-1.7-0.3s-1.3,0.1-1.6,0.3c-0.3,0.2-0.5,0.6-0.5,1.1c0,0.5,0.2,0.9,0.5,1.1
				c0.3,0.2,0.9,0.3,1.6,0.3S424.2,243.4,424.6,243.2z"/>
		</g>
		<g>
			<path class="st3" d="M426.1,237.8h-8.9v-1.4h8.9V237.8z"/>
		</g>
		<g>
			<path class="st3" d="M421,231.3v1.7h2.8c0.5,0,0.9,0,1-0.1c0.2-0.1,0.3-0.3,0.3-0.6l0-1l1.1-0.1c0.1,0.6,0.2,1,0.2,1.3
				c0,0.7-0.2,1.2-0.5,1.5c-0.3,0.3-0.9,0.4-1.9,0.4H421v0.8h-1.2v-0.8h-1.8v-1.4h1.8v-1.7H421z"/>
		</g>
		<g>
			<path class="st3" d="M419.8,226.4V225h6.3v1.4h-0.4c0.4,0.6,0.5,1.2,0.5,1.7c0,0.9-0.2,1.4-0.7,1.7c-0.5,0.3-1.3,0.4-2.5,0.4
				h-3.3v-1.4h3.3c0.8,0,1.3-0.1,1.5-0.2s0.4-0.4,0.4-0.9c0-0.5-0.1-0.9-0.3-1.2l-0.1-0.2H419.8z"/>
		</g>
		<g>
			<path class="st3" d="M426.1,223.4h-6.3V222h0.8c-0.5-0.7-0.8-1.4-0.9-2.1h1.4c0.1,0.7,0.3,1.3,0.6,1.9l0.1,0.3h4.4V223.4z"/>
		</g>
		<g>
			<path class="st3" d="M421.7,214.1h2.9c0.2,0,0.3-0.1,0.4-0.1c0.1-0.1,0.1-0.2,0.2-0.4l1,0c0,0.7-0.2,1.3-0.5,1.7
				c0.3,0.7,0.5,1.3,0.5,2c0,1.3-0.7,1.9-2,1.9c-0.6,0-1.1-0.2-1.4-0.5c-0.3-0.3-0.5-0.9-0.5-1.6l-0.1-1.6h-0.5
				c-0.3,0-0.6,0.1-0.7,0.2s-0.2,0.4-0.2,0.6c0,0.5,0,1.2,0.1,2l0,0.4l-1,0c-0.2-0.9-0.3-1.8-0.3-2.5s0.2-1.3,0.5-1.7
				C420.5,214.3,421,214.1,421.7,214.1z M423.3,217c0.1,0.6,0.4,0.9,0.9,0.9s0.9-0.3,0.9-0.8c0-0.4-0.1-0.9-0.2-1.3l-0.1-0.2h-1.7
				L423.3,217z"/>
		</g>
		<g>
			<path class="st3" d="M463.7,270.7h-8.9v-1.4h8.9V270.7z"/>
		</g>
		<g>
			<path class="st3" d="M457.9,267.8l-3-0.6v-1.4l3,1V267.8z"/>
		</g>
		<g>
			<path class="st3" d="M463.7,264.4H455V263h8.6V264.4z"/>
		</g>
		<g>
			<path class="st3" d="M458.5,257.7v1.7h2.8c0.5,0,0.9,0,1-0.1c0.2-0.1,0.3-0.3,0.3-0.6l0-1l1.1-0.1c0.1,0.6,0.2,1,0.2,1.3
				c0,0.7-0.2,1.2-0.5,1.5s-0.9,0.4-1.9,0.4h-2.9v0.8h-1.2v-0.8h-1.8v-1.4h1.8v-1.7H458.5z"/>
		</g>
		<g>
			<path class="st3" d="M459.3,252h2.9c0.2,0,0.3-0.1,0.4-0.1c0.1-0.1,0.1-0.2,0.2-0.4l1,0c0,0.7-0.2,1.3-0.5,1.7
				c0.3,0.7,0.5,1.4,0.5,2c0,1.3-0.7,1.9-2,1.9c-0.6,0-1.1-0.2-1.4-0.5c-0.3-0.3-0.5-0.9-0.5-1.6l-0.1-1.6h-0.5
				c-0.3,0-0.6,0.1-0.7,0.2c-0.1,0.1-0.2,0.4-0.2,0.7c0,0.5,0,1.2,0.1,2l0,0.4l-1,0.1c-0.2-0.9-0.3-1.8-0.3-2.5
				c0-0.8,0.2-1.3,0.5-1.7C458,252.1,458.6,252,459.3,252z M460.9,254.8c0.1,0.6,0.4,0.9,0.9,0.9s0.9-0.3,0.9-0.8
				c0-0.4-0.1-0.9-0.2-1.3l-0.1-0.2h-1.7L460.9,254.8z"/>
		</g>
		<g>
			<path class="st3" d="M463.7,250.2h-8.9v-1.4h8.9V250.2z"/>
		</g>
		<g>
			<path class="st3" d="M456.3,247h-1.5v-1.4h1.5V247z M463.7,247h-6.3v-1.4h6.3V247z"/>
		</g>
		<g>
			<path class="st3" d="M459.3,239.3h2.9c0.2,0,0.3-0.1,0.4-0.1c0.1-0.1,0.1-0.2,0.2-0.4l1,0c0,0.7-0.2,1.3-0.5,1.7
				c0.3,0.7,0.5,1.3,0.5,2c0,1.3-0.7,1.9-2,1.9c-0.6,0-1.1-0.2-1.4-0.5c-0.3-0.3-0.5-0.9-0.5-1.6l-0.1-1.6h-0.5
				c-0.3,0-0.6,0.1-0.7,0.2c-0.1,0.1-0.2,0.4-0.2,0.6c0,0.5,0,1.2,0.1,2l0,0.4l-1,0c-0.2-0.9-0.3-1.8-0.3-2.5s0.2-1.3,0.5-1.7
				C458,239.5,458.6,239.3,459.3,239.3z M460.9,242.2c0.1,0.6,0.4,0.9,0.9,0.9s0.9-0.3,0.9-0.8c0-0.4-0.1-0.9-0.2-1.3l-0.1-0.2h-1.7
				L460.9,242.2z"/>
		</g>
		<g>
			<path class="st3" d="M456.3,234.8h-1.5v-1.4h1.5V234.8z M463.7,234.8h-6.3v-1.4h6.3V234.8z"/>
		</g>
		<g>
			<path class="st3" d="M463.7,230.4v1.4h-6.3v-1.4h0.4c-0.4-0.6-0.5-1.2-0.5-1.7c0-0.8,0.2-1.4,0.7-1.7c0.5-0.3,1.3-0.5,2.4-0.5
				h3.4v1.4h-3.3c-0.7,0-1.2,0.1-1.4,0.2c-0.3,0.1-0.4,0.4-0.4,0.9c0,0.4,0.1,0.8,0.3,1.2l0.1,0.2H463.7z"/>
		</g>
		<g>
			<path class="st3" d="M463.7,222H455v-5.5h1.2v4h2.4v-3.3h1.2v3.3h2.5v-4h1.2V222z"/>
		</g>
		<g>
			<path class="st3" d="M457.4,211.4V210h6.3v1.4h-0.4c0.4,0.6,0.5,1.2,0.5,1.7c0,0.9-0.2,1.4-0.7,1.7c-0.5,0.3-1.3,0.4-2.5,0.4
				h-3.3v-1.4h3.3c0.8,0,1.3-0.1,1.5-0.2c0.3-0.1,0.4-0.4,0.4-0.9c0-0.5-0.1-0.9-0.3-1.2l-0.1-0.2H457.4z"/>
		</g>
		<g>
			<path class="st3" d="M463.7,208.3h-6.3V207h0.8c-0.5-0.7-0.8-1.4-0.9-2.1h1.4c0.1,0.7,0.3,1.3,0.6,1.9l0.1,0.3h4.4V208.3z"/>
		</g>
		<g>
			<path class="st3" d="M458,203.5c-0.5-0.4-0.8-1.2-0.8-2.2c0-1,0.3-1.7,0.8-2.2s1.4-0.7,2.5-0.7s1.9,0.2,2.5,0.6
				c0.6,0.4,0.8,1.1,0.8,2.2c0,1-0.3,1.8-0.8,2.2c-0.6,0.4-1.4,0.6-2.5,0.6S458.6,203.9,458,203.5z M462.1,202.5
				c0.3-0.2,0.5-0.6,0.5-1.1s-0.2-0.9-0.5-1.1c-0.3-0.2-0.9-0.3-1.7-0.3c-0.8,0-1.3,0.1-1.6,0.3s-0.5,0.6-0.5,1.1
				c0,0.5,0.2,0.9,0.5,1.1s0.9,0.3,1.6,0.3C461.2,202.7,461.8,202.6,462.1,202.5z"/>
		</g>
		<g>
			<path class="st3" d="M466.4,197.1h-9v-1.4h0.4c-0.4-0.6-0.5-1.1-0.5-1.6c0-0.8,0.3-1.4,0.8-1.8c0.5-0.4,1.4-0.6,2.6-0.6
				c1.2,0,2,0.2,2.5,0.7c0.5,0.4,0.7,1.2,0.7,2.2c0,0.3,0,0.7-0.1,1.2h2.7V197.1z M458.4,194.4c0,0.4,0.1,0.8,0.3,1.2l0.1,0.2h3.7
				c0.1-0.3,0.1-0.7,0.1-1.1c0-0.6-0.2-1-0.5-1.2c-0.3-0.2-0.9-0.3-1.7-0.3C459.1,193.1,458.4,193.6,458.4,194.4z"/>
		</g>
		<g>
			<path class="st3" d="M459.3,185.7h2.9c0.2,0,0.3-0.1,0.4-0.1c0.1-0.1,0.1-0.2,0.2-0.4l1,0c0,0.7-0.2,1.3-0.5,1.7
				c0.3,0.7,0.5,1.3,0.5,2c0,1.3-0.7,1.9-2,1.9c-0.6,0-1.1-0.2-1.4-0.5c-0.3-0.3-0.5-0.9-0.5-1.6l-0.1-1.6h-0.5
				c-0.3,0-0.6,0.1-0.7,0.2c-0.1,0.1-0.2,0.4-0.2,0.6c0,0.5,0,1.2,0.1,2l0,0.4l-1,0c-0.2-0.9-0.3-1.8-0.3-2.5s0.2-1.3,0.5-1.7
				C458,185.9,458.6,185.7,459.3,185.7z M460.9,188.5c0.1,0.6,0.4,0.9,0.9,0.9s0.9-0.3,0.9-0.8c0-0.4-0.1-0.9-0.2-1.3l-0.1-0.2h-1.7
				L460.9,188.5z"/>
		</g>
		<g>
			<path class="st3" d="M462.5,176.7l0-0.4l1,0c0.2,1,0.3,1.8,0.3,2.5c0,0.9-0.3,1.6-0.8,2c-0.5,0.4-1.3,0.6-2.5,0.6
				c-2.2,0-3.4-0.9-3.4-2.7c0-1.8,1-2.7,2.9-2.7l1,0.1v3.9c0.5,0,0.9-0.1,1.1-0.3s0.4-0.6,0.4-1.2S462.6,177.3,462.5,176.7z
				 M460,177.5c-0.6,0-1.1,0.1-1.3,0.3c-0.2,0.2-0.4,0.5-0.4,1c0,0.5,0.1,0.8,0.4,1c0.3,0.2,0.7,0.3,1.3,0.3V177.5z"/>
		</g>
		<g>
			<path class="st3" d="M463.7,170.6v1.4h-6.3v-1.4h0.4c-0.4-0.6-0.5-1.2-0.5-1.7c0-0.8,0.2-1.4,0.7-1.7c0.5-0.3,1.3-0.5,2.4-0.5
				h3.4v1.4h-3.3c-0.7,0-1.2,0.1-1.4,0.2c-0.3,0.1-0.4,0.4-0.4,0.9c0,0.4,0.1,0.8,0.3,1.2l0.1,0.2H463.7z"/>
		</g>
		<g>
			<path class="st3" d="M462.5,160.6l0-0.4l1,0c0.2,1,0.3,1.8,0.3,2.5c0,0.9-0.3,1.6-0.8,2c-0.5,0.4-1.3,0.6-2.5,0.6
				c-2.2,0-3.4-0.9-3.4-2.7c0-1.8,1-2.7,2.9-2.7l1,0.1v3.9c0.5,0,0.9-0.1,1.1-0.3s0.4-0.6,0.4-1.2S462.6,161.3,462.5,160.6z
				 M460,161.4c-0.6,0-1.1,0.1-1.3,0.3c-0.2,0.2-0.4,0.5-0.4,1c0,0.5,0.1,0.8,0.4,1c0.3,0.2,0.7,0.3,1.3,0.3V161.4z"/>
		</g>
		<g>
			<path class="st3" d="M463.7,158.6h-8.9v-1.4h8.9V158.6z"/>
		</g>
		<g>
			<path class="st3" d="M463.7,151.4v1.4h-6.3v-1.4h0.4c-0.4-0.6-0.5-1.1-0.5-1.6c0-0.7,0.2-1.3,0.6-1.6c-0.4-0.8-0.6-1.5-0.6-2.3
				c0-0.8,0.2-1.3,0.7-1.6s1.3-0.5,2.4-0.5h3.4v1.4h-3.3c-0.7,0-1.2,0.1-1.4,0.2c-0.3,0.1-0.4,0.4-0.4,0.9c0,0.4,0.1,0.8,0.3,1.2
				l0.1,0.2c0.2-0.1,0.7-0.1,1.6-0.1h3.3v1.4h-3.2c-0.7,0-1.3,0.1-1.6,0.2c-0.3,0.1-0.4,0.4-0.4,0.9c0,0.4,0.1,0.8,0.3,1.2l0.1,0.2
				H463.7z"/>
		</g>
		<g>
			<path class="st3" d="M458,141.8c-0.5-0.4-0.8-1.2-0.8-2.2c0-1,0.3-1.7,0.8-2.2c0.5-0.4,1.4-0.6,2.5-0.6s1.9,0.2,2.5,0.6
				c0.6,0.4,0.8,1.1,0.8,2.2c0,1-0.3,1.8-0.8,2.2s-1.4,0.6-2.5,0.6S458.6,142.3,458,141.8z M462.1,140.8c0.3-0.2,0.5-0.6,0.5-1.1
				s-0.2-0.9-0.5-1.1c-0.3-0.2-0.9-0.3-1.7-0.3c-0.8,0-1.3,0.1-1.6,0.3s-0.5,0.6-0.5,1.1c0,0.5,0.2,0.9,0.5,1.1
				c0.3,0.2,0.9,0.3,1.6,0.3C461.2,141.1,461.8,141,462.1,140.8z"/>
		</g>
		<g>
			<path class="st3" d="M463.7,134.1v1.4h-6.3v-1.4h0.4c-0.4-0.6-0.5-1.2-0.5-1.7c0-0.8,0.2-1.4,0.7-1.7c0.5-0.3,1.3-0.5,2.4-0.5
				h3.4v1.4h-3.3c-0.7,0-1.2,0.1-1.4,0.2c-0.3,0.1-0.4,0.4-0.4,0.9c0,0.4,0.1,0.8,0.3,1.2l0.1,0.2H463.7z"/>
		</g>
		<g>
			<path class="st3" d="M454.7,123.4h8.9v1.4h-0.3c0.3,0.6,0.5,1.2,0.5,1.7c0,0.8-0.2,1.4-0.7,1.8c-0.5,0.4-1.3,0.6-2.5,0.6
				c-1.2,0-2-0.2-2.5-0.6c-0.5-0.4-0.8-1.1-0.8-2c0-0.3,0.1-0.8,0.2-1.4h-2.6V123.4z M462.3,125l-0.1-0.2h-3.7
				c-0.1,0.5-0.1,1-0.1,1.4c0,0.8,0.7,1.3,2.1,1.3c0.8,0,1.3-0.1,1.6-0.3c0.3-0.2,0.4-0.5,0.4-0.9
				C462.6,125.8,462.5,125.4,462.3,125z"/>
		</g>
		<g>
			<path class="st3" d="M458,121.4c-0.5-0.4-0.8-1.2-0.8-2.2c0-1,0.3-1.7,0.8-2.2c0.5-0.4,1.4-0.6,2.5-0.6s1.9,0.2,2.5,0.6
				c0.6,0.4,0.8,1.1,0.8,2.2c0,1-0.3,1.8-0.8,2.2s-1.4,0.6-2.5,0.6S458.6,121.9,458,121.4z M462.1,120.4c0.3-0.2,0.5-0.6,0.5-1.1
				s-0.2-0.9-0.5-1.1c-0.3-0.2-0.9-0.3-1.7-0.3c-0.8,0-1.3,0.1-1.6,0.3s-0.5,0.6-0.5,1.1c0,0.5,0.2,0.9,0.5,1.1
				c0.3,0.2,0.9,0.3,1.6,0.3C461.2,120.7,461.8,120.6,462.1,120.4z"/>
		</g>
	</g>
</g>
</svg>
