<?xml version="1.0" encoding="utf-8"?>
<!-- Generator: Adobe Illustrator 21.1.0, SVG Export Plug-In . SVG Version: 6.00 Build 0)  -->
<svg version="1.1" id="Livello_1" xmlns="http://www.w3.org/2000/svg" xmlns:xlink="http://www.w3.org/1999/xlink" x="0px" y="0px"
	 viewBox="0 0 487.2 121.3" style="enable-background:new 0 0 487.2 121.3;" xml:space="preserve">
<style type="text/css">
	.st0{fill:#00264D;}
	.st1{fill:#FFFFFF;}
	.st2{fill:#D3E4F4;}
</style>
<g transform="matrix(1, 0, 0, 1, 243, -20)">
	<g id="Rectangle_47-2_8_">
		<rect x="-243" y="20" class="st0" width="487.2" height="121.3"/>
	</g>
</g>
<g>
	<path class="st1" d="M129.9,30.3V17.9h2v12.4H129.9z"/>
	<path class="st1" d="M134.8,30.3V17.9h3.5l3.8,10.6h0.3V17.9h2v12.4h-3.4L137,19.7h-0.3v10.6H134.8z"/>
	<path class="st1" d="M147.2,30.3V17.9h7.7v1.8h-5.7v4.2h4.7v1.8h-4.7v4.7H147.2z"/>
	<path class="st1" d="M158.8,25.9v4.4h-2V17.9h4.7c2.8,0,4.2,1.3,4.2,3.9c0,1.8-0.7,3-2,3.6l2,4.9h-2.2l-1.8-4.4H158.8z M163.6,21.9
		c0-1.5-0.7-2.2-2.1-2.2h-2.7v4.5h2.7c0.7,0,1.3-0.2,1.6-0.6S163.6,22.6,163.6,21.9z"/>
	<path class="st1" d="M166.8,30.3l3.1-12.4h4l3.1,12.4h-2l-0.7-2.7h-4.8l-0.7,2.7H166.8z M171.4,19.6l-1.5,6.3h4l-1.5-6.3H171.4z"/>
	<path class="st1" d="M182.2,19.5c-1.5,0-2.3,0.5-2.3,1.6c0,0.6,0.2,0.9,0.5,1.2c0.4,0.2,1.2,0.5,2.4,0.9c1.2,0.3,2.1,0.8,2.6,1.2
		s0.8,1.2,0.8,2.3c0,1.3-0.4,2.3-1.1,2.9s-1.8,1-3,1c-1,0-2.2-0.1-3.4-0.4L178,30l0.2-1.6c1.6,0.2,2.9,0.3,3.7,0.3
		c1.5,0,2.2-0.7,2.2-2c0-0.5-0.2-0.9-0.5-1.1c-0.3-0.2-1.1-0.5-2.3-0.8c-1.2-0.3-2.1-0.7-2.6-1.2s-0.9-1.3-0.9-2.5s0.4-2,1.1-2.5
		c0.7-0.6,1.7-0.9,3-0.9c0.9,0,2,0.1,3.3,0.3l0.6,0.1l-0.2,1.6C184.1,19.6,182.9,19.5,182.2,19.5z"/>
	<path class="st1" d="M187.2,19.7v-1.8h9v1.8h-3.5v10.6h-2V19.7H187.2z"/>
	<path class="st1" d="M199.9,25.9v4.4h-2V17.9h4.7c2.8,0,4.2,1.3,4.2,3.9c0,1.8-0.7,3-2,3.6l2,4.9h-2.2l-1.8-4.4H199.9z M204.7,21.9
		c0-1.5-0.7-2.2-2.1-2.2h-2.7v4.5h2.7c0.7,0,1.3-0.2,1.6-0.6S204.7,22.6,204.7,21.9z"/>
	<path class="st1" d="M211,26.4c0,1.6,0.8,2.4,2.5,2.4c1.7,0,2.5-0.8,2.5-2.4v-8.4h2v8.4c0,1.5-0.4,2.5-1.1,3.2
		c-0.8,0.7-1.9,1-3.4,1s-2.7-0.3-3.4-1c-0.8-0.7-1.1-1.7-1.1-3.2v-8.4h2V26.4z"/>
	<path class="st1" d="M219.6,19.7v-1.8h9v1.8h-3.5v10.6h-2V19.7H219.6z"/>
	<path class="st1" d="M229.2,19.7v-1.8h9v1.8h-3.5v10.6h-2V19.7H229.2z"/>
	<path class="st1" d="M241.8,26.4c0,1.6,0.8,2.4,2.5,2.4c1.7,0,2.5-0.8,2.5-2.4v-8.4h2v8.4c0,1.5-0.4,2.5-1.1,3.2
		c-0.8,0.7-1.9,1-3.4,1s-2.7-0.3-3.4-1c-0.8-0.7-1.1-1.7-1.1-3.2v-8.4h2V26.4z"/>
	<path class="st1" d="M253.7,25.9v4.4h-2V17.9h4.7c2.8,0,4.2,1.3,4.2,3.9c0,1.8-0.7,3-2,3.6l2,4.9h-2.2l-1.8-4.4H253.7z M258.5,21.9
		c0-1.5-0.7-2.2-2.1-2.2h-2.7v4.5h2.7c0.7,0,1.3-0.2,1.6-0.6S258.5,22.6,258.5,21.9z"/>
	<path class="st1" d="M262.8,30.3V17.9h7.8v1.8h-5.8v3.5h4.7v1.7h-4.7v3.6h5.8v1.8H262.8z"/>
	<path class="st1" d="M276.8,30.3V17.9h7.7v1.8h-5.7v4.2h4.7v1.8h-4.7v4.7H276.8z"/>
	<path class="st1" d="M286.4,30.3V17.9h2v12.4H286.4z"/>
	<path class="st1" d="M294.9,19.5c-1.5,0-2.3,0.5-2.3,1.6c0,0.6,0.2,0.9,0.5,1.2c0.4,0.2,1.2,0.5,2.4,0.9c1.2,0.3,2.1,0.8,2.6,1.2
		s0.8,1.2,0.8,2.3c0,1.3-0.4,2.3-1.1,2.9s-1.8,1-3,1c-1,0-2.2-0.1-3.4-0.4l-0.7-0.1l0.2-1.6c1.6,0.2,2.9,0.3,3.7,0.3
		c1.5,0,2.2-0.7,2.2-2c0-0.5-0.2-0.9-0.5-1.1c-0.3-0.2-1.1-0.5-2.3-0.8c-1.2-0.3-2.1-0.7-2.6-1.2s-0.9-1.3-0.9-2.5s0.4-2,1.1-2.5
		c0.7-0.6,1.7-0.9,3-0.9c0.9,0,2,0.1,3.3,0.3l0.6,0.1l-0.2,1.6C296.8,19.6,295.6,19.5,294.9,19.5z"/>
	<path class="st1" d="M301.1,30.3V17.9h2v12.4H301.1z"/>
	<path class="st1" d="M310.1,30.5c-1.8,0-3-0.5-3.7-1.5s-1-2.6-1-4.9c0-2.3,0.3-3.9,1-4.9c0.7-1,1.9-1.5,3.7-1.5
		c1.1,0,2.3,0.2,3.5,0.5l-0.1,1.6c-1.1-0.2-2.2-0.3-3.3-0.3s-1.8,0.3-2.2,1c-0.4,0.6-0.6,1.9-0.6,3.6s0.2,3,0.6,3.6
		c0.4,0.6,1.1,1,2.2,1s2.2-0.1,3.3-0.3l0.1,1.7C312.4,30.4,311.2,30.5,310.1,30.5z"/>
	<path class="st1" d="M323.2,30.3V25h-5.4v5.4h-2V17.9h2v5.3h5.4v-5.3h2v12.4H323.2z"/>
	<path class="st1" d="M328,30.3V17.9h7.8v1.8H330v3.5h4.7v1.7H330v3.6h5.8v1.8H328z"/>
</g>
<g>
	<rect x="180.5" y="55.1" class="st2" width="125.3" height="49.2"/>
</g>
<g>
	<rect x="339.9" y="55.1" class="st2" width="125.3" height="49.2"/>
</g>
<g>
	<rect x="18.9" y="55.1" class="st2" width="125.3" height="49.2"/>
</g>
<g>
	<path class="st0" d="M52.2,83.5h-3.4v-9.4h3.4c1.5,0,2.5,0.6,3,1.8c0.3,0.7,0.4,1.6,0.4,2.7c0,2.4-0.6,3.8-1.8,4.5
		C53.4,83.4,52.8,83.5,52.2,83.5z M54.6,78.7c0-1.8-0.4-2.9-1.2-3.4C53,75.1,52.6,75,52.2,75h-2.3v7.5h2.3
		C53.8,82.6,54.6,81.3,54.6,78.7z"/>
	<path class="st0" d="M62.2,78.8v3.5c0,0.3,0.3,0.5,0.8,0.6l0,0.8c-0.7,0-1.3-0.2-1.6-0.5c-0.8,0.4-1.6,0.5-2.4,0.5
		c-0.6,0-1.1-0.2-1.4-0.5c-0.3-0.4-0.5-0.9-0.5-1.5s0.2-1.1,0.5-1.5c0.3-0.3,0.9-0.5,1.6-0.6l2.1-0.2v-0.6c0-0.5-0.1-0.8-0.3-1
		s-0.5-0.3-0.8-0.3c-0.7,0-1.5,0-2.3,0.1l-0.4,0l0-0.8c1-0.2,1.9-0.3,2.6-0.3c0.8,0,1.3,0.2,1.7,0.5C62,77.5,62.2,78,62.2,78.8z
		 M58,81.5c0,0.8,0.3,1.2,1,1.2c0.6,0,1.2-0.1,1.8-0.3l0.3-0.1v-2.2l-2,0.2c-0.4,0-0.7,0.2-0.9,0.4C58.1,80.9,58,81.2,58,81.5z"/>
	<path class="st0" d="M67.7,77.6h-2.2v3.2c0,0.8,0.1,1.3,0.2,1.5c0.1,0.2,0.4,0.4,0.8,0.4l1.2-0.1l0.1,0.8c-0.6,0.1-1.1,0.1-1.4,0.1
		c-0.7,0-1.2-0.2-1.5-0.5s-0.4-1-0.4-2v-3.6h-1v-0.9h1v-2.1h1v2.1h2.2V77.6z"/>
	<path class="st0" d="M73.8,78.8v3.5c0,0.3,0.3,0.5,0.8,0.6l0,0.8c-0.7,0-1.3-0.2-1.6-0.5c-0.8,0.4-1.6,0.5-2.4,0.5
		c-0.6,0-1.1-0.2-1.4-0.5c-0.3-0.4-0.5-0.9-0.5-1.5s0.2-1.1,0.5-1.5c0.3-0.3,0.9-0.5,1.6-0.6l2.1-0.2v-0.6c0-0.5-0.1-0.8-0.3-1
		s-0.5-0.3-0.8-0.3c-0.7,0-1.5,0-2.3,0.1l-0.4,0l0-0.8c1-0.2,1.9-0.3,2.6-0.3c0.8,0,1.3,0.2,1.7,0.5C73.6,77.5,73.8,78,73.8,78.8z
		 M69.6,81.5c0,0.8,0.3,1.2,1,1.2c0.6,0,1.2-0.1,1.8-0.3l0.3-0.1v-2.2l-2,0.2c-0.4,0-0.7,0.2-0.9,0.4C69.7,80.9,69.6,81.2,69.6,81.5
		z"/>
	<path class="st0" d="M84.6,83.3c-0.9,0.2-1.8,0.3-2.5,0.3s-1.3-0.1-1.8-0.3c-0.5-0.2-0.8-0.5-1.1-0.9s-0.4-0.9-0.5-1.5
		c-0.1-0.6-0.1-1.2-0.1-2.1s0-1.5,0.1-2.1c0.1-0.6,0.3-1.1,0.5-1.5c0.2-0.4,0.6-0.8,1.1-0.9c0.5-0.2,1-0.3,1.8-0.3
		c0.7,0,1.6,0.1,2.6,0.3l0,0.9c-0.9-0.2-1.7-0.2-2.4-0.2c-1,0-1.7,0.3-2,0.9c-0.3,0.6-0.5,1.6-0.5,3c0,0.7,0,1.3,0.1,1.7
		c0.1,0.4,0.2,0.8,0.3,1.2s0.4,0.6,0.8,0.7c0.3,0.1,0.8,0.2,1.5,0.2c0.6,0,1.4-0.1,2.3-0.2L84.6,83.3z"/>
	<path class="st0" d="M90.6,82.7l0.4,0l0,0.8c-1,0.1-1.9,0.2-2.6,0.2c-1,0-1.7-0.3-2.1-0.8s-0.6-1.4-0.6-2.6c0-2.4,0.9-3.6,2.8-3.6
		c0.9,0,1.6,0.3,2,0.8c0.5,0.5,0.7,1.3,0.7,2.4l-0.1,0.8h-4.5c0,0.8,0.1,1.3,0.4,1.7s0.7,0.5,1.4,0.5S89.9,82.7,90.6,82.7z
		 M90.3,79.7c0-0.8-0.1-1.4-0.4-1.8c-0.3-0.3-0.7-0.5-1.3-0.5s-1.1,0.2-1.4,0.5c-0.3,0.4-0.5,0.9-0.5,1.7H90.3z"/>
	<path class="st0" d="M93.9,83.5h-1v-6.8h1v0.5c0.7-0.4,1.4-0.6,2.1-0.6c0.9,0,1.5,0.2,1.8,0.7c0.3,0.5,0.5,1.4,0.5,2.6v3.6h-1v-3.6
		c0-0.9-0.1-1.6-0.3-1.9c-0.2-0.3-0.6-0.5-1.2-0.5c-0.3,0-0.6,0-0.9,0.1s-0.6,0.2-0.7,0.2L93.9,78V83.5z"/>
	<path class="st0" d="M103.6,77.6h-2.2v3.2c0,0.8,0.1,1.3,0.2,1.5c0.1,0.2,0.4,0.4,0.8,0.4l1.2-0.1l0.1,0.8
		c-0.6,0.1-1.1,0.1-1.4,0.1c-0.7,0-1.2-0.2-1.5-0.5s-0.4-1-0.4-2v-3.6h-1v-0.9h1v-2.1h1v2.1h2.2V77.6z"/>
	<path class="st0" d="M109.5,82.7l0.4,0l0,0.8c-1,0.1-1.9,0.2-2.6,0.2c-1,0-1.7-0.3-2.1-0.8s-0.6-1.4-0.6-2.6c0-2.4,0.9-3.6,2.8-3.6
		c0.9,0,1.6,0.3,2,0.8c0.5,0.5,0.7,1.3,0.7,2.4l-0.1,0.8h-4.5c0,0.8,0.1,1.3,0.4,1.7s0.7,0.5,1.4,0.5S108.8,82.7,109.5,82.7z
		 M109.1,79.7c0-0.8-0.1-1.4-0.4-1.8c-0.3-0.3-0.7-0.5-1.3-0.5s-1.1,0.2-1.4,0.5c-0.3,0.4-0.5,0.9-0.5,1.7H109.1z"/>
	<path class="st0" d="M111.7,83.5v-6.8h1v0.9c0.8-0.5,1.6-0.9,2.5-1.1v1c-0.4,0.1-0.8,0.2-1.2,0.3c-0.4,0.2-0.7,0.3-0.9,0.4
		l-0.3,0.2v5H111.7z"/>
</g>
<g>
	<path class="st0" d="M234,83.3c-0.9,0.2-1.8,0.3-2.5,0.3s-1.3-0.1-1.8-0.3c-0.5-0.2-0.8-0.5-1.1-0.9s-0.4-0.9-0.5-1.5
		c-0.1-0.6-0.1-1.2-0.1-2.1s0-1.5,0.1-2.1c0.1-0.6,0.3-1.1,0.5-1.5c0.2-0.4,0.6-0.8,1.1-0.9c0.5-0.2,1-0.3,1.8-0.3
		c0.7,0,1.6,0.1,2.6,0.3l0,0.9c-0.9-0.2-1.7-0.2-2.4-0.2c-1,0-1.7,0.3-2,0.9c-0.3,0.6-0.5,1.6-0.5,3c0,0.7,0,1.3,0.1,1.7
		c0.1,0.4,0.2,0.8,0.3,1.2s0.4,0.6,0.8,0.7c0.3,0.1,0.8,0.2,1.5,0.2c0.6,0,1.4-0.1,2.3-0.2L234,83.3z"/>
	<path class="st0" d="M235.6,83.5v-9.7h1v9.7H235.6z"/>
	<path class="st0" d="M238.3,80.1c0-1.2,0.2-2.1,0.7-2.7c0.4-0.6,1.2-0.8,2.2-0.8c1.1,0,1.8,0.3,2.2,0.8c0.4,0.6,0.7,1.4,0.7,2.7
		c0,1.2-0.2,2.1-0.6,2.7c-0.4,0.6-1.2,0.8-2.3,0.8c-1.1,0-1.9-0.3-2.3-0.8C238.5,82.2,238.3,81.3,238.3,80.1z M239.4,80.1
		c0,1,0.1,1.7,0.4,2.1c0.2,0.4,0.7,0.6,1.5,0.6c0.8,0,1.3-0.2,1.5-0.6c0.2-0.4,0.4-1.1,0.4-2.1s-0.1-1.7-0.4-2.1s-0.7-0.6-1.5-0.6
		c-0.7,0-1.2,0.2-1.5,0.6C239.5,78.4,239.4,79.1,239.4,80.1z"/>
	<path class="st0" d="M250,76.7h1v6.8h-1V83c-0.7,0.4-1.3,0.6-2,0.6c-0.9,0-1.5-0.2-1.8-0.7c-0.3-0.5-0.5-1.4-0.5-2.7v-3.5h1v3.5
		c0,1,0.1,1.6,0.3,2s0.6,0.5,1.2,0.5c0.3,0,0.6,0,0.9-0.1s0.5-0.2,0.7-0.3l0.2-0.1V76.7z"/>
	<path class="st0" d="M258.2,73.8v9.7h-1V83c-0.7,0.4-1.4,0.6-2.1,0.6c-0.4,0-0.7,0-1-0.1s-0.5-0.3-0.8-0.5
		c-0.5-0.5-0.7-1.4-0.7-2.7s0.2-2.3,0.7-2.8c0.4-0.6,1.2-0.9,2.2-0.9c0.5,0,1.1,0.1,1.7,0.2v-3H258.2z M254.7,82.6
		c0.2,0.1,0.4,0.1,0.6,0.1s0.5,0,0.9-0.1s0.6-0.2,0.8-0.3l0.3-0.1v-4.6c-0.6-0.1-1.1-0.2-1.6-0.2c-0.7,0-1.2,0.2-1.4,0.7
		s-0.4,1.1-0.4,2c0,1,0.2,1.8,0.5,2.1C254.4,82.5,254.5,82.6,254.7,82.6z"/>
</g>
<g>
	<path class="st0" d="M374.6,83.3c-0.9,0.2-1.8,0.3-2.5,0.3s-1.3-0.1-1.8-0.3c-0.5-0.2-0.8-0.5-1.1-0.9s-0.4-0.9-0.5-1.5
		c-0.1-0.6-0.1-1.2-0.1-2.1s0-1.5,0.1-2.1c0.1-0.6,0.3-1.1,0.5-1.5c0.2-0.4,0.6-0.8,1.1-0.9c0.5-0.2,1-0.3,1.8-0.3
		c0.7,0,1.6,0.1,2.6,0.3l0,0.9c-0.9-0.2-1.7-0.2-2.4-0.2c-1,0-1.7,0.3-2,0.9c-0.3,0.6-0.5,1.6-0.5,3c0,0.7,0,1.3,0.1,1.7
		c0.1,0.4,0.2,0.8,0.3,1.2s0.4,0.6,0.8,0.7c0.3,0.1,0.8,0.2,1.5,0.2c0.6,0,1.4-0.1,2.3-0.2L374.6,83.3z"/>
	<path class="st0" d="M375.7,80.1c0-1.2,0.2-2.1,0.7-2.7c0.4-0.6,1.2-0.8,2.2-0.8c1.1,0,1.8,0.3,2.2,0.8c0.4,0.6,0.7,1.4,0.7,2.7
		c0,1.2-0.2,2.1-0.6,2.7c-0.4,0.6-1.2,0.8-2.3,0.8c-1.1,0-1.9-0.3-2.3-0.8C376,82.2,375.7,81.3,375.7,80.1z M376.8,80.1
		c0,1,0.1,1.7,0.4,2.1c0.2,0.4,0.7,0.6,1.5,0.6c0.8,0,1.3-0.2,1.5-0.6c0.2-0.4,0.4-1.1,0.4-2.1s-0.1-1.7-0.4-2.1s-0.7-0.6-1.5-0.6
		c-0.7,0-1.2,0.2-1.5,0.6C376.9,78.4,376.8,79.1,376.8,80.1z"/>
	<path class="st0" d="M384.2,83.5h-1v-6.8h1v0.5c0.7-0.4,1.4-0.6,2.1-0.6c0.9,0,1.5,0.2,1.8,0.7c0.3,0.5,0.5,1.4,0.5,2.6v3.6h-1
		v-3.6c0-0.9-0.1-1.6-0.3-1.9c-0.2-0.3-0.6-0.5-1.2-0.5c-0.3,0-0.6,0-0.9,0.1s-0.6,0.2-0.7,0.2l-0.3,0.1V83.5z"/>
	<path class="st0" d="M391.5,83.5h-1v-6.8h1v0.5c0.7-0.4,1.4-0.6,2.1-0.6c0.9,0,1.5,0.2,1.8,0.7c0.3,0.5,0.5,1.4,0.5,2.6v3.6h-1
		v-3.6c0-0.9-0.1-1.6-0.3-1.9c-0.2-0.3-0.6-0.5-1.2-0.5c-0.3,0-0.6,0-0.9,0.1s-0.6,0.2-0.7,0.2l-0.3,0.1V83.5z"/>
	<path class="st0" d="M402.4,82.7l0.4,0l0,0.8c-1,0.1-1.9,0.2-2.6,0.2c-1,0-1.7-0.3-2.1-0.8s-0.6-1.4-0.6-2.6c0-2.4,0.9-3.6,2.8-3.6
		c0.9,0,1.6,0.3,2,0.8c0.5,0.5,0.7,1.3,0.7,2.4l-0.1,0.8h-4.5c0,0.8,0.1,1.3,0.4,1.7s0.7,0.5,1.4,0.5S401.7,82.7,402.4,82.7z
		 M402,79.7c0-0.8-0.1-1.4-0.4-1.8c-0.3-0.3-0.7-0.5-1.3-0.5s-1.1,0.2-1.4,0.5c-0.3,0.4-0.5,0.9-0.5,1.7H402z"/>
	<path class="st0" d="M408.1,77.6H406v3.2c0,0.8,0.1,1.3,0.2,1.5c0.1,0.2,0.4,0.4,0.8,0.4l1.2-0.1l0.1,0.8c-0.6,0.1-1.1,0.1-1.4,0.1
		c-0.7,0-1.2-0.2-1.5-0.5s-0.4-1-0.4-2v-3.6h-1v-0.9h1v-2.1h1v2.1h2.2V77.6z"/>
	<path class="st0" d="M412.9,77.6h-2.2v3.2c0,0.8,0.1,1.3,0.2,1.5c0.1,0.2,0.4,0.4,0.8,0.4l1.2-0.1l0.1,0.8
		c-0.6,0.1-1.1,0.1-1.4,0.1c-0.7,0-1.2-0.2-1.5-0.5s-0.4-1-0.4-2v-3.6h-1v-0.9h1v-2.1h1v2.1h2.2V77.6z"/>
	<path class="st0" d="M414.1,75.2V74h1v1.2H414.1z M414.1,83.5v-6.8h1v6.8H414.1z"/>
	<path class="st0" d="M416.5,76.7h1.1l1.6,5.9h0.5l1.6-5.9h1l-1.9,6.8h-2L416.5,76.7z"/>
	<path class="st0" d="M423.6,75.2V74h1v1.2H423.6z M423.6,83.5v-6.8h1v6.8H423.6z"/>
	<path class="st0" d="M430.1,77.6H428v3.2c0,0.8,0.1,1.3,0.2,1.5c0.1,0.2,0.4,0.4,0.8,0.4l1.2-0.1l0.1,0.8c-0.6,0.1-1.1,0.1-1.4,0.1
		c-0.7,0-1.2-0.2-1.5-0.5s-0.4-1-0.4-2v-3.6h-1v-0.9h1v-2.1h1v2.1h2.2V77.6z"/>
	<path class="st0" d="M436.2,78.8v3.5c0,0.3,0.3,0.5,0.8,0.6l0,0.8c-0.7,0-1.3-0.2-1.6-0.5c-0.8,0.4-1.6,0.5-2.4,0.5
		c-0.6,0-1.1-0.2-1.4-0.5c-0.3-0.4-0.5-0.9-0.5-1.5s0.2-1.1,0.5-1.5c0.3-0.3,0.9-0.5,1.6-0.6l2.1-0.2v-0.6c0-0.5-0.1-0.8-0.3-1
		s-0.5-0.3-0.8-0.3c-0.7,0-1.5,0-2.3,0.1l-0.4,0l0-0.8c1-0.2,1.9-0.3,2.6-0.3c0.8,0,1.3,0.2,1.7,0.5C436,77.5,436.2,78,436.2,78.8z
		 M432,81.5c0,0.8,0.3,1.2,1,1.2c0.6,0,1.2-0.1,1.8-0.3l0.3-0.1v-2.2l-2,0.2c-0.4,0-0.7,0.2-0.9,0.4C432.1,80.9,432,81.2,432,81.5z
		 M432.4,73.5l2.9,1.3l-0.3,0.7l-3-1.2L432.4,73.5z"/>
</g>
</svg>
