<?xml version="1.0" encoding="utf-8"?>
<svg version="1.1" id="b051928b-d0f8-4f42-a7dc-bf14ca707c7c"
	 xmlns="http://www.w3.org/2000/svg" xmlns:xlink="http://www.w3.org/1999/xlink" x="0px" y="0px" viewBox="0 0 1044 1179.3"
	 style="enable-background:new 0 0 1044 1179.3;" xml:space="preserve">
<style type="text/css">
	.st0{fill:#F0F6FC;}
	.st1{fill:#0B00D9;}
	.st2{font-family:'TitilliumWeb-SemiBold';}
	.st3{font-size:17px;}
	.st4{fill:none;stroke:#0B00D9;stroke-miterlimit:10;}
	.st5{fill:#FF3333;}
	.st6{fill:#FFFFFF;stroke:#00AAC9;stroke-width:2;stroke-miterlimit:10;}
	.st7{fill:#B9C1C9;}
	.st8{fill:none;stroke:#00AAC9;stroke-width:3.21;stroke-miterlimit:10;}
	.st9{fill:#FFFFFF;stroke:#00AAC9;stroke-width:2.5;stroke-miterlimit:10;}
	.st10{fill:#00AAC9;stroke:#00AAC9;stroke-width:2.5;stroke-miterlimit:10;}
	.st11{fill:#FFFFFF;}
	.st12{fill:none;stroke:#0B00D9;stroke-width:2;stroke-miterlimit:10;}
	.st13{fill:#FFFFFF;stroke:#00AAC9;stroke-width:3.91;stroke-miterlimit:10;}
	.st14{fill:none;stroke:#FF3333;stroke-miterlimit:10;stroke-dasharray:4,4;}
	.st15{font-size:16.9762px;}
	.st16{fill:#FFFFFF;stroke:#00AAC9;stroke-width:3.13;stroke-miterlimit:10;}
</style>
<title>6.5_figura</title>
<rect class="st0" width="1044" height="1179.3"/>
<text transform="matrix(1 0 0 1 490.05 66.38)" class="st1 st2 st3">CITTADINI</text>
<text transform="matrix(1 0 0 1 143.22 85.38)" class="st1 st2 st3">Italia Login</text>
<line class="st4" x1="233" y1="82.3" x2="913" y2="82.3"/>
<path class="st5" d="M393,796.3h264c2.2,0,4,1.8,4,4v42c0,2.2-1.8,4-4,4H393c-2.2,0-4-1.8-4-4v-42C389,798.1,390.8,796.3,393,796.3z
	"/>
<circle class="st6" cx="199.1" cy="167.9" r="32"/>
<rect x="185.3" y="178" class="st7" width="27.6" height="2.5"/>
<rect x="186.6" y="175.8" class="st7" width="25.1" height="1.4"/>
<rect x="186.6" y="161.9" class="st7" width="25.1" height="1.4"/>
<rect x="188.8" y="164.1" class="st7" width="3.4" height="10.8"/>
<rect x="194.5" y="164.1" class="st7" width="3.4" height="10.8"/>
<rect x="200.2" y="164.1" class="st7" width="3.4" height="10.8"/>
<rect x="205.9" y="164.1" class="st7" width="3.4" height="10.8"/>
<polygon class="st7" points="187.2,160.4 211.7,160.4 199.1,155.2 "/>
<path class="st8" d="M136.8,218.4h124c2.2,0,4,1.8,4,4v180c0,2.2-1.8,4-4,4h-124c-2.2,0-4-1.8-4-4v-180
	C132.8,220.1,134.6,218.4,136.8,218.4z"/>
<circle class="st9" cx="265.2" cy="285.6" r="32"/>
<path class="st7" d="M276.5,275.7c0,1.6-5.1,2.8-11.3,2.8s-11.3-1.3-11.3-2.8s5.1-2.8,11.3-2.8S276.5,274.1,276.5,275.7z"/>
<path class="st7" d="M265.2,280.4c-6.2,0-11.3-1.3-11.3-2.8v5.7c0,1.5,5.1,2.8,11.3,2.8s11.3-1.3,11.3-2.8v-5.7
	C276.5,279,271.4,280.4,265.2,280.4z"/>
<path class="st7" d="M265.2,287.9c-6.2,0-11.3-1.3-11.3-2.8v5.7c0,1.5,5.1,2.8,11.3,2.8s11.3-1.3,11.3-2.8v-5.7
	C276.5,286.6,271.4,287.9,265.2,287.9z"/>
<path class="st7" d="M265.2,295.5c-6.2,0-11.3-1.3-11.3-2.8v5.7c0,1.5,5.1,2.8,11.3,2.8s11.3-1.3,11.3-2.8v-5.7
	C276.5,294.2,271.4,295.5,265.2,295.5L265.2,295.5z"/>
<circle class="st9" cx="133" cy="285.6" r="32"/>
<path class="st7" d="M143.5,282.1l-0.4,0.8c-0.2,0.3-0.5,0.4-0.8,0.3c-0.6-0.2-1.2-0.6-1.8-1c-0.3-0.2-0.3-0.6-0.1-0.9l0.4-0.8
	c-0.4-0.4-0.7-0.9-0.9-1.5H139c-0.3,0-0.6-0.2-0.7-0.6c-0.1-0.7-0.1-1.3,0-2c0.1-0.3,0.3-0.6,0.7-0.6h0.9c0.2-0.6,0.5-1.1,0.9-1.5
	l-0.4-0.8c-0.2-0.3-0.1-0.7,0.1-0.9c0.5-0.4,1.1-0.8,1.8-1c0.3-0.1,0.7,0,0.8,0.3l0.4,0.8c0.6-0.1,1.2-0.1,1.7,0l0.4-0.8
	c0.2-0.3,0.5-0.4,0.8-0.3c0.6,0.2,1.2,0.6,1.8,1c0.3,0.2,0.3,0.6,0.2,0.9l-0.5,0.7c0.4,0.4,0.7,1,0.9,1.5h0.9c0.3,0,0.6,0.2,0.7,0.6
	c0.1,0.7,0.1,1.3,0,2c-0.1,0.3-0.3,0.6-0.7,0.6h-0.9c-0.2,0.5-0.5,1.1-0.9,1.5l0.4,0.8c0.2,0.3,0.1,0.7-0.2,0.9
	c-0.5,0.4-1.1,0.8-1.8,1c-0.3,0.1-0.7,0-0.8-0.3l-0.4-0.8C144.7,282.2,144.1,282.2,143.5,282.1z M143,278.9c0.8,0.8,2.1,0.8,2.9,0
	c0.8-0.8,0.8-2.1,0-2.9c-0.8-0.8-2.1-0.8-2.9,0C142.2,276.8,142.2,278.1,143,278.9L143,278.9L143,278.9z M136.6,287.4l1.9,0.9
	c0.6,0.3,0.8,1,0.6,1.6c-0.6,1.3-1.4,2.5-2.3,3.6c-0.4,0.5-1.1,0.6-1.7,0.3l-1.6-0.9c-0.9,0.8-1.9,1.3-3,1.7v1.8
	c0,0.6-0.5,1.2-1.1,1.3c-1.4,0.2-2.8,0.2-4.2,0c-0.6-0.1-1.1-0.7-1.1-1.3v-1.8c-1.1-0.4-2.1-1-3-1.7l-1.6,0.9
	c-0.6,0.3-1.3,0.2-1.7-0.3c-1-1.1-1.7-2.3-2.3-3.6c-0.2-0.6,0-1.3,0.6-1.6l1.8-0.9c-0.2-1.1-0.2-2.3,0-3.5l-1.8-0.9
	c-0.6-0.3-0.8-1-0.6-1.6c0.6-1.3,1.3-2.6,2.3-3.6c0.4-0.5,1.1-0.6,1.7-0.3l1.6,0.9c0.9-0.8,1.9-1.4,3-1.7v-1.9
	c0-0.6,0.5-1.2,1.1-1.3c1.4-0.2,2.8-0.2,4.2,0c0.6,0.1,1.1,0.7,1.1,1.3v1.8c1.1,0.4,2.1,1,3,1.7l1.6-0.9c0.6-0.3,1.3-0.2,1.7,0.3
	c1,1.1,1.7,2.3,2.3,3.7c0.2,0.6,0,1.3-0.6,1.6l-1.9,0.9C136.8,285,136.8,286.2,136.6,287.4z M130.2,288.5c3.2-4.2-1.6-9-5.8-5.8
	C121.1,286.9,126,291.7,130.2,288.5L130.2,288.5z M143.5,298.5l-0.4,0.8c-0.2,0.3-0.5,0.4-0.8,0.3c-0.6-0.2-1.2-0.6-1.8-1
	c-0.3-0.2-0.3-0.6-0.1-0.9l0.4-0.8c-0.4-0.4-0.7-0.9-0.9-1.5H139c-0.3,0-0.6-0.2-0.7-0.6c-0.1-0.7-0.1-1.3,0-2
	c0.1-0.3,0.3-0.6,0.7-0.6h0.9c0.2-0.6,0.5-1.1,0.9-1.5l-0.4-0.8c-0.2-0.3-0.1-0.6,0.1-0.9c0.5-0.4,1.1-0.8,1.8-1
	c0.3-0.1,0.7,0,0.8,0.3l0.4,0.8c0.6-0.1,1.2-0.1,1.7,0l0.4-0.8c0.2-0.3,0.5-0.4,0.8-0.3c0.6,0.2,1.2,0.6,1.8,1
	c0.3,0.2,0.3,0.6,0.2,0.9l-0.4,0.8c0.4,0.4,0.7,1,0.9,1.5h0.9c0.3,0,0.6,0.2,0.7,0.6c0.1,0.7,0.1,1.3,0,2c-0.1,0.3-0.3,0.6-0.7,0.6
	h-0.9c-0.2,0.5-0.5,1.1-0.9,1.5l0.4,0.8c0.2,0.3,0.1,0.7-0.2,0.9c-0.5,0.4-1.1,0.8-1.8,1c-0.3,0.1-0.7,0-0.8-0.3l-0.4-0.8
	C144.7,298.6,144.1,298.6,143.5,298.5L143.5,298.5z M143,295.2c0.8,0.8,2.1,0.8,2.9,0c0.8-0.8,0.8-2.1,0-2.9s-2.1-0.8-2.9,0
	C142.2,293.2,142.2,294.5,143,295.2L143,295.2z"/>
<path class="st10" d="M166.8,209.1h64c2.2,0,4,1.8,4,4v18c0,2.2-1.8,4-4,4h-64c-2.2,0-4-1.8-4-4v-18
	C162.8,210.9,164.6,209.1,166.8,209.1z"/>
<text transform="matrix(1 0 0 1 181.91 227.67)" class="st11 st2 st3">PA A</text>
<path class="st10" d="M89,325.4h88c2.2,0,4,1.8,4,4v42c0,2.2-1.8,4-4,4H89c-2.2,0-4-1.8-4-4v-42C85,327.1,86.8,325.4,89,325.4z"/>
<text transform="matrix(1 0 0 1 120.64 345.96)" class="st11 st2 st3">SW</text>
<text transform="matrix(1 0 0 1 95.21 366.36)" class="st11 st2 st3">gestionale</text>
<path class="st10" d="M221.2,325.4h88c2.2,0,4,1.8,4,4v42c0,2.2-1.8,4-4,4h-88c-2.2,0-4-1.8-4-4v-42
	C217.2,327.1,219,325.4,221.2,325.4z"/>
<text transform="matrix(1 0 0 1 236.7 345.96)" class="st11 st2 st3">archivio</text>
<text transform="matrix(1 0 0 1 234.57 366.36)" class="st11 st2 st3">corrente</text>
<line class="st12" x1="181.9" y1="281.4" x2="213.4" y2="281.4"/>
<path class="st1" d="M169.9,281.4c5.7,2.1,12.7,5.7,17.1,9.5l-3.4-9.5l3.4-9.5C182.6,275.6,175.5,279.2,169.9,281.4z"/>
<line class="st12" x1="216.3" y1="281.4" x2="184.9" y2="281.4"/>
<path class="st1" d="M228.4,281.4c-5.7-2.1-12.7-5.7-17.1-9.5l3.4,9.5l-3.4,9.5C215.6,287.1,222.7,283.5,228.4,281.4z"/>
<path class="st1" d="M254.1,677.8c5.7,2.1,12.7,5.7,17.1,9.5l-3.4-9.5l3.4-9.5C266.9,672.1,259.8,675.7,254.1,677.8z"/>
<line class="st12" x1="456.8" y1="677.8" x2="267.8" y2="677.8"/>
<path class="st1" d="M470.5,677.8c-5.7-2.1-12.7-5.7-17.1-9.5l3.4,9.5l-3.4,9.5C457.8,683.5,464.8,679.9,470.5,677.8z"/>
<path class="st1" d="M581,677.8c5.7,2.1,12.7,5.7,17.1,9.5l-3.4-9.5l3.4-9.5C593.8,672.1,586.7,675.7,581,677.8z"/>
<line class="st12" x1="783.7" y1="677.8" x2="594.7" y2="677.8"/>
<path class="st1" d="M797.4,677.8c-5.7-2.1-12.7-5.7-17.1-9.5l3.4,9.5l-3.4,9.5C784.7,683.5,791.7,679.9,797.4,677.8z"/>
<line class="st12" x1="199.1" y1="419.2" x2="199.1" y2="450.6"/>
<path class="st1" d="M199.1,410.1c-2.1,5.7-5.7,12.7-9.5,17.1l9.5-3.4l9.5,3.4C204.8,422.8,201.2,415.8,199.1,410.1z"/>
<line class="st12" x1="199.1" y1="456.5" x2="199.1" y2="425.1"/>
<path class="st1" d="M199.1,468.6c2.1-5.7,5.7-12.7,9.5-17.1l-9.5,3.4l-9.5-3.4C193.4,455.9,197,462.9,199.1,468.6z"/>
<circle class="st6" cx="852.9" cy="167.9" r="32"/>
<rect x="839.1" y="178" class="st7" width="27.7" height="2.5"/>
<rect x="840.3" y="175.8" class="st7" width="25.1" height="1.4"/>
<rect x="840.3" y="161.9" class="st7" width="25.1" height="1.4"/>
<rect x="842.6" y="164.1" class="st7" width="3.3" height="10.8"/>
<rect x="848.3" y="164.1" class="st7" width="3.3" height="10.8"/>
<rect x="854" y="164.1" class="st7" width="3.3" height="10.8"/>
<rect x="859.7" y="164.1" class="st7" width="3.4" height="10.8"/>
<polygon class="st7" points="841,160.4 865.5,160.4 852.9,155.2 "/>
<path class="st8" d="M790.6,218.4h124c2.2,0,4,1.8,4,4v180c0,2.2-1.8,4-4,4h-124c-2.2,0-4-1.8-4-4v-180
	C786.6,220.1,788.4,218.4,790.6,218.4z"/>
<circle class="st9" cx="919" cy="285.6" r="32"/>
<path class="st7" d="M930.3,275.7c0,1.6-5.1,2.8-11.3,2.8s-11.3-1.3-11.3-2.8s5.1-2.8,11.3-2.8S930.3,274.1,930.3,275.7z"/>
<path class="st7" d="M919,280.4c-6.2,0-11.3-1.3-11.3-2.8v5.7c0,1.5,5.1,2.8,11.3,2.8s11.3-1.3,11.3-2.8v-5.7
	C930.3,279,925.2,280.4,919,280.4z"/>
<path class="st7" d="M919,287.9c-6.2,0-11.3-1.3-11.3-2.8v5.7c0,1.5,5.1,2.8,11.3,2.8s11.3-1.3,11.3-2.8v-5.7
	C930.3,286.6,925.2,287.9,919,287.9z"/>
<path class="st7" d="M919,295.5c-6.2,0-11.3-1.3-11.3-2.8v5.7c0,1.5,5.1,2.8,11.3,2.8s11.3-1.3,11.3-2.8v-5.7
	C930.3,294.2,925.2,295.5,919,295.5L919,295.5z"/>
<circle class="st9" cx="786.8" cy="285.6" r="32"/>
<path class="st7" d="M797.3,282.1l-0.5,0.8c-0.2,0.3-0.5,0.4-0.8,0.3c-0.6-0.2-1.2-0.6-1.8-1c-0.3-0.2-0.3-0.6-0.2-0.9l0.5-0.8
	c-0.4-0.4-0.7-1-0.9-1.5h-0.9c-0.3,0-0.6-0.2-0.7-0.6c-0.1-0.7-0.1-1.3,0-2c0.1-0.3,0.3-0.6,0.7-0.6h0.9c0.2-0.5,0.5-1.1,0.9-1.5
	l-0.5-0.8c-0.2-0.3-0.1-0.7,0.2-0.9c0.5-0.4,1.1-0.8,1.8-1c0.3-0.1,0.7,0,0.8,0.3l0.5,0.8c0.6-0.1,1.2-0.1,1.7,0l0.5-0.8
	c0.2-0.3,0.5-0.4,0.8-0.3c0.6,0.2,1.2,0.6,1.8,1c0.2,0.2,0.3,0.6,0.2,0.9l-0.5,0.8c0.4,0.4,0.7,1,0.9,1.5h0.9c0.3,0,0.6,0.2,0.7,0.6
	c0.1,0.7,0.1,1.3,0,2c-0.1,0.3-0.3,0.6-0.7,0.6h-0.9c-0.2,0.5-0.5,1.1-0.9,1.5l0.5,0.8c0.2,0.3,0.1,0.6-0.2,0.9
	c-0.5,0.4-1.1,0.8-1.8,1c-0.3,0.1-0.7,0-0.8-0.3l-0.5-0.8C798.5,282.2,797.9,282.2,797.3,282.1z M796.8,278.9c0.8,0.8,2.1,0.8,2.9,0
	c0.8-0.8,0.8-2.1,0-2.9s-2.1-0.8-2.9,0C795.9,276.8,795.9,278.1,796.8,278.9L796.8,278.9z M790.4,287.4l1.8,0.9
	c0.6,0.3,0.8,1,0.6,1.6c-0.6,1.3-1.4,2.5-2.3,3.6c-0.4,0.5-1.1,0.6-1.7,0.3l-1.6-0.9c-0.9,0.8-1.9,1.3-3,1.7v1.8
	c0,0.6-0.5,1.2-1.1,1.3c-1.4,0.2-2.8,0.2-4.2,0c-0.6-0.1-1.1-0.7-1.1-1.3v-1.8c-1.1-0.4-2.1-1-3-1.7l-1.6,0.9
	c-0.6,0.3-1.3,0.2-1.7-0.3c-1-1.1-1.7-2.3-2.3-3.6c-0.2-0.6,0-1.3,0.6-1.6l1.8-0.9c-0.2-1.2-0.2-2.3,0-3.5l-1.8-0.9
	c-0.6-0.3-0.8-1-0.6-1.6c0.6-1.3,1.3-2.5,2.3-3.6c0.4-0.5,1.1-0.6,1.7-0.3l1.6,0.9c0.9-0.8,1.9-1.4,3-1.7v-1.9
	c0-0.6,0.5-1.2,1.1-1.3c1.4-0.2,2.8-0.2,4.2,0c0.6,0.1,1.1,0.7,1.1,1.3v1.8c1.1,0.4,2.1,1,3,1.7l1.6-0.9c0.5-0.3,1.3-0.2,1.7,0.3
	c1,1.1,1.7,2.3,2.3,3.6c0.2,0.6,0,1.3-0.5,1.6l-1.8,0.9C790.7,285,790.7,286.2,790.4,287.4z M784,288.5c3.2-4.2-1.6-9-5.8-5.8
	C774.9,286.9,779.8,291.7,784,288.5z M797.4,298.5l-0.5,0.8c-0.2,0.3-0.5,0.4-0.8,0.3c-0.6-0.2-1.2-0.6-1.8-1
	c-0.3-0.2-0.3-0.6-0.2-0.9l0.5-0.8c-0.4-0.4-0.7-1-0.9-1.5h-0.9c-0.3,0-0.6-0.2-0.7-0.6c-0.1-0.7-0.1-1.3,0-2c0-0.3,0.3-0.6,0.7-0.6
	h0.9c0.2-0.6,0.5-1.1,0.9-1.5l-0.5-0.8c-0.2-0.3-0.1-0.7,0.2-0.9c0.5-0.4,1.1-0.8,1.8-1c0.3-0.1,0.7,0,0.8,0.3l0.5,0.8
	c0.6-0.1,1.2-0.1,1.7,0l0.5-0.8c0.2-0.3,0.5-0.4,0.8-0.3c0.6,0.2,1.2,0.6,1.8,1c0.3,0.2,0.3,0.6,0.2,0.9l-0.5,0.8
	c0.4,0.4,0.7,1,0.9,1.5h0.9c0.3,0,0.6,0.2,0.7,0.6c0.1,0.7,0.1,1.3,0,2c-0.1,0.3-0.3,0.6-0.7,0.6h-0.9c-0.2,0.5-0.5,1.1-0.9,1.5
	l0.5,0.8c0.2,0.3,0.1,0.7-0.2,0.9c-0.5,0.4-1.1,0.8-1.8,1c-0.3,0.1-0.7,0-0.8-0.3l-0.5-0.8C798.5,298.6,797.9,298.6,797.4,298.5
	L797.4,298.5z M796.8,295.2c0.8,0.8,2.1,0.8,2.9,0s0.8-2.1,0-2.9l0,0c-0.8-0.8-2.1-0.8-2.9,0S796,294.4,796.8,295.2z"/>
<path class="st10" d="M820.6,209.1h64c2.2,0,4,1.8,4,4v18c0,2.2-1.8,4-4,4h-64c-2.2,0-4-1.8-4-4v-18
	C816.6,210.9,818.4,209.1,820.6,209.1z"/>
<text transform="matrix(1 0 0 1 836.16 227.67)" class="st11 st2 st3">PA C</text>
<path class="st10" d="M742.8,325.4h88c2.2,0,4,1.8,4,4v42c0,2.2-1.8,4-4,4h-88c-2.2,0-4-1.8-4-4v-42
	C738.8,327.1,740.6,325.4,742.8,325.4z"/>
<text transform="matrix(1 0 0 1 774.42 345.96)" class="st11 st2 st3">SW</text>
<text transform="matrix(1 0 0 1 748.99 366.36)" class="st11 st2 st3">gestionale</text>
<path class="st10" d="M875,325.4h88c2.2,0,4,1.8,4,4v42c0,2.2-1.8,4-4,4h-88c-2.2,0-4-1.8-4-4v-42C871,327.1,872.8,325.4,875,325.4z
	"/>
<text transform="matrix(1 0 0 1 890.48 345.96)" class="st11 st2 st3">archivio</text>
<text transform="matrix(1 0 0 1 888.35 366.36)" class="st11 st2 st3">corrente</text>
<line class="st12" x1="835.7" y1="281.4" x2="867.1" y2="281.4"/>
<path class="st1" d="M823.6,281.4c5.7,2.1,12.7,5.7,17.1,9.5l-3.4-9.5l3.4-9.5C836.4,275.6,829.3,279.2,823.6,281.4z"/>
<line class="st12" x1="870.1" y1="281.4" x2="838.6" y2="281.4"/>
<path class="st1" d="M882.1,281.4c-5.7-2.1-12.7-5.7-17.1-9.5l3.4,9.5l-3.4,9.5C869.4,287.1,876.5,283.5,882.1,281.4z"/>
<line class="st12" x1="852.9" y1="419.2" x2="852.9" y2="450.6"/>
<path class="st1" d="M852.9,410.1c-2.1,5.7-5.7,12.7-9.5,17.1l9.5-3.4l9.5,3.4C858.6,422.8,855,415.8,852.9,410.1z"/>
<line class="st12" x1="852.9" y1="456.5" x2="852.9" y2="425.1"/>
<path class="st1" d="M852.9,468.6c2.1-5.7,5.7-12.7,9.5-17.1l-9.5,3.4l-9.5-3.4C847.2,455.9,850.8,462.9,852.9,468.6z"/>
<circle class="st6" cx="526.5" cy="167.9" r="32"/>
<rect x="512.7" y="178" class="st7" width="27.7" height="2.5"/>
<rect x="514" y="175.8" class="st7" width="25.1" height="1.4"/>
<rect x="514" y="161.9" class="st7" width="25.1" height="1.4"/>
<rect x="516.2" y="164.1" class="st7" width="3.3" height="10.8"/>
<rect x="522" y="164.1" class="st7" width="3.3" height="10.8"/>
<rect x="527.7" y="164.1" class="st7" width="3.3" height="10.8"/>
<rect x="533.4" y="164.1" class="st7" width="3.4" height="10.8"/>
<polygon class="st7" points="514.6,160.4 539.1,160.4 526.5,155.2 "/>
<path class="st8" d="M464.2,218.4h124c2.2,0,4,1.8,4,4v180c0,2.2-1.8,4-4,4h-124c-2.2,0-4-1.8-4-4v-180
	C460.2,220.1,462,218.4,464.2,218.4z"/>
<circle class="st9" cx="592.6" cy="285.6" r="32"/>
<path class="st7" d="M604,275.7c0,1.6-5.1,2.8-11.3,2.8s-11.3-1.3-11.3-2.8s5.1-2.8,11.3-2.8S604,274.1,604,275.7z"/>
<path class="st7" d="M592.6,280.4c-6.2,0-11.3-1.3-11.3-2.8v5.7c0,1.5,5.1,2.8,11.3,2.8s11.4-1.3,11.4-2.8v-5.7
	C604,279.1,598.9,280.4,592.6,280.4L592.6,280.4z"/>
<path class="st7" d="M592.6,287.9c-6.2,0-11.3-1.3-11.3-2.8v5.7c0,1.5,5.1,2.8,11.3,2.8s11.4-1.3,11.4-2.8v-5.7
	C604,286.6,598.9,287.9,592.6,287.9L592.6,287.9z"/>
<path class="st7" d="M592.6,295.5c-6.2,0-11.3-1.3-11.3-2.8v5.7c0,1.5,5.1,2.8,11.3,2.8s11.4-1.3,11.4-2.8v-5.7
	C604,294.2,598.9,295.5,592.6,295.5L592.6,295.5z"/>
<circle class="st9" cx="460.4" cy="285.6" r="32"/>
<path class="st7" d="M471,282.1l-0.5,0.8c-0.2,0.3-0.5,0.4-0.8,0.3c-0.6-0.2-1.2-0.6-1.8-1c-0.3-0.2-0.3-0.6-0.1-0.9l0.5-0.8
	c-0.4-0.4-0.7-1-0.9-1.5h-0.9c-0.3,0-0.6-0.2-0.7-0.6c-0.1-0.7-0.1-1.3,0-2c0.1-0.3,0.3-0.6,0.7-0.6h0.9c0.2-0.5,0.5-1.1,0.9-1.5
	l-0.5-0.8c-0.2-0.3-0.1-0.7,0.1-0.9c0.5-0.4,1.1-0.8,1.8-1c0.3-0.1,0.7,0,0.8,0.3l0.5,0.8c0.6-0.1,1.2-0.1,1.7,0l0.5-0.8
	c0.2-0.3,0.5-0.4,0.8-0.3c0.6,0.2,1.2,0.6,1.8,1c0.3,0.2,0.3,0.6,0.1,0.9l-0.5,0.8c0.4,0.4,0.7,1,0.9,1.5h0.9c0.3,0,0.6,0.2,0.7,0.6
	c0.1,0.7,0.1,1.3,0,2c-0.1,0.3-0.3,0.6-0.7,0.6h-0.9c-0.2,0.5-0.5,1.1-0.9,1.5l0.5,0.8c0.2,0.3,0.1,0.7-0.1,0.9
	c-0.5,0.4-1.1,0.8-1.8,1c-0.3,0.1-0.7,0-0.8-0.3l-0.5-0.8C472.2,282.2,471.6,282.2,471,282.1z M470.4,278.9c0.8,0.8,2.1,0.8,2.9,0
	s0.8-2.1,0-2.9c-0.8-0.8-2.1-0.8-2.9,0C469.6,276.7,469.6,278,470.4,278.9L470.4,278.9L470.4,278.9z M464.1,287.4l1.9,0.9
	c0.6,0.3,0.8,1,0.6,1.6c-0.6,1.3-1.4,2.5-2.3,3.6c-0.4,0.5-1.1,0.6-1.7,0.3l-1.6-0.9c-0.9,0.8-1.9,1.3-3,1.7v1.8
	c0,0.6-0.5,1.2-1.1,1.3c-1.4,0.2-2.8,0.2-4.2,0c-0.6-0.1-1.1-0.7-1.1-1.3v-1.8c-1.1-0.4-2.1-1-3-1.7l-1.6,0.9
	c-0.5,0.3-1.3,0.2-1.7-0.3c-1-1.1-1.8-2.3-2.3-3.6c-0.2-0.6,0-1.3,0.6-1.6l1.8-0.9c-0.2-1.1-0.2-2.3,0-3.5l-1.8-0.9
	c-0.6-0.3-0.8-1-0.6-1.6c0.6-1.3,1.4-2.6,2.3-3.6c0.4-0.5,1.1-0.6,1.7-0.3l1.6,0.9c0.9-0.8,1.9-1.4,3-1.7v-1.9
	c0-0.6,0.4-1.2,1.1-1.3c1.4-0.2,2.8-0.2,4.2,0c0.6,0.1,1.1,0.7,1.1,1.3v1.8c1.1,0.4,2.1,1,3,1.7l1.6-0.9c0.5-0.3,1.3-0.2,1.7,0.3
	c1,1.1,1.8,2.3,2.3,3.6c0.2,0.6,0,1.3-0.5,1.6l-1.9,0.9C464.3,285,464.3,286.2,464.1,287.4z M457.6,288.5c3.2-4.2-1.6-9-5.8-5.8
	C448.6,286.9,453.4,291.7,457.6,288.5L457.6,288.5z M471,298.5l-0.5,0.8c-0.2,0.3-0.5,0.4-0.8,0.3c-0.6-0.2-1.2-0.6-1.8-1
	c-0.3-0.2-0.3-0.6-0.1-0.9l0.5-0.8c-0.4-0.4-0.7-1-0.9-1.5h-0.9c-0.3,0-0.6-0.2-0.7-0.6c-0.1-0.7-0.1-1.3,0-2
	c0.1-0.3,0.3-0.6,0.7-0.6h0.9c0.2-0.6,0.5-1.1,0.9-1.5l-0.5-0.8c-0.2-0.3-0.1-0.7,0.1-0.9c0.5-0.4,1.1-0.8,1.8-1
	c0.3-0.1,0.7,0,0.8,0.3l0.5,0.8c0.6-0.1,1.2-0.1,1.7,0l0.5-0.8c0.2-0.3,0.5-0.4,0.8-0.3c0.6,0.2,1.2,0.6,1.8,1
	c0.3,0.2,0.3,0.6,0.1,0.9l-0.5,0.8c0.4,0.4,0.7,1,0.9,1.5h0.9c0.3,0,0.6,0.2,0.7,0.6c0.1,0.7,0.1,1.3,0,2c-0.1,0.3-0.3,0.6-0.7,0.6
	h-0.9c-0.2,0.5-0.5,1.1-0.9,1.5l0.5,0.8c0.2,0.3,0.1,0.7-0.1,0.9c-0.5,0.4-1.1,0.8-1.8,1c-0.3,0.1-0.7,0-0.8-0.3l-0.5-0.8
	C472.1,298.6,471.6,298.6,471,298.5L471,298.5z M470.4,295.3c0.8,0.8,2.1,0.8,2.9,0c0.8-0.8,0.8-2.1,0-2.9l0,0
	c-0.8-0.8-2.1-0.8-2.9,0C469.6,293.2,469.6,294.5,470.4,295.3z"/>
<path class="st10" d="M494.2,209.1h64c2.2,0,4,1.8,4,4v18c0,2.2-1.8,4-4,4h-64c-2.2,0-4-1.8-4-4v-18
	C490.2,210.9,492,209.1,494.2,209.1z"/>
<text transform="matrix(1 0 0 1 509.22 227.67)" class="st11 st2 st3">PA B</text>
<path class="st10" d="M416.4,325.4h88c2.2,0,4,1.8,4,4v42c0,2.2-1.8,4-4,4h-88c-2.2,0-4-1.8-4-4v-42
	C412.4,327.1,414.2,325.4,416.4,325.4z"/>
<text transform="matrix(1 0 0 1 448.06 345.96)" class="st11 st2 st3">SW</text>
<text transform="matrix(1 0 0 1 422.63 366.36)" class="st11 st2 st3">gestionale</text>
<path class="st10" d="M548.6,325.4h88c2.2,0,4,1.8,4,4v42c0,2.2-1.8,4-4,4h-88c-2.2,0-4-1.8-4-4v-42
	C544.6,327.1,546.4,325.4,548.6,325.4z"/>
<text transform="matrix(1 0 0 1 564.12 345.96)" class="st11 st2 st3">archivio</text>
<text transform="matrix(1 0 0 1 561.99 366.36)" class="st11 st2 st3">corrente</text>
<line class="st12" x1="509.4" y1="281.4" x2="540.8" y2="281.4"/>
<path class="st1" d="M497.3,281.4c5.7,2.1,12.7,5.7,17.1,9.5l-3.4-9.5l3.4-9.5C510,275.6,503,279.2,497.3,281.4z"/>
<line class="st12" x1="543.7" y1="281.4" x2="512.3" y2="281.4"/>
<path class="st1" d="M555.8,281.4c-5.7-2.1-12.7-5.7-17.1-9.5l3.4,9.5l-3.4,9.5C543,287.1,550.1,283.5,555.8,281.4z"/>
<line class="st12" x1="526.5" y1="419.2" x2="526.5" y2="450.6"/>
<path class="st1" d="M526.5,410.1c-2.1,5.7-5.7,12.7-9.5,17.1l9.5-3.4l9.5,3.4C532.2,422.8,528.6,415.8,526.5,410.1z"/>
<line class="st12" x1="526.5" y1="456.5" x2="526.5" y2="425.1"/>
<path class="st1" d="M526.5,468.6c2.1-5.7,5.7-12.7,9.5-17.1l-9.5,3.4l-9.5-3.4C520.8,455.9,524.4,462.9,526.5,468.6z"/>
<circle class="st13" cx="199.2" cy="666.6" r="50"/>
<path class="st7" d="M216.9,651.1c0,2.5-7.9,4.4-17.7,4.4s-17.7-2-17.7-4.4s7.9-4.4,17.7-4.4S216.9,648.7,216.9,651.1z"/>
<path class="st7" d="M199.2,658.4c-9.7,0-17.7-2-17.7-4.4v8.8c0,2.4,8,4.4,17.7,4.4s17.7-2.1,17.7-4.4V654
	C216.9,656.4,208.9,658.4,199.2,658.4z"/>
<path class="st7" d="M199.2,670.2c-9.7,0-17.7-2-17.7-4.4v8.9c0,2.3,8,4.4,17.7,4.4s17.7-2.1,17.7-4.4v-8.9
	C216.9,668.2,208.9,670.2,199.2,670.2z"/>
<path class="st7" d="M199.2,682c-9.7,0-17.7-2.1-17.7-4.4v8.8c0,2.4,8,4.4,17.7,4.4s17.7-2.1,17.7-4.4v-8.8
	C216.9,680,208.9,682,199.2,682z"/>
<circle class="st13" cx="525.2" cy="666.6" r="50"/>
<path class="st7" d="M542.9,651.1c0,2.5-7.9,4.4-17.7,4.4s-17.7-2-17.7-4.4s7.9-4.4,17.7-4.4S542.9,648.7,542.9,651.1z"/>
<path class="st7" d="M525.2,658.4c-9.7,0-17.7-2-17.7-4.4v8.8c0,2.4,8,4.4,17.7,4.4s17.7-2.1,17.7-4.4V654
	C542.9,656.4,534.9,658.4,525.2,658.4z"/>
<path class="st7" d="M525.2,670.2c-9.7,0-17.7-2-17.7-4.4v8.9c0,2.3,8,4.4,17.7,4.4s17.7-2.1,17.7-4.4v-8.9
	C542.9,668.2,534.9,670.2,525.2,670.2z"/>
<path class="st7" d="M525.2,682c-9.7,0-17.7-2.1-17.7-4.4v8.8c0,2.4,8,4.4,17.7,4.4s17.7-2.1,17.7-4.4v-8.8
	C542.9,680,534.9,682,525.2,682z"/>
<circle class="st13" cx="853.2" cy="666.6" r="50"/>
<path class="st7" d="M870.9,651.1c0,2.5-7.9,4.4-17.7,4.4s-17.7-2-17.7-4.4s7.9-4.4,17.7-4.4S870.9,648.7,870.9,651.1z"/>
<path class="st7" d="M853.2,658.4c-9.7,0-17.7-2-17.7-4.4v8.8c0,2.4,8,4.4,17.7,4.4s17.7-2.1,17.7-4.4V654
	C870.9,656.4,862.9,658.4,853.2,658.4z"/>
<path class="st7" d="M853.2,670.2c-9.7,0-17.7-2-17.7-4.4v8.9c0,2.3,8,4.4,17.7,4.4s17.7-2.1,17.7-4.4v-8.9
	C870.9,668.2,862.9,670.2,853.2,670.2z"/>
<path class="st7" d="M853.2,682c-9.7,0-17.7-2.1-17.7-4.4v8.8c0,2.4,8,4.4,17.7,4.4s17.7-2.1,17.7-4.4v-8.8
	C870.9,680,862.9,682,853.2,682z"/>
<path class="st10" d="M73,742.3h252c2.2,0,4,1.8,4,4v18c0,2.2-1.8,4-4,4H73c-2.2,0-4-1.8-4-4v-18C69,744.1,70.8,742.3,73,742.3z"/>
<text transform="matrix(1 0 0 1 120.8 760.96)" class="st11 st2 st3">Archivio di deposito A</text>
<path class="st10" d="M399,742.3h252c2.2,0,4,1.8,4,4v18c0,2.2-1.8,4-4,4H399c-2.2,0-4-1.8-4-4v-18C395,744.1,396.8,742.3,399,742.3
	z"/>
<text transform="matrix(1 0 0 1 446.69 760.96)" class="st11 st2 st3">Archivio di deposito B</text>
<path class="st10" d="M399,905.3h252c2.2,0,4,1.8,4,4v18c0,2.2-1.8,4-4,4H399c-2.2,0-4-1.8-4-4v-18C395,907.1,396.8,905.3,399,905.3
	z"/>
<text transform="matrix(1 0 0 1 473.57 923.96)" class="st11 st2 st3">Esibizione doc</text>
<line class="st12" x1="216.4" y1="844.2" x2="525" y2="1057.3"/>
<path class="st1" d="M206.5,837.3c3.5,5,7.2,11.9,8.7,17.5l2.6-9.8l8.2-5.9C220.2,839.9,212.4,838.8,206.5,837.3z"/>
<path class="st0" d="M358.4,957.1l-74.1-51.5c-1.8-1.3-2.3-3.8-1-5.6c0,0,0,0,0,0l10.3-14.7c1.3-1.8,3.8-2.3,5.6-1c0,0,0,0,0,0
	l74.1,51.5c1.8,1.3,2.3,3.8,1,5.6c0,0,0,0,0,0L364,956.1C362.7,957.9,360.2,958.4,358.4,957.1C358.4,957.1,358.4,957.1,358.4,957.1z
	"/>
<text transform="matrix(0.8184 0.5747 -0.5747 0.8184 299.2098 906.7999)" class="st1 st2 st3">Vigilanza</text>
<path class="st10" d="M727,742.3h252c2.2,0,4,1.8,4,4v18c0,2.2-1.8,4-4,4H727c-2.2,0-4-1.8-4-4v-18C723,744.1,724.8,742.3,727,742.3
	z"/>
<text transform="matrix(1 0 0 1 775.27 760.96)" class="st11 st2 st3">Archivio di deposito C</text>
<line class="st12" x1="271.7" y1="154.5" x2="525.1" y2="92.1"/>
<path class="st1" d="M260,157.4c6,0.7,13.7,2.5,18.9,5.1l-5.6-8.4l1.1-10.1C271,148.8,265,154,260,157.4z"/>
<line class="st12" x1="778.6" y1="154.1" x2="525.1" y2="92.1"/>
<path class="st1" d="M790.3,157c-5-3.4-11-8.6-14.3-13.3l1,10.1l-5.6,8.4C776.6,159.5,784.3,157.7,790.3,157z"/>
<line class="st12" x1="198.1" y1="564.2" x2="198.1" y2="595.6"/>
<path class="st1" d="M198.1,552.1c-2.1,5.7-5.7,12.7-9.5,17.1l9.5-3.4l9.5,3.4C203.8,564.8,200.2,557.8,198.1,552.1z"/>
<line class="st12" x1="198.1" y1="598.5" x2="198.1" y2="567.1"/>
<path class="st1" d="M198.1,610.6c2.1-5.7,5.7-12.7,9.5-17.1l-9.5,3.4l-9.5-3.4C192.4,597.9,196,604.9,198.1,610.6z"/>
<path class="st1" d="M524.6,552.1c-2.1,5.7-5.7,12.7-9.5,17.1l9.5-3.4l9.5,3.4C530.3,564.8,526.7,557.8,524.6,552.1z"/>
<line class="st12" x1="524.6" y1="598.5" x2="524.6" y2="567.1"/>
<path class="st1" d="M524.6,610.6c2.1-5.7,5.7-12.7,9.5-17.1l-9.5,3.4l-9.5-3.4C518.9,597.9,522.5,604.9,524.6,610.6z"/>
<line class="st12" x1="525.1" y1="870.2" x2="525.1" y2="901.6"/>
<path class="st1" d="M525.1,858.1c-2.1,5.7-5.7,12.7-9.5,17.1l9.5-3.4l9.5,3.4C530.8,870.8,527.2,863.8,525.1,858.1z"/>
<line class="st12" x1="525.1" y1="966.5" x2="525.1" y2="935.1"/>
<path class="st1" d="M525.1,978.6c2.1-5.7,5.7-12.7,9.5-17.1l-9.5,3.4l-9.5-3.4C519.4,965.9,523,972.9,525.1,978.6z"/>
<line class="st12" x1="852.1" y1="564.2" x2="852.1" y2="595.6"/>
<path class="st1" d="M852.1,552.1c-2.1,5.7-5.7,12.7-9.5,17.1l9.5-3.4l9.5,3.4C857.8,564.8,854.2,557.8,852.1,552.1z"/>
<line class="st12" x1="852.1" y1="598.5" x2="852.1" y2="567.1"/>
<path class="st1" d="M852.1,610.6c2.1-5.7,5.7-12.7,9.5-17.1l-9.5,3.4l-9.5-3.4C846.4,597.9,850,604.9,852.1,610.6z"/>
<path class="st12" d="M135.4,667.3"/>
<g>
	<path class="st1" d="M147.5,651.7c-5.7-2-12.7-5.4-17.1-9l3.4,9l-3.4,9C134.8,657.1,141.8,653.7,147.5,651.7z"/>
	<polyline class="st12" points="133.8,651.7 61.7,651.7 61.7,391 131.2,391 	"/>
</g>
<g>
	<path class="st1" d="M474.9,651.7c-5.7-2-12.7-5.4-17.1-9l3.4,9l-3.4,9C462.2,657.1,469.2,653.7,474.9,651.7z"/>
	<polyline class="st12" points="461.2,651.7 389.1,651.7 389.1,391 458.6,391 	"/>
</g>
<g>
	<path class="st1" d="M801.3,651.7c-5.7-2-12.7-5.4-17.1-9l3.4,9l-3.4,9C788.6,657.1,795.6,653.7,801.3,651.7z"/>
	<polyline class="st12" points="787.6,651.7 715.4,651.7 715.4,391 785,391 	"/>
</g>
<path class="st10" d="M89,472.4h874c2.2,0,4,1.8,4,4v66c0,2.2-1.8,4-4,4H89c-2.2,0-4-1.8-4-4v-66C85,474.1,86.8,472.4,89,472.4z"/>
<text transform="matrix(1 0 0 1 506.26 503.76)" class="st11 st2 st3">SGPA</text>
<text transform="matrix(1 0 0 1 353.88 524.16)" class="st11 st2 st3">(gestione procedimenti tra più amministrazioni)</text>
<path class="st14" d="M49,436.4h955c2.2,0,4,1.8,4,4v377c0,2.2-1.8,4-4,4H49c-2.2,0-4-1.8-4-4v-377C45,438.1,46.8,436.4,49,436.4z"
	/>
<path class="st10" d="M397,1116.3h259c2.2,0,4,1.8,4,4v18c0,2.2-1.8,4-4,4H397c-2.2,0-4-1.8-4-4v-18
	C393,1118.1,394.8,1116.3,397,1116.3z"/>
<text transform="matrix(1 0 0 1 412.34 1134.96)" class="st11 st2 st3">DIREZIONE GENERALE ARCHIVI</text>
<line class="st12" x1="836.1" y1="844.8" x2="521" y2="1042.3"/>
<path class="st1" d="M846.4,838.3c-5.9,1.2-13.8,1.9-19.5,1l8,6.2l2.1,9.9C838.6,849.9,842.7,843.1,846.4,838.3z"/>
<path class="st0" d="M581.9,991.5l164.4-104.8c1.9-1.2,4.3-0.6,5.5,1.2l9.7,15.2c1.2,1.9,0.6,4.3-1.2,5.5l-164.4,104.8
	c-1.9,1.2-4.3,0.6-5.5-1.2l-9.7-15.2C579.5,995.1,580,992.7,581.9,991.5z"/>
<text transform="matrix(0.8412 -0.5408 0.5408 0.8412 602.7895 1000.2503)" class="st1 st2 st15">Conservazione perenne</text>
<circle class="st16" cx="525.1" cy="1039.9" r="50"/>
<rect x="503.5" y="1055.8" class="st7" width="43.2" height="4"/>
<rect x="505.5" y="1052.2" class="st7" width="39.2" height="2.2"/>
<rect x="505.5" y="1030.5" class="st7" width="39.2" height="2.2"/>
<rect x="509" y="1033.9" class="st7" width="5.2" height="16.9"/>
<rect x="518" y="1033.9" class="st7" width="5.2" height="16.9"/>
<rect x="526.9" y="1033.9" class="st7" width="5.2" height="16.9"/>
<rect x="535.8" y="1033.9" class="st7" width="5.2" height="16.9"/>
<polygon class="st7" points="506.5,1028.3 544.7,1028.3 525.1,1020 "/>
<line class="st12" x1="525.1" y1="123.5" x2="525.1" y2="92.1"/>
<path class="st1" d="M525.1,135.6c2.1-5.7,5.7-12.7,9.5-17.1l-9.5,3.4l-9.5-3.4C519.4,122.9,523,129.9,525.1,135.6z"/>
<text transform="matrix(1 0 0 1 433.32 826.96)" class="st11 st2 st3">POLI DI CONSERVAZIONE</text>
</svg>
