<?xml version="1.0" encoding="utf-8"?>
<!-- Generator: Adobe Illustrator 21.1.0, SVG Export Plug-In . SVG Version: 6.00 Build 0)  -->
<svg version="1.1" id="Livello_1" xmlns="http://www.w3.org/2000/svg" xmlns:xlink="http://www.w3.org/1999/xlink" x="0px" y="0px"
	 viewBox="0 0 485.4 208.3" style="enable-background:new 0 0 485.4 208.3;" xml:space="preserve">
<style type="text/css">
	.st0{fill:#00AAC9;}
	.st1{fill:#FFFFFF;}
	.st2{fill:#0E5F87;}
	.st3{fill:#CAFBFC;}
</style>
<g transform="matrix(1, 0, 0, 1, 243, -20)">
	<g id="Rectangle_47-2_9_">
		<rect x="-243" y="20" class="st0" width="485.4" height="208.3"/>
	</g>
</g>
<g>
	<path class="st1" d="M117.5,30.6V18.2h2v12.4H117.5z"/>
	<path class="st1" d="M122.3,30.6V18.2h3.5l3.8,10.6h0.3V18.2h2v12.4h-3.4L124.6,20h-0.3v10.6H122.3z"/>
	<path class="st1" d="M134.7,30.6V18.2h7.7V20h-5.7v4.2h4.7v1.7h-4.7v4.7H134.7z"/>
	<path class="st1" d="M146.2,26.2v4.4h-2V18.2h4.7c2.8,0,4.2,1.3,4.2,3.9c0,1.8-0.7,2.9-2,3.6l2,4.9h-2.2l-1.8-4.4H146.2z M151,22.2
		c0-1.5-0.7-2.2-2.1-2.2h-2.7v4.5h2.7c0.7,0,1.2-0.2,1.6-0.6C150.9,23.4,151,22.9,151,22.2z"/>
	<path class="st1" d="M154.2,30.6l3-12.4h4l3.1,12.4h-2l-0.7-2.7h-4.7l-0.7,2.7H154.2z M158.8,19.9l-1.5,6.3h3.9l-1.5-6.3H158.8z"/>
	<path class="st1" d="M169.5,19.8c-1.5,0-2.3,0.5-2.3,1.6c0,0.6,0.2,0.9,0.5,1.2s1.2,0.5,2.4,0.9s2.1,0.8,2.6,1.2
		c0.5,0.5,0.8,1.2,0.8,2.2c0,1.3-0.4,2.3-1.1,2.9c-0.7,0.6-1.7,1-3,1c-1,0-2.2-0.1-3.4-0.4l-0.6-0.1l0.2-1.6
		c1.6,0.2,2.9,0.3,3.7,0.3c1.5,0,2.2-0.7,2.2-2c0-0.5-0.2-0.9-0.5-1.1c-0.3-0.2-1.1-0.5-2.3-0.8c-1.2-0.3-2.1-0.7-2.6-1.2
		s-0.9-1.3-0.9-2.5s0.4-2,1.1-2.5c0.7-0.6,1.7-0.9,3-0.9c0.9,0,2,0.1,3.3,0.3l0.6,0.1l-0.2,1.6C171.4,19.9,170.2,19.8,169.5,19.8z"
		/>
	<path class="st1" d="M174.5,20v-1.8h9V20h-3.5v10.6h-2V20H174.5z"/>
	<path class="st1" d="M187.2,26.2v4.4h-2V18.2h4.7c2.8,0,4.2,1.3,4.2,3.9c0,1.8-0.7,2.9-2,3.6l2,4.9h-2.2l-1.8-4.4H187.2z M192,22.2
		c0-1.5-0.7-2.2-2.1-2.2h-2.7v4.5h2.7c0.7,0,1.2-0.2,1.6-0.6C191.8,23.4,192,22.9,192,22.2z"/>
	<path class="st1" d="M198.3,26.6c0,1.6,0.8,2.4,2.5,2.4c1.7,0,2.5-0.8,2.5-2.4v-8.4h2v8.4c0,1.5-0.4,2.5-1.1,3.2
		c-0.8,0.7-1.9,1-3.4,1s-2.6-0.3-3.4-1c-0.8-0.7-1.1-1.7-1.1-3.2v-8.4h2V26.6z"/>
	<path class="st1" d="M206.9,20v-1.8h9V20h-3.5v10.6h-2V20H206.9z"/>
	<path class="st1" d="M216.4,20v-1.8h9V20h-3.5v10.6h-2V20H216.4z"/>
	<path class="st1" d="M228.9,26.6c0,1.6,0.8,2.4,2.5,2.4c1.7,0,2.5-0.8,2.5-2.4v-8.4h2v8.4c0,1.5-0.4,2.5-1.1,3.2
		c-0.8,0.7-1.9,1-3.4,1s-2.6-0.3-3.4-1c-0.8-0.7-1.1-1.7-1.1-3.2v-8.4h2V26.6z"/>
	<path class="st1" d="M240.8,26.2v4.4h-2V18.2h4.7c2.8,0,4.2,1.3,4.2,3.9c0,1.8-0.7,2.9-2,3.6l2,4.9h-2.2l-1.8-4.4H240.8z
		 M245.6,22.2c0-1.5-0.7-2.2-2.1-2.2h-2.7v4.5h2.7c0.7,0,1.2-0.2,1.6-0.6C245.4,23.4,245.6,22.9,245.6,22.2z"/>
	<path class="st1" d="M249.9,30.6V18.2h7.8V20h-5.8v3.5h4.7v1.7h-4.7v3.6h5.8v1.8H249.9z"/>
	<path class="st1" d="M263.8,30.6V18.2h2v12.4H263.8z"/>
	<path class="st1" d="M268.7,30.6V18.2h3.5l2.8,9.6l2.8-9.6h3.5v12.4h-2V20.4h-0.3l-2.9,9.6h-2.1l-2.9-9.6h-0.3v10.1H268.7z"/>
	<path class="st1" d="M284,30.6V18.2h3.5l2.8,9.6l2.8-9.6h3.5v12.4h-2V20.4h-0.3l-2.9,9.6h-2.1l-2.9-9.6H286v10.1H284z"/>
	<path class="st1" d="M298.3,30.6l3-12.4h4l3.1,12.4h-2l-0.7-2.7h-4.7l-0.7,2.7H298.3z M302.9,19.9l-1.5,6.3h3.9l-1.5-6.3H302.9z"/>
	<path class="st1" d="M308.2,20v-1.8h9V20h-3.5v10.6h-2V20H308.2z"/>
	<path class="st1" d="M318.9,30.6V18.2h7.8V20h-5.8v3.5h4.7v1.7h-4.7v3.6h5.8v1.8H318.9z"/>
	<path class="st1" d="M330.9,26.2v4.4h-2V18.2h4.7c2.8,0,4.2,1.3,4.2,3.9c0,1.8-0.7,2.9-2,3.6l2,4.9h-2.2l-1.8-4.4H330.9z
		 M335.7,22.2c0-1.5-0.7-2.2-2.1-2.2h-2.7v4.5h2.7c0.7,0,1.2-0.2,1.6-0.6C335.5,23.4,335.7,22.9,335.7,22.2z"/>
	<path class="st1" d="M340,30.6V18.2h2v12.4H340z"/>
	<path class="st1" d="M343.8,30.6l3-12.4h4l3.1,12.4h-2l-0.7-2.7h-4.7l-0.7,2.7H343.8z M348.4,19.9l-1.5,6.3h3.9l-1.5-6.3H348.4z"/>
	<path class="st1" d="M362.6,30.6h-6.9V18.2h2v10.6h4.9V30.6z"/>
	<path class="st1" d="M364.2,30.6V18.2h2v12.4H364.2z"/>
</g>
<g>
	<rect x="9.1" y="51.2" class="st2" width="228" height="144.3"/>
</g>
<g>
	<path class="st1" d="M50.4,75.3h-1.9v2.9H47v-9.4h3.4c2.1,0,3.2,1.1,3.2,3.2c0,1.1-0.3,1.9-0.8,2.5C52.3,75,51.5,75.3,50.4,75.3z
		 M48.5,74h1.9c1.1,0,1.6-0.7,1.6-2c0-0.6-0.1-1.1-0.4-1.4c-0.3-0.3-0.7-0.4-1.3-0.4h-1.9V74z"/>
	<path class="st1" d="M55.1,78.3v-9.4h1.5v9.4H55.1z"/>
	<path class="st1" d="M58,78.3l2.3-9.4h3l2.3,9.4h-1.5l-0.5-2H60l-0.5,2H58z M61.5,70.1l-1.2,4.8h3l-1.2-4.8H61.5z"/>
	<path class="st1" d="M65.6,70.2v-1.4h6.9v1.4h-2.7v8.1h-1.5v-8.1H65.6z"/>
	<path class="st1" d="M72.8,70.2v-1.4h6.9v1.4H77v8.1h-1.5v-8.1H72.8z"/>
	<path class="st1" d="M79.6,78.3l2.3-9.4h3l2.3,9.4h-1.5l-0.5-2h-3.6l-0.5,2H79.6z M83.1,70.1l-1.2,4.8h3l-1.2-4.8H83.1z"/>
	<path class="st1" d="M88.6,78.3v-9.4h5.8v1.3h-4.3v3.2h3.6v1.3h-3.6v3.6H88.6z"/>
	<path class="st1" d="M102.2,77.3c-0.6,0.8-1.6,1.2-3,1.2s-2.4-0.4-3-1.2c-0.6-0.8-0.9-2-0.9-3.6c0-1.7,0.3-2.9,0.9-3.7
		s1.6-1.2,3-1.2s2.4,0.4,3,1.2s0.9,2,0.9,3.7C103.1,75.3,102.8,76.5,102.2,77.3z M97.5,76.3c0.3,0.5,0.9,0.8,1.8,0.8
		s1.5-0.3,1.8-0.8c0.3-0.5,0.5-1.4,0.5-2.7c0-1.3-0.2-2.2-0.5-2.7c-0.3-0.6-0.9-0.9-1.8-0.9s-1.5,0.3-1.8,0.9
		c-0.3,0.6-0.5,1.5-0.5,2.7C97,74.8,97.1,75.7,97.5,76.3z"/>
	<path class="st1" d="M106.4,74.9v3.4h-1.5v-9.4h3.6c2.1,0,3.2,1,3.2,3c0,1.3-0.5,2.2-1.5,2.7l1.6,3.7h-1.7l-1.4-3.4H106.4z
		 M110,71.9c0-1.1-0.5-1.7-1.6-1.7h-2v3.4h2.1c0.5,0,1-0.2,1.2-0.5C109.9,72.8,110,72.4,110,71.9z"/>
	<path class="st1" d="M113.3,78.3v-9.4h2.7l2.1,7.4l2.1-7.4h2.7v9.4h-1.5v-7.7h-0.2l-2.2,7.3h-1.6l-2.2-7.3h-0.2v7.7H113.3z"/>
	<path class="st1" d="M125,78.3v-9.4h5.9v1.3h-4.4v2.7h3.6v1.3h-3.6v2.7h4.4v1.3H125z"/>
	<path class="st1" d="M134.8,78.3l2.3-9.4h3l2.3,9.4H141l-0.5-2h-3.6l-0.5,2H134.8z M138.3,70.1l-1.2,4.8h3l-1.2-4.8H138.3z"/>
	<path class="st1" d="M143.9,68.8h3.6c1,0,1.7,0.2,2.2,0.6c0.5,0.4,0.7,1,0.7,1.9c0,0.6-0.1,1-0.3,1.3s-0.5,0.6-0.8,0.8
		c0.9,0.3,1.3,1.1,1.3,2.2c0,1.8-1,2.7-3,2.7h-3.7V68.8z M147.4,70.2h-2v2.7h2c0.9,0,1.3-0.5,1.3-1.4
		C148.8,70.6,148.3,70.2,147.4,70.2z M147.4,74.1h-2v2.8h2.1c0.5,0,0.9-0.1,1.1-0.3c0.3-0.2,0.4-0.6,0.4-1.1s-0.1-0.9-0.4-1.1
		C148.3,74.2,147.9,74.1,147.4,74.1z"/>
	<path class="st1" d="M152.3,78.3v-9.4h1.5v9.4H152.3z"/>
	<path class="st1" d="M161.3,78.3H156v-9.4h1.5v8.1h3.8V78.3z"/>
	<path class="st1" d="M162.5,78.3v-9.4h1.5v9.4H162.5z"/>
	<path class="st1" d="M165.3,70.2v-1.4h6.9v1.4h-2.7v8.1H168v-8.1H165.3z"/>
	<path class="st1" d="M172.1,78.3l2.3-9.4h3l2.3,9.4h-1.5l-0.5-2h-3.6l-0.5,2H172.1z M175.6,70.1l-1.2,4.8h3l-1.2-4.8H175.6z"/>
	<path class="st1" d="M181.1,78.3v-9.4h2.7l2.9,8.1h0.2v-8.1h1.5v9.4h-2.6l-2.9-8.1h-0.2v8.1H181.1z"/>
	<path class="st1" d="M189.6,70.2v-1.4h6.9v1.4h-2.7v8.1h-1.5v-8.1H189.6z"/>
	<path class="st1" d="M197.8,78.3v-9.4h1.5v9.4H197.8z"/>
</g>
<g>
	<rect x="247.6" y="50.5" class="st2" width="228" height="144.3"/>
</g>
<g>
	<path class="st1" d="M342.8,77.6h-3.3v-9.4h3.3c1.4,0,2.4,0.4,3,1.1c0.5,0.7,0.8,1.9,0.8,3.4c0,0.8-0.1,1.5-0.2,2s-0.3,1.1-0.6,1.5
		C345.3,77.1,344.3,77.6,342.8,77.6z M345,72.7c0-1.1-0.1-2-0.4-2.5c-0.3-0.5-0.9-0.8-1.8-0.8h-1.7v6.7h1.7c0.9,0,1.5-0.3,1.8-1
		c0.1-0.3,0.2-0.7,0.3-1.1S345,73.3,345,72.7z"/>
	<path class="st1" d="M347.4,77.6l2.3-9.4h3l2.3,9.4h-1.5l-0.5-2h-3.6l-0.5,2H347.4z M350.9,69.4l-1.2,4.8h3l-1.2-4.8H350.9z"/>
	<path class="st1" d="M354.9,69.5v-1.4h6.9v1.4h-2.7v8.1h-1.5v-8.1H354.9z"/>
	<path class="st1" d="M363.1,77.6v-9.4h1.5v9.4H363.1z"/>
	<path class="st1" d="M373.2,74.6h-1.9v2.9h-1.5v-9.4h3.4c2.1,0,3.2,1.1,3.2,3.2c0,1.1-0.3,1.9-0.8,2.5
		C375.1,74.4,374.3,74.6,373.2,74.6z M371.3,73.3h1.9c1.1,0,1.6-0.7,1.6-2c0-0.6-0.1-1.1-0.4-1.4c-0.3-0.3-0.7-0.4-1.2-0.4h-1.9
		V73.3z"/>
	<path class="st1" d="M376.8,77.6l2.3-9.4h3l2.3,9.4h-1.5l-0.5-2h-3.6l-0.5,2H376.8z M380.3,69.4l-1.2,4.8h3l-1.2-4.8H380.3z"/>
</g>
<g>
	<rect x="18.8" y="95.2" class="st3" width="63.8" height="42.2"/>
</g>
<g>
	<rect x="260.3" y="95.6" class="st3" width="110" height="52.1"/>
</g>
<g>
	<rect x="382.7" y="94.8" class="st3" width="79.6" height="52.9"/>
</g>
<g>
	<rect x="260.5" y="154.6" class="st3" width="201.8" height="31"/>
</g>
<g>
	<rect x="90.3" y="95.2" class="st3" width="63.2" height="42.6"/>
</g>
<g>
	<rect x="18.8" y="144.2" class="st3" width="63.8" height="42.2"/>
</g>
<g>
	<rect x="90.3" y="144.7" class="st3" width="63.2" height="42.6"/>
</g>
<g>
	<rect x="162.6" y="95.2" class="st3" width="63.2" height="42.6"/>
</g>
<g>
	<rect x="162.6" y="144.7" class="st3" width="63.2" height="42.6"/>
</g>
<g>
	<path class="st2" d="M48.7,122.3c-0.8,0.2-1.6,0.3-2.2,0.3c-0.7,0-1.2-0.1-1.6-0.3c-0.4-0.2-0.7-0.5-0.9-0.8s-0.4-0.8-0.5-1.3
		c-0.1-0.5-0.1-1.1-0.1-1.8c0-0.7,0-1.4,0.1-1.9s0.2-0.9,0.5-1.3s0.5-0.7,0.9-0.8c0.4-0.2,0.9-0.3,1.6-0.3c0.6,0,1.4,0.1,2.3,0.3
		l0,0.8c-0.8-0.1-1.5-0.2-2.2-0.2c-0.9,0-1.5,0.3-1.7,0.8c-0.3,0.5-0.4,1.4-0.4,2.7c0,0.6,0,1.1,0.1,1.5s0.2,0.7,0.3,1
		c0.2,0.3,0.4,0.5,0.7,0.7s0.7,0.2,1.3,0.2c0.6,0,1.2-0.1,2-0.2L48.7,122.3z"/>
	<path class="st2" d="M50.2,122.5v-8.3h0.9v8.3H50.2z"/>
	<path class="st2" d="M53.2,122.5v-8.3h5.1v0.8h-4.1v2.9h3.4v0.8h-3.4v3h4.1v0.8H53.2z"/>
</g>
<g>
	<path class="st2" d="M113.1,114.8c-1.2,0-1.8,0.5-1.8,1.4c0,0.5,0.1,0.9,0.4,1c0.3,0.2,0.8,0.4,1.7,0.6c0.8,0.2,1.4,0.4,1.8,0.7
		c0.4,0.3,0.5,0.8,0.5,1.5c0,1.7-0.9,2.6-2.7,2.6c-0.6,0-1.3-0.1-2.2-0.2l-0.4-0.1l0.1-0.8c1.1,0.1,1.9,0.2,2.5,0.2
		c1.2,0,1.8-0.6,1.8-1.7c0-0.4-0.1-0.8-0.4-1c-0.3-0.2-0.7-0.4-1.5-0.5c-0.9-0.2-1.6-0.5-2-0.8c-0.4-0.3-0.6-0.8-0.6-1.6
		c0-1.5,0.9-2.2,2.7-2.2c0.6,0,1.3,0.1,2.1,0.2l0.4,0.1l-0.1,0.8C114.4,114.9,113.6,114.8,113.1,114.8z"/>
	<path class="st2" d="M120.4,119.7h-2.1v2.8h-0.9v-8.3h3c0.9,0,1.6,0.2,2,0.7c0.4,0.4,0.6,1.1,0.6,2
		C123,118.7,122.1,119.7,120.4,119.7z M118.2,118.9h2.1c1.1,0,1.7-0.7,1.7-2c0-0.6-0.1-1.1-0.4-1.4c-0.3-0.3-0.7-0.5-1.3-0.5h-2.1
		V118.9z"/>
	<path class="st2" d="M124.4,122.5v-8.3h0.9v8.3H124.4z"/>
	<path class="st2" d="M130.4,122.5h-3v-8.3h3c1.4,0,2.2,0.5,2.7,1.6c0.3,0.6,0.4,1.4,0.4,2.4c0,2.1-0.5,3.4-1.6,3.9
		C131.5,122.4,130.9,122.5,130.4,122.5z M132.5,118.2c0-1.6-0.4-2.6-1.1-3c-0.3-0.2-0.6-0.2-1.1-0.2h-2v6.7h2
		C131.8,121.6,132.5,120.5,132.5,118.2z"/>
</g>
<g>
	<path class="st2" d="M107.4,171.3l2.3-8.3h2l2.3,8.3H113l-0.6-2.1h-3.6l-0.6,2.1H107.4z M110.3,163.7l-1.3,4.5h3.1l-1.3-4.5H110.3z
		"/>
	<path class="st2" d="M115.2,171.3v-8.3h1.7l3.2,7.5h0.3v-7.5h0.9v8.3h-1.7l-3.2-7.5h-0.2v7.5H115.2z"/>
	<path class="st2" d="M126.4,168.5h-2.1v2.8h-0.9v-8.3h3c0.9,0,1.6,0.2,2,0.7c0.4,0.4,0.6,1.1,0.6,2
		C129,167.5,128.2,168.5,126.4,168.5z M124.3,167.6h2.1c1.1,0,1.7-0.7,1.7-2c0-0.6-0.1-1.1-0.4-1.4c-0.3-0.3-0.7-0.5-1.3-0.5h-2.1
		V167.6z"/>
	<path class="st2" d="M131.4,168.1v3.2h-0.9v-8.3h3.1c0.9,0,1.5,0.2,2,0.6s0.7,1,0.7,1.9c0,1.3-0.5,2.1-1.5,2.4l1.6,3.4h-1l-1.5-3.2
		H131.4z M133.6,167.3c1.1,0,1.7-0.6,1.7-1.7s-0.6-1.7-1.7-1.7h-2.1v3.5H133.6z"/>
</g>
<g>
	<path class="st2" d="M179.8,171.9v-8.3h1.7l3.2,7.5h0.3v-7.5h0.9v8.3h-1.7l-3.2-7.5h-0.2v7.5H179.8z"/>
	<path class="st2" d="M187.4,168.9c0-1.1,0.2-1.9,0.6-2.4c0.4-0.5,1.1-0.7,2-0.7s1.6,0.2,2,0.7c0.4,0.5,0.6,1.3,0.6,2.4
		c0,1.1-0.2,1.9-0.6,2.4c-0.4,0.5-1,0.7-2,0.7c-1,0-1.6-0.2-2-0.7C187.6,170.8,187.4,170,187.4,168.9z M188.3,168.9
		c0,0.9,0.1,1.5,0.3,1.8c0.2,0.4,0.7,0.5,1.3,0.5s1.1-0.2,1.3-0.5c0.2-0.3,0.3-1,0.3-1.8s-0.1-1.5-0.3-1.8s-0.7-0.5-1.3-0.5
		s-1.1,0.2-1.3,0.5S188.3,168,188.3,168.9z"/>
	<path class="st2" d="M194,164.6v-1h0.9v1H194z M194,171.9v-6h0.9v6H194z"/>
	<path class="st2" d="M199.8,169.1h-2.1v2.8h-0.9v-8.3h3c0.9,0,1.6,0.2,2,0.7c0.4,0.4,0.6,1.1,0.6,2
		C202.5,168.2,201.6,169.1,199.8,169.1z M197.7,168.3h2.1c1.1,0,1.7-0.7,1.7-2c0-0.6-0.1-1.1-0.4-1.4c-0.3-0.3-0.7-0.5-1.3-0.5h-2.1
		V168.3z"/>
	<path class="st2" d="M202.8,171.9l2.3-8.3h2l2.3,8.3h-0.9l-0.6-2.1h-3.6l-0.6,2.1H202.8z M205.8,164.4l-1.3,4.5h3.1l-1.3-4.5H205.8
		z"/>
</g>
<g>
	<path class="st2" d="M178.6,119h-2.1v2.8h-0.9v-8.3h3c0.9,0,1.6,0.2,2,0.7c0.4,0.4,0.6,1.1,0.6,2C181.2,118,180.3,119,178.6,119z
		 M176.4,118.2h2.1c1.1,0,1.7-0.7,1.7-2c0-0.6-0.1-1.1-0.4-1.4c-0.3-0.3-0.7-0.5-1.3-0.5h-2.1V118.2z"/>
	<path class="st2" d="M186.7,117.6v3.1c0,0.3,0.3,0.5,0.7,0.5l0,0.7c-0.6,0-1.1-0.2-1.4-0.5c-0.7,0.3-1.4,0.5-2.2,0.5
		c-0.6,0-1-0.2-1.3-0.5c-0.3-0.3-0.4-0.8-0.4-1.3s0.1-1,0.4-1.3c0.3-0.3,0.8-0.4,1.4-0.5l1.9-0.2v-0.5c0-0.4-0.1-0.7-0.3-0.9
		c-0.2-0.2-0.4-0.3-0.7-0.3c-0.6,0-1.3,0-2,0.1l-0.4,0l0-0.7c0.9-0.2,1.7-0.3,2.3-0.3c0.7,0,1.2,0.2,1.5,0.5
		C186.5,116.4,186.7,116.9,186.7,117.6z M183,120c0,0.7,0.3,1.1,0.9,1.1c0.5,0,1.1-0.1,1.6-0.3l0.3-0.1v-2L184,119
		c-0.4,0-0.6,0.1-0.8,0.3C183,119.4,183,119.7,183,120z"/>
	<path class="st2" d="M190.7,124.6c-1,0-1.6-0.1-2-0.4s-0.6-0.7-0.6-1.4c0-0.3,0.1-0.6,0.2-0.8c0.1-0.2,0.4-0.4,0.7-0.7
		c-0.2-0.2-0.3-0.4-0.3-0.8c0-0.1,0.1-0.4,0.3-0.8l0.1-0.2c-0.6-0.3-0.9-0.9-0.9-1.8c0-1.4,0.7-2.1,2.2-2.1c0.4,0,0.7,0,1.1,0.1
		l0.2,0l1.8,0v0.8l-1.1,0c0.3,0.3,0.4,0.7,0.4,1.2c0,0.8-0.2,1.3-0.6,1.6s-1,0.5-1.8,0.5c-0.2,0-0.4,0-0.6,0
		c-0.1,0.4-0.2,0.6-0.2,0.7c0,0.2,0.1,0.4,0.2,0.5c0.2,0.1,0.6,0.1,1.4,0.1c0.8,0,1.3,0.1,1.7,0.4s0.5,0.7,0.5,1.4
		C193.4,124,192.5,124.6,190.7,124.6z M189.1,122.7c0,0.4,0.1,0.7,0.4,0.9s0.7,0.2,1.3,0.2c0.6,0,1.1-0.1,1.4-0.3
		c0.3-0.2,0.4-0.5,0.4-0.9s-0.1-0.7-0.3-0.8s-0.6-0.2-1.2-0.2l-1.3-0.1c-0.3,0.2-0.4,0.4-0.5,0.5S189.1,122.5,189.1,122.7z
		 M189.1,117.7c0,0.5,0.1,0.8,0.3,1c0.2,0.2,0.6,0.3,1.1,0.3c0.5,0,0.8-0.1,1-0.3c0.2-0.2,0.3-0.5,0.3-1s-0.1-0.8-0.3-1
		c-0.2-0.2-0.6-0.3-1-0.3c-0.5,0-0.8,0.1-1.1,0.3S189.1,117.2,189.1,117.7z"/>
	<path class="st2" d="M194.3,118.8c0-1.1,0.2-1.9,0.6-2.4c0.4-0.5,1.1-0.7,2-0.7s1.6,0.2,2,0.7c0.4,0.5,0.6,1.3,0.6,2.4
		c0,1.1-0.2,1.9-0.6,2.4c-0.4,0.5-1,0.7-2,0.7c-1,0-1.6-0.2-2-0.7C194.5,120.7,194.3,119.9,194.3,118.8z M195.3,118.7
		c0,0.9,0.1,1.5,0.3,1.8c0.2,0.4,0.7,0.5,1.3,0.5s1.1-0.2,1.3-0.5c0.2-0.3,0.3-1,0.3-1.8s-0.1-1.5-0.3-1.8s-0.7-0.5-1.3-0.5
		s-1.1,0.2-1.3,0.5S195.3,117.9,195.3,118.7z"/>
	<path class="st2" d="M204.1,119H202v2.8H201v-8.3h3c0.9,0,1.6,0.2,2,0.7c0.4,0.4,0.6,1.1,0.6,2C206.7,118,205.8,119,204.1,119z
		 M202,118.2h2.1c1.1,0,1.7-0.7,1.7-2c0-0.6-0.1-1.1-0.4-1.4c-0.3-0.3-0.7-0.5-1.3-0.5H202V118.2z"/>
	<path class="st2" d="M207,121.8l2.3-8.3h2l2.3,8.3h-0.9l-0.6-2.1h-3.6l-0.6,2.1H207z M210,114.3l-1.3,4.5h3.1l-1.3-4.5H210z"/>
</g>
<g>
	<path class="st2" d="M26.4,171.3v-8.3h5v0.8h-4v3.2h3.4v0.8h-3.4v3.4H26.4z"/>
	<path class="st2" d="M36.4,167.1v3.1c0,0.3,0.3,0.5,0.7,0.5l0,0.7c-0.6,0-1.1-0.2-1.4-0.5c-0.7,0.3-1.4,0.5-2.2,0.5
		c-0.6,0-1-0.2-1.3-0.5c-0.3-0.3-0.4-0.8-0.4-1.3s0.1-1,0.4-1.3c0.3-0.3,0.8-0.4,1.4-0.5l1.9-0.2v-0.5c0-0.4-0.1-0.7-0.3-0.9
		c-0.2-0.2-0.4-0.3-0.7-0.3c-0.6,0-1.3,0-2,0.1l-0.4,0l0-0.7c0.9-0.2,1.7-0.3,2.3-0.3c0.7,0,1.2,0.2,1.5,0.5
		C36.2,165.9,36.4,166.4,36.4,167.1z M32.7,169.5c0,0.7,0.3,1.1,0.9,1.1c0.5,0,1.1-0.1,1.6-0.3l0.3-0.1v-2l-1.8,0.2
		c-0.4,0-0.6,0.1-0.8,0.3C32.7,168.9,32.7,169.2,32.7,169.5z"/>
	<path class="st2" d="M41.2,166h-1.9v2.9c0,0.7,0,1.1,0.1,1.4s0.3,0.3,0.7,0.3l1.1-0.1l0.1,0.7c-0.5,0.1-0.9,0.1-1.2,0.1
		c-0.6,0-1.1-0.2-1.3-0.5s-0.4-0.9-0.4-1.7V166h-0.9v-0.8h0.9v-1.8h0.9v1.8h1.9V166z"/>
	<path class="st2" d="M45.5,166h-1.9v2.9c0,0.7,0,1.1,0.1,1.4s0.3,0.3,0.7,0.3l1.1-0.1l0.1,0.7c-0.5,0.1-0.9,0.1-1.2,0.1
		c-0.6,0-1.1-0.2-1.3-0.5s-0.4-0.9-0.4-1.7V166h-0.9v-0.8h0.9v-1.8h0.9v1.8h1.9V166z"/>
	<path class="st2" d="M50.3,165.3h0.9v6h-0.9v-0.4c-0.6,0.4-1.2,0.5-1.8,0.5c-0.8,0-1.4-0.2-1.6-0.6c-0.3-0.4-0.4-1.2-0.4-2.4v-3.1
		h0.9v3.1c0,0.9,0.1,1.5,0.2,1.8c0.2,0.3,0.5,0.4,1,0.4c0.3,0,0.5,0,0.8-0.1c0.3-0.1,0.5-0.2,0.6-0.2l0.2-0.1V165.3z"/>
	<path class="st2" d="M52.9,171.3v-6h0.9v0.8c0.7-0.5,1.4-0.8,2.2-0.9v0.9c-0.3,0.1-0.7,0.2-1,0.3c-0.4,0.1-0.6,0.3-0.8,0.4
		l-0.3,0.2v4.4H52.9z"/>
	<path class="st2" d="M61.3,167.1v3.1c0,0.3,0.3,0.5,0.7,0.5l0,0.7c-0.6,0-1.1-0.2-1.4-0.5c-0.7,0.3-1.4,0.5-2.2,0.5
		c-0.6,0-1-0.2-1.3-0.5c-0.3-0.3-0.4-0.8-0.4-1.3s0.1-1,0.4-1.3c0.3-0.3,0.8-0.4,1.4-0.5l1.9-0.2v-0.5c0-0.4-0.1-0.7-0.3-0.9
		c-0.2-0.2-0.4-0.3-0.7-0.3c-0.6,0-1.3,0-2,0.1l-0.4,0l0-0.7c0.9-0.2,1.7-0.3,2.3-0.3c0.7,0,1.2,0.2,1.5,0.5
		C61.2,165.9,61.3,166.4,61.3,167.1z M57.6,169.5c0,0.7,0.3,1.1,0.9,1.1c0.5,0,1.1-0.1,1.6-0.3l0.3-0.1v-2l-1.8,0.2
		c-0.4,0-0.6,0.1-0.8,0.3C57.7,168.9,57.6,169.2,57.6,169.5z"/>
	<path class="st2" d="M66.3,168.5h-2.1v2.8h-0.9v-8.3h3c0.9,0,1.6,0.2,2,0.7c0.4,0.4,0.6,1.1,0.6,2
		C68.9,167.5,68.1,168.5,66.3,168.5z M64.2,167.6h2.1c1.1,0,1.7-0.7,1.7-2c0-0.6-0.1-1.1-0.4-1.4c-0.3-0.3-0.7-0.5-1.3-0.5h-2.1
		V167.6z"/>
	<path class="st2" d="M69.3,171.3l2.3-8.3h2l2.3,8.3h-0.9l-0.6-2.1h-3.6l-0.6,2.1H69.3z M72.2,163.7l-1.3,4.5h3.1l-1.3-4.5H72.2z"/>
</g>
<g>
	<path class="st2" d="M283.9,103.2h3c0.8,0,1.4,0.2,1.9,0.5c0.4,0.3,0.6,0.9,0.6,1.6c0,0.5-0.1,0.9-0.3,1.2
		c-0.2,0.3-0.4,0.5-0.8,0.7c0.9,0.3,1.3,1,1.3,2c0,0.8-0.2,1.4-0.7,1.8c-0.4,0.4-1.1,0.5-1.9,0.5h-3.2V103.2z M286.9,104h-2.1v2.9
		h2.1c0.5,0,0.9-0.1,1.1-0.4s0.4-0.6,0.4-1.1c0-0.5-0.1-0.8-0.4-1.1S287.4,104,286.9,104z M287,107.7h-2.1v3h2.2
		c0.5,0,1-0.1,1.2-0.3c0.3-0.2,0.4-0.6,0.4-1.2c0-0.3-0.1-0.6-0.2-0.8c-0.1-0.2-0.3-0.4-0.5-0.4C287.7,107.7,287.4,107.7,287,107.7z
		"/>
	<path class="st2" d="M295.4,107.3v3.1c0,0.3,0.3,0.5,0.7,0.5l0,0.7c-0.6,0-1.1-0.2-1.4-0.5c-0.7,0.3-1.4,0.5-2.2,0.5
		c-0.6,0-1-0.2-1.3-0.5c-0.3-0.3-0.4-0.8-0.4-1.3s0.1-1,0.4-1.3c0.3-0.3,0.8-0.4,1.4-0.5l1.9-0.2v-0.5c0-0.4-0.1-0.7-0.3-0.9
		c-0.2-0.2-0.4-0.3-0.7-0.3c-0.6,0-1.3,0-2,0.1l-0.4,0l0-0.7c0.9-0.2,1.7-0.3,2.3-0.3s1.2,0.2,1.5,0.5
		C295.2,106.1,295.4,106.6,295.4,107.3z M291.7,109.7c0,0.7,0.3,1.1,0.9,1.1c0.5,0,1.1-0.1,1.6-0.3l0.3-0.1v-2l-1.8,0.2
		c-0.4,0-0.6,0.1-0.8,0.3C291.8,109.1,291.7,109.4,291.7,109.7z"/>
	<path class="st2" d="M298.1,111.5h-0.9v-6h0.9v0.4c0.6-0.4,1.3-0.5,1.9-0.5c0.8,0,1.3,0.2,1.6,0.6c0.3,0.4,0.4,1.2,0.4,2.3v3.2H301
		v-3.1c0-0.8-0.1-1.4-0.2-1.7c-0.2-0.3-0.5-0.5-1.1-0.5c-0.3,0-0.5,0-0.8,0.1c-0.3,0.1-0.5,0.2-0.7,0.2l-0.2,0.1V111.5z"/>
	<path class="st2" d="M305.8,105.3c0.3,0,0.7,0,1.3,0.1l0.3,0l0,0.7c-0.6-0.1-1.1-0.1-1.4-0.1c-0.7,0-1.1,0.2-1.4,0.5
		c-0.2,0.3-0.4,0.9-0.4,1.8s0.1,1.5,0.3,1.8c0.2,0.3,0.7,0.5,1.4,0.5l1.4-0.1l0,0.7c-0.7,0.1-1.3,0.2-1.7,0.2
		c-0.9,0-1.6-0.2-1.9-0.7c-0.4-0.5-0.5-1.3-0.5-2.4s0.2-1.9,0.6-2.4C304.3,105.6,304.9,105.3,305.8,105.3z"/>
	<path class="st2" d="M309.7,111.5h-0.9v-8.6h0.9v3c0.6-0.3,1.3-0.5,1.8-0.5c0.8,0,1.3,0.2,1.6,0.6c0.3,0.4,0.4,1.2,0.4,2.3v3.2
		h-0.9v-3.1c0-0.8-0.1-1.4-0.2-1.7c-0.2-0.3-0.5-0.5-1-0.5c-0.5,0-1,0.1-1.5,0.3l-0.2,0.1V111.5z"/>
	<path class="st2" d="M319.4,110.7l0.3,0l0,0.7c-0.9,0.1-1.7,0.2-2.3,0.2c-0.9,0-1.5-0.2-1.8-0.8c-0.4-0.5-0.5-1.3-0.5-2.3
		c0-2.1,0.8-3.2,2.5-3.2c0.8,0,1.4,0.2,1.8,0.7s0.6,1.2,0.6,2.1l0,0.7h-4c0,0.7,0.1,1.2,0.4,1.5c0.2,0.3,0.7,0.5,1.3,0.5
		S318.7,110.8,319.4,110.7z M319,108.1c0-0.7-0.1-1.3-0.4-1.6s-0.6-0.5-1.2-0.5s-0.9,0.2-1.2,0.5c-0.3,0.3-0.4,0.8-0.4,1.5H319z"/>
	<path class="st2" d="M328.6,102.9v8.6h-0.9v-0.4c-0.6,0.4-1.2,0.5-1.8,0.5c-0.3,0-0.6,0-0.8-0.1s-0.5-0.2-0.7-0.4
		c-0.4-0.4-0.6-1.2-0.6-2.4s0.2-2,0.6-2.5c0.4-0.5,1-0.8,1.9-0.8c0.5,0,1,0.1,1.5,0.2v-2.7H328.6z M325.5,110.7
		c0.1,0.1,0.3,0.1,0.6,0.1c0.2,0,0.5,0,0.8-0.1c0.3-0.1,0.5-0.2,0.7-0.2l0.2-0.1v-4.1c-0.5-0.1-1-0.1-1.4-0.1c-0.6,0-1,0.2-1.3,0.6
		c-0.2,0.4-0.4,1-0.4,1.8c0,0.9,0.1,1.6,0.4,1.9C325.2,110.5,325.3,110.6,325.5,110.7z"/>
	<path class="st2" d="M334.6,107.3v3.1c0,0.3,0.3,0.5,0.7,0.5l0,0.7c-0.6,0-1.1-0.2-1.4-0.5c-0.7,0.3-1.4,0.5-2.2,0.5
		c-0.6,0-1-0.2-1.3-0.5c-0.3-0.3-0.4-0.8-0.4-1.3s0.1-1,0.4-1.3c0.3-0.3,0.8-0.4,1.4-0.5l1.9-0.2v-0.5c0-0.4-0.1-0.7-0.3-0.9
		c-0.2-0.2-0.4-0.3-0.7-0.3c-0.6,0-1.3,0-2,0.1l-0.4,0l0-0.7c0.9-0.2,1.7-0.3,2.3-0.3s1.2,0.2,1.5,0.5
		C334.4,106.1,334.6,106.6,334.6,107.3z M330.9,109.7c0,0.7,0.3,1.1,0.9,1.1c0.5,0,1.1-0.1,1.6-0.3l0.3-0.1v-2l-1.8,0.2
		c-0.4,0-0.6,0.1-0.8,0.3C330.9,109.1,330.9,109.4,330.9,109.7z"/>
	<path class="st2" d="M339.4,106.2h-1.9v2.9c0,0.7,0.1,1.1,0.2,1.4s0.3,0.3,0.7,0.3l1.1-0.1l0.1,0.7c-0.5,0.1-0.9,0.1-1.2,0.1
		c-0.6,0-1.1-0.2-1.3-0.5s-0.4-0.9-0.4-1.7v-3.2h-0.9v-0.8h0.9v-1.8h0.9v1.8h1.9V106.2z"/>
	<path class="st2" d="M340.5,104.1v-1h0.9v1H340.5z M340.5,111.5v-6h0.9v6H340.5z"/>
	<path class="st2" d="M289,117.3v8.6h-0.9v-0.4c-0.6,0.4-1.2,0.5-1.8,0.5c-0.3,0-0.6,0-0.8-0.1s-0.5-0.2-0.7-0.4
		c-0.4-0.4-0.6-1.2-0.6-2.4s0.2-2,0.6-2.5s1-0.8,1.9-0.8c0.5,0,1,0.1,1.5,0.2v-2.7H289z M285.8,125.1c0.1,0.1,0.3,0.1,0.6,0.1
		c0.2,0,0.5,0,0.8-0.1c0.3-0.1,0.5-0.2,0.7-0.2l0.2-0.1v-4.1c-0.5-0.1-1-0.1-1.4-0.1c-0.6,0-1,0.2-1.3,0.6s-0.4,1-0.4,1.8
		c0,0.9,0.1,1.6,0.4,1.9C285.6,124.9,285.7,125,285.8,125.1z"/>
	<path class="st2" d="M290.7,118.5v-1h0.9v1H290.7z M290.7,125.9v-6h0.9v6H290.7z"/>
	<path class="st2" d="M296,118.5v-1h0.9v1H296z M296,125.9v-6h0.9v6H296z"/>
	<path class="st2" d="M299.5,125.9h-0.9v-6h0.9v0.4c0.6-0.4,1.3-0.5,1.9-0.5c0.8,0,1.3,0.2,1.6,0.6s0.4,1.2,0.4,2.3v3.2h-0.9v-3.1
		c0-0.8-0.1-1.4-0.2-1.7c-0.2-0.3-0.5-0.5-1-0.5c-0.3,0-0.5,0-0.8,0.1c-0.3,0.1-0.5,0.2-0.7,0.2l-0.2,0.1V125.9z"/>
	<path class="st2" d="M308.1,120.6h-1.9v2.9c0,0.7,0.1,1.1,0.2,1.4c0.1,0.2,0.3,0.3,0.7,0.3l1.1-0.1l0.1,0.7
		c-0.5,0.1-0.9,0.1-1.2,0.1c-0.6,0-1.1-0.2-1.3-0.5c-0.2-0.3-0.4-0.9-0.4-1.7v-3.2h-0.9v-0.8h0.9V118h0.9v1.8h1.9V120.6z"/>
	<path class="st2" d="M313.3,125.1l0.3,0l0,0.7c-0.9,0.1-1.7,0.2-2.3,0.2c-0.9,0-1.5-0.2-1.8-0.8c-0.4-0.5-0.5-1.3-0.5-2.3
		c0-2.1,0.8-3.2,2.5-3.2c0.8,0,1.4,0.2,1.8,0.7s0.6,1.2,0.6,2.1l0,0.7h-4c0,0.7,0.1,1.2,0.4,1.5c0.2,0.3,0.7,0.5,1.3,0.5
		S312.7,125.2,313.3,125.1z M313,122.5c0-0.7-0.1-1.3-0.4-1.6c-0.2-0.3-0.6-0.5-1.2-0.5s-0.9,0.2-1.2,0.5c-0.3,0.3-0.4,0.8-0.4,1.5
		H313z"/>
	<path class="st2" d="M315.3,125.9v-6h0.9v0.8c0.7-0.5,1.4-0.8,2.2-0.9v0.9c-0.3,0.1-0.7,0.2-1,0.3c-0.4,0.1-0.6,0.3-0.8,0.4
		l-0.3,0.2v4.4H315.3z"/>
	<path class="st2" d="M323.4,125.1l0.3,0l0,0.7c-0.9,0.1-1.7,0.2-2.3,0.2c-0.9,0-1.5-0.2-1.8-0.8c-0.4-0.5-0.5-1.3-0.5-2.3
		c0-2.1,0.8-3.2,2.5-3.2c0.8,0,1.4,0.2,1.8,0.7s0.6,1.2,0.6,2.1l0,0.7h-4c0,0.7,0.1,1.2,0.4,1.5c0.2,0.3,0.7,0.5,1.3,0.5
		S322.8,125.2,323.4,125.1z M323.1,122.5c0-0.7-0.1-1.3-0.4-1.6c-0.2-0.3-0.6-0.5-1.2-0.5s-0.9,0.2-1.2,0.5
		c-0.3,0.3-0.4,0.8-0.4,1.5H323.1z"/>
	<path class="st2" d="M327.2,120.6c-0.9,0-1.3,0.3-1.3,0.9c0,0.3,0.1,0.5,0.3,0.6c0.2,0.1,0.7,0.2,1.4,0.4c0.7,0.1,1.2,0.3,1.5,0.5
		c0.3,0.2,0.4,0.6,0.4,1.3s-0.2,1.1-0.6,1.4c-0.4,0.3-1,0.4-1.7,0.4c-0.5,0-1.1-0.1-1.8-0.2l-0.4-0.1l0-0.8c0.9,0.1,1.6,0.2,2.1,0.2
		c0.5,0,0.8-0.1,1.1-0.2c0.2-0.1,0.4-0.4,0.4-0.7c0-0.3-0.1-0.6-0.3-0.7c-0.2-0.1-0.7-0.2-1.4-0.4c-0.7-0.1-1.2-0.3-1.5-0.5
		c-0.3-0.2-0.4-0.6-0.4-1.2s0.2-1,0.6-1.3c0.4-0.3,0.9-0.4,1.5-0.4c0.5,0,1.1,0.1,1.8,0.2l0.3,0.1l0,0.8
		C328.5,120.6,327.8,120.6,327.2,120.6z"/>
	<path class="st2" d="M332.8,120.6c-0.9,0-1.3,0.3-1.3,0.9c0,0.3,0.1,0.5,0.3,0.6c0.2,0.1,0.7,0.2,1.4,0.4c0.7,0.1,1.2,0.3,1.5,0.5
		c0.3,0.2,0.4,0.6,0.4,1.3s-0.2,1.1-0.6,1.4c-0.4,0.3-1,0.4-1.7,0.4c-0.5,0-1.1-0.1-1.8-0.2l-0.4-0.1l0-0.8c0.9,0.1,1.6,0.2,2.1,0.2
		c0.5,0,0.8-0.1,1.1-0.2c0.2-0.1,0.4-0.4,0.4-0.7c0-0.3-0.1-0.6-0.3-0.7c-0.2-0.1-0.7-0.2-1.4-0.4c-0.7-0.1-1.2-0.3-1.5-0.5
		c-0.3-0.2-0.4-0.6-0.4-1.2s0.2-1,0.6-1.3c0.4-0.3,0.9-0.4,1.5-0.4c0.5,0,1.1,0.1,1.8,0.2l0.3,0.1l0,0.8
		C334,120.6,333.3,120.6,332.8,120.6z"/>
	<path class="st2" d="M340.6,125.1l0.3,0l0,0.7c-0.9,0.1-1.7,0.2-2.3,0.2c-0.9,0-1.5-0.2-1.8-0.8s-0.5-1.3-0.5-2.3
		c0-2.1,0.8-3.2,2.5-3.2c0.8,0,1.4,0.2,1.8,0.7s0.6,1.2,0.6,2.1l0,0.7h-4c0,0.7,0.1,1.2,0.4,1.5c0.2,0.3,0.7,0.5,1.3,0.5
		S340,125.2,340.6,125.1z M340.3,122.5c0-0.7-0.1-1.3-0.4-1.6c-0.2-0.3-0.6-0.5-1.2-0.5c-0.5,0-0.9,0.2-1.2,0.5s-0.4,0.8-0.4,1.5
		H340.3z"/>
	<path class="st2" d="M290.3,140.3h-0.9v-6h0.9v0.4c0.6-0.4,1.3-0.5,1.9-0.5c0.8,0,1.3,0.2,1.6,0.6c0.3,0.4,0.4,1.2,0.4,2.3v3.2
		h-0.9v-3.1c0-0.8-0.1-1.4-0.2-1.7c-0.2-0.3-0.5-0.5-1-0.5c-0.3,0-0.5,0-0.8,0.1s-0.5,0.2-0.7,0.2l-0.2,0.1V140.3z"/>
	<path class="st2" d="M300.1,136.1v3.1c0,0.3,0.3,0.5,0.7,0.5l0,0.7c-0.6,0-1.1-0.2-1.4-0.5c-0.7,0.3-1.4,0.5-2.2,0.5
		c-0.6,0-1-0.2-1.3-0.5c-0.3-0.3-0.4-0.8-0.4-1.3s0.1-1,0.4-1.3c0.3-0.3,0.8-0.4,1.4-0.5l1.9-0.2v-0.5c0-0.4-0.1-0.7-0.3-0.9
		c-0.2-0.2-0.4-0.3-0.7-0.3c-0.6,0-1.3,0-2,0.1l-0.4,0l0-0.7c0.9-0.2,1.7-0.3,2.3-0.3c0.7,0,1.2,0.2,1.5,0.5
		C299.9,134.9,300.1,135.4,300.1,136.1z M296.4,138.5c0,0.7,0.3,1.1,0.9,1.1c0.5,0,1.1-0.1,1.6-0.3l0.3-0.1v-2l-1.8,0.2
		c-0.4,0-0.6,0.1-0.8,0.3C296.4,137.9,296.4,138.2,296.4,138.5z"/>
	<path class="st2" d="M301.5,135.1v-0.8h4.5v0.8l-3.4,4.4h3.4v0.8h-4.5v-0.8l3.4-4.4H301.5z"/>
	<path class="st2" d="M307.3,132.9v-1h0.9v1H307.3z M307.3,140.3v-6h0.9v6H307.3z"/>
	<path class="st2" d="M309.7,137.3c0-1.1,0.2-1.9,0.6-2.4c0.4-0.5,1.1-0.7,2-0.7s1.6,0.2,2,0.7c0.4,0.5,0.6,1.3,0.6,2.4
		c0,1.1-0.2,1.9-0.6,2.4s-1,0.7-2,0.7c-1,0-1.6-0.2-2-0.7C309.8,139.1,309.7,138.4,309.7,137.3z M310.6,137.2c0,0.9,0.1,1.5,0.3,1.8
		c0.2,0.4,0.7,0.5,1.3,0.5s1.1-0.2,1.3-0.5c0.2-0.3,0.3-1,0.3-1.8s-0.1-1.5-0.3-1.8s-0.7-0.5-1.3-0.5c-0.6,0-1.1,0.2-1.3,0.5
		S310.6,136.4,310.6,137.2z"/>
	<path class="st2" d="M317.2,140.3h-0.9v-6h0.9v0.4c0.6-0.4,1.3-0.5,1.9-0.5c0.8,0,1.3,0.2,1.6,0.6c0.3,0.4,0.4,1.2,0.4,2.3v3.2
		h-0.9v-3.1c0-0.8-0.1-1.4-0.2-1.7c-0.2-0.3-0.5-0.5-1.1-0.5c-0.3,0-0.5,0-0.8,0.1c-0.3,0.1-0.5,0.2-0.7,0.2l-0.2,0.1V140.3z"/>
	<path class="st2" d="M326.9,136.1v3.1c0,0.3,0.3,0.5,0.7,0.5l0,0.7c-0.6,0-1.1-0.2-1.4-0.5c-0.7,0.3-1.4,0.5-2.2,0.5
		c-0.6,0-1-0.2-1.3-0.5c-0.3-0.3-0.4-0.8-0.4-1.3s0.1-1,0.4-1.3c0.3-0.3,0.8-0.4,1.4-0.5l1.9-0.2v-0.5c0-0.4-0.1-0.7-0.3-0.9
		c-0.2-0.2-0.4-0.3-0.7-0.3c-0.6,0-1.3,0-2,0.1l-0.4,0l0-0.7c0.9-0.2,1.7-0.3,2.3-0.3c0.7,0,1.2,0.2,1.5,0.5
		C326.8,134.9,326.9,135.4,326.9,136.1z M323.2,138.5c0,0.7,0.3,1.1,0.9,1.1c0.5,0,1.1-0.1,1.6-0.3l0.3-0.1v-2l-1.8,0.2
		c-0.4,0-0.6,0.1-0.8,0.3C323.3,137.9,323.2,138.2,323.2,138.5z"/>
	<path class="st2" d="M328.8,140.3v-8.6h0.9v8.6H328.8z"/>
	<path class="st2" d="M335.6,139.5l0.3,0l0,0.7c-0.9,0.1-1.7,0.2-2.3,0.2c-0.9,0-1.5-0.2-1.8-0.8s-0.5-1.3-0.5-2.3
		c0-2.1,0.8-3.2,2.5-3.2c0.8,0,1.4,0.2,1.8,0.7s0.6,1.2,0.6,2.1l0,0.7h-4c0,0.7,0.1,1.2,0.4,1.5c0.2,0.3,0.7,0.5,1.3,0.5
		S335,139.6,335.6,139.5z M335.2,136.9c0-0.7-0.1-1.3-0.4-1.6c-0.2-0.3-0.6-0.5-1.2-0.5c-0.5,0-0.9,0.2-1.2,0.5
		c-0.3,0.3-0.4,0.8-0.4,1.5H335.2z"/>
</g>
<g>
	<path class="st2" d="M402.2,121.1c0,1.5-0.2,2.6-0.7,3.2c-0.5,0.7-1.3,1-2.6,1s-2.1-0.3-2.6-1c-0.5-0.7-0.7-1.8-0.7-3.2
		s0.2-2.5,0.7-3.3s1.3-1.1,2.6-1.1c1.2,0,2.1,0.4,2.6,1.1C401.9,118.5,402.2,119.6,402.2,121.1z M396.6,121.1c0,1.2,0.2,2.1,0.5,2.6
		c0.3,0.5,0.9,0.8,1.9,0.8s1.5-0.3,1.8-0.8c0.3-0.5,0.5-1.4,0.5-2.6c0-1.2-0.2-2.1-0.5-2.7c-0.3-0.6-0.9-0.8-1.8-0.8
		c-0.9,0-1.5,0.3-1.8,0.8C396.7,119,396.6,119.9,396.6,121.1z"/>
	<path class="st2" d="M403.7,127.9v-8.7h0.9v0.4c0.6-0.4,1.2-0.6,1.8-0.6c0.8,0,1.3,0.2,1.7,0.7c0.3,0.5,0.5,1.3,0.5,2.4
		s-0.2,1.9-0.6,2.4c-0.4,0.5-1.1,0.7-2,0.7c-0.5,0-0.9,0-1.3-0.1v2.7H403.7z M406.3,119.9c-0.2,0-0.5,0-0.8,0.1s-0.5,0.2-0.7,0.2
		l-0.2,0.1v4c0.6,0.1,1,0.1,1.3,0.1c0.6,0,1.1-0.2,1.4-0.6s0.4-1,0.4-1.8c0-0.8-0.1-1.4-0.4-1.8
		C407.1,120.1,406.7,119.9,406.3,119.9z"/>
	<path class="st2" d="M414.1,124.5l0.3,0l0,0.7c-0.9,0.1-1.7,0.2-2.3,0.2c-0.9,0-1.5-0.2-1.8-0.8s-0.5-1.3-0.5-2.3
		c0-2.1,0.8-3.2,2.5-3.2c0.8,0,1.4,0.2,1.8,0.7s0.6,1.2,0.6,2.1l0,0.7h-4c0,0.7,0.1,1.2,0.4,1.5c0.2,0.3,0.7,0.5,1.3,0.5
		S413.5,124.5,414.1,124.5z M413.8,121.9c0-0.7-0.1-1.3-0.4-1.6c-0.2-0.3-0.6-0.5-1.2-0.5c-0.5,0-0.9,0.2-1.2,0.5
		c-0.3,0.3-0.4,0.8-0.4,1.5H413.8z"/>
	<path class="st2" d="M417,125.2h-0.9v-6h0.9v0.4c0.6-0.4,1.3-0.5,1.9-0.5c0.8,0,1.3,0.2,1.6,0.6c0.3,0.4,0.4,1.2,0.4,2.3v3.2H420
		v-3.1c0-0.8-0.1-1.4-0.2-1.7c-0.2-0.3-0.5-0.5-1.1-0.5c-0.3,0-0.5,0-0.8,0.1c-0.3,0.1-0.5,0.2-0.7,0.2l-0.2,0.1V125.2z"/>
	<path class="st2" d="M429.8,116.6v8.6h-0.9v-0.4c-0.6,0.4-1.2,0.5-1.8,0.5c-0.3,0-0.6,0-0.8-0.1s-0.5-0.2-0.7-0.4
		c-0.4-0.4-0.6-1.2-0.6-2.4s0.2-2,0.6-2.5c0.4-0.5,1-0.8,1.9-0.8c0.5,0,1,0.1,1.5,0.2v-2.7H429.8z M426.7,124.4
		c0.1,0.1,0.3,0.1,0.6,0.1c0.2,0,0.5,0,0.8-0.1c0.3-0.1,0.5-0.2,0.7-0.2l0.2-0.1V120c-0.5-0.1-1-0.1-1.4-0.1c-0.6,0-1,0.2-1.3,0.6
		c-0.2,0.4-0.4,1-0.4,1.8c0,0.9,0.1,1.6,0.4,1.9C426.4,124.3,426.5,124.4,426.7,124.4z"/>
	<path class="st2" d="M435.8,121v3.1c0,0.3,0.3,0.5,0.7,0.5l0,0.7c-0.6,0-1.1-0.2-1.4-0.5c-0.7,0.3-1.4,0.5-2.2,0.5
		c-0.6,0-1-0.2-1.3-0.5c-0.3-0.3-0.4-0.8-0.4-1.3s0.1-1,0.4-1.3c0.3-0.3,0.8-0.4,1.4-0.5l1.9-0.2V121c0-0.4-0.1-0.7-0.3-0.9
		c-0.2-0.2-0.4-0.3-0.7-0.3c-0.6,0-1.3,0-2,0.1l-0.4,0l0-0.7c0.9-0.2,1.7-0.3,2.3-0.3c0.7,0,1.2,0.2,1.5,0.5
		C435.6,119.9,435.8,120.4,435.8,121z M432.1,123.5c0,0.7,0.3,1.1,0.9,1.1c0.5,0,1.1-0.1,1.6-0.3l0.3-0.1v-2l-1.8,0.2
		c-0.4,0-0.6,0.1-0.8,0.3C432.2,122.9,432.1,123.1,432.1,123.5z"/>
	<path class="st2" d="M440.7,120h-1.9v2.9c0,0.7,0,1.1,0.1,1.4s0.3,0.3,0.7,0.3l1.1-0.1l0.1,0.7c-0.5,0.1-0.9,0.1-1.2,0.1
		c-0.6,0-1.1-0.2-1.3-0.5s-0.4-0.9-0.4-1.7V120H437v-0.8h0.9v-1.8h0.9v1.8h1.9V120z"/>
	<path class="st2" d="M446,121v3.1c0,0.3,0.3,0.5,0.7,0.5l0,0.7c-0.6,0-1.1-0.2-1.4-0.5c-0.7,0.3-1.4,0.5-2.2,0.5
		c-0.6,0-1-0.2-1.3-0.5c-0.3-0.3-0.4-0.8-0.4-1.3s0.1-1,0.4-1.3c0.3-0.3,0.8-0.4,1.4-0.5l1.9-0.2V121c0-0.4-0.1-0.7-0.3-0.9
		c-0.2-0.2-0.4-0.3-0.7-0.3c-0.6,0-1.3,0-2,0.1l-0.4,0l0-0.7c0.9-0.2,1.7-0.3,2.3-0.3s1.2,0.2,1.5,0.5
		C445.8,119.9,446,120.4,446,121z M442.3,123.5c0,0.7,0.3,1.1,0.9,1.1c0.5,0,1.1-0.1,1.6-0.3l0.3-0.1v-2l-1.8,0.2
		c-0.4,0-0.6,0.1-0.8,0.3C442.4,122.9,442.3,123.1,442.3,123.5z"/>
</g>
<g>
	<path class="st2" d="M319.4,167.6h1l-2.2,8.3h-2.1l-2.2-8.3h1l1.9,7.5h0.7L319.4,167.6z"/>
	<path class="st2" d="M320.9,172.9c0-1.1,0.2-1.9,0.6-2.4c0.4-0.5,1.1-0.7,2-0.7s1.6,0.2,2,0.7c0.4,0.5,0.6,1.3,0.6,2.4
		c0,1.1-0.2,1.9-0.6,2.4c-0.4,0.5-1,0.7-2,0.7s-1.6-0.2-2-0.7S320.9,174,320.9,172.9z M321.8,172.9c0,0.9,0.1,1.5,0.3,1.8
		c0.2,0.4,0.7,0.5,1.3,0.5s1.1-0.2,1.3-0.5c0.2-0.3,0.3-1,0.3-1.8s-0.1-1.5-0.3-1.8s-0.7-0.5-1.3-0.5c-0.6,0-1.1,0.2-1.3,0.5
		S321.8,172,321.8,172.9z"/>
	<path class="st2" d="M329.7,169.8c0.3,0,0.7,0,1.3,0.1l0.3,0l0,0.7c-0.6-0.1-1.1-0.1-1.4-0.1c-0.7,0-1.1,0.2-1.4,0.5
		s-0.4,0.9-0.4,1.8s0.1,1.5,0.3,1.8s0.7,0.5,1.4,0.5l1.4-0.1l0,0.7c-0.7,0.1-1.3,0.2-1.7,0.2c-0.9,0-1.6-0.2-1.9-0.7
		c-0.4-0.5-0.5-1.3-0.5-2.4s0.2-1.9,0.6-2.4C328.2,170,328.8,169.8,329.7,169.8z"/>
	<path class="st2" d="M336.9,171.7v3.1c0,0.3,0.3,0.5,0.7,0.5l0,0.7c-0.6,0-1.1-0.2-1.4-0.5c-0.7,0.3-1.4,0.5-2.2,0.5
		c-0.6,0-1-0.2-1.3-0.5c-0.3-0.3-0.4-0.8-0.4-1.3s0.1-1,0.4-1.3c0.3-0.3,0.8-0.4,1.4-0.5l1.9-0.2v-0.5c0-0.4-0.1-0.7-0.3-0.9
		c-0.2-0.2-0.4-0.3-0.7-0.3c-0.6,0-1.3,0-2,0.1l-0.4,0l0-0.7c0.9-0.2,1.7-0.3,2.3-0.3s1.2,0.2,1.5,0.5
		C336.8,170.6,336.9,171.1,336.9,171.7z M333.2,174.2c0,0.7,0.3,1.1,0.9,1.1c0.5,0,1.1-0.1,1.6-0.3l0.3-0.1v-2l-1.8,0.2
		c-0.4,0-0.6,0.1-0.8,0.3C333.3,173.6,333.2,173.9,333.2,174.2z"/>
	<path class="st2" d="M341.4,169.8c0.8,0,1.4,0.2,1.7,0.7c0.3,0.5,0.5,1.3,0.5,2.4c0,1.2-0.2,2-0.6,2.4s-1.1,0.7-2.2,0.7
		c-0.3,0-0.9,0-1.7-0.1l-0.3,0v-8.6h0.9v2.9C340.2,170,340.8,169.8,341.4,169.8z M340.7,175.3c0.8,0,1.3-0.2,1.6-0.5
		c0.3-0.4,0.4-1,0.4-1.8c0-0.8-0.1-1.4-0.3-1.8c-0.2-0.3-0.6-0.5-1.1-0.5c-0.5,0-0.9,0.1-1.4,0.3l-0.2,0.1v4.2
		C340.1,175.2,340.5,175.3,340.7,175.3z"/>
	<path class="st2" d="M344.8,172.9c0-1.1,0.2-1.9,0.6-2.4c0.4-0.5,1.1-0.7,2-0.7s1.6,0.2,2,0.7c0.4,0.5,0.6,1.3,0.6,2.4
		c0,1.1-0.2,1.9-0.6,2.4s-1,0.7-2,0.7c-1,0-1.6-0.2-2-0.7C345,174.8,344.8,174,344.8,172.9z M345.7,172.9c0,0.9,0.1,1.5,0.3,1.8
		c0.2,0.4,0.7,0.5,1.3,0.5s1.1-0.2,1.3-0.5c0.2-0.3,0.3-1,0.3-1.8s-0.1-1.5-0.3-1.8s-0.7-0.5-1.3-0.5c-0.6,0-1.1,0.2-1.3,0.5
		S345.7,172,345.7,172.9z"/>
	<path class="st2" d="M351.4,175.9v-8.6h0.9v8.6H351.4z"/>
	<path class="st2" d="M358.4,171.7v3.1c0,0.3,0.3,0.5,0.7,0.5l0,0.7c-0.6,0-1.1-0.2-1.4-0.5c-0.7,0.3-1.4,0.5-2.2,0.5
		c-0.6,0-1-0.2-1.3-0.5c-0.3-0.3-0.4-0.8-0.4-1.3s0.1-1,0.4-1.3c0.3-0.3,0.8-0.4,1.4-0.5l1.9-0.2v-0.5c0-0.4-0.1-0.7-0.3-0.9
		c-0.2-0.2-0.4-0.3-0.7-0.3c-0.6,0-1.3,0-2,0.1l-0.4,0l0-0.7c0.9-0.2,1.7-0.3,2.3-0.3s1.2,0.2,1.5,0.5
		C358.2,170.6,358.4,171.1,358.4,171.7z M354.7,174.2c0,0.7,0.3,1.1,0.9,1.1c0.5,0,1.1-0.1,1.6-0.3l0.3-0.1v-2l-1.8,0.2
		c-0.4,0-0.6,0.1-0.8,0.3C354.8,173.6,354.7,173.9,354.7,174.2z"/>
	<path class="st2" d="M360.2,175.9v-6h0.9v0.8c0.7-0.5,1.4-0.8,2.2-0.9v0.9c-0.3,0.1-0.7,0.2-1.1,0.3c-0.4,0.1-0.6,0.3-0.8,0.4
		l-0.3,0.2v4.4H360.2z"/>
	<path class="st2" d="M364.3,168.6v-1h0.9v1H364.3z M364.3,175.9v-6h0.9v6H364.3z"/>
	<path class="st2" d="M371.8,169.8c0.3,0,0.7,0,1.3,0.1l0.3,0l0,0.7c-0.6-0.1-1.1-0.1-1.4-0.1c-0.7,0-1.1,0.2-1.4,0.5
		s-0.4,0.9-0.4,1.8s0.1,1.5,0.3,1.8s0.7,0.5,1.4,0.5l1.4-0.1l0,0.7c-0.7,0.1-1.3,0.2-1.7,0.2c-0.9,0-1.6-0.2-1.9-0.7
		c-0.4-0.5-0.5-1.3-0.5-2.4s0.2-1.9,0.6-2.4C370.3,170,370.9,169.8,371.8,169.8z"/>
	<path class="st2" d="M374.5,172.9c0-1.1,0.2-1.9,0.6-2.4c0.4-0.5,1.1-0.7,2-0.7s1.6,0.2,2,0.7c0.4,0.5,0.6,1.3,0.6,2.4
		c0,1.1-0.2,1.9-0.6,2.4s-1,0.7-2,0.7c-1,0-1.6-0.2-2-0.7C374.7,174.8,374.5,174,374.5,172.9z M375.4,172.9c0,0.9,0.1,1.5,0.3,1.8
		c0.2,0.4,0.7,0.5,1.3,0.5s1.1-0.2,1.3-0.5c0.2-0.3,0.3-1,0.3-1.8s-0.1-1.5-0.3-1.8s-0.7-0.5-1.3-0.5c-0.6,0-1.1,0.2-1.3,0.5
		S375.4,172,375.4,172.9z"/>
	<path class="st2" d="M382,175.9h-0.9v-6h0.9v0.4c0.6-0.4,1.3-0.5,1.9-0.5c0.8,0,1.3,0.2,1.6,0.6c0.3,0.4,0.4,1.2,0.4,2.3v3.2H385
		v-3.1c0-0.8-0.1-1.4-0.2-1.7c-0.2-0.3-0.5-0.5-1.1-0.5c-0.3,0-0.5,0-0.8,0.1c-0.3,0.1-0.5,0.2-0.7,0.2l-0.2,0.1V175.9z"/>
	<path class="st2" d="M390.6,170.7h-1.9v2.9c0,0.7,0,1.1,0.1,1.4s0.3,0.3,0.7,0.3l1.1-0.1l0.1,0.7c-0.5,0.1-0.9,0.1-1.2,0.1
		c-0.6,0-1.1-0.2-1.3-0.5s-0.4-0.9-0.4-1.7v-3.2h-0.9v-0.8h0.9v-1.8h0.9v1.8h1.9V170.7z"/>
	<path class="st2" d="M391.7,175.9v-6h0.9v0.8c0.7-0.5,1.4-0.8,2.2-0.9v0.9c-0.3,0.1-0.7,0.2-1.1,0.3c-0.4,0.1-0.6,0.3-0.8,0.4
		l-0.3,0.2v4.4H391.7z"/>
	<path class="st2" d="M395.5,172.9c0-1.1,0.2-1.9,0.6-2.4c0.4-0.5,1.1-0.7,2-0.7s1.6,0.2,2,0.7c0.4,0.5,0.6,1.3,0.6,2.4
		c0,1.1-0.2,1.9-0.6,2.4s-1,0.7-2,0.7c-1,0-1.6-0.2-2-0.7C395.6,174.8,395.5,174,395.5,172.9z M396.4,172.9c0,0.9,0.1,1.5,0.3,1.8
		c0.2,0.4,0.7,0.5,1.3,0.5s1.1-0.2,1.3-0.5c0.2-0.3,0.3-1,0.3-1.8s-0.1-1.5-0.3-1.8s-0.7-0.5-1.3-0.5c-0.6,0-1.1,0.2-1.3,0.5
		S396.4,172,396.4,172.9z"/>
	<path class="st2" d="M402.1,175.9v-8.6h0.9v8.6H402.1z"/>
	<path class="st2" d="M404.9,175.9v-8.6h0.9v8.6H404.9z"/>
	<path class="st2" d="M411.8,171.7v3.1c0,0.3,0.3,0.5,0.7,0.5l0,0.7c-0.6,0-1.1-0.2-1.4-0.5c-0.7,0.3-1.4,0.5-2.2,0.5
		c-0.6,0-1-0.2-1.3-0.5c-0.3-0.3-0.4-0.8-0.4-1.3s0.1-1,0.4-1.3c0.3-0.3,0.8-0.4,1.4-0.5l1.9-0.2v-0.5c0-0.4-0.1-0.7-0.3-0.9
		c-0.2-0.2-0.4-0.3-0.7-0.3c-0.6,0-1.3,0-2,0.1l-0.4,0l0-0.7c0.9-0.2,1.7-0.3,2.3-0.3s1.2,0.2,1.5,0.5
		C411.7,170.6,411.8,171.1,411.8,171.7z M408.1,174.2c0,0.7,0.3,1.1,0.9,1.1c0.5,0,1.1-0.1,1.6-0.3l0.3-0.1v-2l-1.8,0.2
		c-0.4,0-0.6,0.1-0.8,0.3C408.2,173.6,408.1,173.9,408.1,174.2z"/>
	<path class="st2" d="M416.7,170.7h-1.9v2.9c0,0.7,0.1,1.1,0.2,1.4s0.3,0.3,0.7,0.3l1.1-0.1l0.1,0.7c-0.5,0.1-0.9,0.1-1.2,0.1
		c-0.6,0-1.1-0.2-1.3-0.5s-0.4-0.9-0.4-1.7v-3.2h-0.9v-0.8h0.9v-1.8h0.9v1.8h1.9V170.7z"/>
	<path class="st2" d="M417.8,168.6v-1h0.9v1H417.8z M417.8,175.9v-6h0.9v6H417.8z"/>
</g>
</svg>
