<?xml version="1.0" encoding="utf-8"?>
<!-- Generator: Adobe Illustrator 21.1.0, SVG Export Plug-In . SVG Version: 6.00 Build 0)  -->
<svg version="1.1" id="Livello_1" xmlns="http://www.w3.org/2000/svg" xmlns:xlink="http://www.w3.org/1999/xlink" x="0px" y="0px"
	 viewBox="0 0 479.3 299.3" style="enable-background:new 0 0 479.3 299.3;" xml:space="preserve">
<style type="text/css">
	.st0{fill:#EDEDED;}
	.st1{fill:#FFFFFF;}
	.st2{font-family:'TitilliumWeb-Regular';}
	.st3{font-size:9.7807px;}
	.st4{font-size:8.3846px;}
	.st5{fill:#06A4DB;}
	.st6{font-family:'TitilliumWeb-SemiBold';}
	.st7{font-size:10.0615px;}
	.st8{fill:#F6AB16;}
	.st9{fill:#042748;}
	.st10{fill:#007C8C;}
	.st11{font-size:9.223px;}
	.st12{fill:#1BBC9B;}
	.st13{font-size:9.6423px;}
	.st14{fill:#148971;}
	.st15{fill:#1B3C36;}
	.st16{fill:none;stroke:#042748;stroke-miterlimit:10;}
	.st17{fill:#0066CC;}
	.st18{font-size:12.0696px;}
</style>
<rect class="st0" width="479.3" height="299.3"/>
<rect x="15.6" y="20.4" class="st1" width="135" height="63.6"/>
<rect x="15.6" y="88.4" class="st1" width="135" height="108.4"/>
<rect x="326.7" y="20" class="st1" width="135" height="181.3"/>
<text transform="matrix(1 0 0 1 37.6432 34.7808)" class="st2 st3">Contesto normativo</text>
<text transform="matrix(1 0 0 1 60.238 102.5361)" class="st2 st4">Indirizzi AgID</text>
<text transform="matrix(1 0 0 1 341.8796 36.7368)" class="st2 st3">Pubbliche amministrazioni</text>
<polygon class="st5" points="139.4,75.8 26.8,75.8 26.8,49.3 139.4,49.3 141.1,62.5 "/>
<text transform="matrix(0.9728 0 0 1 47.6774 66.666)" class="st1 st6 st7">Legge di stabilità</text>
<g>
	<g>
		<rect x="57.5" y="244.6" class="st8" width="114.6" height="29.4"/>
		<text transform="matrix(0.9728 0 0 1 92.1638 262.0459)" class="st9 st6 st7">Piano Gare</text>
	</g>
	<g>
		<rect x="181.8" y="244.6" class="st8" width="114.6" height="29.4"/>
		<text transform="matrix(0.9728 0 0 1 188.5954 262.0459)" class="st9 st6 st7">Piano del finanziamento</text>
	</g>
	<g>
		<rect x="306.2" y="244.6" class="st8" width="114.6" height="29.4"/>
		<text transform="matrix(0.9728 0 0 1 314.987 262.0459)" class="st9 st6 st7">Piano triennale dele PA</text>
	</g>
</g>
<polygon class="st10" points="139.4,139.4 26.8,139.4 26.8,107.7 139.4,107.7 141.9,123.6 "/>
<text transform="matrix(0.9728 0 0 1 53.8483 121.1987)"><tspan x="0" y="0" class="st1 st6 st11">Strategia per la</tspan><tspan x="-1.9" y="11.1" class="st1 st6 st11">Crescita Digitale</tspan></text>
<g>
	<polygon class="st12" points="450.5,86.6 337.9,86.6 339.8,73.4 337.9,60.1 450.5,60.1 	"/>
	<text transform="matrix(0.9728 0 0 1 375.8444 77.5093)" class="st1 st6 st13">Strategia</text>
</g>
<g>
	<polygon class="st14" points="450.5,133.6 337.9,133.6 335.4,120.4 337.9,107.1 450.5,107.1 	"/>
	<text transform="matrix(0.9728 0 0 1 372.3151 124.5293)" class="st1 st6 st13">Fabbisogni</text>
</g>
<g>
	<polygon class="st15" points="450.5,180.7 337.9,180.7 339.6,167.4 337.9,154.2 450.5,154.2 	"/>
	<text transform="matrix(0.9728 0 0 1 379.2106 171.5493)" class="st1 st6 st13">Priorità</text>
</g>
<polygon class="st10" points="139.4,184.4 26.8,184.4 26.8,152.6 139.4,152.6 141.9,168.7 "/>
<text transform="matrix(0.9728 0 0 1 45.2829 165.7095)"><tspan x="0" y="0" class="st1 st6 st13">Modello Strategico</tspan><tspan x="4.3" y="11.6" class="st1 st6 st13">di evoluzione ICT</tspan></text>
<g>
	<g>
		<polyline class="st16" points="239.1,163.2 239.1,227 114.8,227 114.8,237.4 		"/>
		<g>
			<polygon class="st9" points="109.8,236 114.8,244.6 119.8,236 			"/>
		</g>
	</g>
</g>
<g>
	<g>
		<polyline class="st16" points="239.1,227 363.4,227 363.4,237.4 		"/>
		<g>
			<polygon class="st9" points="358.5,236 363.4,244.6 368.4,236 			"/>
		</g>
	</g>
</g>
<g>
	<g>
		<line class="st16" x1="239.1" y1="227" x2="239.1" y2="237.4"/>
		<g>
			<polygon class="st9" points="234.1,236 239.1,244.6 244.1,236 			"/>
		</g>
	</g>
</g>
<g>
	<g>
		<path class="st16" d="M283.3,92.7c0,0,12.8-17.8,49.3-19.3"/>
		<g>
			<polygon class="st9" points="331.3,78.5 339.8,73.4 331.1,68.5 			"/>
		</g>
	</g>
</g>
<g>
	<g>
		<path class="st16" d="M280.9,148.5c0,0,13.4,18.6,51.8,20.1"/>
		<g>
			<polygon class="st9" points="331.1,173.5 339.8,168.7 331.3,163.5 			"/>
		</g>
	</g>
</g>
<g>
	<g>
		<path class="st16" d="M190.9,153.6c-7.1,6-22.2,15.1-49,15.1"/>
		<g>
			<polygon class="st9" points="186.3,151 195.9,148.5 193.3,158.1 			"/>
		</g>
	</g>
</g>
<g>
	<g>
		<path class="st16" d="M193.5,84.6c-6.8-8.3-22.7-22.5-52.5-22"/>
		<g>
			<polygon class="st9" points="196.7,80.6 197.6,90.5 188.5,86.3 			"/>
		</g>
	</g>
</g>
<g>
	<g>
		<line class="st16" x1="303.6" y1="120.1" x2="335.4" y2="120.1"/>
		<g>
			<polygon class="st9" points="305,125.1 296.4,120.1 305,115.2 			"/>
		</g>
	</g>
</g>
<g>
	<g>
		<line class="st16" x1="141.9" y1="123.4" x2="174.7" y2="123.4"/>
		<g>
			<polygon class="st9" points="173.2,128.4 181.8,123.4 173.2,118.5 			"/>
		</g>
	</g>
</g>
<ellipse class="st17" cx="239.1" cy="120.1" rx="57.3" ry="43.1"/>
<text transform="matrix(1 0 0 1 199.1052 112.5742)"><tspan x="0" y="0" class="st1 st6 st18">Piano Triennale</tspan><tspan x="-2.6" y="14.5" class="st1 st6 st18">per l’Informatica</tspan><tspan x="19" y="29" class="st1 st6 st18">nella PA</tspan></text>
</svg>
