<svg xmlns="http://www.w3.org/2000/svg" viewBox="0 0 480 493.55"><defs><style>.cls-1{fill:#bfd3d6;}.cls-2,.cls-3{fill:none;stroke:#fff;stroke-miterlimit:10;}.cls-2{stroke-width:1.08px;}.cls-16,.cls-35,.cls-4,.cls-41{fill:#435d74;}.cls-5{fill:#354a5c;}.cls-6{fill:#5c7f9e;}.cls-7{font-size:15px;}.cls-27,.cls-32,.cls-7{fill:#fff;}.cls-16,.cls-25,.cls-27,.cls-7{font-family:TitilliumWeb-SemiBold, Titillium Web;}.cls-16,.cls-25,.cls-27,.cls-36,.cls-41,.cls-7{font-weight:700;}.cls-8{fill:#4d9fbc;}.cls-9{fill:#2d8ab5;}.cls-10{fill:#70b2c4;}.cls-11{fill:#faa426;}.cls-12{fill:#18a07f;}.cls-13,.cls-25{fill:#158467;}.cls-14{fill:#1bbc9b;}.cls-15{fill:#0e4c39;}.cls-16,.cls-26,.cls-27,.cls-35{font-size:9px;}.cls-17{letter-spacing:-0.06em;}.cls-18{letter-spacing:-0.01em;}.cls-19{letter-spacing:0em;}.cls-20{letter-spacing:-0.01em;}.cls-21{letter-spacing:0em;}.cls-22{fill:#acddce;}.cls-23{fill:#d8e5e1;}.cls-24{fill:#99c1b3;}.cls-25{font-size:18px;}.cls-27{letter-spacing:-0.01em;}.cls-28{letter-spacing:-0.01em;}.cls-29{letter-spacing:-0.07em;}.cls-30{letter-spacing:-0.01em;}.cls-31{fill:#84a598;}.cls-33{fill:#d8d7d6;}.cls-34{fill:#bcbcbc;}.cls-35,.cls-41{font-family:TitilliumWeb-Bold, Titillium Web;}.cls-37{font-family:TitilliumWeb-Regular, Titillium Web;}.cls-38{letter-spacing:-0.01em;}.cls-39{letter-spacing:-0.01em;}.cls-40{letter-spacing:0em;}.cls-41{font-size:9.5px;letter-spacing:-0.01em;}.cls-42{letter-spacing:-0.01em;}.cls-43{letter-spacing:-0.01em;}.cls-44{letter-spacing:-0.06em;}.cls-45{letter-spacing:-0.01em;}.cls-46{letter-spacing:-0.03em;}</style></defs><title>figura 10</title><g id="Livello_2" data-name="Livello 2"><rect class="cls-1" width="480" height="493.55"/><path class="cls-2" d="M1076.55,293" transform="translate(-602.93)"/><path class="cls-3" d="M1060.93,298.26" transform="translate(-602.93)"/><rect class="cls-4" x="9.79" y="50.89" width="32.76" height="234.68"/><polygon class="cls-5" points="42.55 285.56 52.48 278.82 52.48 44.14 42.55 50.89 42.55 285.56"/><polygon class="cls-6" points="19.62 44.14 9.79 50.82 9.79 50.89 42.55 50.89 52.48 44.14 19.62 44.14"/><text class="cls-7" transform="translate(16.05 169.47)">5,6</text><rect class="cls-8" x="61.23" y="50.89" width="32.76" height="30.92"/><polygon class="cls-9" points="93.99 81.8 103.92 75.06 103.92 44.14 93.99 50.89 93.99 81.8"/><polygon class="cls-10" points="71.07 44.14 61.23 50.82 61.23 50.89 93.99 50.89 103.92 44.14 71.07 44.14"/><text class="cls-7" transform="translate(67.26 70.97)">1,1</text><rect class="cls-4" x="61.23" y="87.81" width="32.76" height="197.76"/><polygon class="cls-5" points="93.99 285.56 103.92 278.82 103.92 81.06 93.99 87.81 93.99 285.56"/><polygon class="cls-6" points="71.07 81.06 61.23 87.74 61.23 87.81 93.99 87.81 103.92 81.06 71.07 81.06"/><rect class="cls-4" x="159.56" y="200.27" width="32.76" height="85.21"/><polygon class="cls-5" points="192.32 285.48 202.25 278.74 202.25 193.53 192.32 200.27 192.32 285.48"/><polygon class="cls-6" points="169.39 193.53 159.56 200.21 159.56 200.27 192.32 200.27 202.25 193.53 169.39 193.53"/><rect class="cls-8" x="159.56" y="131.9" width="32.76" height="61.52"/><polygon class="cls-9" points="192.32 193.43 202.25 186.69 202.25 125.16 192.32 131.9 192.32 193.43"/><polygon class="cls-10" points="169.39 125.16 159.56 131.84 159.56 131.9 192.32 131.9 202.25 125.16 169.39 125.16"/><text class="cls-7" transform="translate(166.06 159.07)">2,4</text><rect class="cls-4" x="110.41" y="140.17" width="32.76" height="145.49"/><polygon class="cls-5" points="143.17 285.67 153.1 278.92 153.1 133.43 143.17 140.17 143.17 285.67"/><polygon class="cls-6" points="120.25 133.43 110.41 140.11 110.41 140.17 143.17 140.17 153.1 133.43 120.25 133.43"/><rect class="cls-8" x="110.41" y="88.11" width="32.76" height="45.32"/><polygon class="cls-9" points="143.17 133.43 153.1 126.69 153.1 81.36 143.17 88.11 143.17 133.43"/><polygon class="cls-10" points="120.25 81.36 110.41 88.04 110.41 88.11 143.17 88.11 153.1 81.36 120.25 81.36"/><text class="cls-7" transform="translate(116.91 115.39)">1,4</text><rect class="cls-11" x="208.72" y="218.97" width="32.76" height="22.77"/><rect class="cls-8" x="208.72" y="218.97" width="32.76" height="22.77"/><polygon class="cls-9" points="241.48 241.74 251.41 235 251.41 212.22 241.48 218.97 241.48 241.74"/><polygon class="cls-10" points="218.56 212.22 208.72 218.91 208.72 218.97 241.48 218.97 251.41 212.22 218.56 212.22"/><text class="cls-7" transform="translate(214.86 235.68)">0,2</text><rect class="cls-4" x="208.72" y="248.48" width="32.86" height="37"/><polygon class="cls-5" points="241.59 285.48 251.52 278.74 251.52 241.74 241.59 248.48 241.59 285.48"/><polygon class="cls-6" points="208.72 248.48 241.48 248.48 251.41 241.74 218.56 241.74 208.72 248.48"/><rect class="cls-12" x="257.89" y="248.59" width="32.76" height="36.97"/><polygon class="cls-13" points="290.65 285.56 300.58 278.82 300.58 241.85 290.65 248.59 290.65 285.56"/><polygon class="cls-14" points="267.72 241.85 257.89 248.53 257.89 248.59 290.65 248.59 300.58 241.85 267.72 241.85"/><rect class="cls-13" x="257.89" y="265.35" width="32.76" height="20.43"/><polygon class="cls-15" points="290.65 285.78 300.58 279.04 300.58 258.61 290.65 265.35 290.65 285.78"/><text class="cls-7" transform="translate(264.36 264.05)">0,5</text><polygon class="cls-13" points="338.83 278.92 332 278.92 300.58 278.92 300.58 268.76 300.58 258.61 332 258.61 338.83 258.61 346.9 268.76 338.83 278.92"/><text class="cls-16" transform="translate(70.53 37.28)">Sogei - INAI<tspan class="cls-17" x="45.28" y="0">L</tspan><tspan x="49.02" y="0">- INPS</tspan></text><text class="cls-16" transform="translate(218.07 205.38)"><tspan class="cls-18">C</tspan><tspan x="4.81" y="0">onnettività</tspan></text><text class="cls-16" transform="translate(119.77 74.26)">Spesa d’i<tspan class="cls-19" x="34.23" y="0">n</tspan><tspan class="cls-20" x="39.1" y="0">v</tspan><tspan x="43.44" y="0">estimento</tspan></text><text class="cls-16" transform="translate(168.8 105.32)"><tspan class="cls-18">C</tspan><tspan x="4.81" y="0">onsip</tspan><tspan x="0" y="13">Soggetti agg</tspan><tspan class="cls-21" x="48.28" y="13">r</tspan><tspan x="51.5" y="13">egatori</tspan></text><text class="cls-16" transform="translate(267.21 234.76)">Spesa <tspan class="cls-19" x="25.06" y="0">c</tspan><tspan x="28.99" y="0">or</tspan><tspan class="cls-21" x="37.01" y="0">r</tspan><tspan x="40.22" y="0">ente</tspan></text><text class="cls-16" transform="translate(19.2 37.28)">Spesa ICT</text><rect class="cls-22" x="355.12" y="211.55" width="114.7" height="74.25"/><rect class="cls-23" x="160.06" y="290.21" width="309.76" height="203.33"/><polygon class="cls-22" points="469.82 291.4 412.47 303.4 355.12 291.4 355.12 277.43 355.12 275.46 412.47 275.46 469.82 275.46 469.82 277.43 469.82 291.4"/><rect class="cls-24" x="355.12" y="186.69" width="114.7" height="53.3"/><text class="cls-25" transform="translate(397.7 257.72)">50%<tspan class="cls-26"><tspan x="-24.55" y="10.8" xml:space="preserve">della spesa  </tspan><tspan class="cls-19" x="22.35" y="10.8">c</tspan><tspan x="26.28" y="10.8">or</tspan><tspan class="cls-21" x="34.3" y="10.8">r</tspan><tspan x="37.51" y="10.8">ente</tspan></tspan></text><text class="cls-27" transform="translate(360.11 223.62)">Obietti<tspan class="cls-28" x="25.64" y="0">v</tspan><tspan x="29.92" y="0">o di </tspan><tspan class="cls-29" x="45.37" y="0">T</tspan><tspan x="49.44" y="0">ras</tspan><tspan class="cls-30" x="61.28" y="0">f</tspan><tspan x="64.28" y="0">ormazione</tspan><tspan x="0" y="9">e Risparmio</tspan></text><path class="cls-31" d="M1028.85,197.91a.2.2,0,0,0-.24.15,1.41,1.41,0,0,1,0,.14,1.92,1.92,0,0,1-.18.37,2.06,2.06,0,0,1-.21.27,3.23,3.23,0,0,0-.21-.49,3.64,3.64,0,0,0-.22-.36l-.12-.16-.06-.08,0,0,0,0,0,0-.15-.15a1.92,1.92,0,0,0-.21-.18,2,2,0,0,0-.48-.26,1.59,1.59,0,0,0-1.18,0,1.55,1.55,0,0,0-.5.35,1.52,1.52,0,0,0-.3.5,1.8,1.8,0,0,0-.07,1,2.56,2.56,0,0,0,.31.79l.11.18a1.7,1.7,0,0,0,.15.19,1.44,1.44,0,0,0,.39.31,1.57,1.57,0,0,0,.5.17,3.49,3.49,0,0,1-.42.16,4.67,4.67,0,0,1-.8.16l-.21,0c-1.25-3.66-5.23-6.34-9.94-6.34a11.71,11.71,0,0,0-5.25,1.22c-1.27-1.52-3.73-1.75-4.16-1.78h-.07s-1,2.94.32,4.84l.15.21a8.18,8.18,0,0,0-.71,1.31,1.78,1.78,0,0,1-1.64,1.08h0v0l-.12,0c-.5,0-.9.94-.9,2.1h0c0,1.16.4,2.1.9,2.1l.12,0v0h0a2,2,0,0,1,1.81,1.13,9,9,0,0,0,2.49,3v2.75h0v0c0,.55.94,1,2.1,1s2.1-.44,2.1-1v0h0v-.73a12.15,12.15,0,0,0,5.51.05v.68h0v0c0,.55.94,1,2.1,1s2.1-.44,2.1-1v0h0V210a8.28,8.28,0,0,0,3.5-6.59,7.59,7.59,0,0,0-.1-1.23,5.14,5.14,0,0,0,1-.14,3.94,3.94,0,0,0,1.23-.51,2.7,2.7,0,0,0,.61-.53,2.18,2.18,0,0,0,.43-.82,2.05,2.05,0,0,0,.07-.48l.15-.17a2.55,2.55,0,0,0,.41-.71,2,2,0,0,0,.13-.51c0-.12,0-.19,0-.19h0A.2.2,0,0,0,1028.85,197.91Zm-2.42.69Zm-.52.65a.94.94,0,0,1,0-.78.22.22,0,0,1,.13-.1.31.31,0,0,1,.17,0l.12.07.05,0,.08.09h0l0,0,0,.06.08.11.14.22a1.47,1.47,0,0,1,.16.42.87.87,0,0,1,0,.15,1.47,1.47,0,0,1-.5,0,.65.65,0,0,1-.33-.11A.54.54,0,0,1,1025.91,199.25Z" transform="translate(-602.93)"/><path class="cls-32" d="M1021,206.76h-4.2v5.13h0v0c0,.55.94,1,2.1,1s2.1-.45,2.1-1v0h0Z" transform="translate(-602.93)"/><path class="cls-32" d="M1011.31,206.76h-4.2v5.13h0v0c0,.55.94,1,2.1,1s2.1-.45,2.1-1v0h0Z" transform="translate(-602.93)"/><ellipse class="cls-32" cx="1007.05" cy="196.77" rx="2.48" ry="4.17" transform="translate(-537.13 605.34) rotate(-34.52)"/><path class="cls-33" d="M1005.08,198.28a2.63,2.63,0,0,0,.64-1.09,3.77,3.77,0,0,0-1-3.85h-.07s-1,2.94.32,4.84Z" transform="translate(-602.93)"/><path class="cls-32" d="M1014.17,193.91c-4.47,0-8.28,2.41-9.72,5.79a1.78,1.78,0,0,1-1.64,1.08h0V205h0a2,2,0,0,1,1.81,1.13,10.51,10.51,0,0,0,9.55,5.4c5.72,0,10.35-3.94,10.35-8.8S1019.88,193.91,1014.17,193.91Z" transform="translate(-602.93)"/><ellipse class="cls-33" cx="399.76" cy="202.87" rx="0.9" ry="2.1"/><circle class="cls-34" cx="403.57" cy="200.5" r="0.6"/><path class="cls-33" d="M1017.7,196.38l-.15,0a13.16,13.16,0,0,0-6.12,0,.65.65,0,1,1-.3-1.26,14.48,14.48,0,0,1,6.73,0,.65.65,0,0,1-.15,1.28Z" transform="translate(-602.93)"/><ellipse class="cls-34" cx="399.19" cy="202.87" rx="0.33" ry="0.67"/><path class="cls-32" d="M1023.1,200.21l.16,0,.42,0a5.08,5.08,0,0,0,.65,0,4.69,4.69,0,0,0,.8-.16,2.84,2.84,0,0,0,.81-.37,1.06,1.06,0,0,0,.45-.58.8.8,0,0,0,0-.34,1.45,1.45,0,0,0-.16-.42,2.41,2.41,0,0,0-.14-.22L1026,198l0-.06,0,0h0l0,0h0l-.09-.1-.05,0-.12-.07a.32.32,0,0,0-.17,0,.22.22,0,0,0-.13.1.94.94,0,0,0,0,.78.54.54,0,0,0,.17.28.65.65,0,0,0,.33.11,1.84,1.84,0,0,0,.87-.16,2.62,2.62,0,0,0,.7-.43,2.2,2.2,0,0,0,.42-.48,2,2,0,0,0,.18-.37c0-.09,0-.14,0-.14a.2.2,0,0,1,.4,0h0a1.73,1.73,0,0,1,0,.19,2.06,2.06,0,0,1-.13.51,2.57,2.57,0,0,1-.41.71,3.1,3.1,0,0,1-.8.7,2.64,2.64,0,0,1-1.27.4,1.67,1.67,0,0,1-.84-.19,1.46,1.46,0,0,1-.39-.31,1.86,1.86,0,0,1-.15-.19l-.11-.18a2.54,2.54,0,0,1-.31-.79,1.8,1.8,0,0,1,.07-1,1.49,1.49,0,0,1,.3-.5,1.53,1.53,0,0,1,.5-.36,1.59,1.59,0,0,1,1.18,0,1.94,1.94,0,0,1,.48.26,2,2,0,0,1,.21.18l.15.15,0,0,0,0,0,0,.06.08.12.17a3.67,3.67,0,0,1,.22.36,2.87,2.87,0,0,1,.31.84,2.14,2.14,0,0,1,0,1,2.18,2.18,0,0,1-.43.82,2.71,2.71,0,0,1-.61.53,3.92,3.92,0,0,1-1.23.51,5.58,5.58,0,0,1-1.87.11,5.06,5.06,0,0,1-.51-.08l-.17,0a.57.57,0,0,1,.18-1.12Z" transform="translate(-602.93)"/><rect class="cls-4" x="249.72" y="405.59" width="32.76" height="77.51"/><polygon class="cls-5" points="282.49 483.1 292.41 476.36 292.41 398.85 282.49 405.59 282.49 483.1"/><polygon class="cls-6" points="259.56 398.85 249.72 405.53 249.72 405.59 282.49 405.59 292.41 398.85 259.56 398.85"/><rect class="cls-8" x="249.76" y="353.68" width="32.76" height="45.32"/><polygon class="cls-9" points="282.52 399 292.45 392.26 292.45 346.94 282.52 353.68 282.52 399"/><polygon class="cls-10" points="259.6 346.94 249.76 353.62 249.76 353.68 282.52 353.68 292.45 346.94 259.6 346.94"/><text class="cls-7" transform="translate(256.26 380.96)">0,4</text><rect class="cls-8" x="337.96" y="405.64" width="32.76" height="30.92"/><polygon class="cls-9" points="370.72 436.56 380.65 429.81 380.65 398.9 370.72 405.64 370.72 436.56"/><polygon class="cls-10" points="347.8 398.9 337.96 405.58 337.96 405.64 370.72 405.64 380.65 398.9 347.8 398.9"/><text class="cls-7" transform="translate(343.99 425.72)">0,1</text><rect class="cls-4" x="337.96" y="443.3" width="32.76" height="39.75"/><polygon class="cls-5" points="370.72 483.05 380.65 476.3 380.65 436.56 370.72 443.3 370.72 483.05"/><polygon class="cls-6" points="347.8 436.56 337.96 443.24 337.96 443.3 370.72 443.3 380.65 436.56 347.8 436.56"/><text class="cls-35" transform="translate(258.4 330.03)"><tspan class="cls-36">Piatta<tspan class="cls-21" x="23.37" y="0">f</tspan><tspan x="26.55" y="0">orme abilitanti</tspan></tspan><tspan class="cls-37"><tspan class="cls-38" x="0" y="10">A</tspan><tspan x="5.31" y="10">desione alle piatta</tspan><tspan class="cls-39" x="74.12" y="10">f</tspan><tspan x="77.02" y="10">orme</tspan></tspan></text><text class="cls-35" transform="translate(347.39 382.56)"><tspan class="cls-36">Li<tspan class="cls-21" x="6.57" y="0">c</tspan><tspan x="10.55" y="0">enze</tspan></tspan><tspan class="cls-37"><tspan x="0" y="10">Ottimizzazione delle li</tspan><tspan class="cls-38" x="82.64" y="10">c</tspan><tspan x="86.51" y="10">en</tspan><tspan class="cls-40" x="95.88" y="10">z</tspan><tspan x="99.95" y="10">e</tspan></tspan></text><text class="cls-41" transform="translate(172.48 314.67)">Dettaglio <tspan class="cls-42" x="39.24" y="0">c</tspan><tspan x="43.38" y="0">opertura obietti</tspan><tspan class="cls-43" x="106.99" y="0">v</tspan><tspan x="111.58" y="0" xml:space="preserve">o  di </tspan><tspan class="cls-44" x="130.18" y="0">T</tspan><tspan x="134.61" y="0">ras</tspan><tspan class="cls-45" x="147.29" y="0">f</tspan><tspan x="150.57" y="0">ormazione e Risparmio (Mld/€)</tspan></text><text class="cls-41" transform="translate(19.21 13.23)">Proiezione della spesa ICT della <tspan class="cls-46" x="128.45" y="0">P</tspan><tspan x="133.79" y="0">A 2018 (Mld/€)</tspan></text></g></svg>