<svg id="Livello_1" data-name="Livello 1" xmlns="http://www.w3.org/2000/svg" viewBox="0 0 592.2 509.5"><defs><style>.cls-1{fill:#e3e4e5;}.cls-2{fill:#868988;}.cls-16,.cls-3,.cls-4,.cls-5{fill:none;}.cls-3,.cls-4,.cls-5{stroke:#747677;}.cls-13,.cls-3,.cls-4,.cls-5{stroke-miterlimit:10;}.cls-4{stroke-dasharray:3 3 3 3;}.cls-5{stroke-dasharray:3 3 3 3 3 3;}.cls-42,.cls-44,.cls-58,.cls-6{fill:#fff;}.cls-13,.cls-7{fill:#06c;}.cls-8{fill:#92d050;}.cls-9{fill:#7c7b7b;}.cls-10{fill:#87cd5d;}.cls-11{fill:#01b0f0;}.cls-12{fill:#538135;}.cls-13{stroke:#fff;}.cls-14,.cls-40,.cls-46,.cls-56,.cls-57,.cls-60{fill:#1f3765;}.cls-15{fill:#c9c9c9;}.cls-17,.cls-18,.cls-40,.cls-42,.cls-44,.cls-46,.cls-56,.cls-57,.cls-58{isolation:isolate;}.cls-18,.cls-56,.cls-57{font-size:8px;}.cls-18,.cls-46{font-family:TitilliumWeb-Regular, Titillium Web;}.cls-19{letter-spacing:-0.02em;}.cls-20{letter-spacing:-0.01em;}.cls-21{letter-spacing:-0.03em;}.cls-22,.cls-57{letter-spacing:-0.01em;}.cls-23{letter-spacing:0em;}.cls-24{letter-spacing:0em;}.cls-25{letter-spacing:-0.01em;}.cls-26{letter-spacing:-0.01em;}.cls-27{letter-spacing:-0.01em;}.cls-28{letter-spacing:-0.05em;}.cls-29{letter-spacing:-0.01em;}.cls-30{letter-spacing:0em;}.cls-31{letter-spacing:-0.01em;}.cls-32{letter-spacing:0em;}.cls-33{letter-spacing:-0.01em;}.cls-34{letter-spacing:-0.01em;}.cls-35{letter-spacing:-0.01em;}.cls-36{letter-spacing:-0.02em;}.cls-37{letter-spacing:0em;}.cls-38{letter-spacing:-0.09em;}.cls-39{letter-spacing:-0.01em;}.cls-40{font-size:9.96px;}.cls-40,.cls-42,.cls-44,.cls-56,.cls-57,.cls-58{font-family:TitilliumWeb-SemiBold, Titillium Web;}.cls-40,.cls-42,.cls-44,.cls-56,.cls-57,.cls-58,.cls-60{font-weight:700;}.cls-41{fill:#ffc000;}.cls-42,.cls-44{font-size:9.19px;}.cls-43{letter-spacing:-0.01em;}.cls-44{letter-spacing:-0.01em;}.cls-45{letter-spacing:0em;}.cls-46{font-size:7.66px;}.cls-47{letter-spacing:-0.01em;}.cls-48{letter-spacing:-0.01em;}.cls-49{letter-spacing:-0.01em;}.cls-50{letter-spacing:-0.01em;}.cls-51{letter-spacing:0em;}.cls-52{letter-spacing:0em;}.cls-53{letter-spacing:0em;}.cls-54{letter-spacing:0em;}.cls-55{letter-spacing:-0.03em;}.cls-58{font-size:9.4px;}.cls-59{letter-spacing:0em;}.cls-60{font-size:9px;font-family:TitilliumWeb-Bold, Titillium Web;}.cls-61{letter-spacing:0em;}</style></defs><title>Figura 2 - Gli attori del processo di trasformazione digitale della PA</title><rect class="cls-1" width="592.2" height="509.5"/><rect class="cls-2" x="297.1" y="107.8" width="0.6" height="177.5"/><rect class="cls-2" x="185.5" y="337.4" width="58.9" height="0.6"/><rect class="cls-2" x="349.6" y="337.4" width="26.8" height="0.6"/><rect class="cls-2" x="253.4" y="170.4" width="88.9" height="0.6"/><polyline class="cls-3" points="378.1 251.8 379.6 251.8 379.6 252.4 378.1 252.4"/><line class="cls-4" x1="375.1" y1="252.4" x2="364.6" y2="252.4"/><line class="cls-5" x1="363.1" y1="252.4" x2="346.6" y2="252.4"/><polyline class="cls-3" points="345.1 252.4 343.6 252.4 343.6 251.8 345.1 251.8"/><line class="cls-4" x1="348.1" y1="251.8" x2="358.6" y2="251.8"/><line class="cls-5" x1="360.1" y1="251.8" x2="376.6" y2="251.8"/><rect class="cls-2" x="185.5" y="325.5" width="0.6" height="23.8"/><rect class="cls-2" x="297.1" y="390.2" width="0.6" height="22.8"/><rect class="cls-6" x="460.2" y="302.8" width="131" height="69.7"/><rect class="cls-6" x="460.2" y="232.4" width="131" height="44.5"/><rect class="cls-6" x="460.2" y="151.5" width="131" height="38.5"/><rect class="cls-6" x="460.2" y="196.2" width="131" height="30.2"/><rect class="cls-6" x="460.2" y="53.5" width="131" height="46.4"/><rect class="cls-6" x="460.2" y="398.7" width="131" height="54.7"/><path class="cls-7" d="M242.9,135.4h-93a5.59,5.59,0,0,1-5.6-5.6V93.6a5.59,5.59,0,0,1,5.6-5.6h93a5.59,5.59,0,0,1,5.6,5.6v36.2A5.53,5.53,0,0,1,242.9,135.4Z" transform="translate(0.6 -1.7)"/><path class="cls-8" d="M243.1,137H149.8a7.24,7.24,0,0,1-7-7.4V93.8a7.18,7.18,0,0,1,7-7.4h93.3a7.24,7.24,0,0,1,7,7.4v35.9A7.22,7.22,0,0,1,243.1,137ZM149.8,89.6a4.12,4.12,0,0,0-4,4.2v35.9a4.12,4.12,0,0,0,4,4.2h93.3a4.12,4.12,0,0,0,4-4.2V93.8a4.12,4.12,0,0,0-4-4.2Z" transform="translate(0.6 -1.7)"/><path class="cls-9" d="M337.1,333.3H256.5a4.87,4.87,0,0,1-4.8-4.8V298.4a4.87,4.87,0,0,1,4.8-4.8h80.6a4.87,4.87,0,0,1,4.8,4.8v30.1A4.8,4.8,0,0,1,337.1,333.3Z" transform="translate(0.6 -1.7)"/><path class="cls-10" d="M333.9,329.6H259.7a4.12,4.12,0,0,1-4.1-4.1v-24a4.12,4.12,0,0,1,4.1-4.1h74.2a4.12,4.12,0,0,1,4.1,4.1v24A4.06,4.06,0,0,1,333.9,329.6Z" transform="translate(0.6 -1.7)"/><path class="cls-11" d="M330.4,325.9H263a3.37,3.37,0,0,1-3.4-3.4V304.6a3.37,3.37,0,0,1,3.4-3.4h67.4a3.37,3.37,0,0,1,3.4,3.4v17.9A3.37,3.37,0,0,1,330.4,325.9Z" transform="translate(0.6 -1.7)"/><path class="cls-9" d="M337.1,383H256.5a4.87,4.87,0,0,1-4.8-4.8V348.1a4.87,4.87,0,0,1,4.8-4.8h80.6a4.87,4.87,0,0,1,4.8,4.8v30.1A4.87,4.87,0,0,1,337.1,383Z" transform="translate(0.6 -1.7)"/><path class="cls-10" d="M333.9,379.3H259.7a4.12,4.12,0,0,1-4.1-4.1v-24a4.12,4.12,0,0,1,4.1-4.1h74.2a4.12,4.12,0,0,1,4.1,4.1v24A4.12,4.12,0,0,1,333.9,379.3Z" transform="translate(0.6 -1.7)"/><path class="cls-11" d="M330.4,375.5H263a3.37,3.37,0,0,1-3.4-3.4V354.2a3.37,3.37,0,0,1,3.4-3.4h67.4a3.37,3.37,0,0,1,3.4,3.4v17.9A3.31,3.31,0,0,1,330.4,375.5Z" transform="translate(0.6 -1.7)"/><path class="cls-9" d="M334,448.3H259.4a4.23,4.23,0,0,1-4.2-4.2V418.9a4.23,4.23,0,0,1,4.2-4.2H334a4.23,4.23,0,0,1,4.2,4.2v25.2A4.1,4.1,0,0,1,334,448.3Z" transform="translate(0.6 -1.7)"/><path class="cls-12" d="M247.7,185H157.2a4.27,4.27,0,0,1-4.3-4.3V159.8a4.27,4.27,0,0,1,4.3-4.3h90.5a4.27,4.27,0,0,1,4.3,4.3v20.9A4.21,4.21,0,0,1,247.7,185Z" transform="translate(0.6 -1.7)"/><path class="cls-13" d="M359.1,109.5H235.4a7.17,7.17,0,0,1-7.2-7.2V57.9a7.17,7.17,0,0,1,7.2-7.2H359.2a7.17,7.17,0,0,1,7.2,7.2v44.5A7.3,7.3,0,0,1,359.1,109.5Z" transform="translate(0.6 -1.7)"/><path class="cls-13" d="M359.1,109.8H235.4a7.55,7.55,0,0,1-7.5-7.5V57.9a7.55,7.55,0,0,1,7.5-7.5H359.2a7.55,7.55,0,0,1,7.5,7.5v44.5A7.56,7.56,0,0,1,359.1,109.8ZM235.4,50.9a6.91,6.91,0,0,0-6.9,6.9v44.5a6.91,6.91,0,0,0,6.9,6.9H359.2a6.91,6.91,0,0,0,6.9-6.9V57.9a6.91,6.91,0,0,0-6.9-6.9H235.4Z" transform="translate(0.6 -1.7)"/><path class="cls-6" d="M270.8,80.6V78.8h3.6v6.5a12.29,12.29,0,0,1-2,.3,21.32,21.32,0,0,1-2.2.1c-1.9,0-3.3-.5-4-1.6a9.26,9.26,0,0,1-1.1-5,9.26,9.26,0,0,1,1.1-5,4.49,4.49,0,0,1,3.9-1.6,17.33,17.33,0,0,1,3.7.4l.6.1-.1,1.6a30.23,30.23,0,0,0-4-.3,2.5,2.5,0,0,0-2.4,1,7.71,7.71,0,0,0-.7,3.7,7.7,7.7,0,0,0,.6,3.7,2.69,2.69,0,0,0,2.5,1,8.75,8.75,0,0,0,2-.2V80.4h-1.5Z" transform="translate(0.6 -1.7)"/><path class="cls-6" d="M277.3,77.2a3.81,3.81,0,0,1,3.2-1.2,3.94,3.94,0,0,1,3.2,1.2,7.3,7.3,0,0,1,.1,7.2,4.87,4.87,0,0,1-6.4,0,6,6,0,0,1-.9-3.6C276.5,79.2,276.6,78,277.3,77.2Zm1.5,6c.3.5.8.7,1.7.7a1.83,1.83,0,0,0,1.7-.7,4.94,4.94,0,0,0,.4-2.4,4.77,4.77,0,0,0-.5-2.4,2.18,2.18,0,0,0-3.2,0,4.77,4.77,0,0,0-.5,2.4A4.94,4.94,0,0,0,278.8,83.2Z" transform="translate(0.6 -1.7)"/><path class="cls-6" d="M285.6,76.2h2.1l1.8,7.6h.6l1.9-7.6h2.1l-2.4,9.3H288Z" transform="translate(0.6 -1.7)"/><path class="cls-6" d="M302,83.8l.5-.1v1.5a18.2,18.2,0,0,1-3.8.4,3.78,3.78,0,0,1-3-1.1,6,6,0,0,1-.9-3.6c0-3.3,1.3-4.9,4-4.9s3.9,1.4,3.9,4.3l-.1,1.4H297a2.65,2.65,0,0,0,.5,1.7c.3.4.9.5,1.8.5S301.1,83.8,302,83.8Zm-1.1-3.7a3,3,0,0,0-.4-1.9,1.72,1.72,0,0,0-1.5-.5,1.75,1.75,0,0,0-1.5.6,3.09,3.09,0,0,0-.5,1.9h3.9Z" transform="translate(0.6 -1.7)"/><path class="cls-6" d="M304.9,85.4V76.1h2v1.1a8.66,8.66,0,0,1,3.2-1.3v2a12.54,12.54,0,0,0-2.7.8l-.4.2v6.5Z" transform="translate(0.6 -1.7)"/><path class="cls-6" d="M313.6,85.4h-2V76.1h2v.6a5.56,5.56,0,0,1,2.6-.8,2.69,2.69,0,0,1,2.5,1,6.33,6.33,0,0,1,.7,3.5v5h-2V80.5a5.15,5.15,0,0,0-.3-2.1,1.38,1.38,0,0,0-1.3-.6,3.92,3.92,0,0,0-1.8.4l-.3.1v7.1Z" transform="translate(0.6 -1.7)"/><path class="cls-6" d="M322.2,77.2a3.81,3.81,0,0,1,3.2-1.2,3.94,3.94,0,0,1,3.2,1.2,7.3,7.3,0,0,1,.1,7.2,4.87,4.87,0,0,1-6.4,0,6,6,0,0,1-.9-3.6A6,6,0,0,1,322.2,77.2Zm1.5,6c.3.5.8.7,1.7.7a1.83,1.83,0,0,0,1.7-.7,4.94,4.94,0,0,0,.4-2.4,4.77,4.77,0,0,0-.5-2.4,2.18,2.18,0,0,0-3.2,0,4.77,4.77,0,0,0-.5,2.4A4.94,4.94,0,0,0,323.7,83.2Z" transform="translate(0.6 -1.7)"/><path class="cls-6" d="M166.5,104.4a2.14,2.14,0,0,1-1.9-.8,5.39,5.39,0,0,1-.5-2.6,4.94,4.94,0,0,1,.5-2.5,2.14,2.14,0,0,1,1.9-.8,11,11,0,0,1,1.8.2v.8a9.85,9.85,0,0,0-1.7-.2,1.17,1.17,0,0,0-1.1.5,6.17,6.17,0,0,0,0,3.8,1.29,1.29,0,0,0,1.1.5,10.28,10.28,0,0,0,1.7-.1v.9A5.66,5.66,0,0,1,166.5,104.4Z" transform="translate(0.6 -1.7)"/><path class="cls-6" d="M169.5,100.1a2.43,2.43,0,0,1,3.2,0,3.49,3.49,0,0,1,0,3.6,2,2,0,0,1-1.6.6,1.84,1.84,0,0,1-1.6-.6,3.49,3.49,0,0,1,0-3.6Zm.8,3.1c.1.3.4.4.8.4s.7-.1.8-.4a3.73,3.73,0,0,0,.2-1.2,3.26,3.26,0,0,0-.2-1.2,1,1,0,0,0-.8-.4c-.4,0-.7.1-.8.4a3.26,3.26,0,0,0-.2,1.2A2,2,0,0,0,170.3,103.2Z" transform="translate(0.6 -1.7)"/><path class="cls-6" d="M175.2,104.3h-1V99.6h1v.3a2.13,2.13,0,0,1,1.2-.4,1.66,1.66,0,0,1,1.2.5,3.69,3.69,0,0,1,1.7-.5,1.36,1.36,0,0,1,1.2.5,3.61,3.61,0,0,1,.3,1.8v2.5h-1v-2.5a2.68,2.68,0,0,0-.2-1.1.6.6,0,0,0-.6-.3,2.92,2.92,0,0,0-.9.2l-.2.1a8.37,8.37,0,0,1,.1,1.2v2.4h-1v-2.4a2,2,0,0,0-.2-1.2c-.2-.3-.3-.3-.7-.3a2.92,2.92,0,0,0-.9.2l-.1.1v3.6Z" transform="translate(0.6 -1.7)"/><path class="cls-6" d="M183.1,104.3h-1V99.6h1v.3a2.13,2.13,0,0,1,1.2-.4,1.66,1.66,0,0,1,1.2.5,3.69,3.69,0,0,1,1.7-.5,1.36,1.36,0,0,1,1.2.5,3.61,3.61,0,0,1,.3,1.8v2.5h-1v-2.5a2.68,2.68,0,0,0-.2-1.1.6.6,0,0,0-.6-.3,2.92,2.92,0,0,0-.9.2l-.2.1a8.37,8.37,0,0,1,.1,1.2v2.4h-1v-2.4a2,2,0,0,0-.2-1.2c-.2-.3-.3-.3-.7-.3a2.92,2.92,0,0,0-.9.2l-.1.1v3.6Z" transform="translate(0.6 -1.7)"/><path class="cls-6" d="M189.9,98.8V97.7h1v1.1Zm0,5.5V99.6h1v4.7Z" transform="translate(0.6 -1.7)"/><path class="cls-6" d="M195.5,100.6c-.7-.1-1.3-.2-1.6-.2s-.6,0-.7.1a.5.5,0,0,0,0,.8,4.07,4.07,0,0,0,1,.2,2.3,2.3,0,0,1,1.1.4,1.33,1.33,0,0,1,.3,1,1.29,1.29,0,0,1-.5,1.1,2.65,2.65,0,0,1-1.4.3,7.84,7.84,0,0,1-1.4-.2H192v-.9c.8.1,1.3.2,1.6.2s.6,0,.7-.1a.5.5,0,0,0,0-.8,1.85,1.85,0,0,0-1-.2,2.3,2.3,0,0,1-1.1-.4,1.33,1.33,0,0,1-.4-1,1.43,1.43,0,0,1,.5-1.1,2.23,2.23,0,0,1,1.3-.4,10.4,10.4,0,0,1,1.5.2l.3.1Z" transform="translate(0.6 -1.7)"/><path class="cls-6" d="M199.9,100.6c-.7-.1-1.3-.2-1.6-.2s-.6,0-.7.1a.5.5,0,0,0,0,.8,4.07,4.07,0,0,0,1,.2,2.3,2.3,0,0,1,1.1.4,1.33,1.33,0,0,1,.3,1,1.29,1.29,0,0,1-.5,1.1,2.65,2.65,0,0,1-1.4.3,7.84,7.84,0,0,1-1.4-.2h-.3v-.9c.8.1,1.3.2,1.6.2s.6,0,.7-.1a.5.5,0,0,0,0-.8,1.85,1.85,0,0,0-1-.2,2.3,2.3,0,0,1-1.1-.4,1.33,1.33,0,0,1-.4-1,1.43,1.43,0,0,1,.5-1.1,2.23,2.23,0,0,1,1.3-.4,10.4,10.4,0,0,1,1.5.2l.3.1Z" transform="translate(0.6 -1.7)"/><path class="cls-6" d="M204.5,101.1v2.1a.35.35,0,0,0,.4.4v.8a1.92,1.92,0,0,1-1.2-.3,4,4,0,0,1-1.5.3c-.9,0-1.4-.5-1.4-1.5a1.05,1.05,0,0,1,.4-1,2.78,2.78,0,0,1,1.2-.4l1.2-.1v-.3a.59.59,0,0,0-.2-.5.76.76,0,0,0-.5-.2,8.64,8.64,0,0,0-1.5.1h-.3v-.7a6.48,6.48,0,0,1,1.9-.2c.6,0,1,.1,1.2.4A1.61,1.61,0,0,1,204.5,101.1Zm-2.1,1.1c-.4,0-.6.3-.6.7a.53.53,0,0,0,.6.6,4.4,4.4,0,0,0,1-.2l.2-.1V102Z" transform="translate(0.6 -1.7)"/><path class="cls-6" d="M205.8,104.3V99.6h1v.6a5.58,5.58,0,0,1,1.6-.7v1a5.73,5.73,0,0,0-1.4.4l-.2.1v3.3Z" transform="translate(0.6 -1.7)"/><path class="cls-6" d="M209.2,98.8V97.7h1v1.1Zm0,5.5V99.6h1v4.7Z" transform="translate(0.6 -1.7)"/><path class="cls-6" d="M211.7,100.1a2.43,2.43,0,0,1,3.2,0,3.49,3.49,0,0,1,0,3.6,2.43,2.43,0,0,1-3.2,0,3.49,3.49,0,0,1,0-3.6Zm.7,3.1c.1.3.4.4.8.4s.7-.1.8-.4a3.73,3.73,0,0,0,.2-1.2,3.26,3.26,0,0,0-.2-1.2.89.89,0,0,0-.8-.4c-.4,0-.7.1-.8.4a3.7,3.7,0,0,0,0,2.4Z" transform="translate(0.6 -1.7)"/><path class="cls-6" d="M158.9,111.8c-.7-.1-1.3-.2-1.6-.2s-.6,0-.7.1a.5.5,0,0,0,0,.8,4.07,4.07,0,0,0,1,.2,2.3,2.3,0,0,1,1.1.4,1.33,1.33,0,0,1,.3,1,1.29,1.29,0,0,1-.5,1.1,2.65,2.65,0,0,1-1.4.3,7.84,7.84,0,0,1-1.4-.2h-.3v-.9c.8.1,1.3.2,1.6.2s.6,0,.7-.1a.5.5,0,0,0,0-.8,1.85,1.85,0,0,0-1-.2,2.3,2.3,0,0,1-1.1-.4,1.33,1.33,0,0,1-.4-1,1.43,1.43,0,0,1,.5-1.1,2.23,2.23,0,0,1,1.3-.4,10.4,10.4,0,0,1,1.5.2l.3.1Z" transform="translate(0.6 -1.7)"/><path class="cls-6" d="M162.5,111.8h-1.3v2.1a1.72,1.72,0,0,0,.1.8.52.52,0,0,0,.4.2h.8v.8a3.75,3.75,0,0,1-1,.1,1.25,1.25,0,0,1-1.1-.4,2.21,2.21,0,0,1-.3-1.4v-2.2h-.6v-.9h.6v-1.4h1v1.4h1.3v.9Z" transform="translate(0.6 -1.7)"/><path class="cls-6" d="M163.4,115.6v-4.7h1v.6a5.58,5.58,0,0,1,1.6-.7v1a5.73,5.73,0,0,0-1.4.4l-.2.1v3.3Z" transform="translate(0.6 -1.7)"/><path class="cls-6" d="M170.2,112.3v2.1a.35.35,0,0,0,.4.4v.8a1.92,1.92,0,0,1-1.2-.3,4,4,0,0,1-1.5.3c-.9,0-1.4-.5-1.4-1.5a1.05,1.05,0,0,1,.4-1,2.78,2.78,0,0,1,1.2-.4l1.2-.1v-.3a.59.59,0,0,0-.2-.5.76.76,0,0,0-.5-.2,8.64,8.64,0,0,0-1.5.1h-.3V111a6.48,6.48,0,0,1,1.9-.2c.6,0,1,.1,1.2.4A1.61,1.61,0,0,1,170.2,112.3Zm-2.1,1.2c-.4,0-.6.3-.6.7a.53.53,0,0,0,.6.6,4.4,4.4,0,0,0,1-.2l.2-.1v-1.2Z" transform="translate(0.6 -1.7)"/><path class="cls-6" d="M171.8,111.4a2.43,2.43,0,0,1,3.2,0,3.49,3.49,0,0,1,0,3.6,2,2,0,0,1-1.6.6,1.84,1.84,0,0,1-1.6-.6,3,3,0,0,1-.5-1.8A2.43,2.43,0,0,1,171.8,111.4Zm.7,3c.1.3.4.4.8.4s.7-.1.8-.4a3.73,3.73,0,0,0,.2-1.2,3.26,3.26,0,0,0-.2-1.2,1,1,0,0,0-.8-.4c-.4,0-.7.1-.8.4s-.2.6-.2,1.2A2.87,2.87,0,0,0,172.5,114.4Z" transform="translate(0.6 -1.7)"/><path class="cls-6" d="M176.5,115.6v-4.7h1v.6a5.58,5.58,0,0,1,1.6-.7v1a5.73,5.73,0,0,0-1.4.4l-.2.1v3.3Z" transform="translate(0.6 -1.7)"/><path class="cls-6" d="M183.7,108.9v6.6h-1v-.2a3.45,3.45,0,0,1-1.3.3,1.38,1.38,0,0,1-1.3-.6,3.16,3.16,0,0,1-.4-1.9,3.09,3.09,0,0,1,.5-1.9,1.75,1.75,0,0,1,1.5-.6,5.38,5.38,0,0,1,1.1.1v-2h.9Zm-1.2,5.7.2-.1v-2.8a3.75,3.75,0,0,0-1-.1c-.6,0-.9.5-.9,1.6a2.87,2.87,0,0,0,.2,1.2.78.78,0,0,0,.7.3A2.2,2.2,0,0,0,182.5,114.6Z" transform="translate(0.6 -1.7)"/><path class="cls-6" d="M184.9,110.1V109h1v1.1Zm0,5.5v-4.7h1v4.7Z" transform="translate(0.6 -1.7)"/><path class="cls-6" d="M188.2,115.6h-1v-4.7h1v.3a2.42,2.42,0,0,1,1.3-.4,1.58,1.58,0,0,1,1.3.5,3.89,3.89,0,0,1,.3,1.8v2.5h-1v-2.5a2.68,2.68,0,0,0-.2-1.1c-.1-.2-.3-.3-.7-.3a2.92,2.92,0,0,0-.9.2l-.1.1v3.6Z" transform="translate(0.6 -1.7)"/><path class="cls-6" d="M195.8,112.3v2.1a.35.35,0,0,0,.4.4v.8a1.92,1.92,0,0,1-1.2-.3,4,4,0,0,1-1.5.3c-.9,0-1.4-.5-1.4-1.5a1.05,1.05,0,0,1,.4-1,2.78,2.78,0,0,1,1.2-.4l1.2-.1v-.3a.59.59,0,0,0-.2-.5.76.76,0,0,0-.5-.2,8.64,8.64,0,0,0-1.5.1h-.3V111a6.48,6.48,0,0,1,1.9-.2c.6,0,1,.1,1.2.4A2.43,2.43,0,0,1,195.8,112.3Zm-2.1,1.2c-.4,0-.6.3-.6.7a.53.53,0,0,0,.6.6,4.4,4.4,0,0,0,1-.2l.2-.1v-1.2Z" transform="translate(0.6 -1.7)"/><path class="cls-6" d="M197,115.6v-4.7h1v.6a5.58,5.58,0,0,1,1.6-.7v1a5.73,5.73,0,0,0-1.4.4l-.2.1v3.3Z" transform="translate(0.6 -1.7)"/><path class="cls-6" d="M200.4,110.1V109h1v1.1Zm0,5.5v-4.7h1v4.7Z" transform="translate(0.6 -1.7)"/><path class="cls-6" d="M203,111.4a2.43,2.43,0,0,1,3.2,0,3.49,3.49,0,0,1,0,3.6,2.43,2.43,0,0,1-3.2,0,3,3,0,0,1-.5-1.8A2.43,2.43,0,0,1,203,111.4Zm.7,3c.1.3.4.4.8.4s.7-.1.8-.4a3.73,3.73,0,0,0,.2-1.2,3.26,3.26,0,0,0-.2-1.2.89.89,0,0,0-.8-.4c-.4,0-.7.1-.8.4a3.26,3.26,0,0,0-.2,1.2A2.87,2.87,0,0,0,203.7,114.4Z" transform="translate(0.6 -1.7)"/><path class="cls-6" d="M209.7,117.6v-6.7h1v.3a1.92,1.92,0,0,1,1.2-.4,1.68,1.68,0,0,1,1.4.6,3.16,3.16,0,0,1,.4,1.9,3.09,3.09,0,0,1-.5,1.9,1.94,1.94,0,0,1-1.6.5,2.77,2.77,0,0,1-.9-.1v2Zm2.1-5.9a2.92,2.92,0,0,0-.9.2l-.1.1v2.8a2.2,2.2,0,0,0,.8.1,1,1,0,0,0,.9-.4c.2-.2.2-.7.2-1.2C212.7,112.2,212.4,111.7,211.8,111.7Z" transform="translate(0.6 -1.7)"/><path class="cls-6" d="M218.1,114.7h.3v.8a13.66,13.66,0,0,1-1.9.2,1.75,1.75,0,0,1-1.5-.6,3,3,0,0,1-.5-1.8c0-1.7.7-2.5,2-2.5s2,.7,2,2.2l-.1.7h-2.9a1.06,1.06,0,0,0,1.2,1.2C217.2,114.8,217.7,114.8,218.1,114.7Zm-.5-1.8a2.15,2.15,0,0,0-.2-1,.78.78,0,0,0-.7-.3,1,1,0,0,0-.8.3c-.2.2-.2.5-.2,1Z" transform="translate(0.6 -1.7)"/><path class="cls-6" d="M219.6,115.6v-4.7h1v.6a5.58,5.58,0,0,1,1.6-.7v1a5.73,5.73,0,0,0-1.4.4l-.2.1v3.3Z" transform="translate(0.6 -1.7)"/><path class="cls-6" d="M156.8,126.8v-6.6h1v6.6Z" transform="translate(0.6 -1.7)"/><path class="cls-6" d="M158.9,122.6l.4-2.2h1.1l-.7,2.2Z" transform="translate(0.6 -1.7)"/><path class="cls-6" d="M160.5,126.8l1.6-6.4h2.1l1.6,6.4h-1.1l-.3-1.4h-2.5l-.3,1.4Zm2.4-5.5-.8,3.3h2.1l-.8-3.3Z" transform="translate(0.6 -1.7)"/><path class="cls-6" d="M170.6,127.5c0,1-.7,1.5-2.2,1.5a3.51,3.51,0,0,1-1.6-.3,1.17,1.17,0,0,1-.5-1.1,1.42,1.42,0,0,1,.2-.6c.1-.2.3-.3.5-.5a.78.78,0,0,1-.3-.7,1.55,1.55,0,0,1,.3-.6l.1-.1a1.42,1.42,0,0,1-.7-1.4,1.36,1.36,0,0,1,.5-1.2,2.59,2.59,0,0,1,1.4-.4,2.2,2.2,0,0,1,.8.1h1.6v.8h-.8a1.14,1.14,0,0,1,.3.8,1.73,1.73,0,0,1-.5,1.3,2.08,2.08,0,0,1-1.5.4h-.4a1.09,1.09,0,0,0-.1.5.22.22,0,0,0,.2.2,5.38,5.38,0,0,0,.8.1,2.58,2.58,0,0,1,1.5.3C170.4,126.6,170.6,126.9,170.6,127.5Zm-3.4.1a.55.55,0,0,0,.3.5,2.22,2.22,0,0,0,.9.1c.8,0,1.1-.2,1.1-.6a.76.76,0,0,0-.2-.5c-.1-.1-.4-.1-.8-.1l-.9-.1-.3.3C167.3,127.3,167.2,127.4,167.2,127.6Zm.3-3.3a1.17,1.17,0,0,0,.7.2,1.45,1.45,0,0,0,.7-.2,1,1,0,0,0,0-1.2,1.17,1.17,0,0,0-.7-.2c-.6,0-.9.3-.9.8A.85.85,0,0,0,167.5,124.3Z" transform="translate(0.6 -1.7)"/><path class="cls-6" d="M174.7,126h.3v.8a13.66,13.66,0,0,1-1.9.2,1.75,1.75,0,0,1-1.5-.6,3,3,0,0,1-.5-1.8c0-1.7.7-2.5,2-2.5s2,.7,2,2.2l-.1.7h-2.9a1.06,1.06,0,0,0,1.2,1.2A7.84,7.84,0,0,1,174.7,126Zm-.5-1.9a2.15,2.15,0,0,0-.2-1,.78.78,0,0,0-.7-.3,1,1,0,0,0-.8.3c-.2.2-.2.5-.2,1Z" transform="translate(0.6 -1.7)"/><path class="cls-6" d="M177.2,126.8h-1v-4.7h1v.3a2.42,2.42,0,0,1,1.3-.4,1.58,1.58,0,0,1,1.3.5,3.89,3.89,0,0,1,.3,1.8v2.5h-1v-2.5a2.68,2.68,0,0,0-.2-1.1c-.1-.2-.3-.3-.7-.3a2.92,2.92,0,0,0-.9.2l-.1.1v3.6Z" transform="translate(0.6 -1.7)"/><path class="cls-6" d="M185.1,120.2v6.6h-1v-.2a3.45,3.45,0,0,1-1.3.3,1.38,1.38,0,0,1-1.3-.6,3.16,3.16,0,0,1-.4-1.9,3.09,3.09,0,0,1,.5-1.9,1.75,1.75,0,0,1,1.5-.6,5.38,5.38,0,0,1,1.1.1v-2h.9Zm-1.2,5.7.2-.1V123a3.75,3.75,0,0,0-1-.1c-.6,0-.9.5-.9,1.6a2.87,2.87,0,0,0,.2,1.2.78.78,0,0,0,.7.3A2.49,2.49,0,0,0,183.9,125.9Z" transform="translate(0.6 -1.7)"/><path class="cls-6" d="M189.8,123.6v2.1a.35.35,0,0,0,.4.4v.8a1.92,1.92,0,0,1-1.2-.3,4,4,0,0,1-1.5.3c-.9,0-1.4-.5-1.4-1.5a1.05,1.05,0,0,1,.4-1,2.78,2.78,0,0,1,1.2-.4l1.2-.1v-.3a.59.59,0,0,0-.2-.5.76.76,0,0,0-.5-.2,8.64,8.64,0,0,0-1.5.1h-.3v-.7a6.48,6.48,0,0,1,1.9-.2c.6,0,1,.1,1.2.4A1.61,1.61,0,0,1,189.8,123.6Zm-2.1,1.2c-.4,0-.6.3-.6.7a.53.53,0,0,0,.6.6,4.4,4.4,0,0,0,1-.2l.2-.1v-1.2Z" transform="translate(0.6 -1.7)"/><path class="cls-6" d="M195.5,126.8h-2.2v-6.4h2.2a2.22,2.22,0,0,1,2,.8,3.91,3.91,0,0,1,.5,2.4,6.15,6.15,0,0,1-.1,1.4,3,3,0,0,1-.4,1C197.2,126.5,196.6,126.8,195.5,126.8Zm1.5-3.3a3.69,3.69,0,0,0-.3-1.7c-.2-.4-.6-.5-1.2-.5h-1.2v4.6h1.2a1.13,1.13,0,0,0,1.2-.7,1.85,1.85,0,0,0,.2-.7C196.9,124.3,197,123.9,197,123.5Z" transform="translate(0.6 -1.7)"/><path class="cls-6" d="M199.2,121.4v-1.1h1v1.1Zm0,5.4v-4.7h1v4.7Z" transform="translate(0.6 -1.7)"/><path class="cls-6" d="M205.6,127.5c0,1-.7,1.5-2.2,1.5a3.51,3.51,0,0,1-1.6-.3,1.17,1.17,0,0,1-.5-1.1,1.42,1.42,0,0,1,.2-.6c.1-.2.3-.3.5-.5a.78.78,0,0,1-.3-.7,1.55,1.55,0,0,1,.3-.6l.1-.1a1.42,1.42,0,0,1-.7-1.4,1.36,1.36,0,0,1,.5-1.2,2,2,0,0,1,1.4-.4,2.2,2.2,0,0,1,.8.1h1.6v.8h-.8a1.14,1.14,0,0,1,.3.8,1.73,1.73,0,0,1-.5,1.3,2.08,2.08,0,0,1-1.5.4h-.4a1.09,1.09,0,0,0-.1.5.22.22,0,0,0,.2.2,5.38,5.38,0,0,0,.8.1,2.58,2.58,0,0,1,1.5.3C205.4,126.6,205.6,126.9,205.6,127.5Zm-3.4.1a.55.55,0,0,0,.3.5,2.22,2.22,0,0,0,.9.1c.8,0,1.1-.2,1.1-.6a.76.76,0,0,0-.2-.5c-.1-.1-.4-.1-.8-.1l-.9-.1-.3.3C202.2,127.3,202.2,127.4,202.2,127.6Zm.3-3.3a1.17,1.17,0,0,0,.7.2,1.45,1.45,0,0,0,.7-.2,1,1,0,0,0,0-1.2,1.17,1.17,0,0,0-.7-.2c-.6,0-.9.3-.9.8A.85.85,0,0,0,202.5,124.3Z" transform="translate(0.6 -1.7)"/><path class="cls-6" d="M206.4,121.4v-1.1h1v1.1Zm0,5.4v-4.7h1v4.7Z" transform="translate(0.6 -1.7)"/><path class="cls-6" d="M211.2,123h-1.3v2.1a1.72,1.72,0,0,0,.1.8.52.52,0,0,0,.4.2h.8v.8a3.75,3.75,0,0,1-1,.1,1.25,1.25,0,0,1-1.1-.4,2.21,2.21,0,0,1-.3-1.4V123h-.6v-.9h.6v-1.4h1v1.4h1.3v.9Z" transform="translate(0.6 -1.7)"/><path class="cls-6" d="M215.5,123.6v2.1a.35.35,0,0,0,.4.4v.8a1.92,1.92,0,0,1-1.2-.3,4,4,0,0,1-1.5.3c-.9,0-1.4-.5-1.4-1.5a1.05,1.05,0,0,1,.4-1,2.78,2.78,0,0,1,1.2-.4l1.2-.1v-.3a.59.59,0,0,0-.2-.5.76.76,0,0,0-.5-.2,8.64,8.64,0,0,0-1.5.1h-.3v-.7a6.48,6.48,0,0,1,1.9-.2c.6,0,1,.1,1.2.4A1.8,1.8,0,0,1,215.5,123.6Zm-2.1,1.2c-.4,0-.6.3-.6.7a.53.53,0,0,0,.6.6,4.4,4.4,0,0,0,1-.2l.2-.1v-1.2Z" transform="translate(0.6 -1.7)"/><path class="cls-6" d="M216.8,126.8v-6.6h1v6.6Z" transform="translate(0.6 -1.7)"/><path class="cls-6" d="M222.5,126h.3v.8a13.66,13.66,0,0,1-1.9.2,1.75,1.75,0,0,1-1.5-.6,3,3,0,0,1-.5-1.8c0-1.7.7-2.5,2-2.5s2,.7,2,2.2l-.1.7h-2.9a1.06,1.06,0,0,0,1.2,1.2C221.5,126.2,222,126,222.5,126Zm-.6-1.9a2.15,2.15,0,0,0-.2-1,.78.78,0,0,0-.7-.3,1.14,1.14,0,0,0-.8.3c-.2.2-.2.5-.2,1Z" transform="translate(0.6 -1.7)"/><path class="cls-6" d="M180.7,167.5h-2.2v-5.6h2.2c1,0,1.7.2,2,.7a3.81,3.81,0,0,1,.5,2.1,4.12,4.12,0,0,1-.1,1.2,3.55,3.55,0,0,1-.4.9C182.4,167.3,181.7,167.5,180.7,167.5Zm1.5-2.8a2.81,2.81,0,0,0-.3-1.5c-.2-.3-.6-.4-1.2-.4h-1.2v4h1.2a1.21,1.21,0,0,0,1.2-.6,1.42,1.42,0,0,0,.2-.6C182.1,165.4,182.2,165,182.2,164.7Z" transform="translate(0.6 -1.7)"/><path class="cls-6" d="M184.3,162.8v-.9h1v.9Zm0,4.7v-4.1h1v4.1Z" transform="translate(0.6 -1.7)"/><path class="cls-6" d="M186.6,169.3v-5.8h1v.3a2.66,2.66,0,0,1,1.2-.3,2,2,0,0,1,1.4.5,2.5,2.5,0,0,1,.4,1.7,2.17,2.17,0,0,1-.5,1.6,2.35,2.35,0,0,1-1.6.5,2.77,2.77,0,0,1-.9-.1v1.7h-1Zm2.1-5.1a2.92,2.92,0,0,0-.9.2l-.1.1v2.4c.3,0,.5.1.8.1a1.22,1.22,0,0,0,.9-.3c.2-.2.2-.6.2-1.1C189.6,164.6,189.3,164.2,188.7,164.2Z" transform="translate(0.6 -1.7)"/><path class="cls-6" d="M195.1,164.7v1.9a.35.35,0,0,0,.4.4v.7a1.92,1.92,0,0,1-1.2-.3,4,4,0,0,1-1.5.3c-.9,0-1.4-.4-1.4-1.3a1,1,0,0,1,.4-.9,1.92,1.92,0,0,1,1.2-.3l1.2-.1v-.3a.76.76,0,0,0-.2-.5.75.75,0,0,0-.5-.1,8.64,8.64,0,0,0-1.5.1h-.3v-.6a13.66,13.66,0,0,1,1.9-.2,1.74,1.74,0,0,1,1.2.3C195,163.9,195.1,164.3,195.1,164.7Zm-2.1,1a.6.6,0,0,0,0,1.2,3.75,3.75,0,0,0,1-.1h.2v-1.1Z" transform="translate(0.6 -1.7)"/><path class="cls-6" d="M196.4,167.5v-4.1h1v.5a5.23,5.23,0,0,1,1.6-.6v.9a5.73,5.73,0,0,0-1.4.4l-.2.1v2.9h-1Z" transform="translate(0.6 -1.7)"/><path class="cls-6" d="M202.3,164.2H201V166c0,.3,0,.6.1.7a.52.52,0,0,0,.4.2h.8v.7a3.75,3.75,0,0,1-1,.1,1.61,1.61,0,0,1-1.1-.3,1.74,1.74,0,0,1-.3-1.2v-1.9h-.6v-.8h.6v-1.2h1v1.2h1.3v.7Z" transform="translate(0.6 -1.7)"/><path class="cls-6" d="M203.2,162.8v-.9h1v.9Zm0,4.7v-4.1h1v4.1Z" transform="translate(0.6 -1.7)"/><path class="cls-6" d="M206.4,167.5h-1v-4.1h1v.3a3,3,0,0,1,1.2-.3,1.59,1.59,0,0,1,1.2.4,3.53,3.53,0,0,1,1.7-.4,1.36,1.36,0,0,1,1.2.5,2.81,2.81,0,0,1,.3,1.5v2.2h-1v-2.2a1.69,1.69,0,0,0-.2-.9.85.85,0,0,0-.6-.3,2.92,2.92,0,0,0-.9.2l-.2.1a7.72,7.72,0,0,1,.1,1v2.1h-1v-2.1c0-.5,0-.8-.2-1a.78.78,0,0,0-.7-.3,2.92,2.92,0,0,0-.9.2h-.1v3.1Z" transform="translate(0.6 -1.7)"/><path class="cls-6" d="M216.6,166.8h.3v.7a13.66,13.66,0,0,1-1.9.2,2.07,2.07,0,0,1-1.5-.5,2.35,2.35,0,0,1-.5-1.6c0-1.5.7-2.2,2-2.2s2,.6,2,1.9l-.1.6H214a.78.78,0,0,0,.3.7c.2.2.5.2.9.2A6.53,6.53,0,0,0,216.6,166.8Zm-.5-1.6a1.29,1.29,0,0,0-.2-.8c-.1-.2-.4-.2-.7-.2a1,1,0,0,0-.8.3c-.2.2-.2.4-.2.8h1.9Z" transform="translate(0.6 -1.7)"/><path class="cls-6" d="M219.1,167.5h-1v-4.1h1v.3a3.45,3.45,0,0,1,1.3-.3,1.58,1.58,0,0,1,1.3.5,2.81,2.81,0,0,1,.3,1.5v2.2h-1v-2.2a1.69,1.69,0,0,0-.2-.9c-.1-.2-.3-.3-.7-.3a2.92,2.92,0,0,0-.9.2h-.1v3.1Z" transform="translate(0.6 -1.7)"/><path class="cls-6" d="M225.7,164.2h-1.3V166c0,.3,0,.6.1.7a.52.52,0,0,0,.4.2h.8v.7a3.75,3.75,0,0,1-1,.1,1.61,1.61,0,0,1-1.1-.3,1.74,1.74,0,0,1-.3-1.2v-1.9h-.6v-.8h.6v-1.2h1v1.2h1.3v.7Z" transform="translate(0.6 -1.7)"/><path class="cls-6" d="M226.8,163.9a1.94,1.94,0,0,1,1.6-.5,2.35,2.35,0,0,1,1.6.5,2.81,2.81,0,0,1,0,3.2,1.94,1.94,0,0,1-1.6.5,1.81,1.81,0,0,1-2.1-2.1A2.54,2.54,0,0,1,226.8,163.9Zm.8,2.7c.1.2.4.3.8.3s.7-.1.8-.3a2.68,2.68,0,0,0,.2-1.1,3.09,3.09,0,0,0-.2-1.1c-.1-.3-.4-.3-.8-.3s-.7.1-.8.3a2.68,2.68,0,0,0-.2,1.1A1.82,1.82,0,0,0,227.6,166.6Z" transform="translate(0.6 -1.7)"/><path class="cls-6" d="M168.7,177.4v-5.6h4v.8h-2.9v1.9h2.5v.8h-2.5v2.1Z" transform="translate(0.6 -1.7)"/><path class="cls-6" d="M176.2,173.3h1v4.1h-1v-.3a3.45,3.45,0,0,1-1.3.3,1.58,1.58,0,0,1-1.3-.5,3,3,0,0,1-.3-1.6v-2.1h1v2.1a2.51,2.51,0,0,0,.1,1c.1.2.3.3.7.3a2.92,2.92,0,0,0,.9-.2h.1v-3.1Z" transform="translate(0.6 -1.7)"/><path class="cls-6" d="M179.5,177.4h-1v-4.1h1v.3a3.45,3.45,0,0,1,1.3-.3,1.58,1.58,0,0,1,1.3.5,2.81,2.81,0,0,1,.3,1.5v2.2h-1v-2.2a1.69,1.69,0,0,0-.2-.9c-.1-.2-.3-.3-.7-.3a2.92,2.92,0,0,0-.9.2h-.1v3.1Z" transform="translate(0.6 -1.7)"/><path class="cls-6" d="M183.4,174.1v-.8h3.5v.8l-2.3,2.5h2.3v.8h-3.5v-.8l2.3-2.5Z" transform="translate(0.6 -1.7)"/><path class="cls-6" d="M187.8,172.6v-.9h1v.9Zm0,4.8v-4.1h1v4.1Z" transform="translate(0.6 -1.7)"/><path class="cls-6" d="M190.4,173.7a1.94,1.94,0,0,1,1.6-.5,2.35,2.35,0,0,1,1.6.5,2.81,2.81,0,0,1,0,3.2,1.94,1.94,0,0,1-1.6.5,2.17,2.17,0,0,1-1.6-.5,2.54,2.54,0,0,1-.5-1.6A2.07,2.07,0,0,1,190.4,173.7Zm.7,2.7c.1.2.4.3.8.3s.7-.1.8-.3a2.68,2.68,0,0,0,.2-1.1,3.09,3.09,0,0,0-.2-1.1,1,1,0,0,0-.8-.3c-.4,0-.7.1-.8.3s-.2.6-.2,1.1A2.68,2.68,0,0,0,191.1,176.4Z" transform="translate(0.6 -1.7)"/><path class="cls-6" d="M196.1,177.4h-1v-4.1h1v.3a3.45,3.45,0,0,1,1.3-.3,1.58,1.58,0,0,1,1.3.5,2.81,2.81,0,0,1,.3,1.5v2.2h-1v-2.2a1.69,1.69,0,0,0-.2-.9c-.1-.2-.3-.3-.7-.3a2.92,2.92,0,0,0-.9.2h-.1v3.1Z" transform="translate(0.6 -1.7)"/><path class="cls-6" d="M203.6,176.6h.3v.7a13.66,13.66,0,0,1-1.9.2,2.07,2.07,0,0,1-1.5-.5,2.35,2.35,0,0,1-.5-1.6c0-1.5.7-2.2,2-2.2s2,.6,2,1.9l-.1.6H201a.78.78,0,0,0,.3.7c.2.2.5.2.9.2A3.3,3.3,0,0,0,203.6,176.6ZM203,175a1.29,1.29,0,0,0-.2-.8c-.1-.2-.4-.2-.7-.2a1,1,0,0,0-.8.3c-.2.2-.2.4-.2.8H203Z" transform="translate(0.6 -1.7)"/><path class="cls-6" d="M209.5,175.6h-1.3v1.7h-1v-5.6h2.4c1.5,0,2.2.6,2.2,1.9a2.46,2.46,0,0,1-.5,1.5A2.57,2.57,0,0,1,209.5,175.6Zm-1.3-.8h1.3c.8,0,1.1-.4,1.1-1.2,0-.4-.1-.7-.3-.8a1.22,1.22,0,0,0-.9-.3h-1.3v2.3Z" transform="translate(0.6 -1.7)"/><path class="cls-6" d="M215.4,173.3h1v4.1h-1v-.3a3.45,3.45,0,0,1-1.3.3,1.58,1.58,0,0,1-1.3-.5,3,3,0,0,1-.3-1.6v-2.1h1v2.1a2.51,2.51,0,0,0,.1,1c.1.2.3.3.7.3a2.92,2.92,0,0,0,.9-.2h.1v-3.1Z" transform="translate(0.6 -1.7)"/><path class="cls-6" d="M219.9,173.2a2,2,0,0,1,1.4.5,2.5,2.5,0,0,1,.4,1.7,2.46,2.46,0,0,1-.5,1.7,2.57,2.57,0,0,1-1.8.5,8.17,8.17,0,0,1-1.4-.1h-.3v-5.8h1v1.9A1.92,1.92,0,0,1,219.9,173.2Zm-.5,3.5a1.33,1.33,0,0,0,1-.3,1.5,1.5,0,0,0,.2-1,2.51,2.51,0,0,0-.2-1,.78.78,0,0,0-.7-.3,2.77,2.77,0,0,0-.9.1h-.2v2.5A1.86,1.86,0,0,1,219.4,176.7Z" transform="translate(0.6 -1.7)"/><path class="cls-6" d="M224.9,173.2a2,2,0,0,1,1.4.5,2.5,2.5,0,0,1,.4,1.7,2.46,2.46,0,0,1-.5,1.7,2.57,2.57,0,0,1-1.8.5,8.17,8.17,0,0,1-1.4-.1h-.3v-5.8h1v1.9A2.38,2.38,0,0,1,224.9,173.2Zm-.5,3.5a1.33,1.33,0,0,0,1-.3,1.5,1.5,0,0,0,.2-1,2.51,2.51,0,0,0-.2-1,.78.78,0,0,0-.7-.3,2.77,2.77,0,0,0-.9.1h-.2v2.5A1.86,1.86,0,0,1,224.4,176.7Z" transform="translate(0.6 -1.7)"/><path class="cls-6" d="M227.8,177.4v-5.8h1v5.8Z" transform="translate(0.6 -1.7)"/><path class="cls-6" d="M230.1,172.6v-.9h1v.9Zm0,4.8v-4.1h1v4.1Z" transform="translate(0.6 -1.7)"/><path class="cls-6" d="M234.2,173.2a5.74,5.74,0,0,1,1.2.1h.2v.7c-.5,0-.9-.1-1.1-.1a1.33,1.33,0,0,0-1,.3c-.2.2-.2.5-.2,1a2.68,2.68,0,0,0,.2,1.1,1.33,1.33,0,0,0,1,.3l1.1-.1v.7a8.17,8.17,0,0,1-1.4.1,2.07,2.07,0,0,1-1.5-.5,2.36,2.36,0,0,1-.4-1.6,2.17,2.17,0,0,1,.5-1.6C233,173.3,233.5,173.2,234.2,173.2Z" transform="translate(0.6 -1.7)"/><path class="cls-6" d="M240,174.5v1.9a.35.35,0,0,0,.4.4v.7a1.92,1.92,0,0,1-1.2-.3,4,4,0,0,1-1.5.3c-.9,0-1.4-.4-1.4-1.3a1,1,0,0,1,.4-.9,1.92,1.92,0,0,1,1.2-.3l1.2-.1v-.3a.76.76,0,0,0-.2-.5.75.75,0,0,0-.5-.1,8.64,8.64,0,0,0-1.5.1h-.3v-.6a13.66,13.66,0,0,1,1.9-.2,1.74,1.74,0,0,1,1.2.3C239.9,173.7,240,174.1,240,174.5Zm-2.1,1a.6.6,0,0,0,0,1.2,3.75,3.75,0,0,0,1-.1h.2v-1.1Z" transform="translate(0.6 -1.7)"/><path class="cls-11" d="M220.1,329H149.9a3.54,3.54,0,0,1-3.5-3.5V308a3.54,3.54,0,0,1,3.5-3.5h70.2a3.54,3.54,0,0,1,3.5,3.5v17.5A3.54,3.54,0,0,1,220.1,329Z" transform="translate(0.6 -1.7)"/><path class="cls-14" d="M157.3,314.5c-.7,0-1.1.3-1.1.8a.6.6,0,0,0,.3.6,4.33,4.33,0,0,0,1.1.4,3.26,3.26,0,0,1,1.2.6,1.6,1.6,0,0,1,.4,1.1,2,2,0,0,1-.5,1.4,2.17,2.17,0,0,1-1.4.5,10,10,0,0,1-1.6-.2l-.3-.1.1-.8c.8.1,1.4.2,1.8.2.7,0,1.1-.3,1.1-1a.76.76,0,0,0-.2-.5,10,10,0,0,0-1.1-.4,2.26,2.26,0,0,1-1.3-.6c-.3-.2-.4-.6-.4-1.2a1.66,1.66,0,0,1,.5-1.2,2,2,0,0,1,1.4-.4,11.55,11.55,0,0,1,1.6.2l.3.1-.1.8A10.53,10.53,0,0,0,157.3,314.5Z" transform="translate(0.6 -1.7)"/><path class="cls-14" d="M160.4,315.8a2.17,2.17,0,0,1,3,0,2.67,2.67,0,0,1,.4,1.7,2.86,2.86,0,0,1-.4,1.7,2.17,2.17,0,0,1-3,0,2.67,2.67,0,0,1-.4-1.7A2.29,2.29,0,0,1,160.4,315.8Zm.7,2.8c.1.2.4.3.8.3a1,1,0,0,0,.8-.3,3.13,3.13,0,0,0,0-2.2c-.1-.2-.4-.3-.8-.3a1,1,0,0,0-.8.3,2.68,2.68,0,0,0-.2,1.1C160.9,318,160.9,318.4,161.1,318.6Z" transform="translate(0.6 -1.7)"/><path class="cls-14" d="M166.3,315.3a4.48,4.48,0,0,1,1.1.1h.2v.7c-.5,0-.8-.1-1-.1a1.22,1.22,0,0,0-.9.3,3.13,3.13,0,0,0,0,2.2q.15.3.9.3l1-.1v.8a10.5,10.5,0,0,1-1.3.2,1.81,1.81,0,0,1-1.4-.5,2.67,2.67,0,0,1-.4-1.7,2.5,2.5,0,0,1,.4-1.7A1.62,1.62,0,0,1,166.3,315.3Z" transform="translate(0.6 -1.7)"/><path class="cls-14" d="M168.5,314.6v-1h.9v1Zm0,5.1v-4.3h.9v4.3Z" transform="translate(0.6 -1.7)"/><path class="cls-14" d="M173.7,318.9h.2v.7a12.76,12.76,0,0,1-1.7.2,2,2,0,0,1-1.4-.5,2.67,2.67,0,0,1-.4-1.7c0-1.5.6-2.3,1.9-2.3s1.8.7,1.8,2l-.1.7h-2.7a1.55,1.55,0,0,0,.2.8c.1.2.4.2.8.2S173.2,318.9,173.7,318.9Zm-.5-1.7a2,2,0,0,0-.2-.9,1,1,0,0,0-1.4,0,2,2,0,0,0-.2.9Z" transform="translate(0.6 -1.7)"/><path class="cls-14" d="M177.3,316.2h-1.2v1.9c0,.4,0,.6.1.7a.52.52,0,0,0,.4.2h.7v.8a3.44,3.44,0,0,1-.9.1,1.33,1.33,0,0,1-1-.3,1.88,1.88,0,0,1-.3-1.3v-2h-.6v-.8h.6v-1.3h.9v1.3h1.2v.7Z" transform="translate(0.6 -1.7)"/><path class="cls-14" d="M181.3,316.7v2a.35.35,0,0,0,.4.4v.7a1.61,1.61,0,0,1-1.1-.3,3.53,3.53,0,0,1-1.4.3c-.9,0-1.3-.5-1.3-1.4a1.49,1.49,0,0,1,.3-1,2.3,2.3,0,0,1,1.1-.4l1.1-.1v-.3a.76.76,0,0,0-.2-.5c-.1-.1-.2-.1-.4-.1a7.6,7.6,0,0,0-1.4.1h-.3v-.7a11.13,11.13,0,0,1,1.7-.2,1.27,1.27,0,0,1,1.5,1.5Zm-2.5-3.5,2,.9-.2.6-2.1-.7Zm.5,4.6a.58.58,0,0,0-.6.6c0,.4.2.6.5.6a2.77,2.77,0,0,0,.9-.1l.2-.1v-1.1Z" transform="translate(0.6 -1.7)"/><path class="cls-14" d="M184.4,314.6v-1h.9v1Zm0,5.1v-4.3h.9v4.3Z" transform="translate(0.6 -1.7)"/><path class="cls-14" d="M187.4,319.7h-.9v-4.3h.9v.3a2.84,2.84,0,0,1,1.2-.4,1.36,1.36,0,0,1,1.2.5,3.23,3.23,0,0,1,.3,1.6v2.3h-.9v-2.3a2.15,2.15,0,0,0-.2-1,.6.6,0,0,0-.6-.3,1.88,1.88,0,0,0-.8.2l-.1.1v3.3Z" transform="translate(0.6 -1.7)"/><path class="cls-14" d="M194,319.7h-.9v-6.1h.9v2a2.66,2.66,0,0,1,1.2-.3,1.36,1.36,0,0,1,1.2.5,3.23,3.23,0,0,1,.3,1.6v2.3h-.9v-2.3a2.51,2.51,0,0,0-.1-1,.6.6,0,0,0-.6-.3,2,2,0,0,0-.8.1l-.1.1v3.4Z" transform="translate(0.6 -1.7)"/><path class="cls-14" d="M198,315.8a2.17,2.17,0,0,1,3,0,2.67,2.67,0,0,1,.4,1.7,2.86,2.86,0,0,1-.4,1.7,2.17,2.17,0,0,1-3,0,2.67,2.67,0,0,1-.4-1.7A2.86,2.86,0,0,1,198,315.8Zm.7,2.8c.1.2.4.3.8.3a1,1,0,0,0,.8-.3,3.13,3.13,0,0,0,0-2.2c-.1-.2-.4-.3-.8-.3a1,1,0,0,0-.8.3,3.13,3.13,0,0,0,0,2.2Z" transform="translate(0.6 -1.7)"/><path class="cls-14" d="M205,315.4h.9v4.3H205v-.3a2.84,2.84,0,0,1-1.2.4,1.36,1.36,0,0,1-1.2-.5,3.42,3.42,0,0,1-.3-1.7v-2.3h.9v2.3a2.24,2.24,0,0,0,.1,1,.6.6,0,0,0,.6.3,2.92,2.92,0,0,0,.9-.2l.1-.1v-3.2Z" transform="translate(0.6 -1.7)"/><path class="cls-14" d="M210,316.3a9.89,9.89,0,0,0-1.5-.1c-.3,0-.5,0-.6.1s-.2.2-.2.3.1.3.2.3.4.1.9.2a1.88,1.88,0,0,1,1,.4,1.33,1.33,0,0,1,.3,1,1.05,1.05,0,0,1-.4,1,2.27,2.27,0,0,1-1.3.3,6.15,6.15,0,0,1-1.3-.1h-.3v-.8a9.89,9.89,0,0,0,1.5.1,1.48,1.48,0,0,0,.7-.1.5.5,0,0,0,0-.8c-.1-.1-.4-.1-.9-.2a1.88,1.88,0,0,1-1-.4,1.35,1.35,0,0,1,.2-1.9,2.13,2.13,0,0,1,1.2-.3,7.6,7.6,0,0,1,1.4.1l.3.1Z" transform="translate(0.6 -1.7)"/><path class="cls-14" d="M214.2,318.9h.2v.7a12.76,12.76,0,0,1-1.7.2,2,2,0,0,1-1.4-.5,2.67,2.67,0,0,1-.4-1.7c0-1.5.6-2.3,1.9-2.3s1.8.7,1.8,2l-.1.7h-2.7a1.55,1.55,0,0,0,.2.8c.1.2.4.2.8.2S213.7,318.9,214.2,318.9Zm-.5-1.7a2,2,0,0,0-.2-.9,1,1,0,0,0-1.4,0,2,2,0,0,0-.2.9Z" transform="translate(0.6 -1.7)"/><path class="cls-11" d="M220.1,374.5H149.9a3.54,3.54,0,0,1-3.5-3.5V353.5a3.54,3.54,0,0,1,3.5-3.5h70.2a3.54,3.54,0,0,1,3.5,3.5V371A3.48,3.48,0,0,1,220.1,374.5Z" transform="translate(0.6 -1.7)"/><path class="cls-14" d="M169.7,365.1v-5.9h3.7v.8h-2.7v2H173v.8h-2.3V365h-1Z" transform="translate(0.6 -1.7)"/><path class="cls-14" d="M174.2,361.3a2.17,2.17,0,0,1,3,0,2.67,2.67,0,0,1,.4,1.7,2.86,2.86,0,0,1-.4,1.7,2.17,2.17,0,0,1-3,0,2.67,2.67,0,0,1-.4-1.7A2.5,2.5,0,0,1,174.2,361.3Zm.7,2.8c.1.2.4.3.8.3a1,1,0,0,0,.8-.3,3.13,3.13,0,0,0,0-2.2c-.1-.2-.4-.3-.8-.3a1,1,0,0,0-.8.3c-.2.2-.2.6-.2,1.1A3.09,3.09,0,0,0,174.9,364.1Z" transform="translate(0.6 -1.7)"/><path class="cls-14" d="M178.6,365.1v-4.3h.9v.5a4.71,4.71,0,0,1,1.5-.6v.9a5,5,0,0,0-1.3.4l-.2.1v3Z" transform="translate(0.6 -1.7)"/><path class="cls-14" d="M182.6,365.1h-.9v-4.3h.9v.3a2.84,2.84,0,0,1,1.2-.4,1.36,1.36,0,0,1,1.2.5,3.23,3.23,0,0,1,.3,1.6v2.3h-.9v-2.3a2.15,2.15,0,0,0-.2-1,.6.6,0,0,0-.6-.3,1.88,1.88,0,0,0-.8.2l-.1.1v3.3Z" transform="translate(0.6 -1.7)"/><path class="cls-14" d="M186.4,360.1v-1h.9v1Zm0,5v-4.3h.9v4.3Z" transform="translate(0.6 -1.7)"/><path class="cls-14" d="M190.8,361.6h-1.2v1.9c0,.4,0,.6.1.7a.52.52,0,0,0,.4.2h.7v.8a3.44,3.44,0,0,1-.9.1,1.33,1.33,0,0,1-1-.3,1.88,1.88,0,0,1-.3-1.3v-2H188v-.8h.6v-1.3h.9v1.3h1.2v.7Z" transform="translate(0.6 -1.7)"/><path class="cls-14" d="M191.8,361.3a2.17,2.17,0,0,1,3,0,2.67,2.67,0,0,1,.4,1.7,2.86,2.86,0,0,1-.4,1.7,2.17,2.17,0,0,1-3,0,2.67,2.67,0,0,1-.4-1.7A2.5,2.5,0,0,1,191.8,361.3Zm.7,2.8c.1.2.4.3.8.3a1,1,0,0,0,.8-.3,3.13,3.13,0,0,0,0-2.2c-.1-.2-.4-.3-.8-.3a1,1,0,0,0-.8.3c-.2.2-.2.6-.2,1.1A3.09,3.09,0,0,0,192.5,364.1Z" transform="translate(0.6 -1.7)"/><path class="cls-14" d="M196.2,365.1v-4.3h.9v.5a4.71,4.71,0,0,1,1.5-.6v.9a5,5,0,0,0-1.3.4l-.2.1v3Z" transform="translate(0.6 -1.7)"/><path class="cls-14" d="M199.3,360.1v-1h.9v1Zm0,5v-4.3h.9v4.3Z" transform="translate(0.6 -1.7)"/><path class="cls-14" d="M290.5,315.5h-1.3v2.3h-1.6V310h2.9c1.8,0,2.8.9,2.8,2.7a2.82,2.82,0,0,1-.7,2.1A3.3,3.3,0,0,1,290.5,315.5Zm-1.3-1.4h1.3q1.2,0,1.2-1.5a1.33,1.33,0,0,0-.3-1,1.22,1.22,0,0,0-.9-.3h-1.3v2.8Z" transform="translate(0.6 -1.7)"/><path class="cls-14" d="M293.5,317.7l1.7-7.8h3l1.7,7.8h-1.6l-.3-1.4h-2.7l-.3,1.4Zm3-6.4-.8,3.7h2.1l-.8-3.7Z" transform="translate(0.6 -1.7)"/><path class="cls-14" d="M305.9,317.6a8.92,8.92,0,0,1-2.2.3,7,7,0,0,1-1.6-.2,1.76,1.76,0,0,1-.9-.8,4.33,4.33,0,0,1-.5-1.2,9.72,9.72,0,0,1-.1-1.8,5.79,5.79,0,0,1,.6-3.1,2.61,2.61,0,0,1,2.3-.9,10.38,10.38,0,0,1,2.3.3v1.3a17.63,17.63,0,0,0-1.9-.2,2.68,2.68,0,0,0-1.1.2,1.23,1.23,0,0,0-.5.8,7.75,7.75,0,0,0-.2,1.9,4.39,4.39,0,0,0,.3,1.9,1.45,1.45,0,0,0,1.3.5,13.55,13.55,0,0,0,2-.2Z" transform="translate(0.6 -1.7)"/><path class="cls-14" d="M290.7,365.4h-1.3v2.3h-1.6v-7.8h2.9c1.8,0,2.8.9,2.8,2.7a2.82,2.82,0,0,1-.7,2.1A3.3,3.3,0,0,1,290.7,365.4Zm-1.3-1.4h1.3q1.2,0,1.2-1.5a1.33,1.33,0,0,0-.3-1,1.22,1.22,0,0,0-.9-.3h-1.3V364Z" transform="translate(0.6 -1.7)"/><path class="cls-14" d="M293.7,367.6l1.7-7.8h3l1.7,7.8h-1.6l-.3-1.4h-2.7l-.3,1.4Zm3-6.4-.8,3.7H298l-.8-3.7Z" transform="translate(0.6 -1.7)"/><path class="cls-14" d="M305.7,367.6h-4.4v-7.8h1.6v6.4h2.8Z" transform="translate(0.6 -1.7)"/><rect class="cls-6" x="3.4" y="75.6" width="132.3" height="64.1"/><rect class="cls-6" x="3.4" y="152.7" width="132.3" height="38.2"/><rect class="cls-6" x="3.4" y="204" width="132.3" height="91.9"/><rect class="cls-6" x="366.7" y="75.8" width="94" height="2"/><rect class="cls-6" x="132" y="246.5" width="111.9" height="1.9"/><rect class="cls-6" x="129" y="170" width="24.5" height="1.5"/><rect class="cls-6" x="131" y="110.1" width="11.4" height="1.5"/><rect class="cls-6" x="444.2" y="170" width="18" height="1.5"/><rect class="cls-6" x="422.6" y="208.2" width="40.8" height="1"/><rect class="cls-6" x="444.2" y="252.1" width="18" height="1.5"/><rect class="cls-6" x="350.8" y="312.85" width="110.4" height="1.5"/><rect class="cls-6" x="338.8" y="426.1" width="121.9" height="1.5"/><path class="cls-15" d="M342.5,393.1H340v-1.2h2.4Zm-5,0h-2.4v-1.2h2.4Zm-4.8,0h-2.4v-1.2h2.4Zm-4.9,0h-2.4v-1.2h2.4Zm-4.9,0h-2.4v-1.2h2.4Zm-4.9,0h-2.4v-1.2H318Zm-4.9,0h-2.4v-1.2h2.4Zm-4.9,0h-2.4v-1.2h2.4Zm-4.9,0h-2.4v-1.2h2.4Zm-4.9,0H296v-1.2h2.4Zm-4.8,0h-2.4v-1.2h2.4Zm-4.9,0h-2.4v-1.2h2.4Zm-4.9,0h-2.4v-1.2h2.4Zm-4.9,0h-2.4v-1.2h2.4Zm-4.9,0h-2.4v-1.2H274Zm-4.9,0h-2.4v-1.2h2.4Zm-4.9,0h-2.4v-1.2h2.4Zm-4.9,0h-2.4v-1.2h2.4Zm-4.9,0H252v-1.2h2.4Zm-5-.1a6.43,6.43,0,0,1-2.4-1l.6-1a4.85,4.85,0,0,0,2.1.8Zm95.7-.3-.4-1.1a5.93,5.93,0,0,0,1.9-1.1l.8.9A7.55,7.55,0,0,1,345.1,392.7ZM245,390.2a7.55,7.55,0,0,1-1.3-2.3l1.1-.4a5.93,5.93,0,0,0,1.1,1.9Zm104.1-.8-1-.6a4.85,4.85,0,0,0,.8-2.1l1.2.3A7.2,7.2,0,0,1,349.1,389.4Zm-105.8-4.1v-2.4h1.2v2.4Zm106.9-.9H349V382h1.2Zm-105.7-3.9h-1.2V378h1.2Zm105.7-1H349v-2.4h1.2Zm-105.7-3.9h-1.2v-2.4h1.2Zm105.7-1H349v-2.4h1.2Zm-105.7-3.9h-1.2v-2.4h1.2Zm105.7-1H349v-2.4h1.2Zm-105.7-3.9h-1.2v-2.4h1.2Zm105.7-.9H349v-2.4h1.2Zm-105.7-4h-1.2v-2.4h1.2Zm105.7-.9H349v-2.4h1.2Zm-105.7-4h-1.2v-2.4h1.2Zm105.7-.9H349v-2.4h1.2Zm-105.7-4h-1.2v-2.4h1.2Zm105.7-.9H349v-2.4h1.2Zm-105.7-4h-1.2v-2.4h1.2Zm105.7-.9H349v-2.4h1.2Zm-105.7-3.9h-1.2V339h1.2Zm105.7-1H349V338h1.2Zm-105.7-3.9h-1.2V334h1.2Zm105.7-1H349v-2.4h1.2Zm-105.7-3.9h-1.2v-2.4h1.2Zm105.7-1H349v-2.4h1.2Zm-105.7-3.9h-1.2v-2.4h1.2Zm105.7-.9H349v-2.4h1.2Zm-105.7-4h-1.2v-2.4h1.2Zm105.7-.9H349v-2.4h1.2Zm-105.7-4h-1.2v-2.4h1.2Zm105.7-.9H349v-2.4h1.2Zm-105.7-4h-1.2v-2.4h1.2Zm105.7-.9H349v-2.4h1.2Zm-105.7-4h-1.2v-2.4h1.2Zm105.7-.9H349v-2.4h1.2Zm-105.7-4h-1.2v-2.4h1.2Zm105.7-.9H349v-2.4h1.2Zm-105.7-3.9h-1.2V295h1.2Zm105.7-1H349V294h1.2Zm-105.6-3.8-1.2-.3a6.43,6.43,0,0,1,1-2.4l1,.6A18,18,0,0,0,244.6,292.6Zm104.1-.8a5.93,5.93,0,0,0-1.1-1.9l.9-.8a7.55,7.55,0,0,1,1.3,2.3ZM247,288.9l-.8-.9a7.55,7.55,0,0,1,2.3-1.3l.4,1.1A4.53,4.53,0,0,0,247,288.9Zm98.9-.5a4.85,4.85,0,0,0-2.1-.8l.3-1.2a6.43,6.43,0,0,1,2.4,1Zm-4.4-1h-2.4v-1.2h2.4Zm-4.9,0h-2.4v-1.2h2.4Zm-4.9,0h-2.4v-1.2h2.4Zm-4.8,0h-2.4v-1.2h2.4Zm-4.9,0h-2.4v-1.2H322Zm-4.9,0h-2.4v-1.2h2.4Zm-4.9,0h-2.4v-1.2h2.4Zm-4.9,0h-2.4v-1.2h2.4Zm-4.9,0H300v-1.2h2.4Zm-4.9,0h-2.4v-1.2h2.4Zm-4.9,0h-2.4v-1.2h2.4Zm-4.9,0h-2.4v-1.2h2.4Zm-4.8,0h-2.4v-1.2h2.4Zm-4.9,0h-2.4v-1.2H278Zm-4.9,0h-2.4v-1.2h2.4Zm-4.9,0h-2.4v-1.2h2.4Zm-4.9,0h-2.4v-1.2h2.4Zm-4.9,0H256v-1.2h2.4Zm-4.9,0h-2.4v-1.2h2.4Z" transform="translate(0.6 -1.7)"/><path class="cls-12" d="M438.8,189.4H344.1a4.8,4.8,0,0,1-4.8-4.8V160.2a4.8,4.8,0,0,1,4.8-4.8h94.7a4.8,4.8,0,0,1,4.8,4.8v24.4A4.8,4.8,0,0,1,438.8,189.4Z" transform="translate(0.6 -1.7)"/><path class="cls-7" d="M417.7,229.5H336.3a4.27,4.27,0,0,1-4.3-4.3V201.8a4.27,4.27,0,0,1,4.3-4.3h81.4a4.27,4.27,0,0,1,4.3,4.3v23.4A4.33,4.33,0,0,1,417.7,229.5Z" transform="translate(0.6 -1.7)"/><path class="cls-6" d="M384.5,175v-6.4h1.8l1.4,5,1.4-5h1.8V175h-1.1v-5.3h-.1l-1.5,5h-1.1l-1.5-5h-.1V175Z" transform="translate(0.6 -1.7)"/><path class="cls-6" d="M392.4,175v-6.4h4.1v.9h-3v1.8H396v.9h-2.5v1.9h3v.9h-4.1Z" transform="translate(0.6 -1.7)"/><path class="cls-6" d="M397.6,175v-6.4h4v.9h-2.9v2.2h2.5v.9h-2.5V175h-1.1Z" transform="translate(0.6 -1.7)"/><rect class="cls-16" x="477.3" y="62.5" width="97" height="29.4"/><g class="cls-17"><text class="cls-18" transform="translate(477.3 68.26)">• <tspan class="cls-19" x="5.54" y="0">F</tspan><tspan x="9.61" y="0">ornis</tspan><tspan class="cls-20" x="26.37" y="0">c</tspan><tspan x="29.81" y="0">e indirizzi strategici</tspan></text><text class="cls-18" transform="translate(477.3 80.86)">• <tspan class="cls-21" x="5.54" y="0">F</tspan><tspan x="9.49" y="0">acilita l</tspan><tspan class="cls-22" x="32.76" y="0">’</tspan><tspan x="34.45" y="0">ad</tspan><tspan class="cls-23" x="42.69" y="0">o</tspan><tspan class="cls-24" x="46.89" y="0">zione di </tspan></text><text class="cls-18" transform="translate(477.3 90.46)">strategie</text></g><rect class="cls-16" x="477.3" y="161.6" width="97" height="18.3"/><g class="cls-17"><text class="cls-18" transform="translate(477.3 167.34)">O<tspan class="cls-25" x="5.28" y="0">r</tspan><tspan x="7.99" y="0">gano politi</tspan><tspan class="cls-20" x="42.99" y="0">c</tspan><tspan x="46.43" y="0">o di </tspan><tspan class="cls-26" x="60.16" y="0">c</tspan><tspan x="63.6" y="0">o</tspan><tspan class="cls-23" x="67.82" y="0">n</tspan><tspan x="72.09" y="0">t</tspan><tspan class="cls-27" x="74.9" y="0">r</tspan><tspan x="77.59" y="0">ollo </tspan></text><text class="cls-18" transform="translate(477.3 176.94)">della spesa</text></g><rect class="cls-16" x="477.3" y="202.9" width="97" height="18.3"/><g class="cls-17"><text class="cls-18" transform="translate(477.3 208.67)">O<tspan class="cls-25" x="5.28" y="0">r</tspan><tspan x="7.99" y="0">gano di indiriz</tspan><tspan class="cls-23" x="54.33" y="0">z</tspan><tspan x="57.94" y="0">o </tspan></text><text class="cls-18" transform="translate(477.3 218.27)">strategi<tspan class="cls-20" x="26.02" y="0">c</tspan><tspan x="29.46" y="0">o dell</tspan><tspan class="cls-28" x="47.41" y="0">’</tspan><tspan class="cls-29" x="48.74" y="0">A</tspan><tspan x="53.43" y="0">gid</tspan></text></g><rect class="cls-16" x="477.3" y="242.6" width="97" height="30"/><g class="cls-17"><text class="cls-18" transform="translate(477.29 248.36)">Gestis<tspan class="cls-20" x="20.97" y="0">c</tspan><tspan x="24.41" y="0">e gli a</tspan><tspan class="cls-30" x="43.69" y="0">c</tspan><tspan class="cls-24" x="47.14" y="0">quisti </tspan></text><text class="cls-18" transform="translate(477.29 257.96)"><tspan class="cls-20">c</tspan><tspan x="3.44" y="0">e</tspan><tspan class="cls-23" x="7.48" y="0">n</tspan><tspan class="cls-24" x="11.75" y="0">tralizzati e i rapporti </tspan><tspan class="cls-31" x="80.37" y="0">c</tspan><tspan class="cls-24" x="83.81" y="0">on i </tspan></text><text class="cls-18" transform="translate(477.29 267.56)">sogg<tspan class="cls-32" x="16.17" y="0">e</tspan><tspan x="20.18" y="0">tti agg</tspan><tspan class="cls-27" x="41.54" y="0">r</tspan><tspan x="44.23" y="0">egatori</tspan></text></g><rect class="cls-16" x="477.3" y="312.4" width="97" height="50.5"/><g class="cls-17"><text class="cls-18" transform="translate(477.3 318.18)">• <tspan class="cls-27" x="5.54" y="0">C</tspan><tspan x="9.82" y="0">oo</tspan><tspan class="cls-33" x="18.26" y="0">r</tspan><tspan x="20.93" y="0">dinano le iniziati</tspan><tspan class="cls-34" x="74.9" y="0">v</tspan><tspan x="78.68" y="0">e</tspan></text><text class="cls-18" transform="translate(477.3 330.78)">• <tspan class="cls-22" x="5.54" y="0">M</tspan><tspan x="12.22" y="0">onitorano l</tspan><tspan class="cls-22" x="48.43" y="0">’a</tspan><tspan class="cls-35" x="54.09" y="0">v</tspan><tspan x="57.87" y="0">anzame</tspan><tspan class="cls-23" x="84.55" y="0">n</tspan><tspan x="88.82" y="0">to </tspan></text><text class="cls-18" transform="translate(477.3 340.38)">operati<tspan class="cls-34" x="23.82" y="0">v</tspan><tspan class="cls-24" x="27.59" y="0">o della p</tspan><tspan class="cls-27" x="55.53" y="0">r</tspan><tspan x="58.21" y="0">og</tspan><tspan class="cls-23" x="66.55" y="0">e</tspan><tspan x="70.57" y="0">ttualità</tspan></text><text class="cls-18" transform="translate(477.3 352.98)">• curano le modalità doi </text><text class="cls-18" transform="translate(477.3 362.58)">diffusione</text></g><rect class="cls-16" x="477.3" y="407.1" width="97" height="39.1"/><g class="cls-17"><text class="cls-18" transform="translate(477.3 412.82)">• <tspan class="cls-22" x="5.54" y="0">U</tspan><tspan x="10.66" y="0">sufruis</tspan><tspan class="cls-26" x="33.76" y="0">c</tspan><tspan x="37.2" y="0">ono dei servizi</tspan></text><text class="cls-18" transform="translate(477.3 425.42)">• <tspan class="cls-22" x="5.54" y="0">P</tspan><tspan x="10.25" y="0">artecipano alla </tspan></text><text class="cls-18" transform="translate(477.3 435.02)">p<tspan class="cls-27" x="4.22" y="0">r</tspan><tspan x="6.9" y="0">og</tspan><tspan class="cls-23" x="15.24" y="0">e</tspan><tspan x="19.26" y="0">ttazione e c</tspan><tspan class="cls-27" x="57.88" y="0">r</tspan><tspan x="60.57" y="0">eazione di </tspan></text><text class="cls-18" transform="translate(477.3 444.62)">alcuni servizi <tspan class="cls-36" x="44.68" y="0">(</tspan><tspan class="cls-20" x="46.65" y="0">c</tspan><tspan class="cls-24" x="50.09" y="0">o-c</tspan><tspan class="cls-27" x="61.3" y="0">r</tspan><tspan class="cls-24" x="63.99" y="0">eatio</tspan><tspan class="cls-37" x="80.82" y="0">n</tspan><tspan x="85.09" y="0">)</tspan></text></g><rect class="cls-16" x="10.5" y="83.7" width="105.2" height="49.6"/><g class="cls-17"><text class="cls-18" transform="translate(10.55 89.4)">• D<tspan class="cls-23" x="10.7" y="0">e</tspan><tspan x="14.72" y="0">tta le linee guida per </tspan></text><text class="cls-18" transform="translate(10.55 99)">l<tspan class="cls-30" x="1.85" y="0">’</tspan><tspan x="3.54" y="0">attuazione dell</tspan><tspan class="cls-28" x="53.09" y="0">’</tspan><tspan class="cls-34" x="54.42" y="0">A</tspan><tspan x="59.12" y="0">genda </tspan></text><text class="cls-18" transform="translate(10.55 108.6)">Digitale</text><text class="cls-18" transform="translate(10.55 121.2)">• <tspan class="cls-27" x="5.54" y="0">C</tspan><tspan x="9.82" y="0">oo</tspan><tspan class="cls-33" x="18.26" y="0">r</tspan><tspan x="20.93" y="0">dina e supervisiona i </tspan></text><text class="cls-18" transform="translate(10.55 130.8)">p<tspan class="cls-27" x="4.22" y="0">r</tspan><tspan x="6.9" y="0">og</tspan><tspan class="cls-23" x="15.24" y="0">e</tspan><tspan x="19.26" y="0">tti digitali</tspan></text></g><rect class="cls-16" x="10.5" y="162.9" width="112.3" height="21.1"/><g class="cls-17"><text class="cls-18" transform="translate(10.55 168.61)"><tspan class="cls-30">M</tspan><tspan x="6.68" y="0">onitora lo stato di attuazione </tspan></text><text class="cls-18" transform="translate(10.55 178.21)">della strategia ICT</text></g><rect class="cls-16" x="10.5" y="216" width="121.5" height="73.9"/><g class="cls-17"><text class="cls-18" transform="translate(10.55 221.74)">• <tspan class="cls-34" x="5.54" y="0">R</tspan><tspan x="10.4" y="0">edige, </tspan><tspan class="cls-31" x="32.12" y="0">c</tspan><tspan class="cls-24" x="35.56" y="0">oo</tspan><tspan class="cls-33" x="44.01" y="0">r</tspan><tspan x="46.67" y="0">dina e monitora il </tspan></text><text class="cls-18" transform="translate(10.55 231.34)">Piano <tspan class="cls-38" x="20.78" y="0">T</tspan><tspan class="cls-24" x="24.3" y="0">riennale</tspan></text><text class="cls-18" transform="translate(10.55 243.94)">• Emana le <tspan class="cls-27" x="38.38" y="0">r</tspan><tspan x="41.06" y="0">egole tecniche e </tspan></text><text class="cls-18" transform="translate(10.55 253.54)">definis<tspan class="cls-20" x="22.44" y="0">c</tspan><tspan x="25.88" y="0">e le linee guida</tspan></text><text class="cls-18" transform="translate(10.55 266.14)">• <tspan class="cls-20" x="5.54" y="0">c</tspan><tspan x="8.98" y="0">oo</tspan><tspan class="cls-33" x="17.43" y="0">r</tspan><tspan x="20.1" y="0">dina le p</tspan><tspan class="cls-39" x="48.01" y="0">r</tspan><tspan class="cls-24" x="50.7" y="0">og</tspan><tspan class="cls-32" x="59.03" y="0">e</tspan><tspan x="63.05" y="0">ttualità </tspan></text><text class="cls-18" transform="translate(10.55 275.74)">strategiche per il paese e <tspan class="cls-27" x="85.33" y="0">r</tspan><tspan class="cls-24" x="88.01" y="0" xml:space="preserve">ealizza  le </tspan></text><text class="cls-18" transform="translate(10.55 285.34)">infrastruttu<tspan class="cls-27" x="38.88" y="0">r</tspan><tspan x="41.57" y="0">e immateriali nazionali</tspan></text></g><text class="cls-40" transform="translate(27.45 428.15)">Ruolo</text><path class="cls-41" d="M439.8,273.3H380.5a3.8,3.8,0,0,1-3.8-3.8V242.9a3.8,3.8,0,0,1,3.8-3.8h59.3a3.8,3.8,0,0,1,3.8,3.8v26.6A3.73,3.73,0,0,1,439.8,273.3Z" transform="translate(0.6 -1.7)"/><path class="cls-14" d="M385.6,250.2a2.14,2.14,0,0,1-1.9-.8,5.39,5.39,0,0,1-.5-2.6,4.94,4.94,0,0,1,.5-2.5,2.14,2.14,0,0,1,1.9-.8,11,11,0,0,1,1.8.2v.8a9.85,9.85,0,0,0-1.7-.2,1.17,1.17,0,0,0-1.1.5,6.17,6.17,0,0,0,0,3.8,1.29,1.29,0,0,0,1.1.5,10.28,10.28,0,0,0,1.7-.1v.9A6.72,6.72,0,0,1,385.6,250.2Z" transform="translate(0.6 -1.7)"/><path class="cls-14" d="M388.6,245.9a2.43,2.43,0,0,1,3.2,0,3.49,3.49,0,0,1,0,3.6,2,2,0,0,1-1.6.6,1.84,1.84,0,0,1-1.6-.6,3,3,0,0,1-.5-1.8A2.43,2.43,0,0,1,388.6,245.9Zm.7,3a.89.89,0,0,0,.8.4c.4,0,.7-.1.8-.4a3.73,3.73,0,0,0,.2-1.2,3.26,3.26,0,0,0-.2-1.2,1,1,0,0,0-.8-.4c-.4,0-.7.1-.8.4s-.2.6-.2,1.2A2.87,2.87,0,0,0,389.3,248.9Z" transform="translate(0.6 -1.7)"/><path class="cls-14" d="M394.3,250.1h-1v-4.7h1v.3a2.42,2.42,0,0,1,1.3-.4,1.58,1.58,0,0,1,1.3.5,3.89,3.89,0,0,1,.3,1.8v2.5h-1v-2.5a2.68,2.68,0,0,0-.2-1.1c-.1-.2-.3-.3-.7-.3a2.92,2.92,0,0,0-.9.2l-.1.1v3.6Z" transform="translate(0.6 -1.7)"/><path class="cls-14" d="M401.7,246.3c-.7-.1-1.3-.2-1.6-.2s-.6,0-.7.1a.5.5,0,0,0,0,.8,4.07,4.07,0,0,0,1,.2,2.3,2.3,0,0,1,1.1.4,1.33,1.33,0,0,1,.3,1,1.29,1.29,0,0,1-.5,1.1,2.65,2.65,0,0,1-1.4.3,7.85,7.85,0,0,1-1.4-.2h-.3v-.9c.8.1,1.3.2,1.6.2s.6,0,.7-.1a.5.5,0,0,0,0-.8,1.85,1.85,0,0,0-1-.2,2.3,2.3,0,0,1-1.1-.4,1.33,1.33,0,0,1-.4-1,1.43,1.43,0,0,1,.5-1.1,2.23,2.23,0,0,1,1.3-.4,10.4,10.4,0,0,1,1.5.2l.3.1Z" transform="translate(0.6 -1.7)"/><path class="cls-14" d="M402.8,244.6v-1.1h1v1.1Zm0,5.5v-4.7h1v4.7Z" transform="translate(0.6 -1.7)"/><path class="cls-14" d="M405.1,252.1v-6.7h1v.3a1.92,1.92,0,0,1,1.2-.4,1.68,1.68,0,0,1,1.4.6,3.16,3.16,0,0,1,.4,1.9,3.09,3.09,0,0,1-.5,1.9,1.94,1.94,0,0,1-1.6.5,2.77,2.77,0,0,1-.9-.1v2Zm2-5.9a2.92,2.92,0,0,0-.9.2l-.1.1v2.8c.2,0,.5.1.8.1a1,1,0,0,0,.9-.4c.2-.2.2-.7.2-1.2C408,246.7,407.7,246.2,407.1,246.2Z" transform="translate(0.6 -1.7)"/><path class="cls-12" d="M343.4,274.8H250.1a6.23,6.23,0,0,1-6.2-6.2V223.7a6.23,6.23,0,0,1,6.2-6.2h93.3a6.23,6.23,0,0,1,6.2,6.2v44.9A6.23,6.23,0,0,1,343.4,274.8Z" transform="translate(0.6 -1.7)"/><path class="cls-14" d="M337.7,270.6H255.8a5.38,5.38,0,0,1-5.4-5.4V227a5.38,5.38,0,0,1,5.4-5.4h81.9a5.38,5.38,0,0,1,5.4,5.4v38.2A5.44,5.44,0,0,1,337.7,270.6Z" transform="translate(0.6 -1.7)"/><path class="cls-11" d="M332,265.8H261.5a4.48,4.48,0,0,1-4.5-4.5V230.9a4.48,4.48,0,0,1,4.5-4.5H332a4.48,4.48,0,0,1,4.5,4.5v30.4A4.55,4.55,0,0,1,332,265.8Z" transform="translate(0.6 -1.7)"/><path class="cls-8" d="M326.1,261.3H267.5a3.59,3.59,0,0,1-3.6-3.6V234.5a3.59,3.59,0,0,1,3.6-3.6h58.6a3.59,3.59,0,0,1,3.6,3.6v23.2A3.79,3.79,0,0,1,326.1,261.3Z" transform="translate(0.6 -1.7)"/><path class="cls-14" d="M284,249.8l2-8.8h3.4l2,8.8h-1.8l-.3-1.6h-3.1l-.3,1.6Zm3.3-7.2-.9,4.2h2.4l-.9-4.2Z" transform="translate(0.6 -1.7)"/><path class="cls-14" d="M298,250.7a1.7,1.7,0,0,1-.9,1.6,3.93,3.93,0,0,1-2.3.5,4.32,4.32,0,0,1-2.2-.4,1.49,1.49,0,0,1-.8-1.4,1.89,1.89,0,0,1,.9-1.5,1.1,1.1,0,0,1-.5-1,1.63,1.63,0,0,1,.4-.9l.1-.2a2.08,2.08,0,0,1-.9-1.9,2.14,2.14,0,0,1,.7-1.8,3,3,0,0,1,2-.6,4.1,4.1,0,0,1,1.1.1h.2l2.1-.1v1.4l-1-.1a1.61,1.61,0,0,1,.3.9c0,.9-.2,1.5-.7,1.8a3.58,3.58,0,0,1-2.1.5.75.75,0,0,1-.5-.1,1.09,1.09,0,0,0-.1.5c0,.1.1.2.2.3a2.24,2.24,0,0,0,1,.1,5,5,0,0,1,2.2.4A2.36,2.36,0,0,1,298,250.7Zm-4.4.1c0,.4.5.6,1.4.6s1.4-.2,1.4-.6c0-.2-.1-.4-.2-.4a2.51,2.51,0,0,0-1-.1l-1.2-.1A.62.62,0,0,0,293.6,250.8Zm.1-5.2c0,.6.3.9,1,.9s1-.3,1-.9-.3-.9-1-.9S293.7,244.9,293.7,245.6Z" transform="translate(0.6 -1.7)"/><path class="cls-14" d="M299.2,249.8V241H301v8.8Z" transform="translate(0.6 -1.7)"/><path class="cls-14" d="M305.9,249.8h-3V241h3a9.2,9.2,0,0,1,1.9.2,1.88,1.88,0,0,1,1.1.8,5.17,5.17,0,0,1,.6,1.3,9.2,9.2,0,0,1,.2,1.9,12.12,12.12,0,0,1-.1,2,5.78,5.78,0,0,1-.5,1.4,2.44,2.44,0,0,1-1.1.9A5.11,5.11,0,0,1,305.9,249.8Zm1.8-3.4v-1.1a4.48,4.48,0,0,0-.1-1.2,1.88,1.88,0,0,0-.2-.8,1,1,0,0,0-.6-.5,3.08,3.08,0,0,0-1-.1h-1.2v5.7h1.2a2,2,0,0,0,1.4-.5A2.25,2.25,0,0,0,307.7,246.4Z" transform="translate(0.6 -1.7)"/><g class="cls-17"><text class="cls-42" transform="translate(337.92 208.97)"><tspan class="cls-43">C</tspan><tspan x="4.92" y="0">omitato d’indirizzo</tspan></text><text class="cls-44" transform="translate(367.72 219.97)">A<tspan class="cls-45" x="5.43" y="0">gID</tspan></text></g><rect class="cls-14" x="28.2" y="438.6" width="12.3" height="12.3"/><rect class="cls-8" x="28.2" y="454.9" width="12.3" height="12.3"/><rect class="cls-11" x="28.2" y="471.3" width="12.3" height="12.3"/><g class="cls-17"><text class="cls-46" transform="translate(44.02 448.31)"><tspan class="cls-47">S</tspan><tspan x="4.08" y="0">trategi</tspan><tspan class="cls-48" x="25.44" y="0">c</tspan><tspan x="28.73" y="0">o</tspan></text><text class="cls-46" transform="translate(44.02 463.61)"><tspan class="cls-49">C</tspan><tspan x="4.09" y="0">oo</tspan><tspan class="cls-50" x="12.18" y="0">r</tspan><tspan class="cls-51" x="14.73" y="0">diname</tspan><tspan class="cls-52" x="38.69" y="0">n</tspan><tspan class="cls-53" x="42.78" y="0">to</tspan></text><text class="cls-46" transform="translate(44.02 478.91)">Impleme<tspan class="cls-52" x="28.24" y="0">n</tspan><tspan class="cls-53" x="32.33" y="0">tazione</tspan></text></g><rect class="cls-12" x="111.4" y="439.1" width="12.3" height="12.3"/><rect class="cls-9" x="111.4" y="455.5" width="12.3" height="12.3"/><rect class="cls-41" x="111.4" y="471.8" width="12.3" height="12.3"/><g class="cls-17"><text class="cls-46" transform="translate(126.76 448.82)"><tspan class="cls-54">M</tspan><tspan x="6.4" y="0">onitoraggio</tspan></text><text class="cls-46" transform="translate(126.76 464.12)">Utilizzato<tspan class="cls-49" x="30.29" y="0">r</tspan><tspan x="32.87" y="0">e</tspan></text><text class="cls-46" transform="translate(126.76 479.42)"><tspan class="cls-49">C</tspan><tspan x="4.09" y="0">e</tspan><tspan class="cls-52" x="7.96" y="0">n</tspan><tspan class="cls-53" x="12.05" y="0">trale a</tspan><tspan class="cls-54" x="32.39" y="0">c</tspan><tspan x="35.7" y="0">quisti </tspan><tspan class="cls-55" x="55.09" y="0">P</tspan><tspan x="59.39" y="0">A</tspan></text></g><g class="cls-17"><text class="cls-56" transform="translate(384.03 259.32)">e <tspan class="cls-30" x="5.82" y="0">c</tspan><tspan x="9.32" y="0">entrali di </tspan></text><text class="cls-57" transform="translate(384.03 267.82)">c<tspan class="cls-24" x="3.5" y="0">ommittenza</tspan></text></g><path class="cls-11" d="M439.8,358.72H380.5a3.8,3.8,0,0,1-3.8-3.8v-26.6a3.8,3.8,0,0,1,3.8-3.8h59.3a3.8,3.8,0,0,1,3.8,3.8v26.6A3.73,3.73,0,0,1,439.8,358.72Z" transform="translate(0.6 -1.7)"/><g class="cls-17"><text class="cls-58" transform="translate(280.56 427.53)">Cittadini</text><text class="cls-58" transform="translate(277.56 438.83)">e Imp<tspan class="cls-59" x="22.3" y="0">r</tspan><tspan x="25.66" y="0">ese</tspan></text></g><text class="cls-60" transform="translate(384.03 337.9)">Enti<tspan class="cls-61" x="0" y="10">S</tspan><tspan x="4.85" y="10">trumentali</tspan></text></svg>