<?xml version="1.0" encoding="utf-8"?>
<!-- Generator: Adobe Illustrator 21.1.0, SVG Export Plug-In . SVG Version: 6.00 Build 0)  -->
<svg version="1.1" xmlns="http://www.w3.org/2000/svg" xmlns:xlink="http://www.w3.org/1999/xlink" x="0px" y="0px"
	 viewBox="0 0 480 480" style="enable-background:new 0 0 480 480;" xml:space="preserve">
<style type="text/css">
	.st0{fill:none;stroke:#FFFFFF;stroke-width:1.0799;stroke-miterlimit:10;}
	.st1{fill:none;stroke:#FFFFFF;stroke-miterlimit:10;}
	.st2{fill:#18A07F;}
	.st3{fill:#158467;}
	.st4{fill:#1BBC9B;}
	.st5{fill:#435D74;}
	.st6{fill:#354A5C;}
	.st7{fill:#5C7F9E;}
	.st8{fill:none;}
	.st9{fill:#FFFFFF;}
	.st10{font-family:'TitilliumWeb-SemiBold';}
	.st11{font-size:15px;}
	.st12{fill:#4D9FBC;}
	.st13{fill:#2D8AB5;}
	.st14{fill:#70B2C4;}
	.st15{fill:#FAA426;}
	.st16{fill:#BFD3D6;}
	.st17{fill:#0E4C39;}
	.st18{font-size:8px;}
	.st19{font-size:18px;}
	.st20{font-size:9px;}
	.st21{font-family:'TitilliumWeb-Regular';}
	.st22{fill:#D8E5E1;}
	.st23{fill:#ACDDCE;}
	.st24{fill:#99C1B3;}
	.st25{fill:#84A598;}
	.st26{fill:#D8D7D6;}
	.st27{fill:#BCBCBC;}
	.st28{font-size:28.2385px;}
</style>
<g id="Livello_1">
</g>
<g id="Livello_2">
	<path class="st0" d="M473.6,343.2"/>
	<path class="st1" d="M458,348.5"/>
	<g>
		<rect x="425.3" y="312.5" class="st2" width="32.8" height="23.3"/>
		<g>
			<polygon class="st3" points="458.1,335.8 468,329.1 468,305.7 458.1,312.5 			"/>
			<polygon class="st4" points="435.1,305.7 425.3,312.4 425.3,312.5 458.1,312.5 468,305.7 			"/>
		</g>
	</g>
	<rect x="9.8" y="101.1" class="st5" width="32.8" height="234.7"/>
	<polygon class="st6" points="42.5,335.8 52.5,329.1 52.5,94.4 42.5,101.1 	"/>
	<polygon class="st7" points="19.6,94.4 9.8,101.1 9.8,101.1 42.5,101.1 52.5,94.4 	"/>
	<rect x="10" y="209.1" class="st8" width="32.5" height="12"/>
	<text transform="matrix(1 0 0 1 16.0546 219.7168)" class="st9 st10 st11">5,6</text>
	<rect x="61.2" y="101.1" class="st12" width="32.8" height="30.9"/>
	<g>
		<polygon class="st13" points="94,132 103.9,125.3 103.9,94.4 94,101.1 		"/>
		<polygon class="st14" points="71.1,94.4 61.2,101.1 61.2,101.1 94,101.1 103.9,94.4 		"/>
	</g>
	<rect x="61.3" y="110.6" class="st8" width="32.5" height="12"/>
	<text transform="matrix(1 0 0 1 67.2626 121.209)" class="st9 st10 st11">1,1</text>
	<g>
		<rect x="61.2" y="138" class="st5" width="32.8" height="197.8"/>
		<g>
			<polygon class="st6" points="94,335.8 103.9,329.1 103.9,131.3 94,138 			"/>
			<polygon class="st7" points="71.1,131.3 61.2,138 61.2,138 94,138 103.9,131.3 			"/>
		</g>
	</g>
	<g>
		<rect x="110.4" y="178.1" class="st5" width="32.8" height="157.7"/>
		<g>
			<polygon class="st6" points="143.2,335.8 153.1,329.1 153.1,171.3 143.2,178.1 			"/>
			<polygon class="st7" points="120.2,171.3 110.4,178 110.4,178.1 143.2,178.1 153.1,171.3 			"/>
		</g>
	</g>
	<g>
		<rect x="110.4" y="138" class="st12" width="32.8" height="33.3"/>
		<g>
			<polygon class="st13" points="143.2,171.3 153.1,164.6 153.1,131.3 143.2,138 			"/>
			<polygon class="st14" points="120.2,131.3 110.4,138 110.4,138 143.2,138 153.1,131.3 			"/>
		</g>
	</g>
	<rect x="110.5" y="148.5" class="st8" width="32.5" height="12"/>
	<text transform="matrix(1 0 0 1 116.5312 159.1499)" class="st9 st10 st11">1,2</text>
	<g>
		<rect x="159.6" y="234.2" class="st5" width="32.8" height="101.6"/>
		<g>
			<polygon class="st6" points="192.3,335.8 202.2,329.1 202.2,227.5 192.3,234.2 			"/>
			<polygon class="st7" points="169.4,227.5 159.6,234.2 159.6,234.2 192.3,234.2 202.2,227.5 			"/>
		</g>
	</g>
	<g>
		<rect x="159.6" y="178.1" class="st12" width="32.8" height="49.4"/>
		<g>
			<polygon class="st13" points="192.3,227.5 202.2,220.7 202.2,171.3 192.3,178.1 			"/>
			<polygon class="st14" points="169.4,171.3 159.6,178 159.6,178.1 192.3,178.1 202.2,171.3 			"/>
		</g>
	</g>
	<rect x="160.1" y="196.8" class="st8" width="32.5" height="12"/>
	<text transform="matrix(1 0 0 1 166.0614 207.3874)" class="st9 st10 st11">1,4</text>
	<g>
		<rect x="208.7" y="234.2" class="st15" width="32.8" height="22.8"/>
		<rect x="208.7" y="234.2" class="st12" width="32.8" height="22.8"/>
		<polygon class="st13" points="241.5,257 251.4,250.2 251.4,227.5 241.5,234.2 		"/>
		<polygon class="st14" points="218.6,227.5 208.7,234.1 208.7,234.2 241.5,234.2 251.4,227.5 		"/>
	</g>
	<rect x="208.9" y="240.3" class="st8" width="32.5" height="12"/>
	<text transform="matrix(1 0 0 1 210.6581 250.9219)" class="st9 st10 st11">0,15</text>
	<g>
		<rect x="208.7" y="263.7" class="st15" width="32.8" height="72.1"/>
		<rect x="208.7" y="263.7" class="st5" width="32.8" height="72.1"/>
		<polygon class="st6" points="241.5,335.8 251.4,329.1 251.4,257 241.5,263.7 		"/>
		<polygon class="st7" points="218.6,257 208.7,263.7 208.7,263.7 241.5,263.7 251.4,257 		"/>
	</g>
	<polygon class="st16" points="259.5,-317.8 259.5,-350.6 531.9,-350.6 538.6,-334.2 531.9,-317.8 	"/>
	<rect x="257.9" y="263.7" class="st2" width="32.8" height="72.1"/>
	<g>
		<polygon class="st3" points="290.6,335.8 300.6,329.1 300.6,257 290.6,263.7 		"/>
		<polygon class="st4" points="267.7,257 257.9,263.7 257.9,263.7 290.6,263.7 300.6,257 		"/>
	</g>
	<rect x="257.9" y="306" class="st3" width="32.8" height="30"/>
	<g>
		<polygon class="st17" points="290.6,336 300.6,329.3 300.6,299.3 290.6,306 		"/>
	</g>
	<rect x="258.4" y="294" class="st8" width="32.5" height="12"/>
	<text transform="matrix(1 0 0 1 264.3607 304.6201)" class="st9 st10 st11">1,7</text>
	<rect x="425.4" y="313.9" class="st8" width="32.5" height="20.5"/>
	<text transform="matrix(1 0 0 1 431.4457 324.5195)"><tspan x="0" y="0" class="st9 st10 st11">0,8</tspan><tspan x="-1.6" y="9.6" class="st9 st10 st18">Mld/€</tspan></text>
	<polygon class="st3" points="406.6,329.2 351.9,329.2 314.2,329.2 314.2,308.4 314.2,289.1 351.9,289.1 406.6,289.1 419.5,308.4 	
		"/>
	<g>
		<rect x="320" y="296.6" class="st8" width="81.1" height="25"/>
		<text transform="matrix(1 0 0 1 345.3799 309.3394)"><tspan x="0" y="0" class="st9 st10 st19">50%</tspan><tspan x="-24.6" y="10.8" class="st9 st10 st20">della spesa  corrente</tspan></text>
	</g>
	<polygon class="st3" points="314.2,329.2 300.6,329.2 300.6,299.3 314.2,289.1 	"/>
	<rect x="65.5" y="81.1" class="st8" width="83.1" height="12"/>
	<text transform="matrix(1 0 0 1 70.5339 87.6091)" class="st5 st21 st20">Sogei - INAIL- INPS</text>
	<rect x="213.1" y="217.7" class="st8" width="60.5" height="12.9"/>
	<text transform="matrix(1 0 0 1 218.067 224.1275)" class="st5 st21 st20">Connettività</text>
	<rect x="114.8" y="118.1" class="st8" width="105.4" height="12"/>
	<text transform="matrix(1 0 0 1 119.8293 124.5931)" class="st5 st21 st20">Spesa d’investimento</text>
	<rect x="163.8" y="145.3" class="st8" width="91.2" height="24.7"/>
	<text transform="matrix(1 0 0 1 168.7995 151.7734)"><tspan x="0" y="0" class="st5 st21 st20">Consip</tspan><tspan x="0" y="13" class="st5 st21 st20">Soggetti aggregatori</tspan></text>
	<polygon class="st8" points="338,257.6 262.2,257.4 262.2,243.8 338,244 	"/>
	<text transform="matrix(1 0 0 1 267.2136 250.2319)" class="st5 st21 st20">Spesa corrente</text>
	<rect x="14.2" y="81.1" class="st8" width="47.1" height="13.9"/>
	<text transform="matrix(1 0 0 1 19.2045 87.6088)" class="st5 st21 st20">Spesa ITC</text>
	<g>
		<polygon class="st22" points="258,336 264.7,345.9 297.4,345.9 290.6,336 		"/>
	</g>
	<g>
		<polygon class="st22" points="420,345.9 426.7,336 459.4,336 452.6,345.9 		"/>
	</g>
	<rect x="264.7" y="345.8" class="st23" width="91" height="74.2"/>
	<rect x="265.2" y="379.2" class="st8" width="90" height="34.6"/>
	<text transform="matrix(1 0 0 1 270.1667 384.9229)"><tspan x="0" y="0" class="st21 st18">La spesa corrente </tspan><tspan x="0" y="9" class="st21 st18">rappresenta la spesa </tspan><tspan x="0" y="18" class="st21 st18">aggredibile ai fini della </tspan><tspan x="0" y="27" class="st21 st18">spending review</tspan></text>
	<rect x="361.7" y="345.8" class="st23" width="91" height="74.2"/>
	<rect x="361.7" y="345.8" class="st24" width="91" height="28.4"/>
	<rect x="362" y="379.2" class="st8" width="90" height="34.6"/>
	<text transform="matrix(1 0 0 1 367 384.9229)"><tspan x="0" y="0" class="st21 st18">Obiettivo della </tspan><tspan x="0" y="9" class="st21 st18">trasformazione/rispar</tspan><tspan x="74.1" y="9" class="st21 st18">-</tspan><tspan x="0" y="18" class="st21 st18">mio della spesa per il </tspan><tspan x="0" y="27" class="st21 st18">triennio 2016-2018</tspan></text>
	<g>
		<g>
			<path class="st25" d="M421.5,356.6c-0.1,0-0.2,0-0.2,0.2c0,0,0,0.1,0,0.1c0,0.1-0.1,0.2-0.2,0.4c-0.1,0.1-0.1,0.2-0.2,0.3
				c-0.1-0.2-0.1-0.3-0.2-0.5c-0.1-0.1-0.1-0.2-0.2-0.4c0-0.1-0.1-0.1-0.1-0.2c0,0,0-0.1-0.1-0.1l0,0l0,0l0,0c0,0-0.1-0.1-0.1-0.2
				c-0.1-0.1-0.1-0.1-0.2-0.2c-0.1-0.1-0.3-0.2-0.5-0.3c-0.4-0.1-0.8-0.1-1.2,0c-0.2,0.1-0.4,0.2-0.5,0.4c-0.1,0.1-0.2,0.3-0.3,0.5
				c-0.1,0.4-0.1,0.7-0.1,1c0.1,0.3,0.2,0.6,0.3,0.8l0.1,0.2c0,0,0.1,0.1,0.1,0.2c0.1,0.1,0.2,0.2,0.4,0.3c0.2,0.1,0.3,0.1,0.5,0.2
				c-0.1,0.1-0.3,0.1-0.4,0.2c-0.3,0.1-0.6,0.1-0.8,0.2c-0.1,0-0.1,0-0.2,0c-1.3-3.7-5.2-6.3-9.9-6.3c-1.9,0-3.7,0.4-5.3,1.2
				c-1.3-1.5-3.7-1.8-4.2-1.8v0c0,0,0,0,0,0c0,0,0,0,0,0s-1,2.9,0.3,4.8c0,0.1,0.1,0.1,0.2,0.2c-0.3,0.4-0.5,0.9-0.7,1.3
				c-0.3,0.7-0.9,1.1-1.6,1.1h0v0c0,0-0.1,0-0.1,0c-0.5,0-0.9,0.9-0.9,2.1l0,0l0,0l0,0c0,1.2,0.4,2.1,0.9,2.1c0,0,0.1,0,0.1,0v0h0
				c0.8,0,1.5,0.4,1.8,1.1c0.6,1.2,1.4,2.2,2.5,3v2.8h0c0,0,0,0,0,0c0,0.5,0.9,1,2.1,1c1.2,0,2.1-0.4,2.1-1c0,0,0,0,0,0h0v-0.7
				c0.9,0.2,1.9,0.3,2.9,0.3c0.9,0,1.8-0.1,2.6-0.3v0.7h0c0,0,0,0,0,0c0,0.5,0.9,1,2.1,1c1.2,0,2.1-0.4,2.1-1c0,0,0,0,0,0h0v-2.6
				c2.1-1.6,3.5-4,3.5-6.6c0-0.4,0-0.8-0.1-1.2c0.3,0,0.7,0,1-0.1c0.4-0.1,0.8-0.2,1.2-0.5c0.2-0.1,0.4-0.3,0.6-0.5
				c0.2-0.2,0.3-0.5,0.4-0.8c0-0.2,0.1-0.3,0.1-0.5c0.1-0.1,0.1-0.1,0.1-0.2c0.2-0.2,0.3-0.5,0.4-0.7c0.1-0.2,0.1-0.4,0.1-0.5
				c0-0.1,0-0.2,0-0.2v0C421.7,356.7,421.6,356.6,421.5,356.6z M419.1,357.3C419.1,357.3,419.1,357.3,419.1,357.3L419.1,357.3z
				 M418.6,357.9c-0.1-0.3-0.1-0.6,0-0.8c0-0.1,0.1-0.1,0.1-0.1c0,0,0.1,0,0.2,0c0,0,0.1,0,0.1,0.1c0,0,0,0,0.1,0
				c0,0,0.1,0.1,0.1,0.1l0,0l0,0l0,0c0,0,0,0,0,0.1c0,0,0.1,0.1,0.1,0.1c0.1,0.1,0.1,0.1,0.1,0.2c0.1,0.1,0.1,0.3,0.2,0.4
				c0,0.1,0,0.1,0,0.1c-0.2,0-0.3,0.1-0.5,0c-0.1,0-0.3-0.1-0.3-0.1C418.7,358.2,418.6,358.1,418.6,357.9z"/>
		</g>
		<g>
			<path class="st9" d="M413.7,365.4h-4.2v5.1h0c0,0,0,0,0,0c0,0.5,0.9,1,2.1,1c1.2,0,2.1-0.4,2.1-1c0,0,0,0,0,0h0V365.4z"/>
			<path class="st9" d="M404,365.4h-4.2v5.1h0c0,0,0,0,0,0c0,0.5,0.9,1,2.1,1c1.2,0,2.1-0.4,2.1-1c0,0,0,0,0,0h0V365.4z"/>
			<g>
				
					<ellipse transform="matrix(0.8239 -0.5667 0.5667 0.8239 -131.0611 289.1119)" class="st9" cx="399.7" cy="355.5" rx="2.5" ry="4.2"/>
			</g>
			<g>
				<path class="st26" d="M397.7,357c0.3-0.3,0.5-0.7,0.6-1.1c0.4-1.4,0.1-2.8-1-3.8c0,0-0.1,0-0.1,0S396.4,355,397.7,357
					C397.7,356.9,397.7,356.9,397.7,357z"/>
			</g>
			<g>
				<path class="st9" d="M406.8,352.6c-4.5,0-8.3,2.4-9.7,5.8c-0.3,0.7-0.9,1.1-1.6,1.1h0v4.2h0c0.8,0,1.5,0.4,1.8,1.1
					c1.6,3.2,5.2,5.4,9.5,5.4c5.7,0,10.3-3.9,10.3-8.8C417.2,356.5,412.6,352.6,406.8,352.6z"/>
			</g>
			<g>
				<ellipse class="st26" cx="395.4" cy="361.6" rx="0.9" ry="2.1"/>
			</g>
			<g>
				<circle class="st27" cx="399.2" cy="359.2" r="0.6"/>
			</g>
			<g>
				<path class="st26" d="M410.4,355.1c0,0-0.1,0-0.2,0c-2-0.5-4.1-0.5-6.1,0c-0.3,0.1-0.7-0.1-0.8-0.5c-0.1-0.3,0.1-0.7,0.5-0.8
					c2.2-0.5,4.5-0.5,6.7,0c0.3,0.1,0.6,0.4,0.5,0.8C410.9,354.9,410.7,355.1,410.4,355.1z"/>
			</g>
			<g>
				<ellipse class="st27" cx="394.8" cy="361.6" rx="0.3" ry="0.7"/>
			</g>
			<g>
				<path class="st9" d="M415.8,358.9c0,0,0.1,0,0.2,0c0.1,0,0.2,0,0.4,0c0.2,0,0.4,0,0.6,0c0.2,0,0.5-0.1,0.8-0.2
					c0.3-0.1,0.6-0.2,0.8-0.4c0.2-0.2,0.4-0.4,0.5-0.6c0-0.1,0-0.2,0-0.3c0-0.1-0.1-0.3-0.2-0.4c0-0.1-0.1-0.1-0.1-0.2
					c0,0-0.1-0.1-0.1-0.1c0,0,0,0,0-0.1l0,0l0,0l0,0c0,0,0,0,0,0l0,0c0,0-0.1-0.1-0.1-0.1c0,0,0,0-0.1,0c0,0-0.1-0.1-0.1-0.1
					c-0.1,0-0.1,0-0.2,0c0,0-0.1,0-0.1,0.1c-0.1,0.1-0.1,0.5,0,0.8c0.1,0.2,0.1,0.2,0.2,0.3c0.1,0.1,0.2,0.1,0.3,0.1
					c0.3,0,0.6,0,0.9-0.2c0.3-0.1,0.5-0.3,0.7-0.4c0.2-0.2,0.3-0.3,0.4-0.5c0.1-0.2,0.1-0.3,0.2-0.4c0-0.1,0-0.1,0-0.1
					c0-0.1,0.1-0.2,0.2-0.2c0.1,0,0.2,0.1,0.2,0.2v0c0,0,0,0.1,0,0.2c0,0.1,0,0.3-0.1,0.5c-0.1,0.2-0.2,0.5-0.4,0.7
					c-0.2,0.2-0.5,0.5-0.8,0.7c-0.3,0.2-0.8,0.4-1.3,0.4c-0.3,0-0.6,0-0.8-0.2c-0.1-0.1-0.3-0.2-0.4-0.3c0-0.1-0.1-0.2-0.1-0.2
					l-0.1-0.2c-0.1-0.2-0.2-0.5-0.3-0.8c-0.1-0.3-0.1-0.7,0.1-1c0.1-0.2,0.2-0.3,0.3-0.5c0.1-0.1,0.3-0.3,0.5-0.4
					c0.4-0.2,0.8-0.2,1.2,0c0.2,0.1,0.3,0.2,0.5,0.3c0.1,0.1,0.1,0.1,0.2,0.2c0.1,0.1,0.1,0.1,0.1,0.2l0,0l0,0l0,0
					c0,0,0,0.1,0.1,0.1c0,0.1,0.1,0.1,0.1,0.2c0.1,0.1,0.2,0.2,0.2,0.4c0.1,0.2,0.2,0.5,0.3,0.8c0.1,0.3,0.1,0.6,0,1
					c-0.1,0.3-0.2,0.6-0.4,0.8c-0.2,0.2-0.4,0.4-0.6,0.5c-0.4,0.3-0.8,0.4-1.2,0.5c-0.8,0.2-1.4,0.1-1.9,0.1c-0.2,0-0.4-0.1-0.5-0.1
					c-0.1,0-0.2,0-0.2,0c-0.3-0.1-0.5-0.4-0.4-0.7C415.2,359.1,415.5,358.9,415.8,358.9L415.8,358.9z"/>
			</g>
		</g>
	</g>
	<rect x="264.7" y="345.8" class="st24" width="91" height="28.4"/>
	<g>
		<text transform="matrix(1 0 0 1 302.2594 371.7925)" class="st25 st10 st28">€</text>
		<text transform="matrix(1 0 0 1 302.2594 371.1602)" class="st9 st10 st28">€</text>
	</g>
</g>
</svg>
